mtllib segment1.mtl
o Default
v 0 0 0
v 0 0 -1
v 1 0 -1
v 1 0 0
v 1 0 0
v 2 0 -1
v 1 0 -1
v 2 0 0
v 2 0 0
v 3 0 -1
v 2 0 -1
v 3 0 0
v 3 0 0
v 4 0 -1
v 3 0 -1
v 4 0 0
v 0 0 0
v 0 1 -1
v -1.1102230246251565e-16 1 0
v 0 0 -1
v -1.1102230246251565e-16 1 0
v 0 2 -1
v -1.1102230246251565e-16 2 0
v 0 1 -1
v -1.1102230246251565e-16 2 0
v 0 3 -1
v -1.1102230246251565e-16 3 0
v 0 2 -1
v -1.1102230246251565e-16 3 0
v 0 4 -1
v -1.1102230246251565e-16 4 0
v 0 3 -1
v 4 0 -1
v 4 1 0
v 4 1 -1
v 4 0 0
v 4 1 -1
v 4 2 0
v 4 2 -1
v 4 1 0
v 4 2 -1
v 4 3 0
v 4 3 -1
v 4 2 0
v 4 3 -1
v 4 4 0
v 4 4 -1
v 4 3 0
v 3 4 -1
v 4 4 0
v 3 4 0
v 4 4 -1
v 2 4 -1
v 3 4 0
v 2 4 0
v 3 4 -1
v 1 4 -1
v 2 4 0
v 1 4 0
v 2 4 -1
v 0 4 -1
v 1 4 0
v -1.1102230246251565e-16 4 0
v 1 4 -1
v 5 3 -2
v 4 4 -1
v 5 4 -2
v 4 3 -1
v 6 3 -3
v 5 4 -2
v 6 4 -3
v 5 3 -2
v 5 2 -2
v 4 3 -1
v 5 3 -2
v 4 2 -1
v 6 2 -3
v 5 3 -2
v 6 3 -3
v 5 2 -2
v 5 1 -2
v 4 2 -1
v 5 2 -2
v 4 1 -1
v 6 1 -3
v 5 2 -2
v 6 2 -3
v 5 1 -2
v 5 0 -2
v 4 1 -1
v 5 1 -2
v 4 0 -1
v 6 0 -3
v 5 1 -2
v 6 1 -3
v 5 0 -2
v 7 0 -4
v 6 1 -3
v 7 1 -4
v 6 0 -3
v 7 1 -4
v 6 2 -3
v 7 2 -4
v 6 1 -3
v 7 2 -4
v 6 3 -3
v 7 3 -4
v 6 2 -3
v 7 3 -4
v 6 4 -3
v 7 4 -4
v 6 3 -3
v 8 3 -5
v 7 4 -4
v 8 4 -5
v 7 3 -4
v 8 2 -5
v 7 3 -4
v 8 3 -5
v 7 2 -4
v 8 1 -5
v 7 2 -4
v 8 2 -5
v 7 1 -4
v 8 0 -5
v 7 1 -4
v 8 1 -5
v 7 0 -4
v 3 4 -2
v 4 4 -1
v 3 4 -1
v 5 4 -2
v 3 4 -3
v 5 4 -2
v 3 4 -2
v 6 4 -3
v -2 2 -3
v -3 3 -4
v -2 3 -3
v -3 2 -4
v 3 4 -5
v 7 4 -4
v 3 4 -4
v 8 4 -5
v 3 4 -4
v 6 4 -3
v 3 4 -3
v 7 4 -4
v 2 4 -2
v 3 4 -1
v 2 4 -1
v 3 4 -2
v 2 4 -3
v 3 4 -2
v 2 4 -2
v 3 4 -3
v 2 4 -4
v 3 4 -3
v 2 4 -3
v 3 4 -4
v 2 4 -5
v 3 4 -4
v 2 4 -4
v 3 4 -5
v 1 4 -2
v 2 4 -1
v 1 4 -1
v 2 4 -2
v 1 4 -3
v 2 4 -2
v 1 4 -2
v 2 4 -3
v 1 4 -4
v 2 4 -3
v 1 4 -3
v 2 4 -4
v 1 4 -5
v 2 4 -4
v 1 4 -4
v 2 4 -5
v -1 4 -2
v 1 4 -1
v 0 4 -1
v 1 4 -2
v -2 4 -3
v 1 4 -2
v -1 4 -2
v 1 4 -3
v -3 4 -4
v 1 4 -3
v -2 4 -3
v 1 4 -4
v -4 4 -5
v 1 4 -4
v -3 4 -4
v 1 4 -5
v 3 0 -1
v 5 0 -2
v 3 0 -2
v 4 0 -1
v 3 0 -2
v 6 0 -3
v 3 0 -3
v 5 0 -2
v 3 0 -3
v 7 0 -4
v 3 0 -4
v 6 0 -3
v 3 0 -4
v 8 0 -5
v 3 0 -5
v 7 0 -4
v 2 0 -4
v 3 0 -5
v 2 0 -5
v 3 0 -4
v 1 0 -4
v 2 0 -5
v 1 0 -5
v 2 0 -4
v -3 0 -4
v 1 0 -5
v -4 0 -5
v 1 0 -4
v -2 0 -3
v 1 0 -4
v -3 0 -4
v 1 0 -3
v -1 0 -2
v 1 0 -3
v -2 0 -3
v 1 0 -2
v 0 0 -1
v 1 0 -2
v -1 0 -2
v 1 0 -1
v 1 0 -1
v 2 0 -2
v 1 0 -2
v 2 0 -1
v 2 0 -1
v 3 0 -2
v 2 0 -2
v 3 0 -1
v 2 0 -2
v 3 0 -3
v 2 0 -3
v 3 0 -2
v 2 0 -3
v 3 0 -4
v 2 0 -4
v 3 0 -3
v 1 0 -3
v 2 0 -4
v 1 0 -4
v 2 0 -3
v 1 0 -2
v 2 0 -3
v 1 0 -3
v 2 0 -2
v -3 0 -4
v -4 1 -5
v -3 1 -4
v -4 0 -5
v -3 1 -4
v -4 2 -5
v -3 2 -4
v -4 1 -5
v -3 2 -4
v -4 3 -5
v -3 3 -4
v -4 2 -5
v -3 3 -4
v -4 4 -5
v -3 4 -4
v -4 3 -5
v -2 3 -3
v -3 4 -4
v -2 4 -3
v -3 3 -4
v -1 3 -2
v -2 4 -3
v -1 4 -2
v -2 3 -3
v 0 3 -1
v -1 4 -2
v 0 4 -1
v -1 3 -2
v 0 2 -1
v -1 3 -2
v 0 3 -1
v -1 2 -2
v 0 1 -1
v -1 2 -2
v 0 2 -1
v -1 1 -2
v -1 1 -2
v -2 2 -3
v -1 2 -2
v -2 1 -3
v -1 2 -2
v -2 3 -3
v -1 3 -2
v -2 2 -3
v -1 0 -2
v -2 1 -3
v -1 1 -2
v -2 0 -3
v -2 0 -3
v -3 1 -4
v -2 1 -3
v -3 0 -4
v -2 1 -3
v -3 2 -4
v -2 2 -3
v -3 1 -4
v 0 0 -1
v -1 1 -2
v 0 1 -1
v -1 0 -2
v 3 0 -5
v 4 1 -5
v 3 1 -5
v 4 0 -5
v 2 0 -5
v 3 1 -5
v 2 1 -5
v 3 0 -5
v 1 0 -5
v 2 1 -5
v 1 1 -5
v 2 0 -5
v 0 0 -5
v 1 1 -5
v 0 1 -5
v 1 0 -5
v 0 1 -5
v 1 2 -5
v 0 2 -5
v 1 1 -5
v 1 1 -5
v 2 2 -5
v 1 2 -5
v 2 1 -5
v 2 1 -5
v 3 2 -5
v 2 2 -5
v 3 1 -5
v 3 1 -5
v 4 2 -5
v 3 2 -5
v 4 1 -5
v 3 2 -5
v 4 3 -5
v 3 3 -5
v 4 2 -5
v 1 2 -5
v 2 3 -5
v 1 3 -5
v 2 2 -5
v 0 2 -5
v 1 3 -5
v 0 3 -5
v 1 2 -5
v 1 3 -5
v 2 4 -5
v 1 4 -5
v 2 3 -5
v 2 3 -5
v 3 4 -5
v 2 4 -5
v 3 3 -5
v 3 3 -5
v 4 4 -5
v 3 4 -5
v 4 3 -5
v 2 2 -5
v 3 3 -5
v 2 3 -5
v 3 2 -5
v 0 3 -5
v 1 4 -5
v 0 4 -5
v 1 3 -5
v 4 0 -5
v 4 1 -6
v 4 1 -5
v 4 0 -6
v 4 1 -5
v 4 2 -6
v 4 2 -5
v 4 1 -6
v 4 2 -5
v 4 3 -6
v 4 3 -5
v 4 2 -6
v 4 3 -5
v 4 4 -6
v 4 4 -5
v 4 3 -6
v 4 3 -6
v 4 4 -7
v 4 4 -6
v 4 3 -7
v 4 2 -6
v 4 3 -7
v 4 3 -6
v 4 2 -7
v 4 1 -6
v 4 2 -7
v 4 2 -6
v 4 1 -7
v 4 0 -6
v 4 1 -7
v 4 1 -6
v 4 0 -7
v 4 0 -7
v 4 1 -8
v 4 1 -7
v 4 0 -8
v 4 1 -7
v 4 2 -8
v 4 2 -7
v 4 1 -8
v 4 2 -7
v 4 3 -8
v 4 3 -7
v 4 2 -8
v 4 3 -7
v 4 4 -8
v 4 4 -7
v 4 3 -8
v 4 3 -8
v 4 4 -9
v 4 4 -8
v 4 3 -9
v 4 2 -8
v 4 3 -9
v 4 3 -8
v 4 2 -9
v 4 1 -8
v 4 2 -9
v 4 2 -8
v 4 1 -9
v 4 0 -8
v 4 1 -9
v 4 1 -8
v 4 0 -9
v 8 0 -6
v 8 1 -5
v 8 1 -6
v 8 0 -5
v 8 1 -6
v 8 2 -5
v 8 2 -6
v 8 1 -5
v 8 2 -6
v 8 3 -5
v 8 3 -6
v 8 2 -5
v 8 3 -6
v 8 4 -5
v 8 4 -6
v 8 3 -5
v 8 0 -7
v 8 1 -6
v 8 1 -7
v 8 0 -6
v 8 1 -7
v 8 2 -6
v 8 2 -7
v 8 1 -6
v 8 2 -7
v 8 3 -6
v 8 3 -7
v 8 2 -6
v 8 3 -7
v 8 4 -6
v 8 4 -7
v 8 3 -6
v 8 0 -8
v 8 1 -7
v 8 1 -8
v 8 0 -7
v 8 1 -8
v 8 2 -7
v 8 2 -8
v 8 1 -7
v 8 2 -8
v 8 3 -7
v 8 3 -8
v 8 2 -7
v 8 3 -8
v 8 4 -7
v 8 4 -8
v 8 3 -7
v 8 0 -9
v 8 1 -8
v 8 1 -9
v 8 0 -8
v 8 1 -9
v 8 2 -8
v 8 2 -9
v 8 1 -8
v 8 2 -9
v 8 3 -8
v 8 3 -9
v 8 2 -8
v 8 3 -9
v 8 4 -8
v 8 4 -9
v 8 3 -8
v 7 0 -5
v 8 0 -6
v 7 0 -6
v 8 0 -5
v 6 0 -5
v 7 0 -6
v 6 0 -6
v 7 0 -5
v 5 0 -5
v 6 0 -6
v 5 0 -6
v 6 0 -5
v 4 0 -5
v 5 0 -6
v 4 0 -6
v 5 0 -5
v 4 0 -6
v 5 0 -7
v 4 0 -7
v 5 0 -6
v 4 0 -7
v 5 0 -8
v 4 0 -8
v 5 0 -7
v 4 0 -8
v 5 0 -9
v 4 0 -9
v 5 0 -8
v 5 0 -8
v 6 0 -9
v 5 0 -9
v 6 0 -8
v 6 0 -8
v 7 0 -9
v 6 0 -9
v 7 0 -8
v 7 0 -8
v 8 0 -9
v 7 0 -9
v 8 0 -8
v 7 0 -7
v 8 0 -8
v 7 0 -8
v 8 0 -7
v 7 0 -6
v 8 0 -7
v 7 0 -7
v 8 0 -6
v 6 0 -6
v 7 0 -7
v 6 0 -7
v 7 0 -6
v 5 0 -6
v 6 0 -7
v 5 0 -7
v 6 0 -6
v 5 0 -7
v 6 0 -8
v 5 0 -8
v 6 0 -7
v 6 0 -7
v 7 0 -8
v 6 0 -8
v 7 0 -7
v 4 4 -9
v 5 4 -8
v 4 4 -8
v 5 4 -9
v 4 4 -8
v 5 4 -7
v 4 4 -7
v 5 4 -8
v 4 4 -7
v 5 4 -6
v 4 4 -6
v 5 4 -7
v 4 4 -6
v 5 4 -5
v 4 4 -5
v 5 4 -6
v 5 4 -6
v 6 4 -5
v 5 4 -5
v 6 4 -6
v 6 4 -6
v 7 4 -5
v 6 4 -5
v 7 4 -6
v 7 4 -6
v 8 4 -5
v 7 4 -5
v 8 4 -6
v 7 4 -7
v 8 4 -6
v 7 4 -6
v 8 4 -7
v 7 4 -8
v 8 4 -7
v 7 4 -7
v 8 4 -8
v 7 4 -9
v 8 4 -8
v 7 4 -8
v 8 4 -9
v 6 4 -9
v 7 4 -8
v 6 4 -8
v 7 4 -9
v 5 4 -9
v 6 4 -8
v 5 4 -8
v 6 4 -9
v 5 4 -8
v 6 4 -7
v 5 4 -7
v 6 4 -8
v 5 4 -7
v 6 4 -6
v 5 4 -6
v 6 4 -7
v 6 4 -7
v 7 4 -6
v 6 4 -6
v 7 4 -7
v 6 4 -8
v 7 4 -7
v 6 4 -7
v 7 4 -8
v -4 0 -8
v -3 0 -9
v -4 0 -9
v -3 0 -8
v -4 0 -8
v -4 1 -9
v -4 1 -8
v -4 0 -9
v -4 0 -7
v -3 0 -8
v -4 0 -8
v -3 0 -7
v -4 0 -6
v -3 0 -7
v -4 0 -7
v -3 0 -6
v -4 0 -5
v -3 0 -6
v -4 0 -6
v -3 0 -5
v -4 0 -7
v -4 1 -8
v -4 1 -7
v -4 0 -8
v -4 0 -6
v -4 1 -7
v -4 1 -6
v -4 0 -7
v -4 0 -5
v -4 1 -6
v -4 1 -5
v -4 0 -6
v -4 4 -9
v -3 4 -8
v -4 4 -8
v -3 4 -9
v -4 1 -8
v -4 2 -9
v -4 2 -8
v -4 1 -9
v -4 2 -8
v -4 3 -9
v -4 3 -8
v -4 2 -9
v -4 3 -8
v -4 4 -9
v -4 4 -8
v -4 3 -9
v -4 4 -6
v -3 4 -5
v -4 4 -5
v -3 4 -6
v -4 4 -7
v -3 4 -6
v -4 4 -6
v -3 4 -7
v -4 4 -8
v -3 4 -7
v -4 4 -7
v -3 4 -8
v -4 3 -7
v -4 4 -8
v -4 4 -7
v -4 3 -8
v -4 2 -7
v -4 3 -8
v -4 3 -7
v -4 2 -8
v -4 1 -7
v -4 2 -8
v -4 2 -7
v -4 1 -8
v -4 1 -6
v -4 2 -7
v -4 2 -6
v -4 1 -7
v -4 2 -6
v -4 3 -7
v -4 3 -6
v -4 2 -7
v -4 3 -6
v -4 4 -7
v -4 4 -6
v -4 3 -7
v -4 3 -5
v -4 4 -6
v -4 4 -5
v -4 3 -6
v -4 2 -5
v -4 3 -6
v -4 3 -5
v -4 2 -6
v -4 1 -5
v -4 2 -6
v -4 2 -5
v -4 1 -6
v -1 0 -8
v 0 0 -9
v -1 0 -9
v 0 0 -8
v -2 0 -8
v -1 0 -9
v -2 0 -9
v -1 0 -8
v -3 0 -8
v -2 0 -9
v -3 0 -9
v -2 0 -8
v 0 0 -9
v 0 1 -8
v 0 1 -9
v 0 0 -8
v -2 0 -7
v -1 0 -8
v -2 0 -8
v -1 0 -7
v -3 0 -7
v -2 0 -8
v -3 0 -8
v -2 0 -7
v -3 0 -6
v -2 0 -7
v -3 0 -7
v -2 0 -6
v -2 0 -6
v -1 0 -7
v -2 0 -7
v -1 0 -6
v -1 0 -6
v 0 0 -7
v -1 0 -7
v 0 0 -6
v -1 0 -7
v 0 0 -8
v -1 0 -8
v 0 0 -7
v -3 0 -5
v -2 0 -6
v -3 0 -6
v -2 0 -5
v -2 0 -5
v -1 0 -6
v -2 0 -6
v -1 0 -5
v -1 0 -5
v 0 0 -6
v -1 0 -6
v 0 0 -5
v 0 0 -8
v 0 1 -7
v 0 1 -8
v 0 0 -7
v 0 0 -7
v 0 1 -6
v 0 1 -7
v 0 0 -6
v 0 0 -6
v 0 1 -5
v 0 1 -6
v 0 0 -5
v -3 4 -9
v -2 4 -8
v -3 4 -8
v -2 4 -9
v -2 4 -9
v -1 4 -8
v -2 4 -8
v -1 4 -9
v -1 4 -9
v 0 4 -8
v -1 4 -8
v 0 4 -9
v 0 3 -9
v 0 4 -8
v 0 4 -9
v 0 3 -8
v 0 2 -9
v 0 3 -8
v 0 3 -9
v 0 2 -8
v 0 1 -9
v 0 2 -8
v 0 2 -9
v 0 1 -8
v -2 4 -8
v -1 4 -7
v -2 4 -7
v -1 4 -8
v -2 4 -7
v -1 4 -6
v -2 4 -6
v -1 4 -7
v -3 4 -7
v -2 4 -6
v -3 4 -6
v -2 4 -7
v -3 4 -8
v -2 4 -7
v -3 4 -7
v -2 4 -8
v -1 4 -8
v 0 4 -7
v -1 4 -7
v 0 4 -8
v -1 4 -7
v 0 4 -6
v -1 4 -6
v 0 4 -7
v -1 4 -6
v 0 4 -5
v -1 4 -5
v 0 4 -6
v -2 4 -6
v -1 4 -5
v -2 4 -5
v -1 4 -6
v -3 4 -6
v -2 4 -5
v -3 4 -5
v -2 4 -6
v 0 3 -8
v 0 4 -7
v 0 4 -8
v 0 3 -7
v 0 2 -8
v 0 3 -7
v 0 3 -8
v 0 2 -7
v 0 1 -8
v 0 2 -7
v 0 2 -8
v 0 1 -7
v 0 3 -7
v 0 4 -6
v 0 4 -7
v 0 3 -6
v 0 2 -7
v 0 3 -6
v 0 3 -7
v 0 2 -6
v 0 1 -7
v 0 2 -6
v 0 2 -7
v 0 1 -6
v 0 3 -6
v 0 4 -5
v 0 4 -6
v 0 3 -5
v 0 2 -6
v 0 3 -5
v 0 3 -6
v 0 2 -5
v 0 1 -6
v 0 2 -5
v 0 2 -6
v 0 1 -5
v -4 4 -10
v -3 4 -9
v -4 4 -9
v -3 4 -10
v -3 4 -10
v -2 4 -9
v -3 4 -9
v -2 4 -10
v -2 4 -10
v -1 4 -9
v -2 4 -9
v -1 4 -10
v -1 4 -10
v 0 4 -9
v -1 4 -9
v 0 4 -10
v -4 4 -11
v -3 4 -10
v -4 4 -10
v -3 4 -11
v -3 4 -11
v -2 4 -10
v -3 4 -10
v -2 4 -11
v -2 4 -11
v -1 4 -10
v -2 4 -10
v -1 4 -11
v -1 4 -11
v 0 4 -10
v -1 4 -10
v 0 4 -11
v -4 3 -9
v -4 4 -10
v -4 4 -9
v -4 3 -10
v -4 2 -9
v -4 3 -10
v -4 3 -9
v -4 2 -10
v -4 1 -9
v -4 2 -10
v -4 2 -9
v -4 1 -10
v -4 0 -9
v -4 1 -10
v -4 1 -9
v -4 0 -10
v -4 3 -10
v -4 4 -11
v -4 4 -10
v -4 3 -11
v -4 2 -10
v -4 3 -11
v -4 3 -10
v -4 2 -11
v -4 1 -10
v -4 2 -11
v -4 2 -10
v -4 1 -11
v -4 0 -10
v -4 1 -11
v -4 1 -10
v -4 0 -11
v -1.1102230246251565e-16 3 -10
v 0 4 -9
v 0 4 -10
v 0 3 -9
v -1.1102230246251565e-16 2 -10
v 0 3 -9
v -1.1102230246251565e-16 3 -10
v 0 2 -9
v -1.1102230246251565e-16 1 -10
v 0 2 -9
v -1.1102230246251565e-16 2 -10
v 0 1 -9
v -1.1102230246251565e-16 0 -10
v 0 1 -9
v -1.1102230246251565e-16 1 -10
v 0 0 -9
v -1.1102230246251565e-16 0 -11
v -1.1102230246251565e-16 1 -10
v -1.1102230246251565e-16 1 -11
v -1.1102230246251565e-16 0 -10
v -1.1102230246251565e-16 1 -11
v -1.1102230246251565e-16 2 -10
v -1.1102230246251565e-16 2 -11
v -1.1102230246251565e-16 1 -10
v -1.1102230246251565e-16 2 -11
v -1.1102230246251565e-16 3 -10
v -1.1102230246251565e-16 3 -11
v -1.1102230246251565e-16 2 -10
v -1.1102230246251565e-16 3 -11
v 0 4 -10
v 0 4 -11
v -1.1102230246251565e-16 3 -10
v -1 0 -9
v -1.1102230246251565e-16 0 -10
v -1 0 -10
v 0 0 -9
v -2 0 -9
v -1 0 -10
v -2 0 -10
v -1 0 -9
v -3 0 -10
v -2 0 -11
v -3 0 -11
v -2 0 -10
v -4 0 -10
v -3 0 -11
v -4 0 -11
v -3 0 -10
v -3 0 -9
v -2 0 -10
v -3 0 -10
v -2 0 -9
v -4 0 -9
v -3 0 -10
v -4 0 -10
v -3 0 -9
v -2 0 -10
v -1 0 -11
v -2 0 -11
v -1 0 -10
v -1 0 -10
v -1.1102230246251565e-16 0 -11
v -1 0 -11
v -1.1102230246251565e-16 0 -10
v -1 0 -11
v 0 0 -12
v -1 0 -12
v -1.1102230246251565e-16 0 -11
v -2 0 -11
v -1 0 -12
v -2 0 -12
v -1 0 -11
v -3 0 -11
v -2 0 -12
v -3 0 -12
v -2 0 -11
v -4 0 -11
v -3 0 -12
v -4 0 -12
v -3 0 -11
v -4 0 -12
v -3 0 -13
v -4 0 -13
v -3 0 -12
v -3 0 -12
v -2 0 -13
v -3 0 -13
v -2 0 -12
v -2 0 -12
v -1 0 -13
v -2 0 -13
v -1 0 -12
v -1 0 -12
v 0 0 -13
v -1 0 -13
v 0 0 -12
v -1 0 -13
v 0 0 -14
v -1 0 -14
v 0 0 -13
v -2 0 -13
v -1 0 -14
v -2 0 -14
v -1 0 -13
v -3 0 -13
v -2 0 -14
v -3 0 -14
v -2 0 -13
v -4 0 -13
v -3 0 -14
v -4 0 -14
v -3 0 -13
v -4 0 -14
v -3 0 -15
v -4 0 -15
v -3 0 -14
v -3 0 -14
v -2 0 -15
v -3 0 -15
v -2 0 -14
v -2 0 -14
v -1 0 -15
v -2 0 -15
v -1 0 -14
v -1 0 -14
v 0 0 -15
v -1 0 -15
v 0 0 -14
v -1 4 -12
v 0 4 -11
v -1 4 -11
v 0 4 -12
v -2 4 -12
v -1 4 -11
v -2 4 -11
v -1 4 -12
v -3 4 -12
v -2 4 -11
v -3 4 -11
v -2 4 -12
v -3 4 -13
v -2 4 -12
v -3 4 -12
v -2 4 -13
v -4 4 -13
v -3 4 -12
v -4 4 -12
v -3 4 -13
v -4 4 -12
v -3 4 -11
v -4 4 -11
v -3 4 -12
v -2 4 -13
v -1 4 -12
v -2 4 -12
v -1 4 -13
v -1 4 -13
v 0 4 -12
v -1 4 -12
v 0 4 -13
v -1 4 -14
v 0 4 -13
v -1 4 -13
v 0 4 -14
v -2 4 -14
v -1 4 -13
v -2 4 -13
v -1 4 -14
v -3 4 -14
v -2 4 -13
v -3 4 -13
v -2 4 -14
v -4 4 -14
v -3 4 -13
v -4 4 -13
v -3 4 -14
v -2 4 -15
v -1 4 -14
v -2 4 -14
v -1 4 -15
v -3 4 -15
v -2 4 -14
v -3 4 -14
v -2 4 -15
v -4 4 -15
v -3 4 -14
v -4 4 -14
v -3 4 -15
v -1 4 -15
v 0 4 -14
v -1 4 -14
v 0 4 -15
v -1.1102230246251565e-16 3 -13
v 0 4 -12
v 0 4 -13
v 1.1102230246251565e-16 3 -12
v -1.1102230246251565e-16 2 -12
v -1.1102230246251565e-16 3 -11
v 1.1102230246251565e-16 3 -12
v -1.1102230246251565e-16 2 -11
v -1.1102230246251565e-16 1 -12
v -1.1102230246251565e-16 2 -11
v -1.1102230246251565e-16 2 -12
v -1.1102230246251565e-16 1 -11
v 0 0 -12
v -1.1102230246251565e-16 1 -11
v -1.1102230246251565e-16 1 -12
v -1.1102230246251565e-16 0 -11
v 1.1102230246251565e-16 3 -12
v 0 4 -11
v 0 4 -12
v -1.1102230246251565e-16 3 -11
v -1.1102230246251565e-16 1 -13
v -1.1102230246251565e-16 2 -12
v -1.1102230246251565e-16 2 -13
v -1.1102230246251565e-16 1 -12
v -1.1102230246251565e-16 1 -14
v -1.1102230246251565e-16 2 -13
v -1.1102230246251565e-16 2 -14
v -1.1102230246251565e-16 1 -13
v -1.1102230246251565e-16 2 -14
v -1.1102230246251565e-16 3 -13
v -1.1102230246251565e-16 3 -14
v -1.1102230246251565e-16 2 -13
v -1.1102230246251565e-16 2 -13
v 1.1102230246251565e-16 3 -12
v -1.1102230246251565e-16 3 -13
v -1.1102230246251565e-16 2 -12
v 0 0 -13
v -1.1102230246251565e-16 1 -12
v -1.1102230246251565e-16 1 -13
v 0 0 -12
v 0 0 -14
v -1.1102230246251565e-16 1 -13
v -1.1102230246251565e-16 1 -14
v 0 0 -13
v -1.1102230246251565e-16 1 -15
v -1.1102230246251565e-16 2 -14
v -1.1102230246251565e-16 2 -15
v -1.1102230246251565e-16 1 -14
v -1.1102230246251565e-16 3 -14
v 0 4 -13
v 0 4 -14
v -1.1102230246251565e-16 3 -13
v 0 0 -15
v -1.1102230246251565e-16 1 -14
v -1.1102230246251565e-16 1 -15
v 0 0 -14
v -1.1102230246251565e-16 2 -15
v -1.1102230246251565e-16 3 -14
v -1.1102230246251565e-16 3 -15
v -1.1102230246251565e-16 2 -14
v -1.1102230246251565e-16 3 -15
v 0 4 -14
v 0 4 -15
v -1.1102230246251565e-16 3 -14
v -4 3 -11
v -4 4 -12
v -4 4 -11
v -4 3 -12
v -4 2 -11
v -4 3 -12
v -4 3 -11
v -4 2 -12
v -4 1 -11
v -4 2 -12
v -4 2 -11
v -4 1 -12
v -4 1 -12
v -4 2 -13
v -4 2 -12
v -4 1 -13
v -4 1 -13
v -4 2 -14
v -4 2 -13
v -4 1 -14
v -4 2 -14
v -4 3 -15
v -4 3 -14
v -4 2 -15
v -4 2 -13
v -4 3 -14
v -4 3 -13
v -4 2 -14
v -4 2 -12
v -4 3 -13
v -4 3 -12
v -4 2 -13
v -4 3 -12
v -4 4 -13
v -4 4 -12
v -4 3 -13
v -4 3 -13
v -4 4 -14
v -4 4 -13
v -4 3 -14
v -4 3 -14
v -4 4 -15
v -4 4 -14
v -4 3 -15
v -4 1 -14
v -4 2 -15
v -4 2 -14
v -4 1 -15
v -4 0 -13
v -4 1 -14
v -4 1 -13
v -4 0 -14
v -4 0 -12
v -4 1 -13
v -4 1 -12
v -4 0 -13
v -4 0 -11
v -4 1 -12
v -4 1 -11
v -4 0 -12
v -4 0 -14
v -4 1 -15
v -4 1 -14
v -4 0 -15
v 4 0 -14
v 4 1 -15
v 4 1 -14
v 4 0 -15
v 4 0 -11
v 4 1 -12
v 4 1 -11
v 4 0 -12
v 4 0 -12
v 4 1 -13
v 4 1 -12
v 4 0 -13
v 4 0 -13
v 4 1 -14
v 4 1 -13
v 4 0 -14
v 4 1 -14
v 4 2 -15
v 4 2 -14
v 4 1 -15
v 4 1 -13
v 4 2 -14
v 4 2 -13
v 4 1 -14
v 4 1 -12
v 4 2 -13
v 4 2 -12
v 4 1 -13
v 4 1 -11
v 4 2 -12
v 4 2 -11
v 4 1 -12
v 5 0 -14
v 6 0 -15
v 5 0 -15
v 6 0 -14
v 4 0 -14
v 5 0 -15
v 4 0 -15
v 5 0 -14
v 4 0 -13
v 5 0 -14
v 4 0 -14
v 5 0 -13
v 5 0 -13
v 6 0 -14
v 5 0 -14
v 6 0 -13
v 5 0 -12
v 6 0 -13
v 5 0 -13
v 6 0 -12
v 4 0 -12
v 5 0 -13
v 4 0 -13
v 5 0 -12
v 4 0 -11
v 5 0 -12
v 4 0 -12
v 5 0 -11
v 5 0 -11
v 6 0 -12
v 5 0 -12
v 6 0 -11
v 4 0 -9
v 5 0 -10
v 4 0 -10
v 5 0 -9
v 5 0 -9
v 6 0 -10
v 5 0 -10
v 6 0 -9
v 4 0 -10
v 5 0 -11
v 4 0 -11
v 5 0 -10
v 5 0 -10
v 6 0 -11
v 5 0 -11
v 6 0 -10
v 4 0 -10
v 4 1 -11
v 4 1 -10
v 4 0 -11
v 4 1 -10
v 4 2 -11
v 4 2 -10
v 4 1 -11
v 4 0 -9
v 4 1 -10
v 4 1 -9
v 4 0 -10
v 4 1 -9
v 4 2 -10
v 4 2 -9
v 4 1 -10
v 4 3 -14
v 4 4 -15
v 4 4 -14
v 4 3 -15
v 4 3 -13
v 4 4 -14
v 4 4 -13
v 4 3 -14
v 4 3 -12
v 4 4 -13
v 4 4 -12
v 4 3 -13
v 4 2 -12
v 4 3 -13
v 4 3 -12
v 4 2 -13
v 4 2 -13
v 4 3 -14
v 4 3 -13
v 4 2 -14
v 4 2 -14
v 4 3 -15
v 4 3 -14
v 4 2 -15
v 4 2 -11
v 4 3 -12
v 4 3 -11
v 4 2 -12
v 4 3 -11
v 4 4 -12
v 4 4 -11
v 4 3 -12
v 4 4 -15
v 5 4 -14
v 4 4 -14
v 5 4 -15
v 5 4 -15
v 6 4 -14
v 5 4 -14
v 6 4 -15
v 4 4 -14
v 5 4 -13
v 4 4 -13
v 5 4 -14
v 5 4 -14
v 6 4 -13
v 5 4 -13
v 6 4 -14
v 4 4 -12
v 5 4 -11
v 4 4 -11
v 5 4 -12
v 4 4 -13
v 5 4 -12
v 4 4 -12
v 5 4 -13
v 5 4 -13
v 6 4 -12
v 5 4 -12
v 6 4 -13
v 5 4 -12
v 6 4 -11
v 5 4 -11
v 6 4 -12
v 4 2 -10
v 4 3 -11
v 4 3 -10
v 4 2 -11
v 4 3 -10
v 4 4 -11
v 4 4 -10
v 4 3 -11
v 4 2 -9
v 4 3 -10
v 4 3 -9
v 4 2 -10
v 4 3 -9
v 4 4 -10
v 4 4 -9
v 4 3 -10
v 5 4 -11
v 6 4 -10
v 5 4 -10
v 6 4 -11
v 4 4 -11
v 5 4 -10
v 4 4 -10
v 5 4 -11
v 5 4 -10
v 6 4 -9
v 5 4 -9
v 6 4 -10
v 4 4 -10
v 5 4 -9
v 4 4 -9
v 5 4 -10
v 8 0 -15
v 8 1 -14
v 8 1 -15
v 8 0 -14
v 8 1 -15
v 8 2 -14
v 8 2 -15
v 8 1 -14
v 8 0 -14
v 8 1 -13
v 8 1 -14
v 8 0 -13
v 8 0 -13
v 8 1 -12
v 8 1 -13
v 8 0 -12
v 8 1 -14
v 8 2 -13
v 8 2 -14
v 8 1 -13
v 8 1 -13
v 8 2 -12
v 8 2 -13
v 8 1 -12
v 8 0 -12
v 8 1 -11
v 8 1 -12
v 8 0 -11
v 8 1 -12
v 8 2 -11
v 8 2 -12
v 8 1 -11
v 7 0 -14
v 8 0 -15
v 7 0 -15
v 8 0 -14
v 6 0 -14
v 7 0 -15
v 6 0 -15
v 7 0 -14
v 6 0 -13
v 7 0 -14
v 6 0 -14
v 7 0 -13
v 7 0 -13
v 8 0 -14
v 7 0 -14
v 8 0 -13
v 7 0 -12
v 8 0 -13
v 7 0 -13
v 8 0 -12
v 6 0 -12
v 7 0 -13
v 6 0 -13
v 7 0 -12
v 6 0 -11
v 7 0 -12
v 6 0 -12
v 7 0 -11
v 7 0 -11
v 8 0 -12
v 7 0 -12
v 8 0 -11
v 7 0 -10
v 8 0 -11
v 7 0 -11
v 8 0 -10
v 6 0 -10
v 7 0 -11
v 6 0 -11
v 7 0 -10
v 6 0 -9
v 7 0 -10
v 6 0 -10
v 7 0 -9
v 7 0 -9
v 8 0 -10
v 7 0 -10
v 8 0 -9
v 8 1 -11
v 8 2 -10
v 8 2 -11
v 8 1 -10
v 8 0 -11
v 8 1 -10
v 8 1 -11
v 8 0 -10
v 8 0 -10
v 8 1 -9
v 8 1 -10
v 8 0 -9
v 8 1 -10
v 8 2 -9
v 8 2 -10
v 8 1 -9
v 8 3 -15
v 8 4 -14
v 8 4 -15
v 8 3 -14
v 8 2 -15
v 8 3 -14
v 8 3 -15
v 8 2 -14
v 8 3 -14
v 8 4 -13
v 8 4 -14
v 8 3 -13
v 8 2 -13
v 8 3 -12
v 8 3 -13
v 8 2 -12
v 8 2 -14
v 8 3 -13
v 8 3 -14
v 8 2 -13
v 8 3 -12
v 8 4 -11
v 8 4 -12
v 8 3 -11
v 8 2 -12
v 8 3 -11
v 8 3 -12
v 8 2 -11
v 8 3 -13
v 8 4 -12
v 8 4 -13
v 8 3 -12
v 7 4 -15
v 8 4 -14
v 7 4 -14
v 8 4 -15
v 6 4 -15
v 7 4 -14
v 6 4 -14
v 7 4 -15
v 6 4 -14
v 7 4 -13
v 6 4 -13
v 7 4 -14
v 7 4 -14
v 8 4 -13
v 7 4 -13
v 8 4 -14
v 7 4 -13
v 8 4 -12
v 7 4 -12
v 8 4 -13
v 6 4 -13
v 7 4 -12
v 6 4 -12
v 7 4 -13
v 6 4 -12
v 7 4 -11
v 6 4 -11
v 7 4 -12
v 7 4 -12
v 8 4 -11
v 7 4 -11
v 8 4 -12
v 8 3 -11
v 8 4 -10
v 8 4 -11
v 8 3 -10
v 8 2 -11
v 8 3 -10
v 8 3 -11
v 8 2 -10
v 8 2 -10
v 8 3 -9
v 8 3 -10
v 8 2 -9
v 8 3 -10
v 8 4 -9
v 8 4 -10
v 8 3 -9
v 7 4 -11
v 8 4 -10
v 7 4 -10
v 8 4 -11
v 6 4 -11
v 7 4 -10
v 6 4 -10
v 7 4 -11
v 7 4 -10
v 8 4 -9
v 7 4 -9
v 8 4 -10
v 6 4 -10
v 7 4 -9
v 6 4 -9
v 7 4 -10
v 6 1 -17
v 7 2 -16
v 6 2 -17
v 7 1 -16
v 6 0 -17
v 7 1 -16
v 6 1 -17
v 7 0 -16
v 5 0 -18
v 6 1 -17
v 5 1 -18
v 6 0 -17
v 5 2 -18
v 6 3 -17
v 5 3 -18
v 6 2 -17
v 5 1 -18
v 6 2 -17
v 5 2 -18
v 6 1 -17
v 5 3 -18
v 6 4 -17
v 5 4 -18
v 6 3 -17
v 6 3 -17
v 7 4 -16
v 6 4 -17
v 7 3 -16
v 7 3 -16
v 8 4 -15
v 7 4 -16
v 8 3 -15
v 7 2 -16
v 8 3 -15
v 7 3 -16
v 8 2 -15
v 7 1 -16
v 8 2 -15
v 7 2 -16
v 8 1 -15
v 7 0 -16
v 8 1 -15
v 7 1 -16
v 8 0 -15
v 5 0 -18
v 3 0 -17
v 6 0 -17
v 3 0 -18
v 6 0 -17
v 3 0 -16
v 7 0 -16
v 3 0 -17
v 7 0 -16
v 3 0 -15
v 8 0 -15
v 3 0 -16
v 6 2 -17
v 7 3 -16
v 6 3 -17
v 7 2 -16
v 8 4 -15
v 3 4 -16
v 7 4 -16
v 3 4 -15
v 7 4 -16
v 3 4 -17
v 6 4 -17
v 3 4 -16
v 6 4 -17
v 3 4 -18
v 5 4 -18
v 3 4 -17
v 4 0 -19
v 5 1 -18
v 4 1 -19
v 5 0 -18
v 4 1 -19
v 5 2 -18
v 4 2 -19
v 5 1 -18
v 4 2 -19
v 5 3 -18
v 4 3 -19
v 5 2 -18
v 4 3 -19
v 5 4 -18
v 4 4 -19
v 5 3 -18
v 3 0 -18
v 2 0 -17
v 3 0 -17
v 2 0 -18
v 3 0 -17
v 2 0 -16
v 3 0 -16
v 2 0 -17
v 2 0 -17
v 1 0 -16
v 2 0 -16
v 1 0 -17
v 2 0 -18
v 1 0 -17
v 2 0 -17
v 1 0 -18
v 2 0 -19
v 1 0 -18
v 2 0 -18
v 1 0 -19
v 3 0 -19
v 2 0 -18
v 3 0 -18
v 2 0 -19
v 4 0 -19
v 3 0 -18
v 5 0 -18
v 3 0 -19
v 3 0 -16
v 2 0 -15
v 3 0 -15
v 2 0 -16
v 2 0 -16
v 1 0 -15
v 2 0 -15
v 1 0 -16
v 4 3 -20
v 4 4 -19
v 4 4 -20
v 4 3 -19
v 4 2 -20
v 4 3 -19
v 4 3 -20
v 4 2 -19
v 4 1 -20
v 4 2 -19
v 4 2 -20
v 4 1 -19
v 4 0 -20
v 4 1 -19
v 4 1 -20
v 4 0 -19
v 2 0 -20
v 1 0 -19
v 2 0 -19
v 1 0 -20
v 3 0 -20
v 2 0 -19
v 3 0 -19
v 2 0 -20
v 4 0 -20
v 3 0 -19
v 4 0 -19
v 3 0 -20
v 5 4 -18
v 3 4 -19
v 4 4 -19
v 3 4 -18
v 3 4 -15
v 2 4 -16
v 3 4 -16
v 2 4 -15
v 3 4 -16
v 2 4 -17
v 3 4 -17
v 2 4 -16
v 3 4 -17
v 2 4 -18
v 3 4 -18
v 2 4 -17
v 3 4 -18
v 2 4 -19
v 3 4 -19
v 2 4 -18
v 2 4 -15
v 1 4 -16
v 2 4 -16
v 1 4 -15
v 2 4 -16
v 1 4 -17
v 2 4 -17
v 1 4 -16
v 2 4 -17
v 1 4 -18
v 2 4 -18
v 1 4 -17
v 2 4 -18
v 1 4 -19
v 2 4 -19
v 1 4 -18
v 4 4 -19
v 3 4 -20
v 4 4 -20
v 3 4 -19
v 3 4 -19
v 2 4 -20
v 3 4 -20
v 2 4 -19
v 2 4 -19
v 1 4 -20
v 2 4 -20
v 1 4 -19
v 1 0 -16
v -4 0 -15
v 1 0 -15
v -3 0 -16
v 1 0 -17
v -3 0 -16
v 1 0 -16
v -2 0 -17
v 1 0 -18
v -2 0 -17
v 1 0 -17
v -1 0 -18
v 1 0 -19
v -1 0 -18
v 1 0 -18
v 0 0 -19
v -2 0 -17
v -1 1 -18
v -2 1 -17
v -1 0 -18
v -1 0 -18
v 0 1 -19
v -1 1 -18
v 0 0 -19
v -2 1 -17
v -1 2 -18
v -2 2 -17
v -1 1 -18
v -1 1 -18
v 0 2 -19
v -1 2 -18
v 0 1 -19
v -2 2 -17
v -1 3 -18
v -2 3 -17
v -1 2 -18
v -1 2 -18
v 0 3 -19
v -1 3 -18
v 0 2 -19
v -2 3 -17
v -1 4 -18
v -2 4 -17
v -1 3 -18
v -1 3 -18
v 0 4 -19
v -1 4 -18
v 0 3 -19
v 0 3 -19
v 0 4 -20
v 0 4 -19
v 0 3 -20
v 0 2 -19
v 0 3 -20
v 0 3 -19
v 0 2 -20
v 0 1 -19
v 0 2 -20
v 0 2 -19
v 0 1 -20
v 0 0 -19
v 0 1 -20
v 0 1 -19
v 0 0 -20
v 1 0 -20
v 0 0 -19
v 1 0 -19
v 0 0 -20
v 1 4 -16
v -2 4 -17
v 1 4 -17
v -3 4 -16
v 1 4 -15
v -3 4 -16
v 1 4 -16
v -4 4 -15
v 1 4 -17
v -1 4 -18
v 1 4 -18
v -2 4 -17
v 1 4 -18
v 0 4 -19
v 1 4 -19
v -1 4 -18
v 1 4 -19
v 0 4 -20
v 1 4 -20
v 0 4 -19
v -4 0 -15
v -3 1 -16
v -4 1 -15
v -3 0 -16
v -4 1 -15
v -3 2 -16
v -4 2 -15
v -3 1 -16
v -4 2 -15
v -3 3 -16
v -4 3 -15
v -3 2 -16
v -4 3 -15
v -3 4 -16
v -4 4 -15
v -3 3 -16
v -3 3 -16
v -2 4 -17
v -3 4 -16
v -2 3 -17
v -3 2 -16
v -2 3 -17
v -3 3 -16
v -2 2 -17
v -3 1 -16
v -2 2 -17
v -3 2 -16
v -2 1 -17
v -3 0 -16
v -2 1 -17
v -3 1 -16
v -2 0 -17
v 4 3 -15
v 3 4 -15
v 4 4 -15
v 3 3 -15
v 4 2 -15
v 3 3 -15
v 4 3 -15
v 3 2 -15
v 3 1 -15
v 2 2 -15
v 3 2 -15
v 2 1 -15
v 3 0 -15
v 2 1 -15
v 3 1 -15
v 2 0 -15
v 4 0 -15
v 3 1 -15
v 4 1 -15
v 3 0 -15
v 4 1 -15
v 3 2 -15
v 4 2 -15
v 3 1 -15
v 2 0 -15
v 1 1 -15
v 2 1 -15
v 1 0 -15
v 2 1 -15
v 1 2 -15
v 2 2 -15
v 1 1 -15
v 1 1 -15
v -1.1102230246251565e-16 2 -15
v 1 2 -15
v -1.1102230246251565e-16 1 -15
v 1 2 -15
v -1.1102230246251565e-16 3 -15
v 1 3 -15
v -1.1102230246251565e-16 2 -15
v 1 0 -15
v -1.1102230246251565e-16 1 -15
v 1 1 -15
v 0 0 -15
v 1 3 -15
v 0 4 -15
v 1 4 -15
v -1.1102230246251565e-16 3 -15
v 2 3 -15
v 1 4 -15
v 2 4 -15
v 1 3 -15
v 3 2 -15
v 2 3 -15
v 3 3 -15
v 2 2 -15
v 3 3 -15
v 2 4 -15
v 3 4 -15
v 2 3 -15
v 2 2 -15
v 1 3 -15
v 2 3 -15
v 1 2 -15
vt 0 0.75
vt 0.25 1
vt 0 1
vt 0.25 0.75
vt 0.5 1
vt 0.5 0.75
vn 0 1 0
vn 1 0 0
vn -1 0 0
vn 0 -1 0
vn -0.70710678 0 -0.70710678
vn 0.70710678 0 -0.70710678
vn 0 0 1
vn -0.70710678 0 0.70710678
vn 0.70710678 0 0.70710678
vn 0 0 -1
g Scene
usemtl 0
f 1/1/1 3/2/1 2/3/1
f 1/1/1 4/4/1 3/2/1
f 5/1/1 6/2/1 7/3/1
f 5/1/1 8/4/1 6/2/1
f 9/1/1 10/2/1 11/3/1
f 9/1/1 12/4/1 10/2/1
f 13/1/1 14/2/1 15/3/1
f 13/1/1 16/4/1 14/2/1
f 17/1/2 18/2/2 19/3/2
f 17/1/2 20/4/2 18/2/2
f 21/1/2 22/2/2 23/3/2
f 21/1/2 24/4/2 22/2/2
f 25/1/2 26/2/2 27/3/2
f 25/1/2 28/4/2 26/2/2
f 29/1/2 30/2/2 31/3/2
f 29/1/2 32/4/2 30/2/2
f 33/1/3 34/2/3 35/3/3
f 33/1/3 36/4/3 34/2/3
f 37/1/3 38/2/3 39/3/3
f 37/1/3 40/4/3 38/2/3
f 41/1/3 42/2/3 43/3/3
f 41/1/3 44/4/3 42/2/3
f 45/1/3 46/2/3 47/3/3
f 45/1/3 48/4/3 46/2/3
f 49/1/4 50/2/4 51/3/4
f 49/1/4 52/4/4 50/2/4
f 53/1/4 54/2/4 55/3/4
f 53/1/4 56/4/4 54/2/4
f 57/1/4 58/2/4 59/3/4
f 57/1/4 60/4/4 58/2/4
f 61/1/4 62/2/4 63/3/4
f 61/1/4 64/4/4 62/2/4
f 65/1/5 66/2/5 67/3/5
f 65/1/5 68/4/5 66/2/5
f 69/1/5 70/2/5 71/3/5
f 69/1/5 72/4/5 70/2/5
f 73/1/5 74/2/5 75/3/5
f 73/1/5 76/4/5 74/2/5
f 77/1/5 78/2/5 79/3/5
f 77/1/5 80/4/5 78/2/5
f 81/1/5 82/2/5 83/3/5
f 81/1/5 84/4/5 82/2/5
f 85/1/5 86/2/5 87/3/5
f 85/1/5 88/4/5 86/2/5
f 89/1/5 90/2/5 91/3/5
f 89/1/5 92/4/5 90/2/5
f 93/1/5 94/2/5 95/3/5
f 93/1/5 96/4/5 94/2/5
f 97/1/5 98/2/5 99/3/5
f 97/1/5 100/4/5 98/2/5
f 101/1/5 102/2/5 103/3/5
f 101/1/5 104/4/5 102/2/5
f 105/1/5 106/2/5 107/3/5
f 105/1/5 108/4/5 106/2/5
f 109/1/5 110/2/5 111/3/5
f 109/1/5 112/4/5 110/2/5
f 113/1/5 114/2/5 115/3/5
f 113/1/5 116/4/5 114/2/5
f 117/1/5 118/2/5 119/3/5
f 117/1/5 120/4/5 118/2/5
f 121/1/5 122/2/5 123/3/5
f 121/1/5 124/4/5 122/2/5
f 125/1/5 126/2/5 127/3/5
f 125/1/5 128/4/5 126/2/5
f 129/1/4 130/2/4 131/3/4
f 129/1/4 132/4/4 130/2/4
f 133/1/4 134/2/4 135/3/4
f 133/1/4 136/4/4 134/2/4
f 137/1/6 138/2/6 139/3/6
f 137/1/6 140/4/6 138/2/6
f 141/1/4 142/2/4 143/3/4
f 141/1/4 144/4/4 142/2/4
f 145/1/4 146/2/4 147/3/4
f 145/1/4 148/4/4 146/2/4
f 149/1/4 150/2/4 151/3/4
f 149/1/4 152/4/4 150/2/4
f 153/1/4 154/2/4 155/3/4
f 153/1/4 156/4/4 154/2/4
f 157/1/4 158/2/4 159/3/4
f 157/1/4 160/4/4 158/2/4
f 161/1/4 162/2/4 163/3/4
f 161/1/4 164/4/4 162/2/4
f 165/1/4 166/2/4 167/3/4
f 165/1/4 168/4/4 166/2/4
f 169/1/4 170/2/4 171/3/4
f 169/1/4 172/4/4 170/2/4
f 173/1/4 174/2/4 175/3/4
f 173/1/4 176/4/4 174/2/4
f 177/1/4 178/2/4 179/3/4
f 177/1/4 180/4/4 178/2/4
f 181/1/4 182/2/4 183/3/4
f 181/1/4 184/4/4 182/2/4
f 185/1/4 186/2/4 187/3/4
f 185/1/4 188/4/4 186/2/4
f 189/1/4 190/2/4 191/3/4
f 189/1/4 192/4/4 190/2/4
f 193/1/4 194/2/4 195/3/4
f 193/1/4 196/4/4 194/2/4
f 197/1/1 198/2/1 199/3/1
f 197/1/1 200/4/1 198/2/1
f 201/1/1 202/2/1 203/3/1
f 201/1/1 204/4/1 202/2/1
f 205/1/1 206/2/1 207/3/1
f 205/1/1 208/4/1 206/2/1
f 209/1/1 210/2/1 211/3/1
f 209/1/1 212/4/1 210/2/1
f 213/1/1 214/2/1 215/3/1
f 213/1/1 216/4/1 214/2/1
f 217/1/1 218/2/1 219/3/1
f 217/1/1 220/4/1 218/2/1
f 221/1/1 222/2/1 223/3/1
f 221/1/1 224/4/1 222/2/1
f 225/1/1 226/2/1 227/3/1
f 225/1/1 228/4/1 226/2/1
f 229/1/1 230/2/1 231/3/1
f 229/1/1 232/4/1 230/2/1
f 233/1/1 234/2/1 235/3/1
f 233/1/1 236/4/1 234/2/1
f 237/1/1 238/2/1 239/3/1
f 237/1/1 240/4/1 238/2/1
f 241/1/1 242/2/1 243/3/1
f 241/1/1 244/4/1 242/2/1
f 245/1/1 246/2/1 247/3/1
f 245/1/1 248/4/1 246/2/1
f 249/1/1 250/2/1 251/3/1
f 249/1/1 252/4/1 250/2/1
f 253/1/1 254/2/1 255/3/1
f 253/1/1 256/4/1 254/2/1
f 257/1/1 258/2/1 259/3/1
f 257/1/1 260/4/1 258/2/1
f 261/1/6 262/2/6 263/3/6
f 261/1/6 264/4/6 262/2/6
f 265/1/6 266/2/6 267/3/6
f 265/1/6 268/4/6 266/2/6
f 269/1/6 270/2/6 271/3/6
f 269/1/6 272/4/6 270/2/6
f 273/1/6 274/2/6 275/3/6
f 273/1/6 276/4/6 274/2/6
f 277/1/6 278/2/6 279/3/6
f 277/1/6 280/4/6 278/2/6
f 281/1/6 282/2/6 283/3/6
f 281/1/6 284/4/6 282/2/6
f 285/1/6 286/2/6 287/3/6
f 285/1/6 288/4/6 286/2/6
f 289/1/6 290/2/6 291/3/6
f 289/1/6 292/4/6 290/2/6
f 293/1/6 294/2/6 295/3/6
f 293/1/6 296/4/6 294/2/6
f 297/1/6 298/2/6 299/3/6
f 297/1/6 300/4/6 298/2/6
f 301/1/6 302/2/6 303/3/6
f 301/1/6 304/4/6 302/2/6
f 305/1/6 306/2/6 307/3/6
f 305/1/6 308/4/6 306/2/6
f 309/1/6 310/2/6 311/3/6
f 309/1/6 312/4/6 310/2/6
f 313/1/6 314/2/6 315/3/6
f 313/1/6 316/4/6 314/2/6
f 317/1/6 318/2/6 319/3/6
f 317/1/6 320/4/6 318/2/6
f 321/1/7 322/2/7 323/3/7
f 321/1/7 324/4/7 322/2/7
f 325/1/7 326/2/7 327/3/7
f 325/1/7 328/4/7 326/2/7
f 329/1/7 330/2/7 331/3/7
f 329/1/7 332/4/7 330/2/7
f 333/1/7 334/2/7 335/3/7
f 333/1/7 336/4/7 334/2/7
f 337/1/7 338/2/7 339/3/7
f 337/1/7 340/4/7 338/2/7
f 341/1/7 342/2/7 343/3/7
f 341/1/7 344/4/7 342/2/7
f 345/1/7 346/2/7 347/3/7
f 345/1/7 348/4/7 346/2/7
f 349/1/7 350/2/7 351/3/7
f 349/1/7 352/4/7 350/2/7
f 353/1/7 354/2/7 355/3/7
f 353/1/7 356/4/7 354/2/7
f 357/1/7 358/2/7 359/3/7
f 357/1/7 360/4/7 358/2/7
f 361/1/7 362/2/7 363/3/7
f 361/1/7 364/4/7 362/2/7
f 365/1/7 366/2/7 367/3/7
f 365/1/7 368/4/7 366/2/7
f 369/1/7 370/2/7 371/3/7
f 369/1/7 372/4/7 370/2/7
f 373/1/7 374/2/7 375/3/7
f 373/1/7 376/4/7 374/2/7
f 377/1/7 378/2/7 379/3/7
f 377/1/7 380/4/7 378/2/7
f 381/1/7 382/2/7 383/3/7
f 381/1/7 384/4/7 382/2/7
f 385/4/2 386/5/2 387/2/2
f 385/4/2 388/6/2 386/5/2
f 389/4/2 390/5/2 391/2/2
f 389/4/2 392/6/2 390/5/2
f 393/4/2 394/5/2 395/2/2
f 393/4/2 396/6/2 394/5/2
f 397/4/2 398/5/2 399/2/2
f 397/4/2 400/6/2 398/5/2
f 401/4/2 402/5/2 403/2/2
f 401/4/2 404/6/2 402/5/2
f 405/4/2 406/5/2 407/2/2
f 405/4/2 408/6/2 406/5/2
f 409/4/2 410/5/2 411/2/2
f 409/4/2 412/6/2 410/5/2
f 413/4/2 414/5/2 415/2/2
f 413/4/2 416/6/2 414/5/2
f 417/4/2 418/5/2 419/2/2
f 417/4/2 420/6/2 418/5/2
f 421/4/2 422/5/2 423/2/2
f 421/4/2 424/6/2 422/5/2
f 425/4/2 426/5/2 427/2/2
f 425/4/2 428/6/2 426/5/2
f 429/4/2 430/5/2 431/2/2
f 429/4/2 432/6/2 430/5/2
f 433/4/2 434/5/2 435/2/2
f 433/4/2 436/6/2 434/5/2
f 437/4/2 438/5/2 439/2/2
f 437/4/2 440/6/2 438/5/2
f 441/4/2 442/5/2 443/2/2
f 441/4/2 444/6/2 442/5/2
f 445/4/2 446/5/2 447/2/2
f 445/4/2 448/6/2 446/5/2
f 449/4/3 450/5/3 451/2/3
f 449/4/3 452/6/3 450/5/3
f 453/4/3 454/5/3 455/2/3
f 453/4/3 456/6/3 454/5/3
f 457/4/3 458/5/3 459/2/3
f 457/4/3 460/6/3 458/5/3
f 461/4/3 462/5/3 463/2/3
f 461/4/3 464/6/3 462/5/3
f 465/4/3 466/5/3 467/2/3
f 465/4/3 468/6/3 466/5/3
f 469/4/3 470/5/3 471/2/3
f 469/4/3 472/6/3 470/5/3
f 473/4/3 474/5/3 475/2/3
f 473/4/3 476/6/3 474/5/3
f 477/4/3 478/5/3 479/2/3
f 477/4/3 480/6/3 478/5/3
f 481/4/3 482/5/3 483/2/3
f 481/4/3 484/6/3 482/5/3
f 485/4/3 486/5/3 487/2/3
f 485/4/3 488/6/3 486/5/3
f 489/4/3 490/5/3 491/2/3
f 489/4/3 492/6/3 490/5/3
f 493/4/3 494/5/3 495/2/3
f 493/4/3 496/6/3 494/5/3
f 497/4/3 498/5/3 499/2/3
f 497/4/3 500/6/3 498/5/3
f 501/4/3 502/5/3 503/2/3
f 501/4/3 504/6/3 502/5/3
f 505/4/3 506/5/3 507/2/3
f 505/4/3 508/6/3 506/5/3
f 509/4/3 510/5/3 511/2/3
f 509/4/3 512/6/3 510/5/3
f 513/1/1 514/2/1 515/3/1
f 513/1/1 516/4/1 514/2/1
f 517/1/1 518/2/1 519/3/1
f 517/1/1 520/4/1 518/2/1
f 521/1/1 522/2/1 523/3/1
f 521/1/1 524/4/1 522/2/1
f 525/1/1 526/2/1 527/3/1
f 525/1/1 528/4/1 526/2/1
f 529/1/1 530/2/1 531/3/1
f 529/1/1 532/4/1 530/2/1
f 533/1/1 534/2/1 535/3/1
f 533/1/1 536/4/1 534/2/1
f 537/1/1 538/2/1 539/3/1
f 537/1/1 540/4/1 538/2/1
f 541/1/1 542/2/1 543/3/1
f 541/1/1 544/4/1 542/2/1
f 545/1/1 546/2/1 547/3/1
f 545/1/1 548/4/1 546/2/1
f 549/1/1 550/2/1 551/3/1
f 549/1/1 552/4/1 550/2/1
f 553/1/1 554/2/1 555/3/1
f 553/1/1 556/4/1 554/2/1
f 557/1/1 558/2/1 559/3/1
f 557/1/1 560/4/1 558/2/1
f 561/1/1 562/2/1 563/3/1
f 561/1/1 564/4/1 562/2/1
f 565/1/1 566/2/1 567/3/1
f 565/1/1 568/4/1 566/2/1
f 569/1/1 570/2/1 571/3/1
f 569/1/1 572/4/1 570/2/1
f 573/1/1 574/2/1 575/3/1
f 573/1/1 576/4/1 574/2/1
f 577/1/4 578/2/4 579/3/4
f 577/1/4 580/4/4 578/2/4
f 581/1/4 582/2/4 583/3/4
f 581/1/4 584/4/4 582/2/4
f 585/1/4 586/2/4 587/3/4
f 585/1/4 588/4/4 586/2/4
f 589/1/4 590/2/4 591/3/4
f 589/1/4 592/4/4 590/2/4
f 593/1/4 594/2/4 595/3/4
f 593/1/4 596/4/4 594/2/4
f 597/1/4 598/2/4 599/3/4
f 597/1/4 600/4/4 598/2/4
f 601/1/4 602/2/4 603/3/4
f 601/1/4 604/4/4 602/2/4
f 605/1/4 606/2/4 607/3/4
f 605/1/4 608/4/4 606/2/4
f 609/1/4 610/2/4 611/3/4
f 609/1/4 612/4/4 610/2/4
f 613/1/4 614/2/4 615/3/4
f 613/1/4 616/4/4 614/2/4
f 617/1/4 618/2/4 619/3/4
f 617/1/4 620/4/4 618/2/4
f 621/1/4 622/2/4 623/3/4
f 621/1/4 624/4/4 622/2/4
f 625/1/4 626/2/4 627/3/4
f 625/1/4 628/4/4 626/2/4
f 629/1/4 630/2/4 631/3/4
f 629/1/4 632/4/4 630/2/4
f 633/1/4 634/2/4 635/3/4
f 633/1/4 636/4/4 634/2/4
f 637/1/4 638/2/4 639/3/4
f 637/1/4 640/4/4 638/2/4
f 641/1/1 642/2/1 643/3/1
f 641/1/1 644/4/1 642/2/1
f 645/4/2 646/5/2 647/2/2
f 645/4/2 648/6/2 646/5/2
f 649/1/1 650/2/1 651/3/1
f 649/1/1 652/4/1 650/2/1
f 653/1/1 654/2/1 655/3/1
f 653/1/1 656/4/1 654/2/1
f 657/1/1 658/2/1 659/3/1
f 657/1/1 660/4/1 658/2/1
f 661/4/2 662/5/2 663/2/2
f 661/4/2 664/6/2 662/5/2
f 665/4/2 666/5/2 667/2/2
f 665/4/2 668/6/2 666/5/2
f 669/4/2 670/5/2 671/2/2
f 669/4/2 672/6/2 670/5/2
f 673/1/4 674/2/4 675/3/4
f 673/1/4 676/4/4 674/2/4
f 677/4/2 678/5/2 679/2/2
f 677/4/2 680/6/2 678/5/2
f 681/4/2 682/5/2 683/2/2
f 681/4/2 684/6/2 682/5/2
f 685/4/2 686/5/2 687/2/2
f 685/4/2 688/6/2 686/5/2
f 689/1/4 690/2/4 691/3/4
f 689/1/4 692/4/4 690/2/4
f 693/1/4 694/2/4 695/3/4
f 693/1/4 696/4/4 694/2/4
f 697/1/4 698/2/4 699/3/4
f 697/1/4 700/4/4 698/2/4
f 701/4/2 702/5/2 703/2/2
f 701/4/2 704/6/2 702/5/2
f 705/4/2 706/5/2 707/2/2
f 705/4/2 708/6/2 706/5/2
f 709/4/2 710/5/2 711/2/2
f 709/4/2 712/6/2 710/5/2
f 713/4/2 714/5/2 715/2/2
f 713/4/2 716/6/2 714/5/2
f 717/4/2 718/5/2 719/2/2
f 717/4/2 720/6/2 718/5/2
f 721/4/2 722/5/2 723/2/2
f 721/4/2 724/6/2 722/5/2
f 725/4/2 726/5/2 727/2/2
f 725/4/2 728/6/2 726/5/2
f 729/4/2 730/5/2 731/2/2
f 729/4/2 732/6/2 730/5/2
f 733/4/2 734/5/2 735/2/2
f 733/4/2 736/6/2 734/5/2
f 737/1/1 738/2/1 739/3/1
f 737/1/1 740/4/1 738/2/1
f 741/1/1 742/2/1 743/3/1
f 741/1/1 744/4/1 742/2/1
f 745/1/1 746/2/1 747/3/1
f 745/1/1 748/4/1 746/2/1
f 749/4/3 750/5/3 751/2/3
f 749/4/3 752/6/3 750/5/3
f 753/1/1 754/2/1 755/3/1
f 753/1/1 756/4/1 754/2/1
f 757/1/1 758/2/1 759/3/1
f 757/1/1 760/4/1 758/2/1
f 761/1/1 762/2/1 763/3/1
f 761/1/1 764/4/1 762/2/1
f 765/1/1 766/2/1 767/3/1
f 765/1/1 768/4/1 766/2/1
f 769/1/1 770/2/1 771/3/1
f 769/1/1 772/4/1 770/2/1
f 773/1/1 774/2/1 775/3/1
f 773/1/1 776/4/1 774/2/1
f 777/1/1 778/2/1 779/3/1
f 777/1/1 780/4/1 778/2/1
f 781/1/1 782/2/1 783/3/1
f 781/1/1 784/4/1 782/2/1
f 785/1/1 786/2/1 787/3/1
f 785/1/1 788/4/1 786/2/1
f 789/4/3 790/5/3 791/2/3
f 789/4/3 792/6/3 790/5/3
f 793/4/3 794/5/3 795/2/3
f 793/4/3 796/6/3 794/5/3
f 797/4/3 798/5/3 799/2/3
f 797/4/3 800/6/3 798/5/3
f 801/1/4 802/2/4 803/3/4
f 801/1/4 804/4/4 802/2/4
f 805/1/4 806/2/4 807/3/4
f 805/1/4 808/4/4 806/2/4
f 809/1/4 810/2/4 811/3/4
f 809/1/4 812/4/4 810/2/4
f 813/4/3 814/5/3 815/2/3
f 813/4/3 816/6/3 814/5/3
f 817/4/3 818/5/3 819/2/3
f 817/4/3 820/6/3 818/5/3
f 821/4/3 822/5/3 823/2/3
f 821/4/3 824/6/3 822/5/3
f 825/1/4 826/2/4 827/3/4
f 825/1/4 828/4/4 826/2/4
f 829/1/4 830/2/4 831/3/4
f 829/1/4 832/4/4 830/2/4
f 833/1/4 834/2/4 835/3/4
f 833/1/4 836/4/4 834/2/4
f 837/1/4 838/2/4 839/3/4
f 837/1/4 840/4/4 838/2/4
f 841/1/4 842/2/4 843/3/4
f 841/1/4 844/4/4 842/2/4
f 845/1/4 846/2/4 847/3/4
f 845/1/4 848/4/4 846/2/4
f 849/1/4 850/2/4 851/3/4
f 849/1/4 852/4/4 850/2/4
f 853/1/4 854/2/4 855/3/4
f 853/1/4 856/4/4 854/2/4
f 857/1/4 858/2/4 859/3/4
f 857/1/4 860/4/4 858/2/4
f 861/4/3 862/5/3 863/2/3
f 861/4/3 864/6/3 862/5/3
f 865/4/3 866/5/3 867/2/3
f 865/4/3 868/6/3 866/5/3
f 869/4/3 870/5/3 871/2/3
f 869/4/3 872/6/3 870/5/3
f 873/4/3 874/5/3 875/2/3
f 873/4/3 876/6/3 874/5/3
f 877/4/3 878/5/3 879/2/3
f 877/4/3 880/6/3 878/5/3
f 881/4/3 882/5/3 883/2/3
f 881/4/3 884/6/3 882/5/3
f 885/4/3 886/5/3 887/2/3
f 885/4/3 888/6/3 886/5/3
f 889/4/3 890/5/3 891/2/3
f 889/4/3 892/6/3 890/5/3
f 893/4/3 894/5/3 895/2/3
f 893/4/3 896/6/3 894/5/3
f 897/1/4 898/2/4 899/3/4
f 897/1/4 900/4/4 898/2/4
f 901/1/4 902/2/4 903/3/4
f 901/1/4 904/4/4 902/2/4
f 905/1/4 906/2/4 907/3/4
f 905/1/4 908/4/4 906/2/4
f 909/1/4 910/2/4 911/3/4
f 909/1/4 912/4/4 910/2/4
f 913/1/4 914/2/4 915/3/4
f 913/1/4 916/4/4 914/2/4
f 917/1/4 918/2/4 919/3/4
f 917/1/4 920/4/4 918/2/4
f 921/1/4 922/2/4 923/3/4
f 921/1/4 924/4/4 922/2/4
f 925/1/4 926/2/4 927/3/4
f 925/1/4 928/4/4 926/2/4
f 929/1/2 930/2/2 931/3/2
f 929/1/2 932/4/2 930/2/2
f 933/1/2 934/2/2 935/3/2
f 933/1/2 936/4/2 934/2/2
f 937/1/2 938/2/2 939/3/2
f 937/1/2 940/4/2 938/2/2
f 941/1/2 942/2/2 943/3/2
f 941/1/2 944/4/2 942/2/2
f 945/1/2 946/2/2 947/3/2
f 945/1/2 948/4/2 946/2/2
f 949/1/2 950/2/2 951/3/2
f 949/1/2 952/4/2 950/2/2
f 953/1/2 954/2/2 955/3/2
f 953/1/2 956/4/2 954/2/2
f 957/1/2 958/2/2 959/3/2
f 957/1/2 960/4/2 958/2/2
f 961/1/3 962/2/3 963/3/3
f 961/1/3 964/4/3 962/2/3
f 965/1/3 966/2/3 967/3/3
f 965/1/3 968/4/3 966/2/3
f 969/1/3 970/2/3 971/3/3
f 969/1/3 972/4/3 970/2/3
f 973/1/3 974/2/3 975/3/3
f 973/1/3 976/4/3 974/2/3
f 977/1/3 978/2/3 979/3/3
f 977/1/3 980/4/3 978/2/3
f 981/1/3 982/2/3 983/3/3
f 981/1/3 984/4/3 982/2/3
f 985/1/3 986/2/3 987/3/3
f 985/1/3 988/4/3 986/2/3
f 989/1/3 990/2/3 991/3/3
f 989/1/3 992/4/3 990/2/3
f 993/1/1 994/2/1 995/3/1
f 993/1/1 996/4/1 994/2/1
f 997/1/1 998/2/1 999/3/1
f 997/1/1 1000/4/1 998/2/1
f 1001/1/1 1002/2/1 1003/3/1
f 1001/1/1 1004/4/1 1002/2/1
f 1005/1/1 1006/2/1 1007/3/1
f 1005/1/1 1008/4/1 1006/2/1
f 1009/1/1 1010/2/1 1011/3/1
f 1009/1/1 1012/4/1 1010/2/1
f 1013/1/1 1014/2/1 1015/3/1
f 1013/1/1 1016/4/1 1014/2/1
f 1017/1/1 1018/2/1 1019/3/1
f 1017/1/1 1020/4/1 1018/2/1
f 1021/1/1 1022/2/1 1023/3/1
f 1021/1/1 1024/4/1 1022/2/1
f 1025/4/1 1026/5/1 1027/2/1
f 1025/4/1 1028/6/1 1026/5/1
f 1029/4/1 1030/5/1 1031/2/1
f 1029/4/1 1032/6/1 1030/5/1
f 1033/4/1 1034/5/1 1035/2/1
f 1033/4/1 1036/6/1 1034/5/1
f 1037/4/1 1038/5/1 1039/2/1
f 1037/4/1 1040/6/1 1038/5/1
f 1041/4/1 1042/5/1 1043/2/1
f 1041/4/1 1044/6/1 1042/5/1
f 1045/4/1 1046/5/1 1047/2/1
f 1045/4/1 1048/6/1 1046/5/1
f 1049/4/1 1050/5/1 1051/2/1
f 1049/4/1 1052/6/1 1050/5/1
f 1053/4/1 1054/5/1 1055/2/1
f 1053/4/1 1056/6/1 1054/5/1
f 1057/4/1 1058/5/1 1059/2/1
f 1057/4/1 1060/6/1 1058/5/1
f 1061/4/1 1062/5/1 1063/2/1
f 1061/4/1 1064/6/1 1062/5/1
f 1065/4/1 1066/5/1 1067/2/1
f 1065/4/1 1068/6/1 1066/5/1
f 1069/4/1 1070/5/1 1071/2/1
f 1069/4/1 1072/6/1 1070/5/1
f 1073/4/1 1074/5/1 1075/2/1
f 1073/4/1 1076/6/1 1074/5/1
f 1077/4/1 1078/5/1 1079/2/1
f 1077/4/1 1080/6/1 1078/5/1
f 1081/4/1 1082/5/1 1083/2/1
f 1081/4/1 1084/6/1 1082/5/1
f 1085/4/1 1086/5/1 1087/2/1
f 1085/4/1 1088/6/1 1086/5/1
f 1089/4/4 1090/5/4 1091/2/4
f 1089/4/4 1092/6/4 1090/5/4
f 1093/4/4 1094/5/4 1095/2/4
f 1093/4/4 1096/6/4 1094/5/4
f 1097/4/4 1098/5/4 1099/2/4
f 1097/4/4 1100/6/4 1098/5/4
f 1101/4/4 1102/5/4 1103/2/4
f 1101/4/4 1104/6/4 1102/5/4
f 1105/4/4 1106/5/4 1107/2/4
f 1105/4/4 1108/6/4 1106/5/4
f 1109/4/4 1110/5/4 1111/2/4
f 1109/4/4 1112/6/4 1110/5/4
f 1113/4/4 1114/5/4 1115/2/4
f 1113/4/4 1116/6/4 1114/5/4
f 1117/4/4 1118/5/4 1119/2/4
f 1117/4/4 1120/6/4 1118/5/4
f 1121/4/4 1122/5/4 1123/2/4
f 1121/4/4 1124/6/4 1122/5/4
f 1125/4/4 1126/5/4 1127/2/4
f 1125/4/4 1128/6/4 1126/5/4
f 1129/4/4 1130/5/4 1131/2/4
f 1129/4/4 1132/6/4 1130/5/4
f 1133/4/4 1134/5/4 1135/2/4
f 1133/4/4 1136/6/4 1134/5/4
f 1137/4/4 1138/5/4 1139/2/4
f 1137/4/4 1140/6/4 1138/5/4
f 1141/4/4 1142/5/4 1143/2/4
f 1141/4/4 1144/6/4 1142/5/4
f 1145/4/4 1146/5/4 1147/2/4
f 1145/4/4 1148/6/4 1146/5/4
f 1149/4/4 1150/5/4 1151/2/4
f 1149/4/4 1152/6/4 1150/5/4
f 1153/1/3 1154/2/3 1155/3/3
f 1153/1/3 1156/4/3 1154/2/3
f 1157/1/3 1158/2/3 1159/3/3
f 1157/1/3 1160/4/3 1158/2/3
f 1161/1/3 1162/2/3 1163/3/3
f 1161/1/3 1164/4/3 1162/2/3
f 1165/1/3 1166/2/3 1167/3/3
f 1165/1/3 1168/4/3 1166/2/3
f 1169/1/3 1170/2/3 1171/3/3
f 1169/1/3 1172/4/3 1170/2/3
f 1173/1/3 1174/2/3 1175/3/3
f 1173/1/3 1176/4/3 1174/2/3
f 1177/1/3 1178/2/3 1179/3/3
f 1177/1/3 1180/4/3 1178/2/3
f 1181/1/3 1182/2/3 1183/3/3
f 1181/1/3 1184/4/3 1182/2/3
f 1185/1/3 1186/2/3 1187/3/3
f 1185/1/3 1188/4/3 1186/2/3
f 1189/1/3 1190/2/3 1191/3/3
f 1189/1/3 1192/4/3 1190/2/3
f 1193/1/3 1194/2/3 1195/3/3
f 1193/1/3 1196/4/3 1194/2/3
f 1197/1/3 1198/2/3 1199/3/3
f 1197/1/3 1200/4/3 1198/2/3
f 1201/1/3 1202/2/3 1203/3/3
f 1201/1/3 1204/4/3 1202/2/3
f 1205/1/3 1206/2/3 1207/3/3
f 1205/1/3 1208/4/3 1206/2/3
f 1209/1/3 1210/2/3 1211/3/3
f 1209/1/3 1212/4/3 1210/2/3
f 1213/1/3 1214/2/3 1215/3/3
f 1213/1/3 1216/4/3 1214/2/3
f 1217/1/2 1218/2/2 1219/3/2
f 1217/1/2 1220/4/2 1218/2/2
f 1221/1/2 1222/2/2 1223/3/2
f 1221/1/2 1224/4/2 1222/2/2
f 1225/1/2 1226/2/2 1227/3/2
f 1225/1/2 1228/4/2 1226/2/2
f 1229/1/2 1230/2/2 1231/3/2
f 1229/1/2 1232/4/2 1230/2/2
f 1233/1/2 1234/2/2 1235/3/2
f 1233/1/2 1236/4/2 1234/2/2
f 1237/1/2 1238/2/2 1239/3/2
f 1237/1/2 1240/4/2 1238/2/2
f 1241/1/2 1242/2/2 1243/3/2
f 1241/1/2 1244/4/2 1242/2/2
f 1245/1/2 1246/2/2 1247/3/2
f 1245/1/2 1248/4/2 1246/2/2
f 1249/1/2 1250/2/2 1251/3/2
f 1249/1/2 1252/4/2 1250/2/2
f 1253/1/2 1254/2/2 1255/3/2
f 1253/1/2 1256/4/2 1254/2/2
f 1257/1/2 1258/2/2 1259/3/2
f 1257/1/2 1260/4/2 1258/2/2
f 1261/1/2 1262/2/2 1263/3/2
f 1261/1/2 1264/4/2 1262/2/2
f 1265/1/2 1266/2/2 1267/3/2
f 1265/1/2 1268/4/2 1266/2/2
f 1269/1/2 1270/2/2 1271/3/2
f 1269/1/2 1272/4/2 1270/2/2
f 1273/1/2 1274/2/2 1275/3/2
f 1273/1/2 1276/4/2 1274/2/2
f 1277/1/2 1278/2/2 1279/3/2
f 1277/1/2 1280/4/2 1278/2/2
f 1281/1/2 1282/2/2 1283/3/2
f 1281/1/2 1284/4/2 1282/2/2
f 1285/1/2 1286/2/2 1287/3/2
f 1285/1/2 1288/4/2 1286/2/2
f 1289/1/2 1290/2/2 1291/3/2
f 1289/1/2 1292/4/2 1290/2/2
f 1293/1/2 1294/2/2 1295/3/2
f 1293/1/2 1296/4/2 1294/2/2
f 1297/1/2 1298/2/2 1299/3/2
f 1297/1/2 1300/4/2 1298/2/2
f 1301/1/2 1302/2/2 1303/3/2
f 1301/1/2 1304/4/2 1302/2/2
f 1305/1/2 1306/2/2 1307/3/2
f 1305/1/2 1308/4/2 1306/2/2
f 1309/1/2 1310/2/2 1311/3/2
f 1309/1/2 1312/4/2 1310/2/2
f 1313/4/1 1314/5/1 1315/2/1
f 1313/4/1 1316/6/1 1314/5/1
f 1317/4/1 1318/5/1 1319/2/1
f 1317/4/1 1320/6/1 1318/5/1
f 1321/4/1 1322/5/1 1323/2/1
f 1321/4/1 1324/6/1 1322/5/1
f 1325/4/1 1326/5/1 1327/2/1
f 1325/4/1 1328/6/1 1326/5/1
f 1329/4/1 1330/5/1 1331/2/1
f 1329/4/1 1332/6/1 1330/5/1
f 1333/4/1 1334/5/1 1335/2/1
f 1333/4/1 1336/6/1 1334/5/1
f 1337/4/1 1338/5/1 1339/2/1
f 1337/4/1 1340/6/1 1338/5/1
f 1341/4/1 1342/5/1 1343/2/1
f 1341/4/1 1344/6/1 1342/5/1
f 1345/1/1 1346/2/1 1347/3/1
f 1345/1/1 1348/4/1 1346/2/1
f 1349/1/1 1350/2/1 1351/3/1
f 1349/1/1 1352/4/1 1350/2/1
f 1353/1/1 1354/2/1 1355/3/1
f 1353/1/1 1356/4/1 1354/2/1
f 1357/1/1 1358/2/1 1359/3/1
f 1357/1/1 1360/4/1 1358/2/1
f 1361/1/2 1362/2/2 1363/3/2
f 1361/1/2 1364/4/2 1362/2/2
f 1365/1/2 1366/2/2 1367/3/2
f 1365/1/2 1368/4/2 1366/2/2
f 1369/1/2 1370/2/2 1371/3/2
f 1369/1/2 1372/4/2 1370/2/2
f 1373/1/2 1374/2/2 1375/3/2
f 1373/1/2 1376/4/2 1374/2/2
f 1377/1/2 1378/2/2 1379/3/2
f 1377/1/2 1380/4/2 1378/2/2
f 1381/1/2 1382/2/2 1383/3/2
f 1381/1/2 1384/4/2 1382/2/2
f 1385/1/2 1386/2/2 1387/3/2
f 1385/1/2 1388/4/2 1386/2/2
f 1389/1/2 1390/2/2 1391/3/2
f 1389/1/2 1392/4/2 1390/2/2
f 1393/1/2 1394/2/2 1395/3/2
f 1393/1/2 1396/4/2 1394/2/2
f 1397/1/2 1398/2/2 1399/3/2
f 1397/1/2 1400/4/2 1398/2/2
f 1401/1/2 1402/2/2 1403/3/2
f 1401/1/2 1404/4/2 1402/2/2
f 1405/1/2 1406/2/2 1407/3/2
f 1405/1/2 1408/4/2 1406/2/2
f 1409/4/4 1410/5/4 1411/2/4
f 1409/4/4 1412/6/4 1410/5/4
f 1413/4/4 1414/5/4 1415/2/4
f 1413/4/4 1416/6/4 1414/5/4
f 1417/4/4 1418/5/4 1419/2/4
f 1417/4/4 1420/6/4 1418/5/4
f 1421/4/4 1422/5/4 1423/2/4
f 1421/4/4 1424/6/4 1422/5/4
f 1425/4/4 1426/5/4 1427/2/4
f 1425/4/4 1428/6/4 1426/5/4
f 1429/4/4 1430/5/4 1431/2/4
f 1429/4/4 1432/6/4 1430/5/4
f 1433/4/4 1434/5/4 1435/2/4
f 1433/4/4 1436/6/4 1434/5/4
f 1437/4/4 1438/5/4 1439/2/4
f 1437/4/4 1440/6/4 1438/5/4
f 1441/1/2 1442/2/2 1443/3/2
f 1441/1/2 1444/4/2 1442/2/2
f 1445/1/2 1446/2/2 1447/3/2
f 1445/1/2 1448/4/2 1446/2/2
f 1449/1/2 1450/2/2 1451/3/2
f 1449/1/2 1452/4/2 1450/2/2
f 1453/1/2 1454/2/2 1455/3/2
f 1453/1/2 1456/4/2 1454/2/2
f 1457/1/4 1458/2/4 1459/3/4
f 1457/1/4 1460/4/4 1458/2/4
f 1461/1/4 1462/2/4 1463/3/4
f 1461/1/4 1464/4/4 1462/2/4
f 1465/1/4 1466/2/4 1467/3/4
f 1465/1/4 1468/4/4 1466/2/4
f 1469/1/4 1470/2/4 1471/3/4
f 1469/1/4 1472/4/4 1470/2/4
f 1473/1/3 1474/2/3 1475/3/3
f 1473/1/3 1476/4/3 1474/2/3
f 1477/1/3 1478/2/3 1479/3/3
f 1477/1/3 1480/4/3 1478/2/3
f 1481/1/3 1482/2/3 1483/3/3
f 1481/1/3 1484/4/3 1482/2/3
f 1485/1/3 1486/2/3 1487/3/3
f 1485/1/3 1488/4/3 1486/2/3
f 1489/1/3 1490/2/3 1491/3/3
f 1489/1/3 1492/4/3 1490/2/3
f 1493/1/3 1494/2/3 1495/3/3
f 1493/1/3 1496/4/3 1494/2/3
f 1497/1/3 1498/2/3 1499/3/3
f 1497/1/3 1500/4/3 1498/2/3
f 1501/1/3 1502/2/3 1503/3/3
f 1501/1/3 1504/4/3 1502/2/3
f 1505/4/1 1506/5/1 1507/2/1
f 1505/4/1 1508/6/1 1506/5/1
f 1509/4/1 1510/5/1 1511/2/1
f 1509/4/1 1512/6/1 1510/5/1
f 1513/4/1 1514/5/1 1515/2/1
f 1513/4/1 1516/6/1 1514/5/1
f 1517/4/1 1518/5/1 1519/2/1
f 1517/4/1 1520/6/1 1518/5/1
f 1521/4/1 1522/5/1 1523/2/1
f 1521/4/1 1524/6/1 1522/5/1
f 1525/4/1 1526/5/1 1527/2/1
f 1525/4/1 1528/6/1 1526/5/1
f 1529/4/1 1530/5/1 1531/2/1
f 1529/4/1 1532/6/1 1530/5/1
f 1533/4/1 1534/5/1 1535/2/1
f 1533/4/1 1536/6/1 1534/5/1
f 1537/1/1 1538/2/1 1539/3/1
f 1537/1/1 1540/4/1 1538/2/1
f 1541/1/1 1542/2/1 1543/3/1
f 1541/1/1 1544/4/1 1542/2/1
f 1545/1/1 1546/2/1 1547/3/1
f 1545/1/1 1548/4/1 1546/2/1
f 1549/1/1 1550/2/1 1551/3/1
f 1549/1/1 1552/4/1 1550/2/1
f 1553/1/3 1554/2/3 1555/3/3
f 1553/1/3 1556/4/3 1554/2/3
f 1557/1/3 1558/2/3 1559/3/3
f 1557/1/3 1560/4/3 1558/2/3
f 1561/1/3 1562/2/3 1563/3/3
f 1561/1/3 1564/4/3 1562/2/3
f 1565/1/3 1566/2/3 1567/3/3
f 1565/1/3 1568/4/3 1566/2/3
f 1569/1/3 1570/2/3 1571/3/3
f 1569/1/3 1572/4/3 1570/2/3
f 1573/1/3 1574/2/3 1575/3/3
f 1573/1/3 1576/4/3 1574/2/3
f 1577/1/3 1578/2/3 1579/3/3
f 1577/1/3 1580/4/3 1578/2/3
f 1581/1/3 1582/2/3 1583/3/3
f 1581/1/3 1584/4/3 1582/2/3
f 1585/1/3 1586/2/3 1587/3/3
f 1585/1/3 1588/4/3 1586/2/3
f 1589/1/3 1590/2/3 1591/3/3
f 1589/1/3 1592/4/3 1590/2/3
f 1593/1/3 1594/2/3 1595/3/3
f 1593/1/3 1596/4/3 1594/2/3
f 1597/1/3 1598/2/3 1599/3/3
f 1597/1/3 1600/4/3 1598/2/3
f 1601/4/4 1602/5/4 1603/2/4
f 1601/4/4 1604/6/4 1602/5/4
f 1605/4/4 1606/5/4 1607/2/4
f 1605/4/4 1608/6/4 1606/5/4
f 1609/4/4 1610/5/4 1611/2/4
f 1609/4/4 1612/6/4 1610/5/4
f 1613/4/4 1614/5/4 1615/2/4
f 1613/4/4 1616/6/4 1614/5/4
f 1617/4/4 1618/5/4 1619/2/4
f 1617/4/4 1620/6/4 1618/5/4
f 1621/4/4 1622/5/4 1623/2/4
f 1621/4/4 1624/6/4 1622/5/4
f 1625/4/4 1626/5/4 1627/2/4
f 1625/4/4 1628/6/4 1626/5/4
f 1629/4/4 1630/5/4 1631/2/4
f 1629/4/4 1632/6/4 1630/5/4
f 1633/1/3 1634/2/3 1635/3/3
f 1633/1/3 1636/4/3 1634/2/3
f 1637/1/3 1638/2/3 1639/3/3
f 1637/1/3 1640/4/3 1638/2/3
f 1641/1/3 1642/2/3 1643/3/3
f 1641/1/3 1644/4/3 1642/2/3
f 1645/1/3 1646/2/3 1647/3/3
f 1645/1/3 1648/4/3 1646/2/3
f 1649/1/4 1650/2/4 1651/3/4
f 1649/1/4 1652/4/4 1650/2/4
f 1653/1/4 1654/2/4 1655/3/4
f 1653/1/4 1656/4/4 1654/2/4
f 1657/1/4 1658/2/4 1659/3/4
f 1657/1/4 1660/4/4 1658/2/4
f 1661/1/4 1662/2/4 1663/3/4
f 1661/1/4 1664/4/4 1662/2/4
f 1665/1/8 1666/2/8 1667/3/8
f 1665/1/8 1668/4/8 1666/2/8
f 1669/1/8 1670/2/8 1671/3/8
f 1669/1/8 1672/4/8 1670/2/8
f 1673/1/8 1674/2/8 1675/3/8
f 1673/1/8 1676/4/8 1674/2/8
f 1677/1/8 1678/2/8 1679/3/8
f 1677/1/8 1680/4/8 1678/2/8
f 1681/1/8 1682/2/8 1683/3/8
f 1681/1/8 1684/4/8 1682/2/8
f 1685/1/8 1686/2/8 1687/3/8
f 1685/1/8 1688/4/8 1686/2/8
f 1689/1/8 1690/2/8 1691/3/8
f 1689/1/8 1692/4/8 1690/2/8
f 1693/1/8 1694/2/8 1695/3/8
f 1693/1/8 1696/4/8 1694/2/8
f 1697/1/8 1698/2/8 1699/3/8
f 1697/1/8 1700/4/8 1698/2/8
f 1701/1/8 1702/2/8 1703/3/8
f 1701/1/8 1704/4/8 1702/2/8
f 1705/1/8 1706/2/8 1707/3/8
f 1705/1/8 1708/4/8 1706/2/8
f 1709/1/1 1710/2/1 1711/3/1
f 1709/1/1 1712/4/1 1710/2/1
f 1713/1/1 1714/2/1 1715/3/1
f 1713/1/1 1716/4/1 1714/2/1
f 1717/1/1 1718/2/1 1719/3/1
f 1717/1/1 1720/4/1 1718/2/1
f 1721/1/8 1722/2/8 1723/3/8
f 1721/1/8 1724/4/8 1722/2/8
f 1725/1/4 1726/2/4 1727/3/4
f 1725/1/4 1728/4/4 1726/2/4
f 1729/1/4 1730/2/4 1731/3/4
f 1729/1/4 1732/4/4 1730/2/4
f 1733/1/4 1734/2/4 1735/3/4
f 1733/1/4 1736/4/4 1734/2/4
f 1737/1/8 1738/2/8 1739/3/8
f 1737/1/8 1740/4/8 1738/2/8
f 1741/1/8 1742/2/8 1743/3/8
f 1741/1/8 1744/4/8 1742/2/8
f 1745/1/8 1746/2/8 1747/3/8
f 1745/1/8 1748/4/8 1746/2/8
f 1749/1/8 1750/2/8 1751/3/8
f 1749/1/8 1752/4/8 1750/2/8
f 1753/1/1 1754/2/1 1755/3/1
f 1753/1/1 1756/4/1 1754/2/1
f 1757/1/1 1758/2/1 1759/3/1
f 1757/1/1 1760/4/1 1758/2/1
f 1761/1/1 1762/2/1 1763/3/1
f 1761/1/1 1764/4/1 1762/2/1
f 1765/1/1 1766/2/1 1767/3/1
f 1765/1/1 1768/4/1 1766/2/1
f 1769/1/1 1770/2/1 1771/3/1
f 1769/1/1 1772/4/1 1770/2/1
f 1773/1/1 1774/2/1 1775/3/1
f 1773/1/1 1776/4/1 1774/2/1
f 1777/1/1 1778/2/1 1779/3/1
f 1777/1/1 1780/4/1 1778/2/1
f 1781/1/1 1782/2/1 1783/3/1
f 1781/1/1 1784/4/1 1782/2/1
f 1785/1/1 1786/2/1 1787/3/1
f 1785/1/1 1788/4/1 1786/2/1
f 1789/1/3 1790/2/3 1791/3/3
f 1789/1/3 1792/4/3 1790/2/3
f 1793/1/3 1794/2/3 1795/3/3
f 1793/1/3 1796/4/3 1794/2/3
f 1797/1/3 1798/2/3 1799/3/3
f 1797/1/3 1800/4/3 1798/2/3
f 1801/1/3 1802/2/3 1803/3/3
f 1801/1/3 1804/4/3 1802/2/3
f 1805/1/1 1806/2/1 1807/3/1
f 1805/1/1 1808/4/1 1806/2/1
f 1809/1/1 1810/2/1 1811/3/1
f 1809/1/1 1812/4/1 1810/2/1
f 1813/1/1 1814/2/1 1815/3/1
f 1813/1/1 1816/4/1 1814/2/1
f 1817/1/4 1818/2/4 1819/3/4
f 1817/1/4 1820/4/4 1818/2/4
f 1821/1/4 1822/2/4 1823/3/4
f 1821/1/4 1824/4/4 1822/2/4
f 1825/1/4 1826/2/4 1827/3/4
f 1825/1/4 1828/4/4 1826/2/4
f 1829/1/4 1830/2/4 1831/3/4
f 1829/1/4 1832/4/4 1830/2/4
f 1833/1/4 1834/2/4 1835/3/4
f 1833/1/4 1836/4/4 1834/2/4
f 1837/1/4 1838/2/4 1839/3/4
f 1837/1/4 1840/4/4 1838/2/4
f 1841/1/4 1842/2/4 1843/3/4
f 1841/1/4 1844/4/4 1842/2/4
f 1845/1/4 1846/2/4 1847/3/4
f 1845/1/4 1848/4/4 1846/2/4
f 1849/1/4 1850/2/4 1851/3/4
f 1849/1/4 1852/4/4 1850/2/4
f 1853/1/4 1854/2/4 1855/3/4
f 1853/1/4 1856/4/4 1854/2/4
f 1857/1/4 1858/2/4 1859/3/4
f 1857/1/4 1860/4/4 1858/2/4
f 1861/1/4 1862/2/4 1863/3/4
f 1861/1/4 1864/4/4 1862/2/4
f 1865/1/1 1866/2/1 1867/3/1
f 1865/1/1 1868/4/1 1866/2/1
f 1869/1/1 1870/2/1 1871/3/1
f 1869/1/1 1872/4/1 1870/2/1
f 1873/1/1 1874/2/1 1875/3/1
f 1873/1/1 1876/4/1 1874/2/1
f 1877/1/1 1878/2/1 1879/3/1
f 1877/1/1 1880/4/1 1878/2/1
f 1881/1/9 1882/2/9 1883/3/9
f 1881/1/9 1884/4/9 1882/2/9
f 1885/1/9 1886/2/9 1887/3/9
f 1885/1/9 1888/4/9 1886/2/9
f 1889/1/9 1890/2/9 1891/3/9
f 1889/1/9 1892/4/9 1890/2/9
f 1893/1/9 1894/2/9 1895/3/9
f 1893/1/9 1896/4/9 1894/2/9
f 1897/1/9 1898/2/9 1899/3/9
f 1897/1/9 1900/4/9 1898/2/9
f 1901/1/9 1902/2/9 1903/3/9
f 1901/1/9 1904/4/9 1902/2/9
f 1905/1/9 1906/2/9 1907/3/9
f 1905/1/9 1908/4/9 1906/2/9
f 1909/1/9 1910/2/9 1911/3/9
f 1909/1/9 1912/4/9 1910/2/9
f 1913/1/2 1914/2/2 1915/3/2
f 1913/1/2 1916/4/2 1914/2/2
f 1917/1/2 1918/2/2 1919/3/2
f 1917/1/2 1920/4/2 1918/2/2
f 1921/1/2 1922/2/2 1923/3/2
f 1921/1/2 1924/4/2 1922/2/2
f 1925/1/2 1926/2/2 1927/3/2
f 1925/1/2 1928/4/2 1926/2/2
f 1929/1/1 1930/2/1 1931/3/1
f 1929/1/1 1932/4/1 1930/2/1
f 1933/1/4 1934/2/4 1935/3/4
f 1933/1/4 1936/4/4 1934/2/4
f 1937/1/4 1938/2/4 1939/3/4
f 1937/1/4 1940/4/4 1938/2/4
f 1941/1/4 1942/2/4 1943/3/4
f 1941/1/4 1944/4/4 1942/2/4
f 1945/1/4 1946/2/4 1947/3/4
f 1945/1/4 1948/4/4 1946/2/4
f 1949/1/4 1950/2/4 1951/3/4
f 1949/1/4 1952/4/4 1950/2/4
f 1953/1/9 1954/2/9 1955/3/9
f 1953/1/9 1956/4/9 1954/2/9
f 1957/1/9 1958/2/9 1959/3/9
f 1957/1/9 1960/4/9 1958/2/9
f 1961/1/9 1962/2/9 1963/3/9
f 1961/1/9 1964/4/9 1962/2/9
f 1965/1/9 1966/2/9 1967/3/9
f 1965/1/9 1968/4/9 1966/2/9
f 1969/1/9 1970/2/9 1971/3/9
f 1969/1/9 1972/4/9 1970/2/9
f 1973/1/9 1974/2/9 1975/3/9
f 1973/1/9 1976/4/9 1974/2/9
f 1977/1/9 1978/2/9 1979/3/9
f 1977/1/9 1980/4/9 1978/2/9
f 1981/1/9 1982/2/9 1983/3/9
f 1981/1/9 1984/4/9 1982/2/9
f 1985/1/10 1986/2/10 1987/3/10
f 1985/1/10 1988/4/10 1986/2/10
f 1989/1/10 1990/2/10 1991/3/10
f 1989/1/10 1992/4/10 1990/2/10
f 1993/1/10 1994/2/10 1995/3/10
f 1993/1/10 1996/4/10 1994/2/10
f 1997/1/10 1998/2/10 1999/3/10
f 1997/1/10 2000/4/10 1998/2/10
f 2001/1/10 2002/2/10 2003/3/10
f 2001/1/10 2004/4/10 2002/2/10
f 2005/1/10 2006/2/10 2007/3/10
f 2005/1/10 2008/4/10 2006/2/10
f 2009/1/10 2010/2/10 2011/3/10
f 2009/1/10 2012/4/10 2010/2/10
f 2013/1/10 2014/2/10 2015/3/10
f 2013/1/10 2016/4/10 2014/2/10
f 2017/1/10 2018/2/10 2019/3/10
f 2017/1/10 2020/4/10 2018/2/10
f 2021/1/10 2022/2/10 2023/3/10
f 2021/1/10 2024/4/10 2022/2/10
f 2025/1/10 2026/2/10 2027/3/10
f 2025/1/10 2028/4/10 2026/2/10
f 2029/1/10 2030/2/10 2031/3/10
f 2029/1/10 2032/4/10 2030/2/10
f 2033/1/10 2034/2/10 2035/3/10
f 2033/1/10 2036/4/10 2034/2/10
f 2037/1/10 2038/2/10 2039/3/10
f 2037/1/10 2040/4/10 2038/2/10
f 2041/1/10 2042/2/10 2043/3/10
f 2041/1/10 2044/4/10 2042/2/10
f 2045/1/10 2046/2/10 2047/3/10
f 2045/1/10 2048/4/10 2046/2/10
