mtllib segment3.mtl
o Default
v 0 0 0
v 0 0 -1
v 1 0 -1
v 1 0 0
v 1 0 0
v 2 0 -1
v 1 0 -1
v 2 0 0
v 2 0 0
v 3 0 -1
v 2 0 -1
v 3 0 0
v 3 0 0
v 4 0 -1
v 3 0 -1
v 4 0 0
v 0 0 0
v 1.1102230246251565e-16 1 -1
v -1.1102230246251565e-16 1 0
v 0 0 -1
v -1.1102230246251565e-16 1 0
v 1.1102230246251565e-16 2 -1
v -1.1102230246251565e-16 2 0
v 1.1102230246251565e-16 1 -1
v -1.1102230246251565e-16 2 0
v 1.1102230246251565e-16 3 -1
v -1.1102230246251565e-16 3 0
v 1.1102230246251565e-16 2 -1
v -1.1102230246251565e-16 3 0
v 1.1102230246251565e-16 4 -1
v -1.1102230246251565e-16 4 0
v 1.1102230246251565e-16 3 -1
v 0 0 -1
v 1 0 -2
v 0 0 -2
v 1 0 -1
v 0 0 -2
v 1 0 -3
v 0 0 -3
v 1 0 -2
v 0 0 -3
v 1 0 -4
v 0 0 -4
v 1 0 -3
v 1 0 -3
v 2 0 -4
v 1 0 -4
v 2 0 -3
v 2 0 -3
v 3 0 -4
v 2 0 -4
v 3 0 -3
v 3 0 -3
v 4 0 -4
v 3 0 -4
v 4 0 -3
v 3 0 -2
v 4 0 -3
v 3 0 -3
v 4 0 -2
v 3 0 -1
v 4 0 -2
v 3 0 -2
v 4 0 -1
v 2 0 -1
v 3 0 -2
v 2 0 -2
v 3 0 -1
v 1 0 -1
v 2 0 -2
v 1 0 -2
v 2 0 -1
v 1 0 -2
v 2 0 -3
v 1 0 -3
v 2 0 -2
v 2 0 -2
v 3 0 -3
v 2 0 -3
v 3 0 -2
v 1.1102230246251565e-16 3 -1
v 1.1102230246251565e-16 4 -2
v 1.1102230246251565e-16 4 -1
v 1.1102230246251565e-16 3 -2
v 1.1102230246251565e-16 3 -2
v 1.1102230246251565e-16 4 -3
v 1.1102230246251565e-16 4 -2
v 1.1102230246251565e-16 3 -3
v 1.1102230246251565e-16 3 -3
v 1.1102230246251565e-16 4 -4
v 1.1102230246251565e-16 4 -3
v 1.1102230246251565e-16 3 -4
v -1.1102230246251565e-16 2 -3
v 1.1102230246251565e-16 3 -4
v 1.1102230246251565e-16 3 -3
v 1.1102230246251565e-16 2 -4
v -1.1102230246251565e-16 1 -3
v 1.1102230246251565e-16 2 -4
v -1.1102230246251565e-16 2 -3
v 1.1102230246251565e-16 1 -4
v 0 0 -3
v 1.1102230246251565e-16 1 -4
v -1.1102230246251565e-16 1 -3
v 0 0 -4
v 0 0 -2
v -1.1102230246251565e-16 1 -3
v -1.1102230246251565e-16 1 -2
v 0 0 -3
v 0 0 -1
v -1.1102230246251565e-16 1 -2
v 1.1102230246251565e-16 1 -1
v 0 0 -2
v 1.1102230246251565e-16 1 -1
v 1.1102230246251565e-16 2 -2
v 1.1102230246251565e-16 2 -1
v -1.1102230246251565e-16 1 -2
v -1.1102230246251565e-16 1 -2
v -1.1102230246251565e-16 2 -3
v 1.1102230246251565e-16 2 -2
v -1.1102230246251565e-16 1 -3
v 1.1102230246251565e-16 2 -2
v 1.1102230246251565e-16 3 -3
v 1.1102230246251565e-16 3 -2
v -1.1102230246251565e-16 2 -3
v 1.1102230246251565e-16 2 -1
v 1.1102230246251565e-16 3 -2
v 1.1102230246251565e-16 3 -1
v 1.1102230246251565e-16 2 -2
v 4 0 -1
v 4 1 0
v 4 1 -1
v 4 0 0
v 4 0 -2
v 4 1 -1
v 4 1 -2
v 4 0 -1
v 4 0 -3
v 4 1 -2
v 4 1 -3
v 4 0 -2
v 4 0 -4
v 4 1 -3
v 4 1 -4
v 4 0 -3
v 4 1 -4
v 4 2 -3
v 4 2 -4
v 4 1 -3
v 4 2 -4
v 4 3 -3
v 4 3 -4
v 4 2 -3
v 4 3 -4
v 4 4 -3
v 4 4 -4
v 4 3 -3
v 4 3 -3
v 4 4 -2
v 4 4 -3
v 4 3 -2
v 4 3 -2
v 4 4 -1
v 4 4 -2
v 4 3 -1
v 4 3 -1
v 4 4 0
v 4 4 -1
v 4 3 0
v 4 2 -1
v 4 3 0
v 4 3 -1
v 4 2 0
v 4 1 -1
v 4 2 0
v 4 2 -1
v 4 1 0
v 4 1 -2
v 4 2 -1
v 4 2 -2
v 4 1 -1
v 4 1 -3
v 4 2 -2
v 4 2 -3
v 4 1 -2
v 4 2 -3
v 4 3 -2
v 4 3 -3
v 4 2 -2
v 4 2 -2
v 4 3 -1
v 4 3 -2
v 4 2 -1
v 3 4 -1
v 4 4 0
v 3 4 0
v 4 4 -1
v 2 4 -1
v 3 4 0
v 2 4 0
v 3 4 -1
v 1 4 -1
v 2 4 0
v 1 4 0
v 2 4 -1
v 1.1102230246251565e-16 4 -1
v 1 4 0
v -1.1102230246251565e-16 4 0
v 1 4 -1
v 1.1102230246251565e-16 4 -2
v 1 4 -1
v 1.1102230246251565e-16 4 -1
v 1 4 -2
v 1.1102230246251565e-16 4 -3
v 1 4 -2
v 1.1102230246251565e-16 4 -2
v 1 4 -3
v 1.1102230246251565e-16 4 -4
v 1 4 -3
v 1.1102230246251565e-16 4 -3
v 1 4 -4
v 1 4 -4
v 2 4 -3
v 1 4 -3
v 2 4 -4
v 2 4 -4
v 3 4 -3
v 2 4 -3
v 3 4 -4
v 3 4 -4
v 4 4 -3
v 3 4 -3
v 4 4 -4
v 3 4 -3
v 4 4 -2
v 3 4 -2
v 4 4 -3
v 3 4 -2
v 4 4 -1
v 3 4 -1
v 4 4 -2
v 2 4 -2
v 3 4 -1
v 2 4 -1
v 3 4 -2
v 1 4 -2
v 2 4 -1
v 1 4 -1
v 2 4 -2
v 1 4 -3
v 2 4 -2
v 1 4 -2
v 2 4 -3
v 2 4 -3
v 3 4 -2
v 2 4 -2
v 3 4 -3
v 4 3 -5
v 4 4 -4
v 4 4 -5
v 4 3 -4
v 4 2 -5
v 4 3 -4
v 4 3 -5
v 4 2 -4
v 4 1 -5
v 4 2 -4
v 4 2 -5
v 4 1 -4
v 4 0 -5
v 4 1 -4
v 4 1 -5
v 4 0 -4
v 4 0 -6
v 4 1 -5
v 4 1 -6
v 4 0 -5
v 4 0 -7
v 4 1 -6
v 4 1 -7
v 4 0 -6
v 4 0 -8
v 4 1 -7
v 4 1 -8
v 4 0 -7
v 4 1 -8
v 4 2 -7
v 4 2 -8
v 4 1 -7
v 4 2 -8
v 4 3 -7
v 4 3 -8
v 4 2 -7
v 4 3 -8
v 4 4 -7
v 4 4 -8
v 4 3 -7
v 4 3 -7
v 4 4 -6
v 4 4 -7
v 4 3 -6
v 4 3 -6
v 4 4 -5
v 4 4 -6
v 4 3 -5
v 4 2 -6
v 4 3 -5
v 4 3 -6
v 4 2 -5
v 4 1 -6
v 4 2 -5
v 4 2 -6
v 4 1 -5
v 4 1 -7
v 4 2 -6
v 4 2 -7
v 4 1 -6
v 4 2 -7
v 4 3 -6
v 4 3 -7
v 4 2 -6
v 1.1102230246251565e-16 3 -4
v 1.1102230246251565e-16 4 -5
v 1.1102230246251565e-16 4 -4
v 1.1102230246251565e-16 3 -5
v 1.1102230246251565e-16 3 -5
v 1.1102230246251565e-16 4 -6
v 1.1102230246251565e-16 4 -5
v 1.1102230246251565e-16 3 -6
v 1.1102230246251565e-16 3 -6
v 1.1102230246251565e-16 4 -7
v 1.1102230246251565e-16 4 -6
v 1.1102230246251565e-16 3 -7
v 1.1102230246251565e-16 3 -7
v 1.1102230246251565e-16 4 -8
v 1.1102230246251565e-16 4 -7
v 1.1102230246251565e-16 3 -8
v -1.1102230246251565e-16 2 -7
v 1.1102230246251565e-16 3 -8
v 1.1102230246251565e-16 3 -7
v 1.1102230246251565e-16 2 -8
v -1.1102230246251565e-16 1 -7
v 1.1102230246251565e-16 2 -8
v -1.1102230246251565e-16 2 -7
v 1.1102230246251565e-16 1 -8
v -1.1102230246251565e-16 0 -7
v 1.1102230246251565e-16 1 -8
v -1.1102230246251565e-16 1 -7
v 1.1102230246251565e-16 0 -8
v -1.1102230246251565e-16 0 -6
v -1.1102230246251565e-16 1 -7
v -1.1102230246251565e-16 1 -6
v -1.1102230246251565e-16 0 -7
v -1.1102230246251565e-16 0 -5
v -1.1102230246251565e-16 1 -6
v -1.1102230246251565e-16 1 -5
v -1.1102230246251565e-16 0 -6
v 0 0 -4
v -1.1102230246251565e-16 1 -5
v 1.1102230246251565e-16 1 -4
v -1.1102230246251565e-16 0 -5
v 1.1102230246251565e-16 1 -4
v 1.1102230246251565e-16 2 -5
v 1.1102230246251565e-16 2 -4
v -1.1102230246251565e-16 1 -5
v 1.1102230246251565e-16 2 -5
v 1.1102230246251565e-16 3 -6
v 1.1102230246251565e-16 3 -5
v 1.1102230246251565e-16 2 -6
v 1.1102230246251565e-16 2 -6
v 1.1102230246251565e-16 3 -7
v 1.1102230246251565e-16 3 -6
v -1.1102230246251565e-16 2 -7
v 1.1102230246251565e-16 2 -4
v 1.1102230246251565e-16 3 -5
v 1.1102230246251565e-16 3 -4
v 1.1102230246251565e-16 2 -5
v -1.1102230246251565e-16 1 -5
v 1.1102230246251565e-16 2 -6
v 1.1102230246251565e-16 2 -5
v -1.1102230246251565e-16 1 -6
v -1.1102230246251565e-16 1 -6
v -1.1102230246251565e-16 2 -7
v 1.1102230246251565e-16 2 -6
v -1.1102230246251565e-16 1 -7
v 3 4 -5
v 4 4 -4
v 3 4 -4
v 4 4 -5
v 2 4 -5
v 3 4 -4
v 2 4 -4
v 3 4 -5
v 1 4 -5
v 2 4 -4
v 1 4 -4
v 2 4 -5
v 1.1102230246251565e-16 4 -5
v 1 4 -4
v 1.1102230246251565e-16 4 -4
v 1 4 -5
v 1.1102230246251565e-16 4 -6
v 1 4 -5
v 1.1102230246251565e-16 4 -5
v 1 4 -6
v 1.1102230246251565e-16 4 -7
v 1 4 -6
v 1.1102230246251565e-16 4 -6
v 1 4 -7
v 1.1102230246251565e-16 4 -8
v 1 4 -7
v 1.1102230246251565e-16 4 -7
v 1 4 -8
v 1 4 -8
v 2 4 -7
v 1 4 -7
v 2 4 -8
v 2 4 -8
v 3 4 -7
v 2 4 -7
v 3 4 -8
v 3 4 -8
v 4 4 -7
v 3 4 -7
v 4 4 -8
v 3 4 -7
v 4 4 -6
v 3 4 -6
v 4 4 -7
v 3 4 -6
v 4 4 -5
v 3 4 -5
v 4 4 -6
v 2 4 -7
v 3 4 -6
v 2 4 -6
v 3 4 -7
v 1 4 -7
v 2 4 -6
v 1 4 -6
v 2 4 -7
v 1 4 -6
v 2 4 -5
v 1 4 -5
v 2 4 -6
v 2 4 -6
v 3 4 -5
v 2 4 -5
v 3 4 -6
v 0 0 -4
v 1 0 -5
v -1.1102230246251565e-16 0 -5
v 1 0 -4
v 1 0 -4
v 2 0 -5
v 1 0 -5
v 2 0 -4
v 2 0 -4
v 3 0 -5
v 2 0 -5
v 3 0 -4
v 3 0 -4
v 4 0 -5
v 3 0 -5
v 4 0 -4
v 3 0 -5
v 4 0 -6
v 3 0 -6
v 4 0 -5
v 3 0 -6
v 4 0 -7
v 3 0 -7
v 4 0 -6
v 3 0 -7
v 4 0 -8
v 3 0 -8
v 4 0 -7
v 2 0 -7
v 3 0 -8
v 2 0 -8
v 3 0 -7
v 1 0 -7
v 2 0 -8
v 1 0 -8
v 2 0 -7
v -1.1102230246251565e-16 0 -7
v 1 0 -8
v 1.1102230246251565e-16 0 -8
v 1 0 -7
v -1.1102230246251565e-16 0 -6
v 1 0 -7
v -1.1102230246251565e-16 0 -7
v 1 0 -6
v -1.1102230246251565e-16 0 -5
v 1 0 -6
v -1.1102230246251565e-16 0 -6
v 1 0 -5
v 1 0 -5
v 2 0 -6
v 1 0 -6
v 2 0 -5
v 2 0 -5
v 3 0 -6
v 2 0 -6
v 3 0 -5
v 2 0 -6
v 3 0 -7
v 2 0 -7
v 3 0 -6
v 1 0 -6
v 2 0 -7
v 1 0 -7
v 2 0 -6
v 1.1102230246251565e-16 0 -8
v 1 0 -9
v 0 0 -9
v 1 0 -8
v 1 0 -8
v 2 0 -9
v 1 0 -9
v 2 0 -8
v 2 0 -8
v 3 0 -9
v 2 0 -9
v 3 0 -8
v 3 0 -8
v 4 0 -9
v 3 0 -9
v 4 0 -8
v 3 0 -9
v 4 0 -10
v 3 0 -10
v 4 0 -9
v 3 0 -10
v 4 0 -11
v 3 0 -11
v 4 0 -10
v 3 0 -11
v 4 0 -12
v 3 0 -12
v 4 0 -11
v 2 0 -11
v 3 0 -12
v 2 0 -12
v 3 0 -11
v 1 0 -11
v 2 0 -12
v 1 0 -12
v 2 0 -11
v 0 0 -10
v 1 0 -11
v 0 0 -11
v 1 0 -10
v 0 0 -9
v 1 0 -10
v 0 0 -10
v 1 0 -9
v 1 0 -9
v 2 0 -10
v 1 0 -10
v 2 0 -9
v 2 0 -9
v 3 0 -10
v 2 0 -10
v 3 0 -9
v 2 0 -10
v 3 0 -11
v 2 0 -11
v 3 0 -10
v 1 0 -10
v 2 0 -11
v 1 0 -11
v 2 0 -10
v 0 0 -11
v 1 0 -12
v 0 0 -12
v 1 0 -11
v 0 0 -12
v 1.1102230246251565e-16 1 -13
v -1.1102230246251565e-16 1 -12
v 1.1102230246251565e-16 0 -13
v -1.1102230246251565e-16 1 -12
v 1.1102230246251565e-16 2 -13
v -1.1102230246251565e-16 2 -12
v 1.1102230246251565e-16 1 -13
v -1.1102230246251565e-16 2 -12
v 1.1102230246251565e-16 3 -13
v -1.1102230246251565e-16 3 -12
v 1.1102230246251565e-16 2 -13
v -1.1102230246251565e-16 3 -12
v 1.1102230246251565e-16 4 -13
v -1.1102230246251565e-16 4 -12
v 1.1102230246251565e-16 3 -13
v 1.1102230246251565e-16 3 -13
v 1.1102230246251565e-16 4 -14
v 1.1102230246251565e-16 4 -13
v 1.1102230246251565e-16 3 -14
v 1.1102230246251565e-16 3 -14
v 1.1102230246251565e-16 4 -15
v 1.1102230246251565e-16 4 -14
v 1.1102230246251565e-16 3 -15
v 1.1102230246251565e-16 3 -15
v 1.1102230246251565e-16 4 -16
v 1.1102230246251565e-16 4 -15
v 1.1102230246251565e-16 3 -16
v -1.1102230246251565e-16 2 -15
v 1.1102230246251565e-16 3 -16
v 1.1102230246251565e-16 3 -15
v 1.1102230246251565e-16 2 -16
v -1.1102230246251565e-16 1 -15
v 1.1102230246251565e-16 2 -16
v -1.1102230246251565e-16 2 -15
v 1.1102230246251565e-16 1 -16
v -1.1102230246251565e-16 0 -15
v 1.1102230246251565e-16 1 -16
v -1.1102230246251565e-16 1 -15
v 1.1102230246251565e-16 0 -16
v -1.1102230246251565e-16 0 -14
v -1.1102230246251565e-16 1 -15
v -1.1102230246251565e-16 1 -14
v -1.1102230246251565e-16 0 -15
v -1.1102230246251565e-16 1 -14
v -1.1102230246251565e-16 2 -15
v -1.1102230246251565e-16 2 -14
v -1.1102230246251565e-16 1 -15
v 1.1102230246251565e-16 1 -13
v -1.1102230246251565e-16 2 -14
v 1.1102230246251565e-16 2 -13
v -1.1102230246251565e-16 1 -14
v 1.1102230246251565e-16 2 -13
v 1.1102230246251565e-16 3 -14
v 1.1102230246251565e-16 3 -13
v -1.1102230246251565e-16 2 -14
v 1.1102230246251565e-16 0 -13
v -1.1102230246251565e-16 1 -14
v 1.1102230246251565e-16 1 -13
v -1.1102230246251565e-16 0 -14
v -1.1102230246251565e-16 2 -14
v 1.1102230246251565e-16 3 -15
v 1.1102230246251565e-16 3 -14
v -1.1102230246251565e-16 2 -15
v 0 4 -17
v 1 4 -16
v 1.1102230246251565e-16 4 -16
v 1 4 -17
v 0 4 -18
v 1 4 -17
v 0 4 -17
v 1 4 -18
v 0 4 -19
v 1 4 -18
v 0 4 -18
v 1 4 -19
v 0 4 -20
v 1 4 -19
v 0 4 -19
v 1 4 -20
v 1 4 -20
v 2 4 -19
v 1 4 -19
v 2 4 -20
v 2 4 -19
v 3 4 -18
v 2 4 -18
v 3 4 -19
v 3 4 -19
v 4 4 -18
v 3 4 -18
v 4 4 -19
v 3 4 -18
v 4 4 -17
v 3 4 -17
v 4 4 -18
v 2 4 -17
v 3 4 -16
v 2 4 -16
v 3 4 -17
v 1 4 -17
v 2 4 -16
v 1 4 -16
v 2 4 -17
v 1 4 -18
v 2 4 -17
v 1 4 -17
v 2 4 -18
v 2 4 -18
v 3 4 -17
v 2 4 -17
v 3 4 -18
v 3 4 -17
v 4 4 -16
v 3 4 -16
v 4 4 -17
v 3 4 -20
v 4 4 -19
v 3 4 -19
v 4 4 -20
v 2 4 -20
v 3 4 -19
v 2 4 -19
v 3 4 -20
v 1 4 -19
v 2 4 -18
v 1 4 -18
v 2 4 -19
v 4 3 -21
v 4 4 -20
v 4 4 -21
v 4 3 -20
v 4 2 -21
v 4 3 -20
v 4 3 -21
v 4 2 -20
v 4 1 -21
v 4 2 -20
v 4 2 -21
v 4 1 -20
v 4 0 -21
v 4 1 -20
v 4 1 -21
v 4 0 -20
v 4 0 -22
v 4 1 -21
v 4 1 -22
v 4 0 -21
v 4 0 -23
v 4 1 -22
v 4 1 -23
v 4 0 -22
v 4 0 -24
v 4 1 -23
v 4 1 -24
v 4 0 -23
v 4 1 -24
v 4 2 -23
v 4 2 -24
v 4 1 -23
v 4 2 -24
v 4 3 -23
v 4 3 -24
v 4 2 -23
v 4 3 -24
v 4 4 -23
v 4 4 -24
v 4 3 -23
v 4 3 -23
v 4 4 -22
v 4 4 -23
v 4 3 -22
v 4 3 -22
v 4 4 -21
v 4 4 -22
v 4 3 -21
v 4 2 -22
v 4 3 -21
v 4 3 -22
v 4 2 -21
v 4 1 -22
v 4 2 -21
v 4 2 -22
v 4 1 -21
v 4 1 -23
v 4 2 -22
v 4 2 -23
v 4 1 -22
v 4 2 -23
v 4 3 -22
v 4 3 -23
v 4 2 -22
v 4 3 -25
v 4 4 -24
v 4 4 -25
v 4 3 -24
v 4 2 -25
v 4 3 -24
v 4 3 -25
v 4 2 -24
v 4 1 -25
v 4 2 -24
v 4 2 -25
v 4 1 -24
v 4 0 -25
v 4 1 -24
v 4 1 -25
v 4 0 -24
v 4 0 -26
v 4 1 -25
v 4 1 -26
v 4 0 -25
v 4 1 -26
v 4 2 -25
v 4 2 -26
v 4 1 -25
v 4 2 -26
v 4 3 -25
v 4 3 -26
v 4 2 -25
v 4 3 -26
v 4 4 -25
v 4 4 -26
v 4 3 -25
v 4 3 -27
v 4 4 -26
v 4 4 -27
v 4 3 -26
v 4 2 -27
v 4 3 -26
v 4 3 -27
v 4 2 -26
v 4 1 -27
v 4 2 -26
v 4 2 -27
v 4 1 -26
v 4 0 -27
v 4 1 -26
v 4 1 -27
v 4 0 -26
v 4 0 -28
v 4 1 -27
v 4 1 -28
v 4 0 -27
v 4 1 -28
v 4 2 -27
v 4 2 -28
v 4 1 -27
v 4 2 -28
v 4 3 -27
v 4 3 -28
v 4 2 -27
v 4 3 -28
v 4 4 -27
v 4 4 -28
v 4 3 -27
v 3 4 -25
v 4 4 -24
v 3 4 -24
v 4 4 -25
v 2 4 -25
v 3 4 -24
v 2 4 -24
v 3 4 -25
v 1 4 -25
v 2 4 -24
v 1 4 -24
v 2 4 -25
v 0 4 -25
v 1 4 -24
v 0 4 -24
v 1 4 -25
v 0 4 -26
v 1 4 -25
v 0 4 -25
v 1 4 -26
v 0 4 -27
v 1 4 -26
v 0 4 -26
v 1 4 -27
v 0 4 -28
v 1 4 -27
v 0 4 -27
v 1 4 -28
v 1 4 -28
v 2 4 -27
v 1 4 -27
v 2 4 -28
v 2 4 -28
v 3 4 -27
v 2 4 -27
v 3 4 -28
v 3 4 -28
v 4 4 -27
v 3 4 -27
v 4 4 -28
v 3 4 -27
v 4 4 -26
v 3 4 -26
v 4 4 -27
v 2 4 -27
v 3 4 -26
v 2 4 -26
v 3 4 -27
v 2 4 -26
v 3 4 -25
v 2 4 -25
v 3 4 -26
v 1 4 -26
v 2 4 -25
v 1 4 -25
v 2 4 -26
v 3 4 -26
v 4 4 -25
v 3 4 -25
v 4 4 -26
v 1 4 -27
v 2 4 -26
v 1 4 -26
v 2 4 -27
v 0 0 -24
v 1 0 -25
v 0 0 -25
v 1 0 -24
v 1 0 -24
v 2 0 -25
v 1 0 -25
v 2 0 -24
v 2 0 -24
v 3 0 -25
v 2 0 -25
v 3 0 -24
v 3 0 -24
v 4 0 -25
v 3 0 -25
v 4 0 -24
v 3 0 -25
v 4 0 -26
v 3 0 -26
v 4 0 -25
v 3 0 -26
v 4 0 -27
v 3 0 -27
v 4 0 -26
v 3 0 -27
v 4 0 -28
v 3 0 -28
v 4 0 -27
v 2 0 -27
v 3 0 -28
v 2 0 -28
v 3 0 -27
v 1 0 -27
v 2 0 -28
v 1 0 -28
v 2 0 -27
v 0 0 -26
v 1 0 -27
v 0 0 -27
v 1 0 -26
v 0 0 -25
v 1 0 -26
v 0 0 -26
v 1 0 -25
v 1 0 -25
v 2 0 -26
v 1 0 -26
v 2 0 -25
v 1 0 -26
v 2 0 -27
v 1 0 -27
v 2 0 -26
v 2 0 -26
v 3 0 -27
v 2 0 -27
v 3 0 -26
v 2 0 -25
v 3 0 -26
v 2 0 -26
v 3 0 -25
v 0 0 -27
v 1 0 -28
v 0 0 -28
v 1 0 -27
v -1.1102230246251565e-16 1 -24
v 1.1102230246251565e-16 2 -25
v -1.1102230246251565e-16 2 -24
v 1.1102230246251565e-16 1 -25
v -1.1102230246251565e-16 2 -24
v 1.1102230246251565e-16 3 -25
v -1.1102230246251565e-16 3 -24
v 1.1102230246251565e-16 2 -25
v -1.1102230246251565e-16 3 -24
v 0 4 -25
v 0 4 -24
v 1.1102230246251565e-16 3 -25
v 0 0 -24
v 1.1102230246251565e-16 1 -25
v -1.1102230246251565e-16 1 -24
v 0 0 -25
v 1.1102230246251565e-16 1 -25
v 1.1102230246251565e-16 2 -26
v 1.1102230246251565e-16 2 -25
v 1.1102230246251565e-16 1 -26
v 1.1102230246251565e-16 1 -26
v 1.1102230246251565e-16 2 -27
v 1.1102230246251565e-16 2 -26
v 1.1102230246251565e-16 1 -27
v 0 0 -26
v 1.1102230246251565e-16 1 -27
v 1.1102230246251565e-16 1 -26
v 0 0 -27
v 0 0 -27
v 1.1102230246251565e-16 1 -28
v 1.1102230246251565e-16 1 -27
v 0 0 -28
v 0 0 -25
v 1.1102230246251565e-16 1 -26
v 1.1102230246251565e-16 1 -25
v 0 0 -26
v 1.1102230246251565e-16 1 -27
v 1.1102230246251565e-16 2 -28
v 1.1102230246251565e-16 2 -27
v 1.1102230246251565e-16 1 -28
v 1.1102230246251565e-16 2 -27
v 1.1102230246251565e-16 3 -28
v -1.1102230246251565e-16 3 -27
v 1.1102230246251565e-16 2 -28
v -1.1102230246251565e-16 3 -27
v 0 4 -28
v 0 4 -27
v 1.1102230246251565e-16 3 -28
v -1.1102230246251565e-16 3 -26
v 0 4 -27
v 0 4 -26
v -1.1102230246251565e-16 3 -27
v 1.1102230246251565e-16 3 -25
v 0 4 -26
v 0 4 -25
v -1.1102230246251565e-16 3 -26
v 1.1102230246251565e-16 2 -25
v -1.1102230246251565e-16 3 -26
v 1.1102230246251565e-16 3 -25
v 1.1102230246251565e-16 2 -26
v 1.1102230246251565e-16 2 -26
v -1.1102230246251565e-16 3 -27
v -1.1102230246251565e-16 3 -26
v 1.1102230246251565e-16 2 -27
v 3 -1 -24
v 4 0 -24
v 3 0 -24
v 4 -1 -24
v 2 -1 -24
v 3 0 -24
v 2 0 -24
v 3 -1 -24
v 0 -1 -24
v 1 0 -24
v 0 0 -24
v 1 -1 -24
v 1 -1 -24
v 2 0 -24
v 1 0 -24
v 2 -1 -24
v -1 -1 -24
v 0 0 -24
v -1 0 -24
v 0 -1 -24
v -1 0 -24
v -1.1102230246251565e-16 1 -24
v -1 1 -24
v 0 0 -24
v -1 1 -24
v -1.1102230246251565e-16 2 -24
v -1 2 -24
v -1.1102230246251565e-16 1 -24
v -1 2 -24
v -1.1102230246251565e-16 3 -24
v -1 3 -24
v -1.1102230246251565e-16 2 -24
v -1 3 -24
v 0 4 -24
v -1 4 -24
v -1.1102230246251565e-16 3 -24
v -1 4 -24
v 0 5 -24
v -1 5 -24
v 0 4 -24
v 0 4 -24
v 1 5 -24
v 0 5 -24
v 1 4 -24
v 1 4 -24
v 2 5 -24
v 1 5 -24
v 2 4 -24
v 2 4 -24
v 3 5 -24
v 2 5 -24
v 3 4 -24
v 3 4 -24
v 4 5 -24
v 3 5 -24
v 4 4 -24
v 4 0 -24
v 5 0 -23
v 4 0 -23
v 5 0 -24
v 4 0 -23
v 5 0 -22
v 4 0 -22
v 5 0 -23
v 4 0 -22
v 5 0 -21
v 4 0 -21
v 5 0 -22
v 4 0 -21
v 5 0 -20
v 4 0 -20
v 5 0 -21
v 4 4 -23
v 5 4 -24
v 4 4 -24
v 5 4 -23
v 4 4 -22
v 5 4 -23
v 4 4 -23
v 5 4 -22
v 4 4 -21
v 5 4 -22
v 4 4 -22
v 5 4 -21
v 4 4 -20
v 5 4 -21
v 4 4 -21
v 5 4 -20
v 4 3 -20
v 5 4 -20
v 4 4 -20
v 5 3 -20
v 4 2 -20
v 5 3 -20
v 4 3 -20
v 5 2 -20
v 4 1 -20
v 5 2 -20
v 4 2 -20
v 5 1 -20
v 4 0 -20
v 5 1 -20
v 4 1 -20
v 5 0 -20
v 4 4 -20
v 3 5 -20
v 4 5 -20
v 3 4 -20
v 3 4 -20
v 2 5 -20
v 3 5 -20
v 2 4 -20
v 2 4 -20
v 1 5 -20
v 2 5 -20
v 1 4 -20
v 1 4 -20
v 0 5 -20
v 1 5 -20
v 0 4 -20
v 0 4 -20
v 1.1102230246251565e-16 5 -19
v 0 5 -20
v 0 4 -19
v 0 4 -19
v 1.1102230246251565e-16 5 -18
v 1.1102230246251565e-16 5 -19
v 0 4 -18
v 0 4 -18
v 1.1102230246251565e-16 5 -17
v 1.1102230246251565e-16 5 -18
v 0 4 -17
v 0 4 -17
v 1.1102230246251565e-16 5 -16
v 1.1102230246251565e-16 5 -17
v 1.1102230246251565e-16 4 -16
v 1.1102230246251565e-16 4 -16
v 1 5 -16
v 1.1102230246251565e-16 5 -16
v 1 4 -16
v 1 4 -16
v 2 5 -16
v 1 5 -16
v 2 4 -16
v 2 4 -16
v 3 5 -16
v 2 5 -16
v 3 4 -16
v 3 4 -16
v 4 5 -16
v 3 5 -16
v 4 4 -16
v 4 4 -16
v 4 5 -17
v 4 5 -16
v 4 4 -17
v 4 4 -17
v 4 5 -18
v 4 5 -17
v 4 4 -18
v 4 4 -18
v 4 5 -19
v 4 5 -18
v 4 4 -19
v 4 4 -19
v 4 5 -20
v 4 5 -19
v 4 4 -20
v 3 5 -19
v 4 5 -20
v 3 5 -20
v 4 5 -19
v 2 5 -19
v 3 5 -20
v 2 5 -20
v 3 5 -19
v 1 5 -19
v 2 5 -20
v 1 5 -20
v 2 5 -19
v 1.1102230246251565e-16 5 -19
v 1 5 -20
v 0 5 -20
v 1 5 -19
v 1.1102230246251565e-16 5 -18
v 1 5 -19
v 1.1102230246251565e-16 5 -19
v 1 5 -18
v 1.1102230246251565e-16 5 -17
v 1 5 -18
v 1.1102230246251565e-16 5 -18
v 1 5 -17
v 1.1102230246251565e-16 5 -16
v 1 5 -17
v 1.1102230246251565e-16 5 -17
v 1 5 -16
v 1 5 -16
v 2 5 -17
v 1 5 -17
v 2 5 -16
v 2 5 -16
v 3 5 -17
v 2 5 -17
v 3 5 -16
v 3 5 -16
v 4 5 -17
v 3 5 -17
v 4 5 -16
v 3 5 -17
v 4 5 -18
v 3 5 -18
v 4 5 -17
v 3 5 -18
v 4 5 -19
v 3 5 -19
v 4 5 -18
v 2 5 -18
v 3 5 -19
v 2 5 -19
v 3 5 -18
v 1 5 -17
v 2 5 -18
v 1 5 -18
v 2 5 -17
v 2 5 -17
v 3 5 -18
v 2 5 -18
v 3 5 -17
v 1 5 -18
v 2 5 -19
v 1 5 -19
v 2 5 -18
v 5 3 -20
v 5 4 -21
v 5 4 -20
v 5 3 -21
v 5 2 -20
v 5 3 -21
v 5 3 -20
v 5 2 -21
v 5 1 -20
v 5 2 -21
v 5 2 -20
v 5 1 -21
v 5 0 -20
v 5 1 -21
v 5 1 -20
v 5 0 -21
v 5 0 -21
v 5 1 -22
v 5 1 -21
v 5 0 -22
v 5 0 -22
v 5 1 -23
v 5 1 -22
v 5 0 -23
v 5 0 -23
v 5 1 -24
v 5 1 -23
v 5 0 -24
v 5 1 -23
v 5 2 -24
v 5 2 -23
v 5 1 -24
v 5 2 -23
v 5 3 -24
v 5 3 -23
v 5 2 -24
v 5 3 -22
v 5 4 -23
v 5 4 -22
v 5 3 -23
v 5 3 -23
v 5 4 -24
v 5 4 -23
v 5 3 -24
v 5 3 -21
v 5 4 -22
v 5 4 -21
v 5 3 -22
v 5 2 -21
v 5 3 -22
v 5 3 -21
v 5 2 -22
v 5 1 -21
v 5 2 -22
v 5 2 -21
v 5 1 -22
v 5 2 -22
v 5 3 -23
v 5 3 -22
v 5 2 -23
v 5 1 -22
v 5 2 -23
v 5 2 -22
v 5 1 -23
v 5 0 -24
v 5 1 -25
v 5 1 -24
v 5 0 -25
v 5 0 -25
v 5 1 -26
v 5 1 -25
v 5 0 -26
v 5 0 -26
v 5 1 -27
v 5 1 -26
v 5 0 -27
v 5 0 -27
v 5 1 -28
v 5 1 -27
v 5 0 -28
v 5 1 -27
v 5 2 -28
v 5 2 -27
v 5 1 -28
v 5 1 -26
v 5 2 -27
v 5 2 -26
v 5 1 -27
v 5 2 -26
v 5 3 -27
v 5 3 -26
v 5 2 -27
v 5 3 -26
v 5 4 -27
v 5 4 -26
v 5 3 -27
v 5 2 -27
v 5 3 -28
v 5 3 -27
v 5 2 -28
v 5 3 -27
v 5 4 -28
v 5 4 -27
v 5 3 -28
v 5 3 -25
v 5 4 -26
v 5 4 -25
v 5 3 -26
v 5 3 -24
v 5 4 -25
v 5 4 -24
v 5 3 -25
v 5 2 -24
v 5 3 -25
v 5 3 -24
v 5 2 -25
v 5 2 -25
v 5 3 -26
v 5 3 -25
v 5 2 -26
v 5 1 -25
v 5 2 -26
v 5 2 -25
v 5 1 -26
v 5 1 -24
v 5 2 -25
v 5 2 -24
v 5 1 -25
v 4 4 -24
v 5 5 -24
v 4 5 -24
v 5 4 -24
v 5 4 -24
v 5 5 -25
v 5 5 -24
v 5 4 -25
v 5 4 -25
v 5 5 -26
v 5 5 -25
v 5 4 -26
v 5 4 -26
v 5 5 -27
v 5 5 -26
v 5 4 -27
v 5 4 -27
v 5 5 -28
v 5 5 -27
v 5 4 -28
v 4 5 -24
v 5 5 -25
v 4 5 -25
v 5 5 -24
v 4 5 -25
v 5 5 -26
v 4 5 -26
v 5 5 -25
v 4 5 -26
v 5 5 -27
v 4 5 -27
v 5 5 -26
v 4 5 -27
v 5 5 -28
v 4 5 -28
v 5 5 -27
v -1 5 -24
v 0 5 -25
v -1 5 -25
v 0 5 -24
v -1 5 -25
v 0 5 -26
v -1 5 -26
v 0 5 -25
v -1 5 -26
v 0 5 -27
v -1 5 -27
v 0 5 -26
v -1 5 -27
v 0 5 -28
v -1 5 -28
v 0 5 -27
v 0 5 -27
v 1 5 -28
v 0 5 -28
v 1 5 -27
v 1 5 -27
v 2 5 -28
v 1 5 -28
v 2 5 -27
v 2 5 -27
v 3 5 -28
v 2 5 -28
v 3 5 -27
v 3 5 -27
v 4 5 -28
v 3 5 -28
v 4 5 -27
v 3 5 -26
v 4 5 -27
v 3 5 -27
v 4 5 -26
v 2 5 -26
v 3 5 -27
v 2 5 -27
v 3 5 -26
v 1 5 -26
v 2 5 -27
v 1 5 -27
v 2 5 -26
v 0 5 -26
v 1 5 -27
v 0 5 -27
v 1 5 -26
v 0 5 -25
v 1 5 -26
v 0 5 -26
v 1 5 -25
v 1 5 -25
v 2 5 -26
v 1 5 -26
v 2 5 -25
v 2 5 -25
v 3 5 -26
v 2 5 -26
v 3 5 -25
v 3 5 -25
v 4 5 -26
v 3 5 -26
v 4 5 -25
v 3 5 -24
v 4 5 -25
v 3 5 -25
v 4 5 -24
v 2 5 -24
v 3 5 -25
v 2 5 -25
v 3 5 -24
v 1 5 -24
v 2 5 -25
v 1 5 -25
v 2 5 -24
v 0 5 -24
v 1 5 -25
v 0 5 -25
v 1 5 -24
v -1 4 -28
v -1 5 -27
v -1 5 -28
v -1 4 -27
v -1 4 -27
v -1 5 -26
v -1 5 -27
v -1 4 -26
v -1 4 -25
v -1 5 -24
v -1 5 -25
v -1 4 -24
v -1 4 -26
v -1 5 -25
v -1 5 -26
v -1 4 -25
v -1 3 -25
v -1 4 -24
v -1 4 -25
v -1 3 -24
v -1 2 -25
v -1 3 -24
v -1 3 -25
v -1 2 -24
v -1 1 -25
v -1 2 -24
v -1 2 -25
v -1 1 -24
v -1 0 -25
v -1 1 -24
v -1 1 -25
v -1 0 -24
v -1 -1 -25
v -1 0 -24
v -1 0 -25
v -1 -1 -24
v -1 -1 -26
v -1 0 -25
v -1 0 -26
v -1 -1 -25
v -1 -1 -27
v -1 0 -26
v -1 0 -27
v -1 -1 -26
v -1 -1 -28
v -1 0 -27
v -1 0 -28
v -1 -1 -27
v -1 0 -28
v -1 1 -27
v -1 1 -28
v -1 0 -27
v -1 1 -28
v -1 2 -27
v -1 2 -28
v -1 1 -27
v -1 2 -28
v -1 3 -27
v -1 3 -28
v -1 2 -27
v -1 3 -28
v -1 4 -27
v -1 4 -28
v -1 3 -27
v -1 3 -27
v -1 4 -26
v -1 4 -27
v -1 3 -26
v -1 2 -27
v -1 3 -26
v -1 3 -27
v -1 2 -26
v -1 1 -27
v -1 2 -26
v -1 2 -27
v -1 1 -26
v -1 0 -27
v -1 1 -26
v -1 1 -27
v -1 0 -26
v -1 0 -26
v -1 1 -25
v -1 1 -26
v -1 0 -25
v -1 1 -26
v -1 2 -25
v -1 2 -26
v -1 1 -25
v -1 2 -26
v -1 3 -25
v -1 3 -26
v -1 2 -25
v -1 3 -26
v -1 4 -25
v -1 4 -26
v -1 3 -25
v 4 -1 -24
v 5 0 -24
v 4 0 -24
v 5 -1 -24
v 5 -1 -24
v 5 0 -25
v 5 0 -24
v 5 -1 -25
v 5 -1 -25
v 5 0 -26
v 5 0 -25
v 5 -1 -26
v 5 -1 -26
v 5 0 -27
v 5 0 -26
v 5 -1 -27
v 5 -1 -27
v 5 0 -28
v 5 0 -27
v 5 -1 -28
v 4 -1 -25
v 5 -1 -24
v 4 -1 -24
v 5 -1 -25
v 3 -1 -25
v 4 -1 -24
v 3 -1 -24
v 4 -1 -25
v 2 -1 -25
v 3 -1 -24
v 2 -1 -24
v 3 -1 -25
v 1 -1 -25
v 2 -1 -24
v 1 -1 -24
v 2 -1 -25
v 0 -1 -25
v 1 -1 -24
v 0 -1 -24
v 1 -1 -25
v -1 -1 -25
v 0 -1 -24
v -1 -1 -24
v 0 -1 -25
v 4 -1 -26
v 5 -1 -25
v 4 -1 -25
v 5 -1 -26
v 3 -1 -26
v 4 -1 -25
v 3 -1 -25
v 4 -1 -26
v 2 -1 -26
v 3 -1 -25
v 2 -1 -25
v 3 -1 -26
v 1 -1 -26
v 2 -1 -25
v 1 -1 -25
v 2 -1 -26
v 0 -1 -26
v 1 -1 -25
v 0 -1 -25
v 1 -1 -26
v -1 -1 -26
v 0 -1 -25
v -1 -1 -25
v 0 -1 -26
v -1 -1 -27
v 0 -1 -26
v -1 -1 -26
v 0 -1 -27
v 0 -1 -27
v 1 -1 -26
v 0 -1 -26
v 1 -1 -27
v 1 -1 -27
v 2 -1 -26
v 1 -1 -26
v 2 -1 -27
v 2 -1 -27
v 3 -1 -26
v 2 -1 -26
v 3 -1 -27
v 3 -1 -27
v 4 -1 -26
v 3 -1 -26
v 4 -1 -27
v 4 -1 -27
v 5 -1 -26
v 4 -1 -26
v 5 -1 -27
v 4 -1 -28
v 5 -1 -27
v 4 -1 -27
v 5 -1 -28
v 3 -1 -28
v 4 -1 -27
v 3 -1 -27
v 4 -1 -28
v 2 -1 -28
v 3 -1 -27
v 2 -1 -27
v 3 -1 -28
v 1 -1 -28
v 2 -1 -27
v 1 -1 -27
v 2 -1 -28
v 0 -1 -28
v 1 -1 -27
v 0 -1 -27
v 1 -1 -28
v -1 -1 -28
v 0 -1 -27
v -1 -1 -27
v 0 -1 -28
v 1.1102230246251565e-16 0 -16
v -1 1 -16
v 1.1102230246251565e-16 1 -16
v -1 0 -16
v 1.1102230246251565e-16 1 -16
v -1 2 -16
v 1.1102230246251565e-16 2 -16
v -1 1 -16
v 1.1102230246251565e-16 2 -16
v -1 3 -16
v 1.1102230246251565e-16 3 -16
v -1 2 -16
v 1.1102230246251565e-16 3 -16
v -1 4 -16
v 1.1102230246251565e-16 4 -16
v -1 3 -16
v -1 0 -16
v -1.1102230246251565e-16 0 -15
v -1 0 -15
v 1.1102230246251565e-16 0 -16
v -1 0 -15
v -1.1102230246251565e-16 0 -14
v -1 0 -14
v -1.1102230246251565e-16 0 -15
v -1 0 -14
v 1.1102230246251565e-16 0 -13
v -1 0 -13
v -1.1102230246251565e-16 0 -14
v -1 0 -13
v 0 0 -12
v -1 0 -12
v 1.1102230246251565e-16 0 -13
v -1 0 -12
v -1.1102230246251565e-16 1 -12
v -1 1 -12
v 0 0 -12
v -1 1 -12
v -1.1102230246251565e-16 2 -12
v -1 2 -12
v -1.1102230246251565e-16 1 -12
v -1 2 -12
v -1.1102230246251565e-16 3 -12
v -1 3 -12
v -1.1102230246251565e-16 2 -12
v -1 3 -12
v -1.1102230246251565e-16 4 -12
v -1 4 -12
v -1.1102230246251565e-16 3 -12
v -1 4 -12
v 1.1102230246251565e-16 4 -13
v -1 4 -13
v -1.1102230246251565e-16 4 -12
v -1 4 -13
v 1.1102230246251565e-16 4 -14
v -1 4 -14
v 1.1102230246251565e-16 4 -13
v -1 4 -14
v 1.1102230246251565e-16 4 -15
v -1 4 -15
v 1.1102230246251565e-16 4 -14
v -1 4 -15
v 1.1102230246251565e-16 4 -16
v -1 4 -16
v 1.1102230246251565e-16 4 -15
v -1 3 -13
v -1 4 -12
v -1 4 -13
v -1 3 -12
v -1 2 -13
v -1 3 -12
v -1 3 -13
v -1 2 -12
v -1 1 -13
v -1 2 -12
v -1 2 -13
v -1 1 -12
v -1 0 -13
v -1 1 -12
v -1 1 -13
v -1 0 -12
v -1 0 -14
v -1 1 -13
v -1 1 -14
v -1 0 -13
v -1 0 -15
v -1 1 -14
v -1 1 -15
v -1 0 -14
v -1 0 -16
v -1 1 -15
v -1 1 -16
v -1 0 -15
v -1 1 -16
v -1 2 -15
v -1 2 -16
v -1 1 -15
v -1 2 -16
v -1 3 -15
v -1 3 -16
v -1 2 -15
v -1 3 -16
v -1 4 -15
v -1 4 -16
v -1 3 -15
v -1 3 -15
v -1 4 -14
v -1 4 -15
v -1 3 -14
v -1 3 -14
v -1 4 -13
v -1 4 -14
v -1 3 -13
v -1 2 -14
v -1 3 -13
v -1 3 -14
v -1 2 -13
v -1 1 -15
v -1 2 -14
v -1 2 -15
v -1 1 -14
v -1 2 -15
v -1 3 -14
v -1 3 -15
v -1 2 -14
v -1 1 -14
v -1 2 -13
v -1 2 -14
v -1 1 -13
v 1 -1 -12
v 0 0 -12
v 1 0 -12
v 0 -1 -12
v 2 -1 -12
v 1 0 -12
v 2 0 -12
v 1 -1 -12
v 4 -1 -12
v 3 0 -12
v 4 0 -12
v 3 -1 -12
v 3 -1 -12
v 2 0 -12
v 3 0 -12
v 2 -1 -12
v 0 -1 -12
v 0 0 -11
v 0 0 -12
v 1.1102230246251565e-16 -1 -11
v 1.1102230246251565e-16 -1 -11
v 0 0 -10
v 0 0 -11
v 1.1102230246251565e-16 -1 -10
v 1.1102230246251565e-16 -1 -10
v 0 0 -9
v 0 0 -10
v 1.1102230246251565e-16 -1 -9
v 1.1102230246251565e-16 -1 -9
v 1.1102230246251565e-16 0 -8
v 0 0 -9
v 1.1102230246251565e-16 -1 -8
v 4 -1 -11
v 4 0 -12
v 4 0 -11
v 4 -1 -12
v 4 -1 -10
v 4 0 -11
v 4 0 -10
v 4 -1 -11
v 4 -1 -9
v 4 0 -10
v 4 0 -9
v 4 -1 -10
v 4 -1 -8
v 4 0 -9
v 4 0 -8
v 4 -1 -9
v 5 -1 -8
v 4 0 -8
v 5 0 -8
v 4 -1 -8
v 1.1102230246251565e-16 -1 -8
v -1 0 -8
v 1.1102230246251565e-16 0 -8
v -1 -1 -8
v 5 0 -8
v 4 1 -8
v 5 1 -8
v 4 0 -8
v 5 1 -8
v 4 2 -8
v 5 2 -8
v 4 1 -8
v 5 2 -8
v 4 3 -8
v 5 3 -8
v 4 2 -8
v 5 3 -8
v 4 4 -8
v 5 4 -8
v 4 3 -8
v 5 4 -8
v 4 5 -8
v 5 5 -8
v 4 4 -8
v 4 4 -8
v 3 5 -8
v 4 5 -8
v 3 4 -8
v 3 4 -8
v 2 5 -8
v 3 5 -8
v 2 4 -8
v 2 4 -8
v 1 5 -8
v 2 5 -8
v 1 4 -8
v 1 4 -8
v 0 5 -8
v 1 5 -8
v 1.1102230246251565e-16 4 -8
v 1.1102230246251565e-16 4 -8
v -1 5 -8
v 0 5 -8
v -1 4 -8
v 1.1102230246251565e-16 3 -8
v -1 4 -8
v 1.1102230246251565e-16 4 -8
v -1 3 -8
v 1.1102230246251565e-16 2 -8
v -1 3 -8
v 1.1102230246251565e-16 3 -8
v -1 2 -8
v 1.1102230246251565e-16 1 -8
v -1 2 -8
v 1.1102230246251565e-16 2 -8
v -1 1 -8
v 1.1102230246251565e-16 0 -8
v -1 1 -8
v 1.1102230246251565e-16 1 -8
v -1 0 -8
v 5 -1 -7
v 5 0 -8
v 5 0 -7
v 5 -1 -8
v 5 -1 -6
v 5 0 -7
v 5 0 -6
v 5 -1 -7
v 5 -1 -5
v 5 0 -6
v 5 0 -5
v 5 -1 -6
v 5 -1 -4
v 5 0 -5
v 5 0 -4
v 5 -1 -5
v 5 -1 -3
v 5 0 -4
v 5 0 -3
v 5 -1 -4
v 5 -1 -2
v 5 0 -3
v 5 0 -2
v 5 -1 -3
v 5 -1 -1
v 5 0 -2
v 5 0 -1
v 5 -1 -2
v 5 -1 0
v 5 0 -1
v 5 0 0
v 5 -1 -1
v 5 4 -7
v 5 5 -8
v 5 5 -7
v 5 4 -8
v 5 4 -6
v 5 5 -7
v 5 5 -6
v 5 4 -7
v 5 4 -5
v 5 5 -6
v 5 5 -5
v 5 4 -6
v 5 4 -4
v 5 5 -5
v 5 5 -4
v 5 4 -5
v 5 4 -3
v 5 5 -4
v 5 5 -3
v 5 4 -4
v 5 4 -2
v 5 5 -3
v 5 5 -2
v 5 4 -3
v 5 4 -1
v 5 5 -2
v 5 5 -1
v 5 4 -2
v 5 4 0
v 5 5 -1
v 5 5 0
v 5 4 -1
v 5 3 -7
v 5 4 -8
v 5 4 -7
v 5 3 -8
v 5 2 -7
v 5 3 -8
v 5 3 -7
v 5 2 -8
v 5 1 -7
v 5 2 -8
v 5 2 -7
v 5 1 -8
v 5 0 -7
v 5 1 -8
v 5 1 -7
v 5 0 -8
v 5 0 0
v 5 1 -1
v 5 1 0
v 5 0 -1
v 5 1 0
v 5 2 -1
v 5 2 0
v 5 1 -1
v 5 2 0
v 5 3 -1
v 5 3 0
v 5 2 -1
v 5 3 0
v 5 4 -1
v 5 4 0
v 5 3 -1
v 5 3 -1
v 5 4 -2
v 5 4 -1
v 5 3 -2
v 5 3 -2
v 5 4 -3
v 5 4 -2
v 5 3 -3
v 5 3 -3
v 5 4 -4
v 5 4 -3
v 5 3 -4
v 5 3 -4
v 5 4 -5
v 5 4 -4
v 5 3 -5
v 5 3 -5
v 5 4 -6
v 5 4 -5
v 5 3 -6
v 5 3 -6
v 5 4 -7
v 5 4 -6
v 5 3 -7
v 5 2 -6
v 5 3 -7
v 5 3 -6
v 5 2 -7
v 5 1 -6
v 5 2 -7
v 5 2 -6
v 5 1 -7
v 5 0 -6
v 5 1 -7
v 5 1 -6
v 5 0 -7
v 5 0 -5
v 5 1 -6
v 5 1 -5
v 5 0 -6
v 5 0 -4
v 5 1 -5
v 5 1 -4
v 5 0 -5
v 5 0 -3
v 5 1 -4
v 5 1 -3
v 5 0 -4
v 5 0 -2
v 5 1 -3
v 5 1 -2
v 5 0 -3
v 5 0 -1
v 5 1 -2
v 5 1 -1
v 5 0 -2
v 5 1 -1
v 5 2 -2
v 5 2 -1
v 5 1 -2
v 5 2 -1
v 5 3 -2
v 5 3 -1
v 5 2 -2
v 5 2 -2
v 5 3 -3
v 5 3 -2
v 5 2 -3
v 5 2 -3
v 5 3 -4
v 5 3 -3
v 5 2 -4
v 5 2 -4
v 5 3 -5
v 5 3 -4
v 5 2 -5
v 5 2 -5
v 5 3 -6
v 5 3 -5
v 5 2 -6
v 5 1 -5
v 5 2 -6
v 5 2 -5
v 5 1 -6
v 5 1 -4
v 5 2 -5
v 5 2 -4
v 5 1 -5
v 5 1 -3
v 5 2 -4
v 5 2 -3
v 5 1 -4
v 5 1 -2
v 5 2 -3
v 5 2 -2
v 5 1 -3
v -1 -1 -8
v 0 -1 -7
v -1 -1 -7
v 1.1102230246251565e-16 -1 -8
v 1.1102230246251565e-16 -1 -8
v 1 -1 -7
v 0 -1 -7
v 1 -1 -8
v 1 -1 -8
v 2 -1 -7
v 1 -1 -7
v 2 -1 -8
v 2 -1 -8
v 3 -1 -7
v 2 -1 -7
v 3 -1 -8
v 3 -1 -8
v 4 -1 -7
v 3 -1 -7
v 4 -1 -8
v 4 -1 -8
v 5 -1 -7
v 4 -1 -7
v 5 -1 -8
v 4 -1 -1
v 5 -1 0
v 4 -1 0
v 5 -1 -1
v 3 -1 -1
v 4 -1 0
v 3 -1 0
v 4 -1 -1
v 2 -1 -1
v 3 -1 0
v 2 -1 0
v 3 -1 -1
v 1 -1 -1
v 2 -1 0
v 1 -1 0
v 2 -1 -1
v 0 -1 -1
v 1 -1 0
v 0 -1 0
v 1 -1 -1
v -1 -1 -1
v 0 -1 0
v -1 -1 0
v 0 -1 -1
v -1 -1 -2
v 0 -1 -1
v -1 -1 -1
v 0 -1 -2
v -1 -1 -3
v 0 -1 -2
v -1 -1 -2
v 0 -1 -3
v -1 -1 -4
v 0 -1 -3
v -1 -1 -3
v 0 -1 -4
v -1 -1 -5
v 0 -1 -4
v -1 -1 -4
v 0 -1 -5
v -1 -1 -6
v 0 -1 -5
v -1 -1 -5
v 0 -1 -6
v -1 -1 -7
v 0 -1 -6
v -1 -1 -6
v 0 -1 -7
v 4 -1 -7
v 5 -1 -6
v 4 -1 -6
v 5 -1 -7
v 4 -1 -6
v 5 -1 -5
v 4 -1 -5
v 5 -1 -6
v 4 -1 -5
v 5 -1 -4
v 4 -1 -4
v 5 -1 -5
v 4 -1 -4
v 5 -1 -3
v 4 -1 -3
v 5 -1 -4
v 4 -1 -2
v 5 -1 -1
v 4 -1 -1
v 5 -1 -2
v 4 -1 -3
v 5 -1 -2
v 4 -1 -2
v 5 -1 -3
v 3 -1 -2
v 4 -1 -1
v 3 -1 -1
v 4 -1 -2
v 2 -1 -2
v 3 -1 -1
v 2 -1 -1
v 3 -1 -2
v 1 -1 -2
v 2 -1 -1
v 1 -1 -1
v 2 -1 -2
v 0 -1 -2
v 1 -1 -1
v 0 -1 -1
v 1 -1 -2
v 0 -1 -3
v 1 -1 -2
v 0 -1 -2
v 1 -1 -3
v 0 -1 -4
v 1 -1 -3
v 0 -1 -3
v 1 -1 -4
v 0 -1 -5
v 1 -1 -4
v 0 -1 -4
v 1 -1 -5
v 0 -1 -6
v 1 -1 -5
v 0 -1 -5
v 1 -1 -6
v 0 -1 -7
v 1 -1 -6
v 0 -1 -6
v 1 -1 -7
v 1 -1 -7
v 2 -1 -6
v 1 -1 -6
v 2 -1 -7
v 2 -1 -7
v 3 -1 -6
v 2 -1 -6
v 3 -1 -7
v 3 -1 -7
v 4 -1 -6
v 3 -1 -6
v 4 -1 -7
v 3 -1 -6
v 4 -1 -5
v 3 -1 -5
v 4 -1 -6
v 3 -1 -5
v 4 -1 -4
v 3 -1 -4
v 4 -1 -5
v 3 -1 -4
v 4 -1 -3
v 3 -1 -3
v 4 -1 -4
v 3 -1 -3
v 4 -1 -2
v 3 -1 -2
v 4 -1 -3
v 2 -1 -3
v 3 -1 -2
v 2 -1 -2
v 3 -1 -3
v 2 -1 -4
v 3 -1 -3
v 2 -1 -3
v 3 -1 -4
v 2 -1 -5
v 3 -1 -4
v 2 -1 -4
v 3 -1 -5
v 2 -1 -6
v 3 -1 -5
v 2 -1 -5
v 3 -1 -6
v 1 -1 -6
v 2 -1 -5
v 1 -1 -5
v 2 -1 -6
v 1 -1 -5
v 2 -1 -4
v 1 -1 -4
v 2 -1 -5
v 1 -1 -4
v 2 -1 -3
v 1 -1 -3
v 2 -1 -4
v 1 -1 -3
v 2 -1 -2
v 1 -1 -2
v 2 -1 -3
v -1 0 -8
v -1 1 -7
v -1 1 -8
v -1 0 -7
v -1 1 -8
v -1 2 -7
v -1 2 -8
v -1 1 -7
v -1 2 -8
v -1 3 -7
v -1 3 -8
v -1 2 -7
v -1 3 -8
v -1 4 -7
v -1 4 -8
v -1 3 -7
v -1 4 -8
v -1 5 -7
v -1 5 -8
v -1 4 -7
v -1 -1 -8
v -1 0 -7
v -1 0 -8
v -1 -1 -7
v -1 -1 -7
v -1 0 -6
v -1 0 -7
v -1 -1 -6
v -1 -1 -6
v -1 0 -5
v -1 0 -6
v -1 -1 -5
v -1 -1 -5
v -1 0 -4
v -1 0 -5
v -1 -1 -4
v -1 -1 -4
v -1 0 -3
v -1 0 -4
v -1 -1 -3
v -1 -1 -3
v -1 0 -2
v -1 0 -3
v -1 -1 -2
v -1 -1 -2
v -1 0 -1
v -1 0 -2
v -1 -1 -1
v -1 -1 -1
v -1 0 0
v -1 0 -1
v -1 -1 0
v -1 0 -1
v -1 1 0
v -1 1 -1
v -1 0 0
v -1 1 -1
v -1 2 0
v -1 2 -1
v -1 1 0
v -1 2 -1
v -1 3 0
v -1 3 -1
v -1 2 0
v -1 3 -1
v -1 4 0
v -1 4 -1
v -1 3 0
v -1 4 -1
v -1 5 0
v -1 5 -1
v -1 4 0
v -1 4 -2
v -1 5 -1
v -1 5 -2
v -1 4 -1
v -1 4 -3
v -1 5 -2
v -1 5 -3
v -1 4 -2
v -1 4 -4
v -1 5 -3
v -1 5 -4
v -1 4 -3
v -1 4 -5
v -1 5 -4
v -1 5 -5
v -1 4 -4
v -1 4 -6
v -1 5 -5
v -1 5 -6
v -1 4 -5
v -1 4 -7
v -1 5 -6
v -1 5 -7
v -1 4 -6
v -1 3 -7
v -1 4 -6
v -1 4 -7
v -1 3 -6
v -1 3 -6
v -1 4 -5
v -1 4 -6
v -1 3 -5
v -1 3 -5
v -1 4 -4
v -1 4 -5
v -1 3 -4
v -1 3 -4
v -1 4 -3
v -1 4 -4
v -1 3 -3
v -1 3 -3
v -1 4 -2
v -1 4 -3
v -1 3 -2
v -1 3 -2
v -1 4 -1
v -1 4 -2
v -1 3 -1
v -1 2 -2
v -1 3 -1
v -1 3 -2
v -1 2 -1
v -1 2 -3
v -1 3 -2
v -1 3 -3
v -1 2 -2
v -1 2 -4
v -1 3 -3
v -1 3 -4
v -1 2 -3
v -1 2 -5
v -1 3 -4
v -1 3 -5
v -1 2 -4
v -1 2 -6
v -1 3 -5
v -1 3 -6
v -1 2 -5
v -1 2 -7
v -1 3 -6
v -1 3 -7
v -1 2 -6
v -1 1 -7
v -1 2 -6
v -1 2 -7
v -1 1 -6
v -1 1 -6
v -1 2 -5
v -1 2 -6
v -1 1 -5
v -1 1 -5
v -1 2 -4
v -1 2 -5
v -1 1 -4
v -1 1 -4
v -1 2 -3
v -1 2 -4
v -1 1 -3
v -1 1 -3
v -1 2 -2
v -1 2 -3
v -1 1 -2
v -1 1 -2
v -1 2 -1
v -1 2 -2
v -1 1 -1
v -1 0 -2
v -1 1 -1
v -1 1 -2
v -1 0 -1
v -1 0 -3
v -1 1 -2
v -1 1 -3
v -1 0 -2
v -1 0 -4
v -1 1 -3
v -1 1 -4
v -1 0 -3
v -1 0 -5
v -1 1 -4
v -1 1 -5
v -1 0 -4
v -1 0 -6
v -1 1 -5
v -1 1 -6
v -1 0 -5
v -1 0 -7
v -1 1 -6
v -1 1 -7
v -1 0 -6
v -1 5 -7
v 0 5 -8
v -1 5 -8
v 0 5 -7
v 0 5 -7
v 1 5 -8
v 0 5 -8
v 1 5 -7
v 1 5 -7
v 2 5 -8
v 1 5 -8
v 2 5 -7
v 2 5 -7
v 3 5 -8
v 2 5 -8
v 3 5 -7
v 3 5 -7
v 4 5 -8
v 3 5 -8
v 4 5 -7
v 4 5 -7
v 5 5 -8
v 4 5 -8
v 5 5 -7
v 4 5 -6
v 5 5 -7
v 4 5 -7
v 5 5 -6
v 4 5 -5
v 5 5 -6
v 4 5 -6
v 5 5 -5
v 4 5 -4
v 5 5 -5
v 4 5 -5
v 5 5 -4
v 4 5 -3
v 5 5 -4
v 4 5 -4
v 5 5 -3
v 4 5 -2
v 5 5 -3
v 4 5 -3
v 5 5 -2
v 3 5 -1
v 4 5 -2
v 3 5 -2
v 4 5 -1
v 4 5 -1
v 5 5 -2
v 4 5 -2
v 5 5 -1
v 4 5 0
v 5 5 -1
v 4 5 -1
v 5 5 0
v 3 5 0
v 4 5 -1
v 3 5 -1
v 4 5 0
v 2 5 0
v 3 5 -1
v 2 5 -1
v 3 5 0
v 1 5 0
v 2 5 -1
v 1 5 -1
v 2 5 0
v 0 5 0
v 1 5 -1
v 0 5 -1
v 1 5 0
v -1 5 0
v 0 5 -1
v -1 5 -1
v 0 5 0
v -1 5 -1
v 0 5 -2
v -1 5 -2
v 0 5 -1
v -1 5 -2
v 0 5 -3
v -1 5 -3
v 0 5 -2
v 0 5 -3
v 1 5 -4
v 0 5 -4
v 1 5 -3
v 0 5 -4
v 1 5 -5
v 0 5 -5
v 1 5 -4
v 0 5 -5
v 1 5 -6
v 0 5 -6
v 1 5 -5
v -1 5 -6
v 0 5 -7
v -1 5 -7
v 0 5 -6
v -1 5 -5
v 0 5 -6
v -1 5 -6
v 0 5 -5
v -1 5 -4
v 0 5 -5
v -1 5 -5
v 0 5 -4
v -1 5 -3
v 0 5 -4
v -1 5 -4
v 0 5 -3
v 0 5 -6
v 1 5 -7
v 0 5 -7
v 1 5 -6
v 0 5 -2
v 1 5 -3
v 0 5 -3
v 1 5 -2
v 0 5 -1
v 1 5 -2
v 0 5 -2
v 1 5 -1
v 1 5 -1
v 2 5 -2
v 1 5 -2
v 2 5 -1
v 2 5 -1
v 3 5 -2
v 2 5 -2
v 3 5 -1
v 3 5 -2
v 4 5 -3
v 3 5 -3
v 4 5 -2
v 3 5 -3
v 4 5 -4
v 3 5 -4
v 4 5 -3
v 3 5 -4
v 4 5 -5
v 3 5 -5
v 4 5 -4
v 3 5 -5
v 4 5 -6
v 3 5 -6
v 4 5 -5
v 3 5 -6
v 4 5 -7
v 3 5 -7
v 4 5 -6
v 2 5 -6
v 3 5 -7
v 2 5 -7
v 3 5 -6
v 1 5 -6
v 2 5 -7
v 1 5 -7
v 2 5 -6
v 1 5 -5
v 2 5 -6
v 1 5 -6
v 2 5 -5
v 2 5 -5
v 3 5 -6
v 2 5 -6
v 3 5 -5
v 2 5 -4
v 3 5 -5
v 2 5 -5
v 3 5 -4
v 1 5 -4
v 2 5 -5
v 1 5 -5
v 2 5 -4
v 1 5 -3
v 2 5 -4
v 1 5 -4
v 2 5 -3
v 2 5 -3
v 3 5 -4
v 2 5 -4
v 3 5 -3
v 2 5 -2
v 3 5 -3
v 2 5 -3
v 3 5 -2
v 1 5 -2
v 2 5 -3
v 1 5 -3
v 2 5 -2
v 3 -1 -9
v 4 -1 -8
v 3 -1 -8
v 4 -1 -9
v 2 -1 -9
v 3 -1 -8
v 2 -1 -8
v 3 -1 -9
v 1.1102230246251565e-16 -1 -9
v 1 -1 -8
v 1.1102230246251565e-16 -1 -8
v 1 -1 -9
v 1 -1 -9
v 2 -1 -8
v 1 -1 -8
v 2 -1 -9
v 1.1102230246251565e-16 -1 -10
v 1 -1 -9
v 1.1102230246251565e-16 -1 -9
v 1 -1 -10
v 1.1102230246251565e-16 -1 -11
v 1 -1 -10
v 1.1102230246251565e-16 -1 -10
v 1 -1 -11
v 0 -1 -12
v 1 -1 -11
v 1.1102230246251565e-16 -1 -11
v 1 -1 -12
v 1 -1 -12
v 2 -1 -11
v 1 -1 -11
v 2 -1 -12
v 2 -1 -12
v 3 -1 -11
v 2 -1 -11
v 3 -1 -12
v 3 -1 -12
v 4 -1 -11
v 3 -1 -11
v 4 -1 -12
v 3 -1 -11
v 4 -1 -10
v 3 -1 -10
v 4 -1 -11
v 3 -1 -10
v 4 -1 -9
v 3 -1 -9
v 4 -1 -10
v 2 -1 -10
v 3 -1 -9
v 2 -1 -9
v 3 -1 -10
v 1 -1 -10
v 2 -1 -9
v 1 -1 -9
v 2 -1 -10
v 1 -1 -11
v 2 -1 -10
v 1 -1 -10
v 2 -1 -11
v 2 -1 -11
v 3 -1 -10
v 2 -1 -10
v 3 -1 -11
vt 0 0.9375
vt 0.0625 1
vt 0 1
vt 0.0625 0.9375
vt 0.25 0.75
vt 0.5 1
vt 0.25 1
vt 0.5 0.75
vt 0 0.75
vn 0 1 0
vn 1 0 0
vn -1 0 0
vn 0 -1 0
vn 0 0 1
vn 0 0 -1
g Scene
usemtl 0
f 1/1/1 3/2/1 2/3/1
f 1/1/1 4/4/1 3/2/1
f 5/1/1 6/2/1 7/3/1
f 5/1/1 8/4/1 6/2/1
f 9/1/1 10/2/1 11/3/1
f 9/1/1 12/4/1 10/2/1
f 13/1/1 14/2/1 15/3/1
f 13/1/1 16/4/1 14/2/1
f 17/1/2 18/2/2 19/3/2
f 17/1/2 20/4/2 18/2/2
f 21/1/2 22/2/2 23/3/2
f 21/1/2 24/4/2 22/2/2
f 25/1/2 26/2/2 27/3/2
f 25/1/2 28/4/2 26/2/2
f 29/1/2 30/2/2 31/3/2
f 29/1/2 32/4/2 30/2/2
f 33/1/1 34/2/1 35/3/1
f 33/1/1 36/4/1 34/2/1
f 37/1/1 38/2/1 39/3/1
f 37/1/1 40/4/1 38/2/1
f 41/1/1 42/2/1 43/3/1
f 41/1/1 44/4/1 42/2/1
f 45/1/1 46/2/1 47/3/1
f 45/1/1 48/4/1 46/2/1
f 49/1/1 50/2/1 51/3/1
f 49/1/1 52/4/1 50/2/1
f 53/1/1 54/2/1 55/3/1
f 53/1/1 56/4/1 54/2/1
f 57/1/1 58/2/1 59/3/1
f 57/1/1 60/4/1 58/2/1
f 61/1/1 62/2/1 63/3/1
f 61/1/1 64/4/1 62/2/1
f 65/1/1 66/2/1 67/3/1
f 65/1/1 68/4/1 66/2/1
f 69/1/1 70/2/1 71/3/1
f 69/1/1 72/4/1 70/2/1
f 73/1/1 74/2/1 75/3/1
f 73/1/1 76/4/1 74/2/1
f 77/1/1 78/2/1 79/3/1
f 77/1/1 80/4/1 78/2/1
f 81/1/2 82/2/2 83/3/2
f 81/1/2 84/4/2 82/2/2
f 85/1/2 86/2/2 87/3/2
f 85/1/2 88/4/2 86/2/2
f 89/1/2 90/2/2 91/3/2
f 89/1/2 92/4/2 90/2/2
f 93/1/2 94/2/2 95/3/2
f 93/1/2 96/4/2 94/2/2
f 97/1/2 98/2/2 99/3/2
f 97/1/2 100/4/2 98/2/2
f 101/1/2 102/2/2 103/3/2
f 101/1/2 104/4/2 102/2/2
f 105/1/2 106/2/2 107/3/2
f 105/1/2 108/4/2 106/2/2
f 109/1/2 110/2/2 111/3/2
f 109/1/2 112/4/2 110/2/2
f 113/1/2 114/2/2 115/3/2
f 113/1/2 116/4/2 114/2/2
f 117/1/2 118/2/2 119/3/2
f 117/1/2 120/4/2 118/2/2
f 121/1/2 122/2/2 123/3/2
f 121/1/2 124/4/2 122/2/2
f 125/1/2 126/2/2 127/3/2
f 125/1/2 128/4/2 126/2/2
f 129/1/3 130/2/3 131/3/3
f 129/1/3 132/4/3 130/2/3
f 133/1/3 134/2/3 135/3/3
f 133/1/3 136/4/3 134/2/3
f 137/1/3 138/2/3 139/3/3
f 137/1/3 140/4/3 138/2/3
f 141/1/3 142/2/3 143/3/3
f 141/1/3 144/4/3 142/2/3
f 145/1/3 146/2/3 147/3/3
f 145/1/3 148/4/3 146/2/3
f 149/1/3 150/2/3 151/3/3
f 149/1/3 152/4/3 150/2/3
f 153/1/3 154/2/3 155/3/3
f 153/1/3 156/4/3 154/2/3
f 157/1/3 158/2/3 159/3/3
f 157/1/3 160/4/3 158/2/3
f 161/1/3 162/2/3 163/3/3
f 161/1/3 164/4/3 162/2/3
f 165/1/3 166/2/3 167/3/3
f 165/1/3 168/4/3 166/2/3
f 169/1/3 170/2/3 171/3/3
f 169/1/3 172/4/3 170/2/3
f 173/1/3 174/2/3 175/3/3
f 173/1/3 176/4/3 174/2/3
f 177/1/3 178/2/3 179/3/3
f 177/1/3 180/4/3 178/2/3
f 181/1/3 182/2/3 183/3/3
f 181/1/3 184/4/3 182/2/3
f 185/1/3 186/2/3 187/3/3
f 185/1/3 188/4/3 186/2/3
f 189/1/3 190/2/3 191/3/3
f 189/1/3 192/4/3 190/2/3
f 193/1/4 194/2/4 195/3/4
f 193/1/4 196/4/4 194/2/4
f 197/1/4 198/2/4 199/3/4
f 197/1/4 200/4/4 198/2/4
f 201/1/4 202/2/4 203/3/4
f 201/1/4 204/4/4 202/2/4
f 205/1/4 206/2/4 207/3/4
f 205/1/4 208/4/4 206/2/4
f 209/1/4 210/2/4 211/3/4
f 209/1/4 212/4/4 210/2/4
f 213/1/4 214/2/4 215/3/4
f 213/1/4 216/4/4 214/2/4
f 217/1/4 218/2/4 219/3/4
f 217/1/4 220/4/4 218/2/4
f 221/1/4 222/2/4 223/3/4
f 221/1/4 224/4/4 222/2/4
f 225/1/4 226/2/4 227/3/4
f 225/1/4 228/4/4 226/2/4
f 229/1/4 230/2/4 231/3/4
f 229/1/4 232/4/4 230/2/4
f 233/1/4 234/2/4 235/3/4
f 233/1/4 236/4/4 234/2/4
f 237/1/4 238/2/4 239/3/4
f 237/1/4 240/4/4 238/2/4
f 241/1/4 242/2/4 243/3/4
f 241/1/4 244/4/4 242/2/4
f 245/1/4 246/2/4 247/3/4
f 245/1/4 248/4/4 246/2/4
f 249/1/4 250/2/4 251/3/4
f 249/1/4 252/4/4 250/2/4
f 253/1/4 254/2/4 255/3/4
f 253/1/4 256/4/4 254/2/4
f 257/5/3 258/6/3 259/7/3
f 257/5/3 260/8/3 258/6/3
f 261/5/3 262/6/3 263/7/3
f 261/5/3 264/8/3 262/6/3
f 265/5/3 266/6/3 267/7/3
f 265/5/3 268/8/3 266/6/3
f 269/5/3 270/6/3 271/7/3
f 269/5/3 272/8/3 270/6/3
f 273/5/3 274/6/3 275/7/3
f 273/5/3 276/8/3 274/6/3
f 277/5/3 278/6/3 279/7/3
f 277/5/3 280/8/3 278/6/3
f 281/5/3 282/6/3 283/7/3
f 281/5/3 284/8/3 282/6/3
f 285/5/3 286/6/3 287/7/3
f 285/5/3 288/8/3 286/6/3
f 289/5/3 290/6/3 291/7/3
f 289/5/3 292/8/3 290/6/3
f 293/5/3 294/6/3 295/7/3
f 293/5/3 296/8/3 294/6/3
f 297/5/3 298/6/3 299/7/3
f 297/5/3 300/8/3 298/6/3
f 301/5/3 302/6/3 303/7/3
f 301/5/3 304/8/3 302/6/3
f 305/5/3 306/6/3 307/7/3
f 305/5/3 308/8/3 306/6/3
f 309/5/3 310/6/3 311/7/3
f 309/5/3 312/8/3 310/6/3
f 313/5/3 314/6/3 315/7/3
f 313/5/3 316/8/3 314/6/3
f 317/5/3 318/6/3 319/7/3
f 317/5/3 320/8/3 318/6/3
f 321/5/2 322/6/2 323/7/2
f 321/5/2 324/8/2 322/6/2
f 325/5/2 326/6/2 327/7/2
f 325/5/2 328/8/2 326/6/2
f 329/5/2 330/6/2 331/7/2
f 329/5/2 332/8/2 330/6/2
f 333/5/2 334/6/2 335/7/2
f 333/5/2 336/8/2 334/6/2
f 337/5/2 338/6/2 339/7/2
f 337/5/2 340/8/2 338/6/2
f 341/5/2 342/6/2 343/7/2
f 341/5/2 344/8/2 342/6/2
f 345/5/2 346/6/2 347/7/2
f 345/5/2 348/8/2 346/6/2
f 349/5/2 350/6/2 351/7/2
f 349/5/2 352/8/2 350/6/2
f 353/5/2 354/6/2 355/7/2
f 353/5/2 356/8/2 354/6/2
f 357/5/2 358/6/2 359/7/2
f 357/5/2 360/8/2 358/6/2
f 361/5/2 362/6/2 363/7/2
f 361/5/2 364/8/2 362/6/2
f 365/5/2 366/6/2 367/7/2
f 365/5/2 368/8/2 366/6/2
f 369/5/2 370/6/2 371/7/2
f 369/5/2 372/8/2 370/6/2
f 373/5/2 374/6/2 375/7/2
f 373/5/2 376/8/2 374/6/2
f 377/5/2 378/6/2 379/7/2
f 377/5/2 380/8/2 378/6/2
f 381/5/2 382/6/2 383/7/2
f 381/5/2 384/8/2 382/6/2
f 385/9/4 386/7/4 387/3/4
f 385/9/4 388/5/4 386/7/4
f 389/9/4 390/7/4 391/3/4
f 389/9/4 392/5/4 390/7/4
f 393/9/4 394/7/4 395/3/4
f 393/9/4 396/5/4 394/7/4
f 397/9/4 398/7/4 399/3/4
f 397/9/4 400/5/4 398/7/4
f 401/9/4 402/7/4 403/3/4
f 401/9/4 404/5/4 402/7/4
f 405/9/4 406/7/4 407/3/4
f 405/9/4 408/5/4 406/7/4
f 409/9/4 410/7/4 411/3/4
f 409/9/4 412/5/4 410/7/4
f 413/9/4 414/7/4 415/3/4
f 413/9/4 416/5/4 414/7/4
f 417/9/4 418/7/4 419/3/4
f 417/9/4 420/5/4 418/7/4
f 421/9/4 422/7/4 423/3/4
f 421/9/4 424/5/4 422/7/4
f 425/9/4 426/7/4 427/3/4
f 425/9/4 428/5/4 426/7/4
f 429/9/4 430/7/4 431/3/4
f 429/9/4 432/5/4 430/7/4
f 433/9/4 434/7/4 435/3/4
f 433/9/4 436/5/4 434/7/4
f 437/9/4 438/7/4 439/3/4
f 437/9/4 440/5/4 438/7/4
f 441/9/4 442/7/4 443/3/4
f 441/9/4 444/5/4 442/7/4
f 445/9/4 446/7/4 447/3/4
f 445/9/4 448/5/4 446/7/4
f 449/9/1 450/7/1 451/3/1
f 449/9/1 452/5/1 450/7/1
f 453/9/1 454/7/1 455/3/1
f 453/9/1 456/5/1 454/7/1
f 457/9/1 458/7/1 459/3/1
f 457/9/1 460/5/1 458/7/1
f 461/9/1 462/7/1 463/3/1
f 461/9/1 464/5/1 462/7/1
f 465/9/1 466/7/1 467/3/1
f 465/9/1 468/5/1 466/7/1
f 469/9/1 470/7/1 471/3/1
f 469/9/1 472/5/1 470/7/1
f 473/9/1 474/7/1 475/3/1
f 473/9/1 476/5/1 474/7/1
f 477/9/1 478/7/1 479/3/1
f 477/9/1 480/5/1 478/7/1
f 481/9/1 482/7/1 483/3/1
f 481/9/1 484/5/1 482/7/1
f 485/9/1 486/7/1 487/3/1
f 485/9/1 488/5/1 486/7/1
f 489/9/1 490/7/1 491/3/1
f 489/9/1 492/5/1 490/7/1
f 493/9/1 494/7/1 495/3/1
f 493/9/1 496/5/1 494/7/1
f 497/9/1 498/7/1 499/3/1
f 497/9/1 500/5/1 498/7/1
f 501/9/1 502/7/1 503/3/1
f 501/9/1 504/5/1 502/7/1
f 505/9/1 506/7/1 507/3/1
f 505/9/1 508/5/1 506/7/1
f 509/9/1 510/7/1 511/3/1
f 509/9/1 512/5/1 510/7/1
f 513/5/1 514/6/1 515/7/1
f 513/5/1 516/8/1 514/6/1
f 517/5/1 518/6/1 519/7/1
f 517/5/1 520/8/1 518/6/1
f 521/5/1 522/6/1 523/7/1
f 521/5/1 524/8/1 522/6/1
f 525/5/1 526/6/1 527/7/1
f 525/5/1 528/8/1 526/6/1
f 529/5/1 530/6/1 531/7/1
f 529/5/1 532/8/1 530/6/1
f 533/5/1 534/6/1 535/7/1
f 533/5/1 536/8/1 534/6/1
f 537/5/1 538/6/1 539/7/1
f 537/5/1 540/8/1 538/6/1
f 541/5/1 542/6/1 543/7/1
f 541/5/1 544/8/1 542/6/1
f 545/5/1 546/6/1 547/7/1
f 545/5/1 548/8/1 546/6/1
f 549/5/1 550/6/1 551/7/1
f 549/5/1 552/8/1 550/6/1
f 553/5/1 554/6/1 555/7/1
f 553/5/1 556/8/1 554/6/1
f 557/5/1 558/6/1 559/7/1
f 557/5/1 560/8/1 558/6/1
f 561/5/1 562/6/1 563/7/1
f 561/5/1 564/8/1 562/6/1
f 565/5/1 566/6/1 567/7/1
f 565/5/1 568/8/1 566/6/1
f 569/5/1 570/6/1 571/7/1
f 569/5/1 572/8/1 570/6/1
f 573/5/1 574/6/1 575/7/1
f 573/5/1 576/8/1 574/6/1
f 577/5/2 578/6/2 579/7/2
f 577/5/2 580/8/2 578/6/2
f 581/5/2 582/6/2 583/7/2
f 581/5/2 584/8/2 582/6/2
f 585/5/2 586/6/2 587/7/2
f 585/5/2 588/8/2 586/6/2
f 589/5/2 590/6/2 591/7/2
f 589/5/2 592/8/2 590/6/2
f 593/5/2 594/6/2 595/7/2
f 593/5/2 596/8/2 594/6/2
f 597/5/2 598/6/2 599/7/2
f 597/5/2 600/8/2 598/6/2
f 601/5/2 602/6/2 603/7/2
f 601/5/2 604/8/2 602/6/2
f 605/5/2 606/6/2 607/7/2
f 605/5/2 608/8/2 606/6/2
f 609/5/2 610/6/2 611/7/2
f 609/5/2 612/8/2 610/6/2
f 613/5/2 614/6/2 615/7/2
f 613/5/2 616/8/2 614/6/2
f 617/5/2 618/6/2 619/7/2
f 617/5/2 620/8/2 618/6/2
f 621/5/2 622/6/2 623/7/2
f 621/5/2 624/8/2 622/6/2
f 625/5/2 626/6/2 627/7/2
f 625/5/2 628/8/2 626/6/2
f 629/5/2 630/6/2 631/7/2
f 629/5/2 632/8/2 630/6/2
f 633/5/2 634/6/2 635/7/2
f 633/5/2 636/8/2 634/6/2
f 637/5/2 638/6/2 639/7/2
f 637/5/2 640/8/2 638/6/2
f 641/5/4 642/6/4 643/7/4
f 641/5/4 644/8/4 642/6/4
f 645/5/4 646/6/4 647/7/4
f 645/5/4 648/8/4 646/6/4
f 649/5/4 650/6/4 651/7/4
f 649/5/4 652/8/4 650/6/4
f 653/5/4 654/6/4 655/7/4
f 653/5/4 656/8/4 654/6/4
f 657/5/4 658/6/4 659/7/4
f 657/5/4 660/8/4 658/6/4
f 661/5/4 662/6/4 663/7/4
f 661/5/4 664/8/4 662/6/4
f 665/5/4 666/6/4 667/7/4
f 665/5/4 668/8/4 666/6/4
f 669/5/4 670/6/4 671/7/4
f 669/5/4 672/8/4 670/6/4
f 673/5/4 674/6/4 675/7/4
f 673/5/4 676/8/4 674/6/4
f 677/5/4 678/6/4 679/7/4
f 677/5/4 680/8/4 678/6/4
f 681/5/4 682/6/4 683/7/4
f 681/5/4 684/8/4 682/6/4
f 685/5/4 686/6/4 687/7/4
f 685/5/4 688/8/4 686/6/4
f 689/5/4 690/6/4 691/7/4
f 689/5/4 692/8/4 690/6/4
f 693/5/4 694/6/4 695/7/4
f 693/5/4 696/8/4 694/6/4
f 697/5/4 698/6/4 699/7/4
f 697/5/4 700/8/4 698/6/4
f 701/5/4 702/6/4 703/7/4
f 701/5/4 704/8/4 702/6/4
f 705/5/3 706/6/3 707/7/3
f 705/5/3 708/8/3 706/6/3
f 709/5/3 710/6/3 711/7/3
f 709/5/3 712/8/3 710/6/3
f 713/5/3 714/6/3 715/7/3
f 713/5/3 716/8/3 714/6/3
f 717/5/3 718/6/3 719/7/3
f 717/5/3 720/8/3 718/6/3
f 721/5/3 722/6/3 723/7/3
f 721/5/3 724/8/3 722/6/3
f 725/5/3 726/6/3 727/7/3
f 725/5/3 728/8/3 726/6/3
f 729/5/3 730/6/3 731/7/3
f 729/5/3 732/8/3 730/6/3
f 733/5/3 734/6/3 735/7/3
f 733/5/3 736/8/3 734/6/3
f 737/5/3 738/6/3 739/7/3
f 737/5/3 740/8/3 738/6/3
f 741/5/3 742/6/3 743/7/3
f 741/5/3 744/8/3 742/6/3
f 745/5/3 746/6/3 747/7/3
f 745/5/3 748/8/3 746/6/3
f 749/5/3 750/6/3 751/7/3
f 749/5/3 752/8/3 750/6/3
f 753/5/3 754/6/3 755/7/3
f 753/5/3 756/8/3 754/6/3
f 757/5/3 758/6/3 759/7/3
f 757/5/3 760/8/3 758/6/3
f 761/5/3 762/6/3 763/7/3
f 761/5/3 764/8/3 762/6/3
f 765/5/3 766/6/3 767/7/3
f 765/5/3 768/8/3 766/6/3
f 769/9/3 770/7/3 771/3/3
f 769/9/3 772/5/3 770/7/3
f 773/9/3 774/7/3 775/3/3
f 773/9/3 776/5/3 774/7/3
f 777/9/3 778/7/3 779/3/3
f 777/9/3 780/5/3 778/7/3
f 781/9/3 782/7/3 783/3/3
f 781/9/3 784/5/3 782/7/3
f 785/9/3 786/7/3 787/3/3
f 785/9/3 788/5/3 786/7/3
f 789/9/3 790/7/3 791/3/3
f 789/9/3 792/5/3 790/7/3
f 793/9/3 794/7/3 795/3/3
f 793/9/3 796/5/3 794/7/3
f 797/9/3 798/7/3 799/3/3
f 797/9/3 800/5/3 798/7/3
f 801/9/3 802/7/3 803/3/3
f 801/9/3 804/5/3 802/7/3
f 805/9/3 806/7/3 807/3/3
f 805/9/3 808/5/3 806/7/3
f 809/9/3 810/7/3 811/3/3
f 809/9/3 812/5/3 810/7/3
f 813/9/3 814/7/3 815/3/3
f 813/9/3 816/5/3 814/7/3
f 817/9/3 818/7/3 819/3/3
f 817/9/3 820/5/3 818/7/3
f 821/9/3 822/7/3 823/3/3
f 821/9/3 824/5/3 822/7/3
f 825/9/3 826/7/3 827/3/3
f 825/9/3 828/5/3 826/7/3
f 829/9/3 830/7/3 831/3/3
f 829/9/3 832/5/3 830/7/3
f 833/9/4 834/7/4 835/3/4
f 833/9/4 836/5/4 834/7/4
f 837/9/4 838/7/4 839/3/4
f 837/9/4 840/5/4 838/7/4
f 841/9/4 842/7/4 843/3/4
f 841/9/4 844/5/4 842/7/4
f 845/9/4 846/7/4 847/3/4
f 845/9/4 848/5/4 846/7/4
f 849/9/4 850/7/4 851/3/4
f 849/9/4 852/5/4 850/7/4
f 853/9/4 854/7/4 855/3/4
f 853/9/4 856/5/4 854/7/4
f 857/9/4 858/7/4 859/3/4
f 857/9/4 860/5/4 858/7/4
f 861/9/4 862/7/4 863/3/4
f 861/9/4 864/5/4 862/7/4
f 865/9/4 866/7/4 867/3/4
f 865/9/4 868/5/4 866/7/4
f 869/9/4 870/7/4 871/3/4
f 869/9/4 872/5/4 870/7/4
f 873/9/4 874/7/4 875/3/4
f 873/9/4 876/5/4 874/7/4
f 877/9/4 878/7/4 879/3/4
f 877/9/4 880/5/4 878/7/4
f 881/9/4 882/7/4 883/3/4
f 881/9/4 884/5/4 882/7/4
f 885/9/4 886/7/4 887/3/4
f 885/9/4 888/5/4 886/7/4
f 889/9/4 890/7/4 891/3/4
f 889/9/4 892/5/4 890/7/4
f 893/9/4 894/7/4 895/3/4
f 893/9/4 896/5/4 894/7/4
f 897/9/1 898/7/1 899/3/1
f 897/9/1 900/5/1 898/7/1
f 901/9/1 902/7/1 903/3/1
f 901/9/1 904/5/1 902/7/1
f 905/9/1 906/7/1 907/3/1
f 905/9/1 908/5/1 906/7/1
f 909/9/1 910/7/1 911/3/1
f 909/9/1 912/5/1 910/7/1
f 913/9/1 914/7/1 915/3/1
f 913/9/1 916/5/1 914/7/1
f 917/9/1 918/7/1 919/3/1
f 917/9/1 920/5/1 918/7/1
f 921/9/1 922/7/1 923/3/1
f 921/9/1 924/5/1 922/7/1
f 925/9/1 926/7/1 927/3/1
f 925/9/1 928/5/1 926/7/1
f 929/9/1 930/7/1 931/3/1
f 929/9/1 932/5/1 930/7/1
f 933/9/1 934/7/1 935/3/1
f 933/9/1 936/5/1 934/7/1
f 937/9/1 938/7/1 939/3/1
f 937/9/1 940/5/1 938/7/1
f 941/9/1 942/7/1 943/3/1
f 941/9/1 944/5/1 942/7/1
f 945/9/1 946/7/1 947/3/1
f 945/9/1 948/5/1 946/7/1
f 949/9/1 950/7/1 951/3/1
f 949/9/1 952/5/1 950/7/1
f 953/9/1 954/7/1 955/3/1
f 953/9/1 956/5/1 954/7/1
f 957/9/1 958/7/1 959/3/1
f 957/9/1 960/5/1 958/7/1
f 961/9/2 962/7/2 963/3/2
f 961/9/2 964/5/2 962/7/2
f 965/9/2 966/7/2 967/3/2
f 965/9/2 968/5/2 966/7/2
f 969/9/2 970/7/2 971/3/2
f 969/9/2 972/5/2 970/7/2
f 973/9/2 974/7/2 975/3/2
f 973/9/2 976/5/2 974/7/2
f 977/9/2 978/7/2 979/3/2
f 977/9/2 980/5/2 978/7/2
f 981/9/2 982/7/2 983/3/2
f 981/9/2 984/5/2 982/7/2
f 985/9/2 986/7/2 987/3/2
f 985/9/2 988/5/2 986/7/2
f 989/9/2 990/7/2 991/3/2
f 989/9/2 992/5/2 990/7/2
f 993/9/2 994/7/2 995/3/2
f 993/9/2 996/5/2 994/7/2
f 997/9/2 998/7/2 999/3/2
f 997/9/2 1000/5/2 998/7/2
f 1001/9/2 1002/7/2 1003/3/2
f 1001/9/2 1004/5/2 1002/7/2
f 1005/9/2 1006/7/2 1007/3/2
f 1005/9/2 1008/5/2 1006/7/2
f 1009/9/2 1010/7/2 1011/3/2
f 1009/9/2 1012/5/2 1010/7/2
f 1013/9/2 1014/7/2 1015/3/2
f 1013/9/2 1016/5/2 1014/7/2
f 1017/9/2 1018/7/2 1019/3/2
f 1017/9/2 1020/5/2 1018/7/2
f 1021/9/2 1022/7/2 1023/3/2
f 1021/9/2 1024/5/2 1022/7/2
f 1025/9/5 1026/7/5 1027/3/5
f 1025/9/5 1028/5/5 1026/7/5
f 1029/9/5 1030/7/5 1031/3/5
f 1029/9/5 1032/5/5 1030/7/5
f 1033/9/5 1034/7/5 1035/3/5
f 1033/9/5 1036/5/5 1034/7/5
f 1037/9/5 1038/7/5 1039/3/5
f 1037/9/5 1040/5/5 1038/7/5
f 1041/9/5 1042/7/5 1043/3/5
f 1041/9/5 1044/5/5 1042/7/5
f 1045/9/5 1046/7/5 1047/3/5
f 1045/9/5 1048/5/5 1046/7/5
f 1049/9/5 1050/7/5 1051/3/5
f 1049/9/5 1052/5/5 1050/7/5
f 1053/9/5 1054/7/5 1055/3/5
f 1053/9/5 1056/5/5 1054/7/5
f 1057/9/5 1058/7/5 1059/3/5
f 1057/9/5 1060/5/5 1058/7/5
f 1061/9/5 1062/7/5 1063/3/5
f 1061/9/5 1064/5/5 1062/7/5
f 1065/9/5 1066/7/5 1067/3/5
f 1065/9/5 1068/5/5 1066/7/5
f 1069/9/5 1070/7/5 1071/3/5
f 1069/9/5 1072/5/5 1070/7/5
f 1073/9/5 1074/7/5 1075/3/5
f 1073/9/5 1076/5/5 1074/7/5
f 1077/9/5 1078/7/5 1079/3/5
f 1077/9/5 1080/5/5 1078/7/5
f 1081/9/4 1082/7/4 1083/3/4
f 1081/9/4 1084/5/4 1082/7/4
f 1085/9/4 1086/7/4 1087/3/4
f 1085/9/4 1088/5/4 1086/7/4
f 1089/9/4 1090/7/4 1091/3/4
f 1089/9/4 1092/5/4 1090/7/4
f 1093/9/4 1094/7/4 1095/3/4
f 1093/9/4 1096/5/4 1094/7/4
f 1097/9/1 1098/7/1 1099/3/1
f 1097/9/1 1100/5/1 1098/7/1
f 1101/9/1 1102/7/1 1103/3/1
f 1101/9/1 1104/5/1 1102/7/1
f 1105/9/1 1106/7/1 1107/3/1
f 1105/9/1 1108/5/1 1106/7/1
f 1109/9/1 1110/7/1 1111/3/1
f 1109/9/1 1112/5/1 1110/7/1
f 1113/9/5 1114/7/5 1115/3/5
f 1113/9/5 1116/5/5 1114/7/5
f 1117/9/5 1118/7/5 1119/3/5
f 1117/9/5 1120/5/5 1118/7/5
f 1121/9/5 1122/7/5 1123/3/5
f 1121/9/5 1124/5/5 1122/7/5
f 1125/9/5 1126/7/5 1127/3/5
f 1125/9/5 1128/5/5 1126/7/5
f 1129/9/6 1130/7/6 1131/3/6
f 1129/9/6 1132/5/6 1130/7/6
f 1133/9/6 1134/7/6 1135/3/6
f 1133/9/6 1136/5/6 1134/7/6
f 1137/9/6 1138/7/6 1139/3/6
f 1137/9/6 1140/5/6 1138/7/6
f 1141/9/6 1142/7/6 1143/3/6
f 1141/9/6 1144/5/6 1142/7/6
f 1145/9/3 1146/7/3 1147/3/3
f 1145/9/3 1148/5/3 1146/7/3
f 1149/9/3 1150/7/3 1151/3/3
f 1149/9/3 1152/5/3 1150/7/3
f 1153/9/3 1154/7/3 1155/3/3
f 1153/9/3 1156/5/3 1154/7/3
f 1157/9/3 1158/7/3 1159/3/3
f 1157/9/3 1160/5/3 1158/7/3
f 1161/9/5 1162/7/5 1163/3/5
f 1161/9/5 1164/5/5 1162/7/5
f 1165/9/5 1166/7/5 1167/3/5
f 1165/9/5 1168/5/5 1166/7/5
f 1169/9/5 1170/7/5 1171/3/5
f 1169/9/5 1172/5/5 1170/7/5
f 1173/9/5 1174/7/5 1175/3/5
f 1173/9/5 1176/5/5 1174/7/5
f 1177/9/2 1178/7/2 1179/3/2
f 1177/9/2 1180/5/2 1178/7/2
f 1181/9/2 1182/7/2 1183/3/2
f 1181/9/2 1184/5/2 1182/7/2
f 1185/9/2 1186/7/2 1187/3/2
f 1185/9/2 1188/5/2 1186/7/2
f 1189/9/2 1190/7/2 1191/3/2
f 1189/9/2 1192/5/2 1190/7/2
f 1193/9/1 1194/7/1 1195/3/1
f 1193/9/1 1196/5/1 1194/7/1
f 1197/9/1 1198/7/1 1199/3/1
f 1197/9/1 1200/5/1 1198/7/1
f 1201/9/1 1202/7/1 1203/3/1
f 1201/9/1 1204/5/1 1202/7/1
f 1205/9/1 1206/7/1 1207/3/1
f 1205/9/1 1208/5/1 1206/7/1
f 1209/9/1 1210/7/1 1211/3/1
f 1209/9/1 1212/5/1 1210/7/1
f 1213/9/1 1214/7/1 1215/3/1
f 1213/9/1 1216/5/1 1214/7/1
f 1217/9/1 1218/7/1 1219/3/1
f 1217/9/1 1220/5/1 1218/7/1
f 1221/9/1 1222/7/1 1223/3/1
f 1221/9/1 1224/5/1 1222/7/1
f 1225/9/1 1226/7/1 1227/3/1
f 1225/9/1 1228/5/1 1226/7/1
f 1229/9/1 1230/7/1 1231/3/1
f 1229/9/1 1232/5/1 1230/7/1
f 1233/9/1 1234/7/1 1235/3/1
f 1233/9/1 1236/5/1 1234/7/1
f 1237/9/1 1238/7/1 1239/3/1
f 1237/9/1 1240/5/1 1238/7/1
f 1241/9/1 1242/7/1 1243/3/1
f 1241/9/1 1244/5/1 1242/7/1
f 1245/9/1 1246/7/1 1247/3/1
f 1245/9/1 1248/5/1 1246/7/1
f 1249/9/1 1250/7/1 1251/3/1
f 1249/9/1 1252/5/1 1250/7/1
f 1253/9/1 1254/7/1 1255/3/1
f 1253/9/1 1256/5/1 1254/7/1
f 1257/9/2 1258/7/2 1259/3/2
f 1257/9/2 1260/5/2 1258/7/2
f 1261/9/2 1262/7/2 1263/3/2
f 1261/9/2 1264/5/2 1262/7/2
f 1265/9/2 1266/7/2 1267/3/2
f 1265/9/2 1268/5/2 1266/7/2
f 1269/9/2 1270/7/2 1271/3/2
f 1269/9/2 1272/5/2 1270/7/2
f 1273/9/2 1274/7/2 1275/3/2
f 1273/9/2 1276/5/2 1274/7/2
f 1277/9/2 1278/7/2 1279/3/2
f 1277/9/2 1280/5/2 1278/7/2
f 1281/9/2 1282/7/2 1283/3/2
f 1281/9/2 1284/5/2 1282/7/2
f 1285/9/2 1286/7/2 1287/3/2
f 1285/9/2 1288/5/2 1286/7/2
f 1289/9/2 1290/7/2 1291/3/2
f 1289/9/2 1292/5/2 1290/7/2
f 1293/9/2 1294/7/2 1295/3/2
f 1293/9/2 1296/5/2 1294/7/2
f 1297/9/2 1298/7/2 1299/3/2
f 1297/9/2 1300/5/2 1298/7/2
f 1301/9/2 1302/7/2 1303/3/2
f 1301/9/2 1304/5/2 1302/7/2
f 1305/9/2 1306/7/2 1307/3/2
f 1305/9/2 1308/5/2 1306/7/2
f 1309/9/2 1310/7/2 1311/3/2
f 1309/9/2 1312/5/2 1310/7/2
f 1313/9/2 1314/7/2 1315/3/2
f 1313/9/2 1316/5/2 1314/7/2
f 1317/9/2 1318/7/2 1319/3/2
f 1317/9/2 1320/5/2 1318/7/2
f 1321/9/2 1322/7/2 1323/3/2
f 1321/9/2 1324/5/2 1322/7/2
f 1325/9/2 1326/7/2 1327/3/2
f 1325/9/2 1328/5/2 1326/7/2
f 1329/9/2 1330/7/2 1331/3/2
f 1329/9/2 1332/5/2 1330/7/2
f 1333/9/2 1334/7/2 1335/3/2
f 1333/9/2 1336/5/2 1334/7/2
f 1337/9/2 1338/7/2 1339/3/2
f 1337/9/2 1340/5/2 1338/7/2
f 1341/9/2 1342/7/2 1343/3/2
f 1341/9/2 1344/5/2 1342/7/2
f 1345/9/2 1346/7/2 1347/3/2
f 1345/9/2 1348/5/2 1346/7/2
f 1349/9/2 1350/7/2 1351/3/2
f 1349/9/2 1352/5/2 1350/7/2
f 1353/9/2 1354/7/2 1355/3/2
f 1353/9/2 1356/5/2 1354/7/2
f 1357/9/2 1358/7/2 1359/3/2
f 1357/9/2 1360/5/2 1358/7/2
f 1361/9/2 1362/7/2 1363/3/2
f 1361/9/2 1364/5/2 1362/7/2
f 1365/9/2 1366/7/2 1367/3/2
f 1365/9/2 1368/5/2 1366/7/2
f 1369/9/2 1370/7/2 1371/3/2
f 1369/9/2 1372/5/2 1370/7/2
f 1373/9/2 1374/7/2 1375/3/2
f 1373/9/2 1376/5/2 1374/7/2
f 1377/9/2 1378/7/2 1379/3/2
f 1377/9/2 1380/5/2 1378/7/2
f 1381/9/2 1382/7/2 1383/3/2
f 1381/9/2 1384/5/2 1382/7/2
f 1385/9/5 1386/7/5 1387/3/5
f 1385/9/5 1388/5/5 1386/7/5
f 1389/9/2 1390/7/2 1391/3/2
f 1389/9/2 1392/5/2 1390/7/2
f 1393/9/2 1394/7/2 1395/3/2
f 1393/9/2 1396/5/2 1394/7/2
f 1397/9/2 1398/7/2 1399/3/2
f 1397/9/2 1400/5/2 1398/7/2
f 1401/9/2 1402/7/2 1403/3/2
f 1401/9/2 1404/5/2 1402/7/2
f 1405/9/1 1406/7/1 1407/3/1
f 1405/9/1 1408/5/1 1406/7/1
f 1409/9/1 1410/7/1 1411/3/1
f 1409/9/1 1412/5/1 1410/7/1
f 1413/9/1 1414/7/1 1415/3/1
f 1413/9/1 1416/5/1 1414/7/1
f 1417/9/1 1418/7/1 1419/3/1
f 1417/9/1 1420/5/1 1418/7/1
f 1421/9/1 1422/7/1 1423/3/1
f 1421/9/1 1424/5/1 1422/7/1
f 1425/9/1 1426/7/1 1427/3/1
f 1425/9/1 1428/5/1 1426/7/1
f 1429/9/1 1430/7/1 1431/3/1
f 1429/9/1 1432/5/1 1430/7/1
f 1433/9/1 1434/7/1 1435/3/1
f 1433/9/1 1436/5/1 1434/7/1
f 1437/9/1 1438/7/1 1439/3/1
f 1437/9/1 1440/5/1 1438/7/1
f 1441/9/1 1442/7/1 1443/3/1
f 1441/9/1 1444/5/1 1442/7/1
f 1445/9/1 1446/7/1 1447/3/1
f 1445/9/1 1448/5/1 1446/7/1
f 1449/9/1 1450/7/1 1451/3/1
f 1449/9/1 1452/5/1 1450/7/1
f 1453/9/1 1454/7/1 1455/3/1
f 1453/9/1 1456/5/1 1454/7/1
f 1457/9/1 1458/7/1 1459/3/1
f 1457/9/1 1460/5/1 1458/7/1
f 1461/9/1 1462/7/1 1463/3/1
f 1461/9/1 1464/5/1 1462/7/1
f 1465/9/1 1466/7/1 1467/3/1
f 1465/9/1 1468/5/1 1466/7/1
f 1469/9/1 1470/7/1 1471/3/1
f 1469/9/1 1472/5/1 1470/7/1
f 1473/9/1 1474/7/1 1475/3/1
f 1473/9/1 1476/5/1 1474/7/1
f 1477/9/1 1478/7/1 1479/3/1
f 1477/9/1 1480/5/1 1478/7/1
f 1481/9/1 1482/7/1 1483/3/1
f 1481/9/1 1484/5/1 1482/7/1
f 1485/9/1 1486/7/1 1487/3/1
f 1485/9/1 1488/5/1 1486/7/1
f 1489/9/1 1490/7/1 1491/3/1
f 1489/9/1 1492/5/1 1490/7/1
f 1493/9/1 1494/7/1 1495/3/1
f 1493/9/1 1496/5/1 1494/7/1
f 1497/9/1 1498/7/1 1499/3/1
f 1497/9/1 1500/5/1 1498/7/1
f 1501/9/3 1502/7/3 1503/3/3
f 1501/9/3 1504/5/3 1502/7/3
f 1505/9/3 1506/7/3 1507/3/3
f 1505/9/3 1508/5/3 1506/7/3
f 1509/9/3 1510/7/3 1511/3/3
f 1509/9/3 1512/5/3 1510/7/3
f 1513/9/3 1514/7/3 1515/3/3
f 1513/9/3 1516/5/3 1514/7/3
f 1517/9/3 1518/7/3 1519/3/3
f 1517/9/3 1520/5/3 1518/7/3
f 1521/9/3 1522/7/3 1523/3/3
f 1521/9/3 1524/5/3 1522/7/3
f 1525/9/3 1526/7/3 1527/3/3
f 1525/9/3 1528/5/3 1526/7/3
f 1529/9/3 1530/7/3 1531/3/3
f 1529/9/3 1532/5/3 1530/7/3
f 1533/9/3 1534/7/3 1535/3/3
f 1533/9/3 1536/5/3 1534/7/3
f 1537/9/3 1538/7/3 1539/3/3
f 1537/9/3 1540/5/3 1538/7/3
f 1541/9/3 1542/7/3 1543/3/3
f 1541/9/3 1544/5/3 1542/7/3
f 1545/9/3 1546/7/3 1547/3/3
f 1545/9/3 1548/5/3 1546/7/3
f 1549/9/3 1550/7/3 1551/3/3
f 1549/9/3 1552/5/3 1550/7/3
f 1553/9/3 1554/7/3 1555/3/3
f 1553/9/3 1556/5/3 1554/7/3
f 1557/9/3 1558/7/3 1559/3/3
f 1557/9/3 1560/5/3 1558/7/3
f 1561/9/3 1562/7/3 1563/3/3
f 1561/9/3 1564/5/3 1562/7/3
f 1565/9/3 1566/7/3 1567/3/3
f 1565/9/3 1568/5/3 1566/7/3
f 1569/9/3 1570/7/3 1571/3/3
f 1569/9/3 1572/5/3 1570/7/3
f 1573/9/3 1574/7/3 1575/3/3
f 1573/9/3 1576/5/3 1574/7/3
f 1577/9/3 1578/7/3 1579/3/3
f 1577/9/3 1580/5/3 1578/7/3
f 1581/9/3 1582/7/3 1583/3/3
f 1581/9/3 1584/5/3 1582/7/3
f 1585/9/3 1586/7/3 1587/3/3
f 1585/9/3 1588/5/3 1586/7/3
f 1589/9/3 1590/7/3 1591/3/3
f 1589/9/3 1592/5/3 1590/7/3
f 1593/9/3 1594/7/3 1595/3/3
f 1593/9/3 1596/5/3 1594/7/3
f 1597/9/5 1598/7/5 1599/3/5
f 1597/9/5 1600/5/5 1598/7/5
f 1601/9/2 1602/7/2 1603/3/2
f 1601/9/2 1604/5/2 1602/7/2
f 1605/9/2 1606/7/2 1607/3/2
f 1605/9/2 1608/5/2 1606/7/2
f 1609/9/2 1610/7/2 1611/3/2
f 1609/9/2 1612/5/2 1610/7/2
f 1613/9/2 1614/7/2 1615/3/2
f 1613/9/2 1616/5/2 1614/7/2
f 1617/9/4 1618/7/4 1619/3/4
f 1617/9/4 1620/5/4 1618/7/4
f 1621/9/4 1622/7/4 1623/3/4
f 1621/9/4 1624/5/4 1622/7/4
f 1625/9/4 1626/7/4 1627/3/4
f 1625/9/4 1628/5/4 1626/7/4
f 1629/9/4 1630/7/4 1631/3/4
f 1629/9/4 1632/5/4 1630/7/4
f 1633/9/4 1634/7/4 1635/3/4
f 1633/9/4 1636/5/4 1634/7/4
f 1637/9/4 1638/7/4 1639/3/4
f 1637/9/4 1640/5/4 1638/7/4
f 1641/9/4 1642/7/4 1643/3/4
f 1641/9/4 1644/5/4 1642/7/4
f 1645/9/4 1646/7/4 1647/3/4
f 1645/9/4 1648/5/4 1646/7/4
f 1649/9/4 1650/7/4 1651/3/4
f 1649/9/4 1652/5/4 1650/7/4
f 1653/9/4 1654/7/4 1655/3/4
f 1653/9/4 1656/5/4 1654/7/4
f 1657/9/4 1658/7/4 1659/3/4
f 1657/9/4 1660/5/4 1658/7/4
f 1661/9/4 1662/7/4 1663/3/4
f 1661/9/4 1664/5/4 1662/7/4
f 1665/9/4 1666/7/4 1667/3/4
f 1665/9/4 1668/5/4 1666/7/4
f 1669/9/4 1670/7/4 1671/3/4
f 1669/9/4 1672/5/4 1670/7/4
f 1673/9/4 1674/7/4 1675/3/4
f 1673/9/4 1676/5/4 1674/7/4
f 1677/9/4 1678/7/4 1679/3/4
f 1677/9/4 1680/5/4 1678/7/4
f 1681/9/4 1682/7/4 1683/3/4
f 1681/9/4 1684/5/4 1682/7/4
f 1685/9/4 1686/7/4 1687/3/4
f 1685/9/4 1688/5/4 1686/7/4
f 1689/9/4 1690/7/4 1691/3/4
f 1689/9/4 1692/5/4 1690/7/4
f 1693/9/4 1694/7/4 1695/3/4
f 1693/9/4 1696/5/4 1694/7/4
f 1697/9/4 1698/7/4 1699/3/4
f 1697/9/4 1700/5/4 1698/7/4
f 1701/9/4 1702/7/4 1703/3/4
f 1701/9/4 1704/5/4 1702/7/4
f 1705/9/4 1706/7/4 1707/3/4
f 1705/9/4 1708/5/4 1706/7/4
f 1709/9/4 1710/7/4 1711/3/4
f 1709/9/4 1712/5/4 1710/7/4
f 1713/9/6 1714/7/6 1715/3/6
f 1713/9/6 1716/5/6 1714/7/6
f 1717/9/6 1718/7/6 1719/3/6
f 1717/9/6 1720/5/6 1718/7/6
f 1721/9/6 1722/7/6 1723/3/6
f 1721/9/6 1724/5/6 1722/7/6
f 1725/9/6 1726/7/6 1727/3/6
f 1725/9/6 1728/5/6 1726/7/6
f 1729/9/4 1730/7/4 1731/3/4
f 1729/9/4 1732/5/4 1730/7/4
f 1733/9/4 1734/7/4 1735/3/4
f 1733/9/4 1736/5/4 1734/7/4
f 1737/9/4 1738/7/4 1739/3/4
f 1737/9/4 1740/5/4 1738/7/4
f 1741/9/4 1742/7/4 1743/3/4
f 1741/9/4 1744/5/4 1742/7/4
f 1745/9/5 1746/7/5 1747/3/5
f 1745/9/5 1748/5/5 1746/7/5
f 1749/9/5 1750/7/5 1751/3/5
f 1749/9/5 1752/5/5 1750/7/5
f 1753/9/5 1754/7/5 1755/3/5
f 1753/9/5 1756/5/5 1754/7/5
f 1757/9/5 1758/7/5 1759/3/5
f 1757/9/5 1760/5/5 1758/7/5
f 1761/9/1 1762/7/1 1763/3/1
f 1761/9/1 1764/5/1 1762/7/1
f 1765/9/1 1766/7/1 1767/3/1
f 1765/9/1 1768/5/1 1766/7/1
f 1769/9/1 1770/7/1 1771/3/1
f 1769/9/1 1772/5/1 1770/7/1
f 1773/9/1 1774/7/1 1775/3/1
f 1773/9/1 1776/5/1 1774/7/1
f 1777/9/3 1778/7/3 1779/3/3
f 1777/9/3 1780/5/3 1778/7/3
f 1781/9/3 1782/7/3 1783/3/3
f 1781/9/3 1784/5/3 1782/7/3
f 1785/9/3 1786/7/3 1787/3/3
f 1785/9/3 1788/5/3 1786/7/3
f 1789/9/3 1790/7/3 1791/3/3
f 1789/9/3 1792/5/3 1790/7/3
f 1793/9/3 1794/7/3 1795/3/3
f 1793/9/3 1796/5/3 1794/7/3
f 1797/9/3 1798/7/3 1799/3/3
f 1797/9/3 1800/5/3 1798/7/3
f 1801/9/3 1802/7/3 1803/3/3
f 1801/9/3 1804/5/3 1802/7/3
f 1805/9/3 1806/7/3 1807/3/3
f 1805/9/3 1808/5/3 1806/7/3
f 1809/9/3 1810/7/3 1811/3/3
f 1809/9/3 1812/5/3 1810/7/3
f 1813/9/3 1814/7/3 1815/3/3
f 1813/9/3 1816/5/3 1814/7/3
f 1817/9/3 1818/7/3 1819/3/3
f 1817/9/3 1820/5/3 1818/7/3
f 1821/9/3 1822/7/3 1823/3/3
f 1821/9/3 1824/5/3 1822/7/3
f 1825/9/3 1826/7/3 1827/3/3
f 1825/9/3 1828/5/3 1826/7/3
f 1829/9/3 1830/7/3 1831/3/3
f 1829/9/3 1832/5/3 1830/7/3
f 1833/9/3 1834/7/3 1835/3/3
f 1833/9/3 1836/5/3 1834/7/3
f 1837/9/3 1838/7/3 1839/3/3
f 1837/9/3 1840/5/3 1838/7/3
f 1841/9/6 1842/7/6 1843/3/6
f 1841/9/6 1844/5/6 1842/7/6
f 1845/9/6 1846/7/6 1847/3/6
f 1845/9/6 1848/5/6 1846/7/6
f 1849/9/6 1850/7/6 1851/3/6
f 1849/9/6 1852/5/6 1850/7/6
f 1853/9/6 1854/7/6 1855/3/6
f 1853/9/6 1856/5/6 1854/7/6
f 1857/9/3 1858/7/3 1859/3/3
f 1857/9/3 1860/5/3 1858/7/3
f 1861/9/3 1862/7/3 1863/3/3
f 1861/9/3 1864/5/3 1862/7/3
f 1865/9/3 1866/7/3 1867/3/3
f 1865/9/3 1868/5/3 1866/7/3
f 1869/9/3 1870/7/3 1871/3/3
f 1869/9/3 1872/5/3 1870/7/3
f 1873/9/2 1874/7/2 1875/3/2
f 1873/9/2 1876/5/2 1874/7/2
f 1877/9/2 1878/7/2 1879/3/2
f 1877/9/2 1880/5/2 1878/7/2
f 1881/9/2 1882/7/2 1883/3/2
f 1881/9/2 1884/5/2 1882/7/2
f 1885/9/2 1886/7/2 1887/3/2
f 1885/9/2 1888/5/2 1886/7/2
f 1889/9/6 1890/7/6 1891/3/6
f 1889/9/6 1892/5/6 1890/7/6
f 1893/9/6 1894/7/6 1895/3/6
f 1893/9/6 1896/5/6 1894/7/6
f 1897/9/6 1898/7/6 1899/3/6
f 1897/9/6 1900/5/6 1898/7/6
f 1901/9/6 1902/7/6 1903/3/6
f 1901/9/6 1904/5/6 1902/7/6
f 1905/9/6 1906/7/6 1907/3/6
f 1905/9/6 1908/5/6 1906/7/6
f 1909/9/6 1910/7/6 1911/3/6
f 1909/9/6 1912/5/6 1910/7/6
f 1913/9/6 1914/7/6 1915/3/6
f 1913/9/6 1916/5/6 1914/7/6
f 1917/9/6 1918/7/6 1919/3/6
f 1917/9/6 1920/5/6 1918/7/6
f 1921/9/6 1922/7/6 1923/3/6
f 1921/9/6 1924/5/6 1922/7/6
f 1925/9/6 1926/7/6 1927/3/6
f 1925/9/6 1928/5/6 1926/7/6
f 1929/9/6 1930/7/6 1931/3/6
f 1929/9/6 1932/5/6 1930/7/6
f 1933/9/6 1934/7/6 1935/3/6
f 1933/9/6 1936/5/6 1934/7/6
f 1937/9/6 1938/7/6 1939/3/6
f 1937/9/6 1940/5/6 1938/7/6
f 1941/9/6 1942/7/6 1943/3/6
f 1941/9/6 1944/5/6 1942/7/6
f 1945/9/6 1946/7/6 1947/3/6
f 1945/9/6 1948/5/6 1946/7/6
f 1949/9/6 1950/7/6 1951/3/6
f 1949/9/6 1952/5/6 1950/7/6
f 1953/9/2 1954/7/2 1955/3/2
f 1953/9/2 1956/5/2 1954/7/2
f 1957/9/2 1958/7/2 1959/3/2
f 1957/9/2 1960/5/2 1958/7/2
f 1961/9/2 1962/7/2 1963/3/2
f 1961/9/2 1964/5/2 1962/7/2
f 1965/9/2 1966/7/2 1967/3/2
f 1965/9/2 1968/5/2 1966/7/2
f 1969/9/2 1970/7/2 1971/3/2
f 1969/9/2 1972/5/2 1970/7/2
f 1973/9/2 1974/7/2 1975/3/2
f 1973/9/2 1976/5/2 1974/7/2
f 1977/9/2 1978/7/2 1979/3/2
f 1977/9/2 1980/5/2 1978/7/2
f 1981/9/2 1982/7/2 1983/3/2
f 1981/9/2 1984/5/2 1982/7/2
f 1985/9/2 1986/7/2 1987/3/2
f 1985/9/2 1988/5/2 1986/7/2
f 1989/9/2 1990/7/2 1991/3/2
f 1989/9/2 1992/5/2 1990/7/2
f 1993/9/2 1994/7/2 1995/3/2
f 1993/9/2 1996/5/2 1994/7/2
f 1997/9/2 1998/7/2 1999/3/2
f 1997/9/2 2000/5/2 1998/7/2
f 2001/9/2 2002/7/2 2003/3/2
f 2001/9/2 2004/5/2 2002/7/2
f 2005/9/2 2006/7/2 2007/3/2
f 2005/9/2 2008/5/2 2006/7/2
f 2009/9/2 2010/7/2 2011/3/2
f 2009/9/2 2012/5/2 2010/7/2
f 2013/9/2 2014/7/2 2015/3/2
f 2013/9/2 2016/5/2 2014/7/2
f 2017/9/2 2018/7/2 2019/3/2
f 2017/9/2 2020/5/2 2018/7/2
f 2021/9/2 2022/7/2 2023/3/2
f 2021/9/2 2024/5/2 2022/7/2
f 2025/9/2 2026/7/2 2027/3/2
f 2025/9/2 2028/5/2 2026/7/2
f 2029/9/2 2030/7/2 2031/3/2
f 2029/9/2 2032/5/2 2030/7/2
f 2033/9/2 2034/7/2 2035/3/2
f 2033/9/2 2036/5/2 2034/7/2
f 2037/9/2 2038/7/2 2039/3/2
f 2037/9/2 2040/5/2 2038/7/2
f 2041/9/2 2042/7/2 2043/3/2
f 2041/9/2 2044/5/2 2042/7/2
f 2045/9/2 2046/7/2 2047/3/2
f 2045/9/2 2048/5/2 2046/7/2
f 2049/9/2 2050/7/2 2051/3/2
f 2049/9/2 2052/5/2 2050/7/2
f 2053/9/2 2054/7/2 2055/3/2
f 2053/9/2 2056/5/2 2054/7/2
f 2057/9/2 2058/7/2 2059/3/2
f 2057/9/2 2060/5/2 2058/7/2
f 2061/9/2 2062/7/2 2063/3/2
f 2061/9/2 2064/5/2 2062/7/2
f 2065/9/2 2066/7/2 2067/3/2
f 2065/9/2 2068/5/2 2066/7/2
f 2069/9/2 2070/7/2 2071/3/2
f 2069/9/2 2072/5/2 2070/7/2
f 2073/9/2 2074/7/2 2075/3/2
f 2073/9/2 2076/5/2 2074/7/2
f 2077/9/2 2078/7/2 2079/3/2
f 2077/9/2 2080/5/2 2078/7/2
f 2081/9/2 2082/7/2 2083/3/2
f 2081/9/2 2084/5/2 2082/7/2
f 2085/9/2 2086/7/2 2087/3/2
f 2085/9/2 2088/5/2 2086/7/2
f 2089/9/2 2090/7/2 2091/3/2
f 2089/9/2 2092/5/2 2090/7/2
f 2093/9/2 2094/7/2 2095/3/2
f 2093/9/2 2096/5/2 2094/7/2
f 2097/9/2 2098/7/2 2099/3/2
f 2097/9/2 2100/5/2 2098/7/2
f 2101/9/2 2102/7/2 2103/3/2
f 2101/9/2 2104/5/2 2102/7/2
f 2105/9/2 2106/7/2 2107/3/2
f 2105/9/2 2108/5/2 2106/7/2
f 2109/9/2 2110/7/2 2111/3/2
f 2109/9/2 2112/5/2 2110/7/2
f 2113/9/2 2114/7/2 2115/3/2
f 2113/9/2 2116/5/2 2114/7/2
f 2117/9/2 2118/7/2 2119/3/2
f 2117/9/2 2120/5/2 2118/7/2
f 2121/9/2 2122/7/2 2123/3/2
f 2121/9/2 2124/5/2 2122/7/2
f 2125/9/2 2126/7/2 2127/3/2
f 2125/9/2 2128/5/2 2126/7/2
f 2129/9/2 2130/7/2 2131/3/2
f 2129/9/2 2132/5/2 2130/7/2
f 2133/9/2 2134/7/2 2135/3/2
f 2133/9/2 2136/5/2 2134/7/2
f 2137/9/2 2138/7/2 2139/3/2
f 2137/9/2 2140/5/2 2138/7/2
f 2141/9/2 2142/7/2 2143/3/2
f 2141/9/2 2144/5/2 2142/7/2
f 2145/9/4 2146/7/4 2147/3/4
f 2145/9/4 2148/5/4 2146/7/4
f 2149/9/4 2150/7/4 2151/3/4
f 2149/9/4 2152/5/4 2150/7/4
f 2153/9/4 2154/7/4 2155/3/4
f 2153/9/4 2156/5/4 2154/7/4
f 2157/9/4 2158/7/4 2159/3/4
f 2157/9/4 2160/5/4 2158/7/4
f 2161/9/4 2162/7/4 2163/3/4
f 2161/9/4 2164/5/4 2162/7/4
f 2165/9/4 2166/7/4 2167/3/4
f 2165/9/4 2168/5/4 2166/7/4
f 2169/9/4 2170/7/4 2171/3/4
f 2169/9/4 2172/5/4 2170/7/4
f 2173/9/4 2174/7/4 2175/3/4
f 2173/9/4 2176/5/4 2174/7/4
f 2177/9/4 2178/7/4 2179/3/4
f 2177/9/4 2180/5/4 2178/7/4
f 2181/9/4 2182/7/4 2183/3/4
f 2181/9/4 2184/5/4 2182/7/4
f 2185/9/4 2186/7/4 2187/3/4
f 2185/9/4 2188/5/4 2186/7/4
f 2189/9/4 2190/7/4 2191/3/4
f 2189/9/4 2192/5/4 2190/7/4
f 2193/9/4 2194/7/4 2195/3/4
f 2193/9/4 2196/5/4 2194/7/4
f 2197/9/4 2198/7/4 2199/3/4
f 2197/9/4 2200/5/4 2198/7/4
f 2201/9/4 2202/7/4 2203/3/4
f 2201/9/4 2204/5/4 2202/7/4
f 2205/9/4 2206/7/4 2207/3/4
f 2205/9/4 2208/5/4 2206/7/4
f 2209/9/4 2210/7/4 2211/3/4
f 2209/9/4 2212/5/4 2210/7/4
f 2213/9/4 2214/7/4 2215/3/4
f 2213/9/4 2216/5/4 2214/7/4
f 2217/9/4 2218/7/4 2219/3/4
f 2217/9/4 2220/5/4 2218/7/4
f 2221/9/4 2222/7/4 2223/3/4
f 2221/9/4 2224/5/4 2222/7/4
f 2225/9/4 2226/7/4 2227/3/4
f 2225/9/4 2228/5/4 2226/7/4
f 2229/9/4 2230/7/4 2231/3/4
f 2229/9/4 2232/5/4 2230/7/4
f 2233/9/4 2234/7/4 2235/3/4
f 2233/9/4 2236/5/4 2234/7/4
f 2237/9/4 2238/7/4 2239/3/4
f 2237/9/4 2240/5/4 2238/7/4
f 2241/9/4 2242/7/4 2243/3/4
f 2241/9/4 2244/5/4 2242/7/4
f 2245/9/4 2246/7/4 2247/3/4
f 2245/9/4 2248/5/4 2246/7/4
f 2249/9/4 2250/7/4 2251/3/4
f 2249/9/4 2252/5/4 2250/7/4
f 2253/9/4 2254/7/4 2255/3/4
f 2253/9/4 2256/5/4 2254/7/4
f 2257/9/4 2258/7/4 2259/3/4
f 2257/9/4 2260/5/4 2258/7/4
f 2261/9/4 2262/7/4 2263/3/4
f 2261/9/4 2264/5/4 2262/7/4
f 2265/9/4 2266/7/4 2267/3/4
f 2265/9/4 2268/5/4 2266/7/4
f 2269/9/4 2270/7/4 2271/3/4
f 2269/9/4 2272/5/4 2270/7/4
f 2273/9/4 2274/7/4 2275/3/4
f 2273/9/4 2276/5/4 2274/7/4
f 2277/9/4 2278/7/4 2279/3/4
f 2277/9/4 2280/5/4 2278/7/4
f 2281/9/4 2282/7/4 2283/3/4
f 2281/9/4 2284/5/4 2282/7/4
f 2285/9/4 2286/7/4 2287/3/4
f 2285/9/4 2288/5/4 2286/7/4
f 2289/9/4 2290/7/4 2291/3/4
f 2289/9/4 2292/5/4 2290/7/4
f 2293/9/4 2294/7/4 2295/3/4
f 2293/9/4 2296/5/4 2294/7/4
f 2297/9/4 2298/7/4 2299/3/4
f 2297/9/4 2300/5/4 2298/7/4
f 2301/9/4 2302/7/4 2303/3/4
f 2301/9/4 2304/5/4 2302/7/4
f 2305/9/4 2306/7/4 2307/3/4
f 2305/9/4 2308/5/4 2306/7/4
f 2309/9/4 2310/7/4 2311/3/4
f 2309/9/4 2312/5/4 2310/7/4
f 2313/9/4 2314/7/4 2315/3/4
f 2313/9/4 2316/5/4 2314/7/4
f 2317/9/4 2318/7/4 2319/3/4
f 2317/9/4 2320/5/4 2318/7/4
f 2321/9/4 2322/7/4 2323/3/4
f 2321/9/4 2324/5/4 2322/7/4
f 2325/9/4 2326/7/4 2327/3/4
f 2325/9/4 2328/5/4 2326/7/4
f 2329/9/4 2330/7/4 2331/3/4
f 2329/9/4 2332/5/4 2330/7/4
f 2333/9/4 2334/7/4 2335/3/4
f 2333/9/4 2336/5/4 2334/7/4
f 2337/9/3 2338/7/3 2339/3/3
f 2337/9/3 2340/5/3 2338/7/3
f 2341/9/3 2342/7/3 2343/3/3
f 2341/9/3 2344/5/3 2342/7/3
f 2345/9/3 2346/7/3 2347/3/3
f 2345/9/3 2348/5/3 2346/7/3
f 2349/9/3 2350/7/3 2351/3/3
f 2349/9/3 2352/5/3 2350/7/3
f 2353/9/3 2354/7/3 2355/3/3
f 2353/9/3 2356/5/3 2354/7/3
f 2357/9/3 2358/7/3 2359/3/3
f 2357/9/3 2360/5/3 2358/7/3
f 2361/9/3 2362/7/3 2363/3/3
f 2361/9/3 2364/5/3 2362/7/3
f 2365/9/3 2366/7/3 2367/3/3
f 2365/9/3 2368/5/3 2366/7/3
f 2369/9/3 2370/7/3 2371/3/3
f 2369/9/3 2372/5/3 2370/7/3
f 2373/9/3 2374/7/3 2375/3/3
f 2373/9/3 2376/5/3 2374/7/3
f 2377/9/3 2378/7/3 2379/3/3
f 2377/9/3 2380/5/3 2378/7/3
f 2381/9/3 2382/7/3 2383/3/3
f 2381/9/3 2384/5/3 2382/7/3
f 2385/9/3 2386/7/3 2387/3/3
f 2385/9/3 2388/5/3 2386/7/3
f 2389/9/3 2390/7/3 2391/3/3
f 2389/9/3 2392/5/3 2390/7/3
f 2393/9/3 2394/7/3 2395/3/3
f 2393/9/3 2396/5/3 2394/7/3
f 2397/9/3 2398/7/3 2399/3/3
f 2397/9/3 2400/5/3 2398/7/3
f 2401/9/3 2402/7/3 2403/3/3
f 2401/9/3 2404/5/3 2402/7/3
f 2405/9/3 2406/7/3 2407/3/3
f 2405/9/3 2408/5/3 2406/7/3
f 2409/9/3 2410/7/3 2411/3/3
f 2409/9/3 2412/5/3 2410/7/3
f 2413/9/3 2414/7/3 2415/3/3
f 2413/9/3 2416/5/3 2414/7/3
f 2417/9/3 2418/7/3 2419/3/3
f 2417/9/3 2420/5/3 2418/7/3
f 2421/9/3 2422/7/3 2423/3/3
f 2421/9/3 2424/5/3 2422/7/3
f 2425/9/3 2426/7/3 2427/3/3
f 2425/9/3 2428/5/3 2426/7/3
f 2429/9/3 2430/7/3 2431/3/3
f 2429/9/3 2432/5/3 2430/7/3
f 2433/9/3 2434/7/3 2435/3/3
f 2433/9/3 2436/5/3 2434/7/3
f 2437/9/3 2438/7/3 2439/3/3
f 2437/9/3 2440/5/3 2438/7/3
f 2441/9/3 2442/7/3 2443/3/3
f 2441/9/3 2444/5/3 2442/7/3
f 2445/9/3 2446/7/3 2447/3/3
f 2445/9/3 2448/5/3 2446/7/3
f 2449/9/3 2450/7/3 2451/3/3
f 2449/9/3 2452/5/3 2450/7/3
f 2453/9/3 2454/7/3 2455/3/3
f 2453/9/3 2456/5/3 2454/7/3
f 2457/9/3 2458/7/3 2459/3/3
f 2457/9/3 2460/5/3 2458/7/3
f 2461/9/3 2462/7/3 2463/3/3
f 2461/9/3 2464/5/3 2462/7/3
f 2465/9/3 2466/7/3 2467/3/3
f 2465/9/3 2468/5/3 2466/7/3
f 2469/9/3 2470/7/3 2471/3/3
f 2469/9/3 2472/5/3 2470/7/3
f 2473/9/3 2474/7/3 2475/3/3
f 2473/9/3 2476/5/3 2474/7/3
f 2477/9/3 2478/7/3 2479/3/3
f 2477/9/3 2480/5/3 2478/7/3
f 2481/9/3 2482/7/3 2483/3/3
f 2481/9/3 2484/5/3 2482/7/3
f 2485/9/3 2486/7/3 2487/3/3
f 2485/9/3 2488/5/3 2486/7/3
f 2489/9/3 2490/7/3 2491/3/3
f 2489/9/3 2492/5/3 2490/7/3
f 2493/9/3 2494/7/3 2495/3/3
f 2493/9/3 2496/5/3 2494/7/3
f 2497/9/3 2498/7/3 2499/3/3
f 2497/9/3 2500/5/3 2498/7/3
f 2501/9/3 2502/7/3 2503/3/3
f 2501/9/3 2504/5/3 2502/7/3
f 2505/9/3 2506/7/3 2507/3/3
f 2505/9/3 2508/5/3 2506/7/3
f 2509/9/3 2510/7/3 2511/3/3
f 2509/9/3 2512/5/3 2510/7/3
f 2513/9/3 2514/7/3 2515/3/3
f 2513/9/3 2516/5/3 2514/7/3
f 2517/9/3 2518/7/3 2519/3/3
f 2517/9/3 2520/5/3 2518/7/3
f 2521/9/3 2522/7/3 2523/3/3
f 2521/9/3 2524/5/3 2522/7/3
f 2525/9/3 2526/7/3 2527/3/3
f 2525/9/3 2528/5/3 2526/7/3
f 2529/9/1 2530/7/1 2531/3/1
f 2529/9/1 2532/5/1 2530/7/1
f 2533/9/1 2534/7/1 2535/3/1
f 2533/9/1 2536/5/1 2534/7/1
f 2537/9/1 2538/7/1 2539/3/1
f 2537/9/1 2540/5/1 2538/7/1
f 2541/9/1 2542/7/1 2543/3/1
f 2541/9/1 2544/5/1 2542/7/1
f 2545/9/1 2546/7/1 2547/3/1
f 2545/9/1 2548/5/1 2546/7/1
f 2549/9/1 2550/7/1 2551/3/1
f 2549/9/1 2552/5/1 2550/7/1
f 2553/9/1 2554/7/1 2555/3/1
f 2553/9/1 2556/5/1 2554/7/1
f 2557/9/1 2558/7/1 2559/3/1
f 2557/9/1 2560/5/1 2558/7/1
f 2561/9/1 2562/7/1 2563/3/1
f 2561/9/1 2564/5/1 2562/7/1
f 2565/9/1 2566/7/1 2567/3/1
f 2565/9/1 2568/5/1 2566/7/1
f 2569/9/1 2570/7/1 2571/3/1
f 2569/9/1 2572/5/1 2570/7/1
f 2573/9/1 2574/7/1 2575/3/1
f 2573/9/1 2576/5/1 2574/7/1
f 2577/9/1 2578/7/1 2579/3/1
f 2577/9/1 2580/5/1 2578/7/1
f 2581/9/1 2582/7/1 2583/3/1
f 2581/9/1 2584/5/1 2582/7/1
f 2585/9/1 2586/7/1 2587/3/1
f 2585/9/1 2588/5/1 2586/7/1
f 2589/9/1 2590/7/1 2591/3/1
f 2589/9/1 2592/5/1 2590/7/1
f 2593/9/1 2594/7/1 2595/3/1
f 2593/9/1 2596/5/1 2594/7/1
f 2597/9/1 2598/7/1 2599/3/1
f 2597/9/1 2600/5/1 2598/7/1
f 2601/9/1 2602/7/1 2603/3/1
f 2601/9/1 2604/5/1 2602/7/1
f 2605/9/1 2606/7/1 2607/3/1
f 2605/9/1 2608/5/1 2606/7/1
f 2609/9/1 2610/7/1 2611/3/1
f 2609/9/1 2612/5/1 2610/7/1
f 2613/9/1 2614/7/1 2615/3/1
f 2613/9/1 2616/5/1 2614/7/1
f 2617/9/1 2618/7/1 2619/3/1
f 2617/9/1 2620/5/1 2618/7/1
f 2621/9/1 2622/7/1 2623/3/1
f 2621/9/1 2624/5/1 2622/7/1
f 2625/9/1 2626/7/1 2627/3/1
f 2625/9/1 2628/5/1 2626/7/1
f 2629/9/1 2630/7/1 2631/3/1
f 2629/9/1 2632/5/1 2630/7/1
f 2633/9/1 2634/7/1 2635/3/1
f 2633/9/1 2636/5/1 2634/7/1
f 2637/9/1 2638/7/1 2639/3/1
f 2637/9/1 2640/5/1 2638/7/1
f 2641/9/1 2642/7/1 2643/3/1
f 2641/9/1 2644/5/1 2642/7/1
f 2645/9/1 2646/7/1 2647/3/1
f 2645/9/1 2648/5/1 2646/7/1
f 2649/9/1 2650/7/1 2651/3/1
f 2649/9/1 2652/5/1 2650/7/1
f 2653/9/1 2654/7/1 2655/3/1
f 2653/9/1 2656/5/1 2654/7/1
f 2657/9/1 2658/7/1 2659/3/1
f 2657/9/1 2660/5/1 2658/7/1
f 2661/9/1 2662/7/1 2663/3/1
f 2661/9/1 2664/5/1 2662/7/1
f 2665/9/1 2666/7/1 2667/3/1
f 2665/9/1 2668/5/1 2666/7/1
f 2669/9/1 2670/7/1 2671/3/1
f 2669/9/1 2672/5/1 2670/7/1
f 2673/9/1 2674/7/1 2675/3/1
f 2673/9/1 2676/5/1 2674/7/1
f 2677/9/1 2678/7/1 2679/3/1
f 2677/9/1 2680/5/1 2678/7/1
f 2681/9/1 2682/7/1 2683/3/1
f 2681/9/1 2684/5/1 2682/7/1
f 2685/9/1 2686/7/1 2687/3/1
f 2685/9/1 2688/5/1 2686/7/1
f 2689/9/1 2690/7/1 2691/3/1
f 2689/9/1 2692/5/1 2690/7/1
f 2693/9/1 2694/7/1 2695/3/1
f 2693/9/1 2696/5/1 2694/7/1
f 2697/9/1 2698/7/1 2699/3/1
f 2697/9/1 2700/5/1 2698/7/1
f 2701/9/1 2702/7/1 2703/3/1
f 2701/9/1 2704/5/1 2702/7/1
f 2705/9/1 2706/7/1 2707/3/1
f 2705/9/1 2708/5/1 2706/7/1
f 2709/9/1 2710/7/1 2711/3/1
f 2709/9/1 2712/5/1 2710/7/1
f 2713/9/1 2714/7/1 2715/3/1
f 2713/9/1 2716/5/1 2714/7/1
f 2717/9/1 2718/7/1 2719/3/1
f 2717/9/1 2720/5/1 2718/7/1
f 2721/9/4 2722/7/4 2723/3/4
f 2721/9/4 2724/5/4 2722/7/4
f 2725/9/4 2726/7/4 2727/3/4
f 2725/9/4 2728/5/4 2726/7/4
f 2729/9/4 2730/7/4 2731/3/4
f 2729/9/4 2732/5/4 2730/7/4
f 2733/9/4 2734/7/4 2735/3/4
f 2733/9/4 2736/5/4 2734/7/4
f 2737/9/4 2738/7/4 2739/3/4
f 2737/9/4 2740/5/4 2738/7/4
f 2741/9/4 2742/7/4 2743/3/4
f 2741/9/4 2744/5/4 2742/7/4
f 2745/9/4 2746/7/4 2747/3/4
f 2745/9/4 2748/5/4 2746/7/4
f 2749/9/4 2750/7/4 2751/3/4
f 2749/9/4 2752/5/4 2750/7/4
f 2753/9/4 2754/7/4 2755/3/4
f 2753/9/4 2756/5/4 2754/7/4
f 2757/9/4 2758/7/4 2759/3/4
f 2757/9/4 2760/5/4 2758/7/4
f 2761/9/4 2762/7/4 2763/3/4
f 2761/9/4 2764/5/4 2762/7/4
f 2765/9/4 2766/7/4 2767/3/4
f 2765/9/4 2768/5/4 2766/7/4
f 2769/9/4 2770/7/4 2771/3/4
f 2769/9/4 2772/5/4 2770/7/4
f 2773/9/4 2774/7/4 2775/3/4
f 2773/9/4 2776/5/4 2774/7/4
f 2777/9/4 2778/7/4 2779/3/4
f 2777/9/4 2780/5/4 2778/7/4
f 2781/9/4 2782/7/4 2783/3/4
f 2781/9/4 2784/5/4 2782/7/4
