mtllib segment5.mtl
o Default
v 0 0 0
v 0 0 -1
v 1 0 -1
v 1 0 0
v 1 0 0
v 2 0 -1
v 1 0 -1
v 2 0 0
v 2 0 0
v 3 0 -1
v 2 0 -1
v 3 0 0
v 3 0 0
v 4 0 -1
v 3 0 -1
v 4 0 0
v 0 0 -1
v 1 0 -2
v 0 0 -2
v 1 0 -1
v 2 0 -1
v 3 0 -2
v 2 0 -2
v 3 0 -1
v 3 0 -1
v 4 0 -2
v 3 0 -2
v 4 0 -1
v 1 0 -1
v 2 0 -2
v 1 0 -2
v 2 0 -1
v 0 0 -2
v 1 0 -3
v 0 0 -3
v 1 0 -2
v 1 0 -2
v 2 0 -3
v 1 0 -3
v 2 0 -2
v 2 0 -2
v 3 0 -3
v 2 0 -3
v 3 0 -2
v 3 0 -2
v 4 0 -3
v 3 0 -3
v 4 0 -2
v 0 0 -3
v 1 0 -4
v 0 0 -4
v 1 0 -3
v 1 0 -3
v 2 0 -4
v 1 0 -4
v 2 0 -3
v 2 0 -3
v 3 0 -4
v 2 0 -4
v 3 0 -3
v 3 0 -3
v 4 0 -4
v 3 0 -4
v 4 0 -3
v 1 0 -5
v 2 0 -6
v 1 0 -6
v 2 0 -5
v 1 0 -4
v 2 0 -5
v 1 0 -5
v 2 0 -4
v 2 0 -4
v 3 0 -5
v 2 0 -5
v 3 0 -4
v 3 0 -4
v 4 0 -5
v 3 0 -5
v 4 0 -4
v 3 0 -5
v 4 0 -6
v 3 0 -6
v 4 0 -5
v 0 0 -5
v 1 0 -6
v 0 0 -6
v 1 0 -5
v 3 0 -6
v 4 0 -7
v 3 0 -7
v 4 0 -6
v 2 0 -5
v 3 0 -6
v 2 0 -6
v 3 0 -5
v 0 0 -7
v 1 0 -8
v 0 0 -8
v 1 0 -7
v 0 0 -6
v 1 0 -7
v 0 0 -7
v 1 0 -6
v 1 0 -6
v 2 0 -7
v 1 0 -7
v 2 0 -6
v 2 0 -6
v 3 0 -7
v 2 0 -7
v 3 0 -6
v 1 0 -7
v 2 0 -8
v 1 0 -8
v 2 0 -7
v 2 0 -7
v 3 0 -8
v 2 0 -8
v 3 0 -7
v 3 0 -7
v 4 0 -8
v 3 0 -8
v 4 0 -7
v 0 -20 -9
v 1 -20 -10
v 0 -20 -10
v 1 -20 -9
v 4 -1 -8
v 3 0 -8
v 4 0 -8
v 3 -1 -8
v 4 -2 -8
v 3 -1 -8
v 4 -1 -8
v 3 -2 -8
v 4 -3 -8
v 3 -2 -8
v 4 -2 -8
v 3 -3 -8
v 4 -4 -8
v 3 -3 -8
v 4 -3 -8
v 3 -4 -8
v 4 -18 -15
v 4 -17 -14
v 4 -17 -15
v 4 -18 -14
v 4 -6 -8
v 3 -5 -8
v 4 -5 -8
v 3 -6 -8
v 4 -8 -8
v 3 -7 -8
v 4 -7 -8
v 3 -8 -8
v 4 -7 -8
v 3 -6 -8
v 4 -6 -8
v 3 -7 -8
v 4 -9 -8
v 3 -8 -8
v 4 -8 -8
v 3 -9 -8
v 4 -10 -8
v 3 -9 -8
v 4 -9 -8
v 3 -10 -8
v 4 -11 -8
v 3 -10 -8
v 4 -10 -8
v 3 -11 -8
v 4 -12 -8
v 3 -11 -8
v 4 -11 -8
v 3 -12 -8
v 4 -13 -8
v 3 -12 -8
v 4 -12 -8
v 3 -13 -8
v 4 -14 -8
v 3 -13 -8
v 4 -13 -8
v 3 -14 -8
v 4 -15 -8
v 3 -14 -8
v 4 -14 -8
v 3 -15 -8
v 4 -16 -8
v 3 -15 -8
v 4 -15 -8
v 3 -16 -8
v 1 -1 -8
v 0 0 -8
v 1 0 -8
v 0 -1 -8
v 1 -2 -8
v 0 -1 -8
v 1 -1 -8
v 0 -2 -8
v 1 4 -10
v 2 4 -9
v 1 4 -9
v 2 4 -10
v 1 -4 -8
v 0 -3 -8
v 1 -3 -8
v 0 -4 -8
v 3 -6 -8
v 2 -5 -8
v 3 -5 -8
v 2 -6 -8
v 2 -5 -8
v 1 -4 -8
v 2 -4 -8
v 1 -5 -8
v 3 -8 -8
v 2 -7 -8
v 3 -7 -8
v 2 -8 -8
v 3 -5 -8
v 2 -4 -8
v 3 -4 -8
v 2 -5 -8
v 1 -7 -8
v 0 -6 -8
v 1 -6 -8
v 0 -7 -8
v 1 -8 -8
v 0 -7 -8
v 1 -7 -8
v 0 -8 -8
v 1 -9 -8
v 0 -8 -8
v 1 -8 -8
v 0 -9 -8
v 1 -10 -8
v 0 -9 -8
v 1 -9 -8
v 0 -10 -8
v 1 -11 -8
v 0 -10 -8
v 1 -10 -8
v 0 -11 -8
v 1 -12 -8
v 0 -11 -8
v 1 -11 -8
v 0 -12 -8
v 1 -6 -8
v 0 -5 -8
v 1 -5 -8
v 0 -6 -8
v 1 -13 -8
v 0 -12 -8
v 1 -12 -8
v 0 -13 -8
v 1 -14 -8
v 0 -13 -8
v 1 -13 -8
v 0 -14 -8
v 1 -15 -8
v 0 -14 -8
v 1 -14 -8
v 0 -15 -8
v 1 -16 -8
v 0 -15 -8
v 1 -15 -8
v 0 -16 -8
v 2 -16 -8
v 1 -15 -8
v 2 -15 -8
v 1 -16 -8
v 3 -16 -8
v 2 -15 -8
v 3 -15 -8
v 2 -16 -8
v 3 -15 -8
v 2 -14 -8
v 3 -14 -8
v 2 -15 -8
v 2 -15 -8
v 1 -14 -8
v 2 -14 -8
v 1 -15 -8
v 2 -14 -8
v 1 -13 -8
v 2 -13 -8
v 1 -14 -8
v 3 -14 -8
v 2 -13 -8
v 3 -13 -8
v 2 -14 -8
v 3 -13 -8
v 2 -12 -8
v 3 -12 -8
v 2 -13 -8
v 2 -12 -8
v 1 -11 -8
v 2 -11 -8
v 1 -12 -8
v 2 -11 -8
v 1 -10 -8
v 2 -10 -8
v 1 -11 -8
v 2 -10 -8
v 1 -9 -8
v 2 -9 -8
v 1 -10 -8
v 2 -6 -8
v 1 -5 -8
v 2 -5 -8
v 1 -6 -8
v 3 -12 -8
v 2 -11 -8
v 3 -11 -8
v 2 -12 -8
v 2 -13 -8
v 1 -12 -8
v 2 -12 -8
v 1 -13 -8
v 3 -11 -8
v 2 -10 -8
v 3 -10 -8
v 2 -11 -8
v 3 -9 -8
v 2 -8 -8
v 3 -8 -8
v 2 -9 -8
v 2 -7 -8
v 1 -6 -8
v 2 -6 -8
v 1 -7 -8
v 4 -5 -8
v 3 -4 -8
v 4 -4 -8
v 3 -5 -8
v 2 -9 -8
v 1 -8 -8
v 2 -8 -8
v 1 -9 -8
v 3 -10 -8
v 2 -9 -8
v 3 -9 -8
v 2 -10 -8
v 2 -8 -8
v 1 -7 -8
v 2 -7 -8
v 1 -8 -8
v 0 -10 -12
v 1 -9 -12
v 0 -9 -12
v 1 -10 -12
v 3 -4 -8
v 2 -3 -8
v 3 -3 -8
v 2 -4 -8
v 3 -3 -8
v 2 -2 -8
v 3 -2 -8
v 2 -3 -8
v 3 -2 -8
v 2 -1 -8
v 3 -1 -8
v 2 -2 -8
v 3 -1 -8
v 2 0 -8
v 3 0 -8
v 2 -1 -8
v 2 -1 -8
v 1 0 -8
v 2 0 -8
v 1 -1 -8
v 2 -2 -8
v 1 -1 -8
v 2 -1 -8
v 1 -2 -8
v 2 -3 -8
v 1 -2 -8
v 2 -2 -8
v 1 -3 -8
v 2 -4 -8
v 1 -3 -8
v 2 -3 -8
v 1 -4 -8
v 4 -17 -8
v 3 -16 -8
v 4 -16 -8
v 3 -17 -8
v 3 -17 -8
v 2 -16 -8
v 3 -16 -8
v 2 -17 -8
v 2 -17 -8
v 1 -16 -8
v 2 -16 -8
v 1 -17 -8
v 1 -17 -8
v 0 -16 -8
v 1 -16 -8
v 0 -17 -8
v 4 -18 -8
v 3 -17 -8
v 4 -17 -8
v 3 -18 -8
v 3 -18 -8
v 2 -17 -8
v 3 -17 -8
v 2 -18 -8
v 2 -18 -8
v 1 -17 -8
v 2 -17 -8
v 1 -18 -8
v 1 -18 -8
v 0 -17 -8
v 1 -17 -8
v 0 -18 -8
v 4 -19 -8
v 3 -18 -8
v 4 -18 -8
v 3 -19 -8
v 3 -19 -8
v 2 -18 -8
v 3 -18 -8
v 2 -19 -8
v 2 -19 -8
v 1 -18 -8
v 2 -18 -8
v 1 -19 -8
v 1 -19 -8
v 0 -18 -8
v 1 -18 -8
v 0 -19 -8
v 4 -20 -8
v 3 -19 -8
v 4 -19 -8
v 3 -20 -8
v 3 -20 -8
v 2 -19 -8
v 3 -19 -8
v 2 -20 -8
v 2 -20 -8
v 1 -19 -8
v 2 -19 -8
v 1 -20 -8
v 1 -20 -8
v 0 -19 -8
v 1 -19 -8
v 0 -20 -8
v 0 -20 -8
v 1 -20 -9
v 0 -20 -9
v 1 -20 -8
v 3 -20 -15
v 4 -20 -16
v 3 -20 -16
v 4 -20 -15
v 3 -16 -16
v 4 -16 -15
v 3 -16 -15
v 4 -16 -16
v 0 -20 -11
v 1 -20 -12
v 0 -20 -12
v 1 -20 -11
v 1 -20 -11
v 2 -20 -12
v 1 -20 -12
v 2 -20 -11
v 1 -20 -10
v 2 -20 -11
v 1 -20 -11
v 2 -20 -10
v 2 -20 -15
v 3 -20 -16
v 2 -20 -16
v 3 -20 -15
v 1 -20 -8
v 2 -20 -9
v 1 -20 -9
v 2 -20 -8
v 2 -20 -8
v 3 -20 -9
v 2 -20 -9
v 3 -20 -8
v 0 -20 -10
v 1 -20 -11
v 0 -20 -11
v 1 -20 -10
v 2 -20 -10
v 3 -20 -11
v 2 -20 -11
v 3 -20 -10
v 2 -20 -11
v 3 -20 -12
v 2 -20 -12
v 3 -20 -11
v 3 -20 -11
v 4 -20 -12
v 3 -20 -12
v 4 -20 -11
v 3 -20 -10
v 4 -20 -11
v 3 -20 -11
v 4 -20 -10
v 1 -20 -15
v 2 -20 -16
v 1 -20 -16
v 2 -20 -15
v 3 -20 -8
v 4 -20 -9
v 3 -20 -9
v 4 -20 -8
v 2 -20 -12
v 3 -20 -13
v 2 -20 -13
v 3 -20 -12
v 1 -20 -12
v 2 -20 -13
v 1 -20 -13
v 2 -20 -12
v 0 -20 -12
v 1 -20 -13
v 0 -20 -13
v 1 -20 -12
v 0 -20 -13
v 1 -20 -14
v 0 -20 -14
v 1 -20 -13
v 3 -20 -12
v 4 -20 -13
v 3 -20 -13
v 4 -20 -12
v 1 -20 -13
v 2 -20 -14
v 1 -20 -14
v 2 -20 -13
v 1 -20 -14
v 2 -20 -15
v 1 -20 -15
v 2 -20 -14
v 0 -20 -14
v 1 -20 -15
v 0 -20 -15
v 1 -20 -14
v 3 -20 -13
v 4 -20 -14
v 3 -20 -14
v 4 -20 -13
v 3 -20 -14
v 4 -20 -15
v 3 -20 -15
v 4 -20 -14
v 2 -20 -14
v 3 -20 -15
v 2 -20 -15
v 3 -20 -14
v 0 -20 -15
v 1 -20 -16
v 0 -20 -16
v 1 -20 -15
v 3 -20 -9
v 4 -20 -10
v 3 -20 -10
v 4 -20 -9
v 2 -20 -9
v 3 -20 -10
v 2 -20 -10
v 3 -20 -9
v 1 -20 -9
v 2 -20 -10
v 1 -20 -10
v 2 -20 -9
v 0 0 -4
v 1 0 -5
v 0 0 -5
v 1 0 -4
v 0 0 -7
v 1.1102230246251565e-16 1 -8
v -1.1102230246251565e-16 1 -7
v 0 0 -8
v 0 0 -6
v -1.1102230246251565e-16 1 -7
v -1.1102230246251565e-16 1 -6
v 0 0 -7
v 0 0 -5
v -1.1102230246251565e-16 1 -6
v -1.1102230246251565e-16 1 -5
v 0 0 -6
v 0 0 -4
v -1.1102230246251565e-16 1 -5
v -1.1102230246251565e-16 1 -4
v 0 0 -5
v 0 0 -3
v -1.1102230246251565e-16 1 -4
v -1.1102230246251565e-16 1 -3
v 0 0 -4
v 0 0 -2
v -1.1102230246251565e-16 1 -3
v -1.1102230246251565e-16 1 -2
v 0 0 -3
v 0 0 -1
v -1.1102230246251565e-16 1 -2
v -1.1102230246251565e-16 1 -1
v 0 0 -2
v 0 0 0
v -1.1102230246251565e-16 1 -1
v -1.1102230246251565e-16 1 0
v 0 0 -1
v -1.1102230246251565e-16 1 0
v 1.1102230246251565e-16 2 -1
v -1.1102230246251565e-16 2 0
v -1.1102230246251565e-16 1 -1
v -1.1102230246251565e-16 1 -1
v 1.1102230246251565e-16 2 -2
v 1.1102230246251565e-16 2 -1
v -1.1102230246251565e-16 1 -2
v -1.1102230246251565e-16 1 -2
v 1.1102230246251565e-16 2 -3
v 1.1102230246251565e-16 2 -2
v -1.1102230246251565e-16 1 -3
v -1.1102230246251565e-16 1 -3
v 1.1102230246251565e-16 2 -4
v 1.1102230246251565e-16 2 -3
v -1.1102230246251565e-16 1 -4
v -1.1102230246251565e-16 1 -4
v 1.1102230246251565e-16 2 -5
v 1.1102230246251565e-16 2 -4
v -1.1102230246251565e-16 1 -5
v -1.1102230246251565e-16 1 -5
v 1.1102230246251565e-16 2 -6
v 1.1102230246251565e-16 2 -5
v -1.1102230246251565e-16 1 -6
v -1.1102230246251565e-16 1 -6
v 1.1102230246251565e-16 2 -7
v 1.1102230246251565e-16 2 -6
v -1.1102230246251565e-16 1 -7
v -1.1102230246251565e-16 1 -7
v 1.1102230246251565e-16 2 -8
v 1.1102230246251565e-16 2 -7
v 1.1102230246251565e-16 1 -8
v 1.1102230246251565e-16 2 -7
v 1.1102230246251565e-16 3 -8
v -1.1102230246251565e-16 3 -7
v 1.1102230246251565e-16 2 -8
v 1.1102230246251565e-16 2 -6
v -1.1102230246251565e-16 3 -7
v -1.1102230246251565e-16 3 -6
v 1.1102230246251565e-16 2 -7
v 1.1102230246251565e-16 2 -4
v 1.1102230246251565e-16 3 -5
v -1.1102230246251565e-16 3 -4
v 1.1102230246251565e-16 2 -5
v 1.1102230246251565e-16 2 -3
v -1.1102230246251565e-16 3 -4
v -1.1102230246251565e-16 3 -3
v 1.1102230246251565e-16 2 -4
v 1.1102230246251565e-16 2 -2
v -1.1102230246251565e-16 3 -3
v -1.1102230246251565e-16 3 -2
v 1.1102230246251565e-16 2 -3
v 1.1102230246251565e-16 2 -1
v -1.1102230246251565e-16 3 -2
v -1.1102230246251565e-16 3 -1
v 1.1102230246251565e-16 2 -2
v -1.1102230246251565e-16 2 0
v -1.1102230246251565e-16 3 -1
v -1.1102230246251565e-16 3 0
v 1.1102230246251565e-16 2 -1
v 1.1102230246251565e-16 2 -5
v -1.1102230246251565e-16 3 -6
v 1.1102230246251565e-16 3 -5
v 1.1102230246251565e-16 2 -6
v -1.1102230246251565e-16 3 0
v 1.1102230246251565e-16 4 -1
v -1.1102230246251565e-16 4 0
v -1.1102230246251565e-16 3 -1
v -1.1102230246251565e-16 3 -1
v 1.1102230246251565e-16 4 -2
v 1.1102230246251565e-16 4 -1
v -1.1102230246251565e-16 3 -2
v -1.1102230246251565e-16 3 -2
v 1.1102230246251565e-16 4 -3
v 1.1102230246251565e-16 4 -2
v -1.1102230246251565e-16 3 -3
v -1.1102230246251565e-16 3 -3
v 1.1102230246251565e-16 4 -4
v 1.1102230246251565e-16 4 -3
v -1.1102230246251565e-16 3 -4
v -1.1102230246251565e-16 3 -4
v 1.1102230246251565e-16 4 -5
v 1.1102230246251565e-16 4 -4
v 1.1102230246251565e-16 3 -5
v 1.1102230246251565e-16 3 -5
v 1.1102230246251565e-16 4 -6
v 1.1102230246251565e-16 4 -5
v -1.1102230246251565e-16 3 -6
v -1.1102230246251565e-16 3 -6
v 1.1102230246251565e-16 4 -7
v 1.1102230246251565e-16 4 -6
v -1.1102230246251565e-16 3 -7
v -1.1102230246251565e-16 3 -7
v 1.1102230246251565e-16 4 -8
v 1.1102230246251565e-16 4 -7
v 1.1102230246251565e-16 3 -8
v 1.1102230246251565e-16 4 -8
v 1 4 -7
v 1.1102230246251565e-16 4 -7
v 1 4 -8
v 1.1102230246251565e-16 4 -7
v 1 4 -6
v 1.1102230246251565e-16 4 -6
v 1 4 -7
v 1.1102230246251565e-16 4 -6
v 1 4 -5
v 1.1102230246251565e-16 4 -5
v 1 4 -6
v 1.1102230246251565e-16 4 -5
v 1 4 -4
v 1.1102230246251565e-16 4 -4
v 1 4 -5
v 1.1102230246251565e-16 4 -4
v 1 4 -3
v 1.1102230246251565e-16 4 -3
v 1 4 -4
v 1.1102230246251565e-16 4 -3
v 1 4 -2
v 1.1102230246251565e-16 4 -2
v 1 4 -3
v 1.1102230246251565e-16 4 -2
v 1 4 -1
v 1.1102230246251565e-16 4 -1
v 1 4 -2
v 1.1102230246251565e-16 4 -1
v 1 4 0
v -1.1102230246251565e-16 4 0
v 1 4 -1
v 1 4 -1
v 2 4 0
v 1 4 0
v 2 4 -1
v 1 4 -2
v 2 4 -1
v 1 4 -1
v 2 4 -2
v 1 4 -3
v 2 4 -2
v 1 4 -2
v 2 4 -3
v 1 4 -4
v 2 4 -3
v 1 4 -3
v 2 4 -4
v 1 4 -5
v 2 4 -4
v 1 4 -4
v 2 4 -5
v 1 4 -6
v 2 4 -5
v 1 4 -5
v 2 4 -6
v 1 4 -7
v 2 4 -6
v 1 4 -6
v 2 4 -7
v 1 4 -8
v 2 4 -7
v 1 4 -7
v 2 4 -8
v 2 4 -8
v 3 4 -7
v 2 4 -7
v 3 4 -8
v 2 4 -7
v 3 4 -6
v 2 4 -6
v 3 4 -7
v 2 4 -6
v 3 4 -5
v 2 4 -5
v 3 4 -6
v 2 4 -4
v 3 4 -3
v 2 4 -3
v 3 4 -4
v 2 4 -3
v 3 4 -2
v 2 4 -2
v 3 4 -3
v 2 4 -2
v 3 4 -1
v 2 4 -1
v 3 4 -2
v 2 4 -1
v 3 4 0
v 2 4 0
v 3 4 -1
v 2 4 -5
v 3 4 -4
v 2 4 -4
v 3 4 -5
v 3 4 -1
v 4 4 0
v 3 4 0
v 4 4 -1
v 3 4 -3
v 4 4 -2
v 3 4 -2
v 4 4 -3
v 3 4 -4
v 4 4 -3
v 3 4 -3
v 4 4 -4
v 3 4 -5
v 4 4 -4
v 3 4 -4
v 4 4 -5
v 3 4 -6
v 4 4 -5
v 3 4 -5
v 4 4 -6
v 3 4 -7
v 4 4 -6
v 3 4 -6
v 4 4 -7
v 3 4 -8
v 4 4 -7
v 3 4 -7
v 4 4 -8
v 3 4 -2
v 4 4 -1
v 3 4 -1
v 4 4 -2
v 4 3 -8
v 4 4 -7
v 4 4 -8
v 4 3 -7
v 4 3 -7
v 4 4 -6
v 4 4 -7
v 4 3 -6
v 4 3 -5
v 4 4 -4
v 4 4 -5
v 4 3 -4
v 4 3 -3
v 4 4 -2
v 4 4 -3
v 4 3 -2
v 4 3 -2
v 4 4 -1
v 4 4 -2
v 4 3 -1
v 4 3 -1
v 4 4 0
v 4 4 -1
v 4 3 0
v 4 3 -4
v 4 4 -3
v 4 4 -4
v 4 3 -3
v 4 3 -6
v 4 4 -5
v 4 4 -6
v 4 3 -5
v 4 0 -1
v 4 1 0
v 4 1 -1
v 4 0 0
v 4 0 -2
v 4 1 -1
v 4 1 -2
v 4 0 -1
v 4 0 -3
v 4 1 -2
v 4 1 -3
v 4 0 -2
v 4 0 -4
v 4 1 -3
v 4 1 -4
v 4 0 -3
v 4 0 -5
v 4 1 -4
v 4 1 -5
v 4 0 -4
v 4 0 -6
v 4 1 -5
v 4 1 -6
v 4 0 -5
v 4 0 -7
v 4 1 -6
v 4 1 -7
v 4 0 -6
v 4 0 -8
v 4 1 -7
v 4 1 -8
v 4 0 -7
v 4 1 -8
v 4 2 -7
v 4 2 -8
v 4 1 -7
v 4 1 -7
v 4 2 -6
v 4 2 -7
v 4 1 -6
v 4 1 -6
v 4 2 -5
v 4 2 -6
v 4 1 -5
v 4 1 -5
v 4 2 -4
v 4 2 -5
v 4 1 -4
v 4 1 -4
v 4 2 -3
v 4 2 -4
v 4 1 -3
v 4 1 -3
v 4 2 -2
v 4 2 -3
v 4 1 -2
v 4 1 -2
v 4 2 -1
v 4 2 -2
v 4 1 -1
v 4 1 -1
v 4 2 0
v 4 2 -1
v 4 1 0
v 4 2 -1
v 4 3 0
v 4 3 -1
v 4 2 0
v 4 2 -2
v 4 3 -1
v 4 3 -2
v 4 2 -1
v 4 2 -3
v 4 3 -2
v 4 3 -3
v 4 2 -2
v 4 2 -4
v 4 3 -3
v 4 3 -4
v 4 2 -3
v 4 2 -5
v 4 3 -4
v 4 3 -5
v 4 2 -4
v 4 2 -6
v 4 3 -5
v 4 3 -6
v 4 2 -5
v 4 2 -7
v 4 3 -6
v 4 3 -7
v 4 2 -6
v 4 2 -8
v 4 3 -7
v 4 3 -8
v 4 2 -7
v 2 -20 -13
v 3 -20 -14
v 2 -20 -14
v 3 -20 -13
v 3 4 -11
v 4 4 -10
v 3 4 -10
v 4 4 -11
v 3 4 -12
v 4 4 -11
v 3 4 -11
v 4 4 -12
v 2 4 -12
v 3 4 -11
v 2 4 -11
v 3 4 -12
v 1 4 -12
v 2 4 -11
v 1 4 -11
v 2 4 -12
v 0 4 -12
v 1 4 -11
v 0 4 -11
v 1 4 -12
v 0 4 -11
v 1 4 -10
v 0 4 -10
v 1 4 -11
v 0 4 -10
v 1 4 -9
v 0 4 -9
v 1 4 -10
v 0 4 -9
v 1 4 -8
v 1.1102230246251565e-16 4 -8
v 1 4 -9
v 1 4 -9
v 2 4 -8
v 1 4 -8
v 2 4 -9
v 2 4 -9
v 3 4 -8
v 2 4 -8
v 3 4 -9
v 3 4 -9
v 4 4 -8
v 3 4 -8
v 4 4 -9
v 3 4 -10
v 4 4 -9
v 3 4 -9
v 4 4 -10
v 2 4 -10
v 3 4 -9
v 2 4 -9
v 3 4 -10
v 2 4 -11
v 3 4 -10
v 2 4 -10
v 3 4 -11
v 1 -3 -8
v 0 -2 -8
v 1 -2 -8
v 0 -3 -8
v 4 3 -12
v 4 4 -11
v 4 4 -12
v 4 3 -11
v 4 2 -12
v 4 3 -11
v 4 3 -12
v 4 2 -11
v 4 1 -12
v 4 2 -11
v 4 2 -12
v 4 1 -11
v 4 0 -12
v 4 1 -11
v 4 1 -12
v 4 0 -11
v 4 -1 -12
v 4 0 -11
v 4 0 -12
v 4 -1 -11
v 4 -2 -12
v 4 -1 -11
v 4 -1 -12
v 4 -2 -11
v 4 -3 -12
v 4 -2 -11
v 4 -2 -12
v 4 -3 -11
v 4 -4 -12
v 4 -3 -11
v 4 -3 -12
v 4 -4 -11
v 4 -5 -12
v 4 -4 -11
v 4 -4 -12
v 4 -5 -11
v 4 -6 -12
v 4 -5 -11
v 4 -5 -12
v 4 -6 -11
v 4 -7 -12
v 4 -6 -11
v 4 -6 -12
v 4 -7 -11
v 4 -8 -12
v 4 -7 -11
v 4 -7 -12
v 4 -8 -11
v 1 -5 -8
v 0 -4 -8
v 1 -4 -8
v 0 -5 -8
v 4 -9 -12
v 4 -8 -11
v 4 -8 -12
v 4 -9 -11
v 4 -11 -11
v 4 -10 -10
v 4 -10 -11
v 4 -11 -10
v 4 -11 -12
v 4 -10 -11
v 4 -10 -12
v 4 -11 -11
v 4 -13 -12
v 4 -12 -11
v 4 -12 -12
v 4 -13 -11
v 4 -14 -12
v 4 -13 -11
v 4 -13 -12
v 4 -14 -11
v 4 -15 -12
v 4 -14 -11
v 4 -14 -12
v 4 -15 -11
v 4 -16 -12
v 4 -15 -11
v 4 -15 -12
v 4 -16 -11
v 4 -17 -12
v 4 -16 -11
v 4 -16 -12
v 4 -17 -11
v 4 -18 -12
v 4 -17 -11
v 4 -17 -12
v 4 -18 -11
v 4 -19 -12
v 4 -18 -11
v 4 -18 -12
v 4 -19 -11
v 4 -20 -12
v 4 -19 -11
v 4 -19 -12
v 4 -20 -11
v 4 -20 -11
v 4 -19 -10
v 4 -19 -11
v 4 -20 -10
v 4 -20 -10
v 4 -19 -9
v 4 -19 -10
v 4 -20 -9
v 4 -20 -9
v 4 -19 -8
v 4 -19 -9
v 4 -20 -8
v 4 -19 -9
v 4 -18 -8
v 4 -18 -9
v 4 -19 -8
v 4 -18 -9
v 4 -17 -8
v 4 -17 -9
v 4 -18 -8
v 4 -17 -9
v 4 -16 -8
v 4 -16 -9
v 4 -17 -8
v 4 -16 -9
v 4 -15 -8
v 4 -15 -9
v 4 -16 -8
v 4 -15 -9
v 4 -14 -8
v 4 -14 -9
v 4 -15 -8
v 4 -14 -9
v 4 -13 -8
v 4 -13 -9
v 4 -14 -8
v 4 -13 -9
v 4 -12 -8
v 4 -12 -9
v 4 -13 -8
v 4 -12 -10
v 4 -11 -9
v 4 -11 -10
v 4 -12 -9
v 4 -10 -9
v 4 -9 -8
v 4 -9 -9
v 4 -10 -8
v 4 -10 -10
v 4 -9 -9
v 4 -9 -10
v 4 -10 -9
v 4 -8 -9
v 4 -7 -8
v 4 -7 -9
v 4 -8 -8
v 4 -19 -15
v 4 -18 -14
v 4 -18 -15
v 4 -19 -14
v 4 -7 -9
v 4 -6 -8
v 4 -6 -9
v 4 -7 -8
v 4 -6 -9
v 4 -5 -8
v 4 -5 -9
v 4 -6 -8
v 4 -5 -9
v 4 -4 -8
v 4 -4 -9
v 4 -5 -8
v 4 -4 -9
v 4 -3 -8
v 4 -3 -9
v 4 -4 -8
v 4 -3 -9
v 4 -2 -8
v 4 -2 -9
v 4 -3 -8
v 4 -2 -9
v 4 -1 -8
v 4 -1 -9
v 4 -2 -8
v 4 -1 -9
v 4 0 -8
v 4 0 -9
v 4 -1 -8
v 4 0 -9
v 4 1 -8
v 4 1 -9
v 4 0 -8
v 4 1 -9
v 4 2 -8
v 4 2 -9
v 4 1 -8
v 4 2 -9
v 4 3 -8
v 4 3 -9
v 4 2 -8
v 4 3 -9
v 4 4 -8
v 4 4 -9
v 4 3 -8
v 4 3 -10
v 4 4 -9
v 4 4 -10
v 4 3 -9
v 4 3 -11
v 4 4 -10
v 4 4 -11
v 4 3 -10
v 4 2 -11
v 4 3 -10
v 4 3 -11
v 4 2 -10
v 4 1 -11
v 4 2 -10
v 4 2 -11
v 4 1 -10
v 4 0 -11
v 4 1 -10
v 4 1 -11
v 4 0 -10
v 4 -1 -11
v 4 0 -10
v 4 0 -11
v 4 -1 -10
v 4 -2 -11
v 4 -1 -10
v 4 -1 -11
v 4 -2 -10
v 4 -3 -11
v 4 -2 -10
v 4 -2 -11
v 4 -3 -10
v 4 -4 -11
v 4 -3 -10
v 4 -3 -11
v 4 -4 -10
v 4 -6 -11
v 4 -5 -10
v 4 -5 -11
v 4 -6 -10
v 4 -7 -11
v 4 -6 -10
v 4 -6 -11
v 4 -7 -10
v 4 -8 -11
v 4 -7 -10
v 4 -7 -11
v 4 -8 -10
v 4 -19 -14
v 4 -18 -13
v 4 -18 -14
v 4 -19 -13
v 4 -10 -12
v 4 -9 -11
v 4 -9 -12
v 4 -10 -11
v 4 -11 -10
v 4 -10 -9
v 4 -10 -10
v 4 -11 -9
v 4 -12 -9
v 4 -11 -8
v 4 -11 -9
v 4 -12 -8
v 4 -13 -11
v 4 -12 -10
v 4 -12 -11
v 4 -13 -10
v 4 -14 -11
v 4 -13 -10
v 4 -13 -11
v 4 -14 -10
v 4 -15 -11
v 4 -14 -10
v 4 -14 -11
v 4 -15 -10
v 4 -19 -11
v 4 -18 -10
v 4 -18 -11
v 4 -19 -10
v 4 -18 -11
v 4 -17 -10
v 4 -17 -11
v 4 -18 -10
v 4 -17 -11
v 4 -16 -10
v 4 -16 -11
v 4 -17 -10
v 4 -16 -11
v 4 -15 -10
v 4 -15 -11
v 4 -16 -10
v 4 -19 -10
v 4 -18 -9
v 4 -18 -10
v 4 -19 -9
v 4 -18 -10
v 4 -17 -9
v 4 -17 -10
v 4 -18 -9
v 4 -17 -10
v 4 -16 -9
v 4 -16 -10
v 4 -17 -9
v 4 -16 -10
v 4 -15 -9
v 4 -15 -10
v 4 -16 -9
v 4 -15 -10
v 4 -14 -9
v 4 -14 -10
v 4 -15 -9
v 4 -14 -10
v 4 -13 -9
v 4 -13 -10
v 4 -14 -9
v 4 -13 -10
v 4 -12 -9
v 4 -12 -10
v 4 -13 -9
v 4 -12 -12
v 4 -11 -11
v 4 -11 -12
v 4 -12 -11
v 4 -11 -9
v 4 -10 -8
v 4 -10 -9
v 4 -11 -8
v 4 -10 -11
v 4 -9 -10
v 4 -9 -11
v 4 -10 -10
v 4 -9 -9
v 4 -8 -8
v 4 -8 -9
v 4 -9 -8
v 4 -18 -14
v 4 -17 -13
v 4 -17 -14
v 4 -18 -13
v 4 -7 -10
v 4 -6 -9
v 4 -6 -10
v 4 -7 -9
v 4 -6 -10
v 4 -5 -9
v 4 -5 -10
v 4 -6 -9
v 4 -5 -10
v 4 -4 -9
v 4 -4 -10
v 4 -5 -9
v 4 -4 -10
v 4 -3 -9
v 4 -3 -10
v 4 -4 -9
v 4 -3 -10
v 4 -2 -9
v 4 -2 -10
v 4 -3 -9
v 4 -2 -10
v 4 -1 -9
v 4 -1 -10
v 4 -2 -9
v 4 -1 -10
v 4 0 -9
v 4 0 -10
v 4 -1 -9
v 4 0 -10
v 4 1 -9
v 4 1 -10
v 4 0 -9
v 4 1 -10
v 4 2 -9
v 4 2 -10
v 4 1 -9
v 4 2 -10
v 4 3 -9
v 4 3 -10
v 4 2 -9
v 4 -5 -11
v 4 -4 -10
v 4 -4 -11
v 4 -5 -10
v 1.1102230246251565e-16 3 -8
v 0 4 -9
v 1.1102230246251565e-16 4 -8
v 1.1102230246251565e-16 3 -9
v 1.1102230246251565e-16 2 -8
v 1.1102230246251565e-16 3 -9
v 1.1102230246251565e-16 3 -8
v 1.1102230246251565e-16 2 -9
v 1.1102230246251565e-16 1 -8
v 1.1102230246251565e-16 2 -9
v 1.1102230246251565e-16 2 -8
v 1.1102230246251565e-16 1 -9
v 0 0 -8
v 1.1102230246251565e-16 1 -9
v 1.1102230246251565e-16 1 -8
v 1.1102230246251565e-16 0 -9
v 0 -1 -8
v 1.1102230246251565e-16 0 -9
v 0 0 -8
v 1.1102230246251565e-16 -1 -9
v 0 -2 -8
v 1.1102230246251565e-16 -1 -9
v 0 -1 -8
v 1.1102230246251565e-16 -2 -9
v 0 -3 -8
v 1.1102230246251565e-16 -2 -9
v 0 -2 -8
v 1.1102230246251565e-16 -3 -9
v 0 -4 -8
v 1.1102230246251565e-16 -3 -9
v 0 -3 -8
v 1.1102230246251565e-16 -4 -9
v 1 4 -11
v 2 4 -10
v 1 4 -10
v 2 4 -11
v 0 -5 -8
v 1.1102230246251565e-16 -4 -9
v 0 -4 -8
v 1.1102230246251565e-16 -5 -9
v 0 -6 -8
v 1.1102230246251565e-16 -5 -9
v 0 -5 -8
v 1.1102230246251565e-16 -6 -9
v 0 -7 -8
v 1.1102230246251565e-16 -6 -9
v 0 -6 -8
v 1.1102230246251565e-16 -7 -9
v 0 -9 -8
v 1.1102230246251565e-16 -8 -9
v 0 -8 -8
v 1.1102230246251565e-16 -9 -9
v 0 -10 -8
v 1.1102230246251565e-16 -9 -9
v 0 -9 -8
v 1.1102230246251565e-16 -10 -9
v 0 -11 -8
v 1.1102230246251565e-16 -10 -9
v 0 -10 -8
v 1.1102230246251565e-16 -11 -9
v 0 -12 -8
v 1.1102230246251565e-16 -11 -9
v 0 -11 -8
v 1.1102230246251565e-16 -12 -9
v 0 -13 -8
v 1.1102230246251565e-16 -12 -9
v 0 -12 -8
v 1.1102230246251565e-16 -13 -9
v 0 -14 -8
v 1.1102230246251565e-16 -13 -9
v 0 -13 -8
v 1.1102230246251565e-16 -14 -9
v 0 -15 -8
v 1.1102230246251565e-16 -14 -9
v 0 -14 -8
v 1.1102230246251565e-16 -15 -9
v 0 -16 -8
v 1.1102230246251565e-16 -15 -9
v 0 -15 -8
v 1.1102230246251565e-16 -16 -9
v 0 -17 -8
v 1.1102230246251565e-16 -16 -9
v 0 -16 -8
v 1.1102230246251565e-16 -17 -9
v 0 -18 -8
v 1.1102230246251565e-16 -17 -9
v 0 -17 -8
v 1.1102230246251565e-16 -18 -9
v 0 -19 -8
v 1.1102230246251565e-16 -18 -9
v 0 -18 -8
v 1.1102230246251565e-16 -19 -9
v 0 -20 -8
v 1.1102230246251565e-16 -19 -9
v 0 -19 -8
v 0 -20 -9
v 0 -20 -9
v 1.1102230246251565e-16 -19 -10
v 1.1102230246251565e-16 -19 -9
v 0 -20 -10
v 0 -20 -10
v 1.1102230246251565e-16 -19 -11
v 1.1102230246251565e-16 -19 -10
v 0 -20 -11
v 0 -20 -11
v 1.1102230246251565e-16 -19 -12
v 1.1102230246251565e-16 -19 -11
v 0 -20 -12
v 1.1102230246251565e-16 -19 -11
v 1.1102230246251565e-16 -18 -12
v -1.1102230246251565e-16 -18 -11
v 1.1102230246251565e-16 -19 -12
v -1.1102230246251565e-16 -18 -11
v 1.1102230246251565e-16 -17 -12
v -1.1102230246251565e-16 -17 -11
v 1.1102230246251565e-16 -18 -12
v -1.1102230246251565e-16 -17 -11
v 1.1102230246251565e-16 -16 -12
v -1.1102230246251565e-16 -16 -11
v 1.1102230246251565e-16 -17 -12
v -1.1102230246251565e-16 -16 -11
v 1.1102230246251565e-16 -15 -12
v -1.1102230246251565e-16 -15 -11
v 1.1102230246251565e-16 -16 -12
v -1.1102230246251565e-16 -15 -11
v 1.1102230246251565e-16 -14 -12
v -1.1102230246251565e-16 -14 -11
v 1.1102230246251565e-16 -15 -12
v -1.1102230246251565e-16 -14 -11
v 1.1102230246251565e-16 -13 -12
v -1.1102230246251565e-16 -13 -11
v 1.1102230246251565e-16 -14 -12
v -1.1102230246251565e-16 -13 -11
v 1.1102230246251565e-16 -12 -12
v -1.1102230246251565e-16 -12 -11
v 1.1102230246251565e-16 -13 -12
v -1.1102230246251565e-16 -13 -10
v -1.1102230246251565e-16 -12 -11
v -1.1102230246251565e-16 -12 -10
v -1.1102230246251565e-16 -13 -11
v -1.1102230246251565e-16 -12 -11
v 1.1102230246251565e-16 -11 -12
v -1.1102230246251565e-16 -11 -11
v 1.1102230246251565e-16 -12 -12
v -1.1102230246251565e-16 -12 -10
v -1.1102230246251565e-16 -11 -11
v -1.1102230246251565e-16 -11 -10
v -1.1102230246251565e-16 -12 -11
v -1.1102230246251565e-16 -11 -11
v 0 -10 -12
v -1.1102230246251565e-16 -10 -11
v 1.1102230246251565e-16 -11 -12
v -1.1102230246251565e-16 -10 -11
v 0 -9 -12
v -1.1102230246251565e-16 -9 -11
v 0 -10 -12
v -1.1102230246251565e-16 -9 -11
v 1.1102230246251565e-16 -8 -12
v -1.1102230246251565e-16 -8 -11
v 0 -9 -12
v 1.1102230246251565e-16 -8 -10
v -1.1102230246251565e-16 -7 -11
v 1.1102230246251565e-16 -7 -10
v -1.1102230246251565e-16 -8 -11
v -1.1102230246251565e-16 -8 -11
v 1.1102230246251565e-16 -7 -12
v -1.1102230246251565e-16 -7 -11
v 1.1102230246251565e-16 -8 -12
v -1.1102230246251565e-16 -7 -11
v 1.1102230246251565e-16 -6 -12
v -1.1102230246251565e-16 -6 -11
v 1.1102230246251565e-16 -7 -12
v 1.1102230246251565e-16 -6 -9
v -1.1102230246251565e-16 -5 -10
v 1.1102230246251565e-16 -5 -9
v -1.1102230246251565e-16 -6 -10
v -1.1102230246251565e-16 -5 -11
v 1.1102230246251565e-16 -4 -12
v 1.1102230246251565e-16 -4 -11
v 1.1102230246251565e-16 -5 -12
v -1.1102230246251565e-16 -4 -10
v 1.1102230246251565e-16 -3 -11
v -1.1102230246251565e-16 -3 -10
v 1.1102230246251565e-16 -4 -11
v -1.1102230246251565e-16 -3 -10
v 1.1102230246251565e-16 -2 -11
v -1.1102230246251565e-16 -2 -10
v 1.1102230246251565e-16 -3 -11
v -1.1102230246251565e-16 -2 -10
v 1.1102230246251565e-16 -1 -11
v -1.1102230246251565e-16 -1 -10
v 1.1102230246251565e-16 -2 -11
v 1.1102230246251565e-16 -2 -11
v 1.1102230246251565e-16 -1 -12
v 1.1102230246251565e-16 -1 -11
v 1.1102230246251565e-16 -2 -12
v 1.1102230246251565e-16 -1 -11
v 1.1102230246251565e-16 0 -12
v -1.1102230246251565e-16 0 -11
v 1.1102230246251565e-16 -1 -12
v 1.1102230246251565e-16 -3 -11
v 1.1102230246251565e-16 -2 -12
v 1.1102230246251565e-16 -2 -11
v 1.1102230246251565e-16 -3 -12
v 1.1102230246251565e-16 -4 -11
v 1.1102230246251565e-16 -3 -12
v 1.1102230246251565e-16 -3 -11
v 1.1102230246251565e-16 -4 -12
v -1.1102230246251565e-16 -6 -11
v 1.1102230246251565e-16 -5 -12
v -1.1102230246251565e-16 -5 -11
v 1.1102230246251565e-16 -6 -12
v -1.1102230246251565e-16 0 -11
v 1.1102230246251565e-16 1 -12
v -1.1102230246251565e-16 1 -11
v 1.1102230246251565e-16 0 -12
v -1.1102230246251565e-16 1 -11
v 1.1102230246251565e-16 2 -12
v -1.1102230246251565e-16 2 -11
v 1.1102230246251565e-16 1 -12
v -1.1102230246251565e-16 2 -11
v 1.1102230246251565e-16 3 -12
v -1.1102230246251565e-16 3 -11
v 1.1102230246251565e-16 2 -12
v -1.1102230246251565e-16 3 -11
v 0 4 -12
v 0 4 -11
v 1.1102230246251565e-16 3 -12
v -1.1102230246251565e-16 3 -10
v 0 4 -11
v 0 4 -10
v -1.1102230246251565e-16 3 -11
v 1.1102230246251565e-16 3 -9
v 0 4 -10
v 0 4 -9
v -1.1102230246251565e-16 3 -10
v 1.1102230246251565e-16 2 -9
v -1.1102230246251565e-16 3 -10
v 1.1102230246251565e-16 3 -9
v 1.1102230246251565e-16 2 -10
v 1.1102230246251565e-16 1 -9
v 1.1102230246251565e-16 2 -10
v 1.1102230246251565e-16 2 -9
v 1.1102230246251565e-16 1 -10
v 1.1102230246251565e-16 2 -10
v -1.1102230246251565e-16 3 -11
v -1.1102230246251565e-16 3 -10
v -1.1102230246251565e-16 2 -11
v 1.1102230246251565e-16 1 -10
v -1.1102230246251565e-16 2 -11
v 1.1102230246251565e-16 2 -10
v -1.1102230246251565e-16 1 -11
v -1.1102230246251565e-16 0 -10
v -1.1102230246251565e-16 1 -11
v 1.1102230246251565e-16 1 -10
v -1.1102230246251565e-16 0 -11
v -1.1102230246251565e-16 -1 -10
v -1.1102230246251565e-16 0 -11
v -1.1102230246251565e-16 0 -10
v 1.1102230246251565e-16 -1 -11
v 1.1102230246251565e-16 0 -9
v 1.1102230246251565e-16 1 -10
v 1.1102230246251565e-16 1 -9
v -1.1102230246251565e-16 0 -10
v 1.1102230246251565e-16 -1 -9
v -1.1102230246251565e-16 0 -10
v 1.1102230246251565e-16 0 -9
v -1.1102230246251565e-16 -1 -10
v 1.1102230246251565e-16 -2 -9
v -1.1102230246251565e-16 -1 -10
v 1.1102230246251565e-16 -1 -9
v -1.1102230246251565e-16 -2 -10
v 1.1102230246251565e-16 -3 -9
v -1.1102230246251565e-16 -2 -10
v 1.1102230246251565e-16 -2 -9
v -1.1102230246251565e-16 -3 -10
v 1.1102230246251565e-16 -4 -9
v -1.1102230246251565e-16 -3 -10
v 1.1102230246251565e-16 -3 -9
v -1.1102230246251565e-16 -4 -10
v 1.1102230246251565e-16 -5 -9
v -1.1102230246251565e-16 -4 -10
v 1.1102230246251565e-16 -4 -9
v -1.1102230246251565e-16 -5 -10
v 1.1102230246251565e-16 -7 -10
v -1.1102230246251565e-16 -6 -11
v -1.1102230246251565e-16 -6 -10
v -1.1102230246251565e-16 -7 -11
v 0 -8 -8
v 1.1102230246251565e-16 -7 -9
v 0 -7 -8
v 1.1102230246251565e-16 -8 -9
v 1.1102230246251565e-16 -10 -9
v 1.1102230246251565e-16 -9 -10
v 1.1102230246251565e-16 -9 -9
v 1.1102230246251565e-16 -10 -10
v 1.1102230246251565e-16 -11 -9
v 1.1102230246251565e-16 -10 -10
v 1.1102230246251565e-16 -10 -9
v -1.1102230246251565e-16 -11 -10
v 1.1102230246251565e-16 -13 -9
v -1.1102230246251565e-16 -12 -10
v 1.1102230246251565e-16 -12 -9
v -1.1102230246251565e-16 -13 -10
v 1.1102230246251565e-16 -14 -9
v -1.1102230246251565e-16 -13 -10
v 1.1102230246251565e-16 -13 -9
v 1.1102230246251565e-16 -14 -10
v 1.1102230246251565e-16 -15 -9
v 1.1102230246251565e-16 -14 -10
v 1.1102230246251565e-16 -14 -9
v 1.1102230246251565e-16 -15 -10
v 1.1102230246251565e-16 -17 -9
v 1.1102230246251565e-16 -16 -10
v 1.1102230246251565e-16 -16 -9
v 1.1102230246251565e-16 -17 -10
v 1.1102230246251565e-16 -19 -9
v 1.1102230246251565e-16 -18 -10
v 1.1102230246251565e-16 -18 -9
v 1.1102230246251565e-16 -19 -10
v 1.1102230246251565e-16 -18 -9
v 1.1102230246251565e-16 -17 -10
v 1.1102230246251565e-16 -17 -9
v 1.1102230246251565e-16 -18 -10
v 1.1102230246251565e-16 -17 -10
v -1.1102230246251565e-16 -16 -11
v 1.1102230246251565e-16 -16 -10
v -1.1102230246251565e-16 -17 -11
v 1.1102230246251565e-16 -19 -10
v -1.1102230246251565e-16 -18 -11
v 1.1102230246251565e-16 -18 -10
v 1.1102230246251565e-16 -19 -11
v 1.1102230246251565e-16 -18 -10
v -1.1102230246251565e-16 -17 -11
v 1.1102230246251565e-16 -17 -10
v -1.1102230246251565e-16 -18 -11
v 1.1102230246251565e-16 -16 -10
v -1.1102230246251565e-16 -15 -11
v 1.1102230246251565e-16 -15 -10
v -1.1102230246251565e-16 -16 -11
v 1.1102230246251565e-16 -15 -10
v -1.1102230246251565e-16 -14 -11
v 1.1102230246251565e-16 -14 -10
v -1.1102230246251565e-16 -15 -11
v 1.1102230246251565e-16 -14 -10
v -1.1102230246251565e-16 -13 -11
v -1.1102230246251565e-16 -13 -10
v -1.1102230246251565e-16 -14 -11
v 1.1102230246251565e-16 -16 -9
v 1.1102230246251565e-16 -15 -10
v 1.1102230246251565e-16 -15 -9
v 1.1102230246251565e-16 -16 -10
v -1.1102230246251565e-16 -11 -10
v -1.1102230246251565e-16 -10 -11
v 1.1102230246251565e-16 -10 -10
v -1.1102230246251565e-16 -11 -11
v 1.1102230246251565e-16 -10 -10
v -1.1102230246251565e-16 -9 -11
v 1.1102230246251565e-16 -9 -10
v -1.1102230246251565e-16 -10 -11
v 1.1102230246251565e-16 -12 -9
v -1.1102230246251565e-16 -11 -10
v 1.1102230246251565e-16 -11 -9
v -1.1102230246251565e-16 -12 -10
v 1.1102230246251565e-16 -9 -9
v 1.1102230246251565e-16 -8 -10
v 1.1102230246251565e-16 -8 -9
v 1.1102230246251565e-16 -9 -10
v 1.1102230246251565e-16 -9 -10
v -1.1102230246251565e-16 -8 -11
v 1.1102230246251565e-16 -8 -10
v -1.1102230246251565e-16 -9 -11
v 1.1102230246251565e-16 -8 -9
v 1.1102230246251565e-16 -7 -10
v 1.1102230246251565e-16 -7 -9
v 1.1102230246251565e-16 -8 -10
v -1.1102230246251565e-16 -6 -10
v -1.1102230246251565e-16 -5 -11
v -1.1102230246251565e-16 -5 -10
v -1.1102230246251565e-16 -6 -11
v -1.1102230246251565e-16 -5 -10
v 1.1102230246251565e-16 -4 -11
v -1.1102230246251565e-16 -4 -10
v -1.1102230246251565e-16 -5 -11
v 1.1102230246251565e-16 3 -12
v 1 4 -12
v 0 4 -12
v 1 3 -12
v 1 3 -12
v 2 4 -12
v 1 4 -12
v 2 3 -12
v 2 3 -12
v 3 4 -12
v 2 4 -12
v 3 3 -12
v 3 3 -12
v 4 4 -12
v 3 4 -12
v 4 3 -12
v 3 2 -12
v 4 3 -12
v 3 3 -12
v 4 2 -12
v 2 2 -12
v 3 3 -12
v 2 3 -12
v 3 2 -12
v 1 2 -12
v 2 3 -12
v 1 3 -12
v 2 2 -12
v 1.1102230246251565e-16 2 -12
v 1 3 -12
v 1.1102230246251565e-16 3 -12
v 1 2 -12
v 1.1102230246251565e-16 1 -12
v 1 2 -12
v 1.1102230246251565e-16 2 -12
v 1 1 -12
v 1 1 -12
v 2 2 -12
v 1 2 -12
v 2 1 -12
v 2 1 -12
v 3 2 -12
v 2 2 -12
v 3 1 -12
v 3 1 -12
v 4 2 -12
v 3 2 -12
v 4 1 -12
v 3 0 -12
v 4 1 -12
v 3 1 -12
v 4 0 -12
v 2 0 -12
v 3 1 -12
v 2 1 -12
v 3 0 -12
v 1 0 -12
v 2 1 -12
v 1 1 -12
v 2 0 -12
v 1.1102230246251565e-16 0 -12
v 1 1 -12
v 1.1102230246251565e-16 1 -12
v 1 0 -12
v 1.1102230246251565e-16 -1 -12
v 1 0 -12
v 1.1102230246251565e-16 0 -12
v 1 -1 -12
v 1 -1 -12
v 2 0 -12
v 1 0 -12
v 2 -1 -12
v 3 -1 -12
v 4 0 -12
v 3 0 -12
v 4 -1 -12
v 2 -1 -12
v 3 0 -12
v 2 0 -12
v 3 -1 -12
v 3 -2 -12
v 4 -1 -12
v 3 -1 -12
v 4 -2 -12
v 2 -2 -12
v 3 -1 -12
v 2 -1 -12
v 3 -2 -12
v 1 -2 -12
v 2 -1 -12
v 1 -1 -12
v 2 -2 -12
v 1.1102230246251565e-16 -2 -12
v 1 -1 -12
v 1.1102230246251565e-16 -1 -12
v 1 -2 -12
v 1.1102230246251565e-16 -3 -12
v 1 -2 -12
v 1.1102230246251565e-16 -2 -12
v 1 -3 -12
v 1.1102230246251565e-16 -4 -12
v 1 -3 -12
v 1.1102230246251565e-16 -3 -12
v 1 -4 -12
v 1 -3 -12
v 2 -2 -12
v 1 -2 -12
v 2 -3 -12
v 2 -3 -12
v 3 -2 -12
v 2 -2 -12
v 3 -3 -12
v 3 -3 -12
v 4 -2 -12
v 3 -2 -12
v 4 -3 -12
v 3 -4 -12
v 4 -3 -12
v 3 -3 -12
v 4 -4 -12
v 1 -4 -12
v 2 -3 -12
v 1 -3 -12
v 2 -4 -12
v 1 -5 -12
v 2 -4 -12
v 1 -4 -12
v 2 -5 -12
v 2 -4 -12
v 3 -3 -12
v 2 -3 -12
v 3 -4 -12
v 2 -5 -12
v 3 -4 -12
v 2 -4 -12
v 3 -5 -12
v 1.1102230246251565e-16 -5 -12
v 1 -4 -12
v 1.1102230246251565e-16 -4 -12
v 1 -5 -12
v 3 -5 -12
v 4 -4 -12
v 3 -4 -12
v 4 -5 -12
v 1.1102230246251565e-16 -6 -12
v 1 -5 -12
v 1.1102230246251565e-16 -5 -12
v 1 -6 -12
v 1 -6 -12
v 2 -5 -12
v 1 -5 -12
v 2 -6 -12
v 2 -6 -12
v 3 -5 -12
v 2 -5 -12
v 3 -6 -12
v 3 -6 -12
v 4 -5 -12
v 3 -5 -12
v 4 -6 -12
v 1.1102230246251565e-16 -7 -12
v 1 -6 -12
v 1.1102230246251565e-16 -6 -12
v 1 -7 -12
v 1 -7 -12
v 2 -6 -12
v 1 -6 -12
v 2 -7 -12
v 2 -7 -12
v 3 -6 -12
v 2 -6 -12
v 3 -7 -12
v 3 -7 -12
v 4 -6 -12
v 3 -6 -12
v 4 -7 -12
v 1.1102230246251565e-16 -8 -12
v 1 -7 -12
v 1.1102230246251565e-16 -7 -12
v 1 -8 -12
v 1 -8 -12
v 2 -7 -12
v 1 -7 -12
v 2 -8 -12
v 2 -8 -12
v 3 -7 -12
v 2 -7 -12
v 3 -8 -12
v 3 -8 -12
v 4 -7 -12
v 3 -7 -12
v 4 -8 -12
v 0 -9 -12
v 1 -8 -12
v 1.1102230246251565e-16 -8 -12
v 1 -9 -12
v 2 -9 -12
v 3 -8 -12
v 2 -8 -12
v 3 -9 -12
v 1 -9 -12
v 2 -8 -12
v 1 -8 -12
v 2 -9 -12
v 3 -7 -8
v 2 -6 -8
v 3 -6 -8
v 2 -7 -8
v 1.1102230246251565e-16 -7 -9
v -1.1102230246251565e-16 -6 -10
v 1.1102230246251565e-16 -6 -9
v 1.1102230246251565e-16 -7 -10
v 1 -10 -12
v 2 -9 -12
v 1 -9 -12
v 2 -10 -12
v 1.1102230246251565e-16 -12 -12
v 1 -11 -12
v 1.1102230246251565e-16 -11 -12
v 1 -12 -12
v 1 -11 -12
v 2 -10 -12
v 1 -10 -12
v 2 -11 -12
v 1 -12 -12
v 2 -11 -12
v 1 -11 -12
v 2 -12 -12
v 3 -11 -12
v 4 -10 -12
v 3 -10 -12
v 4 -11 -12
v 3 -10 -12
v 4 -9 -12
v 3 -9 -12
v 4 -10 -12
v 3 -9 -12
v 4 -8 -12
v 3 -8 -12
v 4 -9 -12
v 1.1102230246251565e-16 -11 -12
v 1 -10 -12
v 0 -10 -12
v 1 -11 -12
v 2 -12 -12
v 3 -11 -12
v 2 -11 -12
v 3 -12 -12
v 3 -12 -12
v 4 -11 -12
v 3 -11 -12
v 4 -12 -12
v 2 -10 -12
v 3 -9 -12
v 2 -9 -12
v 3 -10 -12
v 1.1102230246251565e-16 -13 -12
v 1 -12 -12
v 1.1102230246251565e-16 -12 -12
v 1 -13 -12
v 1 -13 -12
v 2 -12 -12
v 1 -12 -12
v 2 -13 -12
v 2 -13 -12
v 3 -12 -12
v 2 -12 -12
v 3 -13 -12
v 3 -13 -12
v 4 -12 -12
v 3 -12 -12
v 4 -13 -12
v 1.1102230246251565e-16 -14 -12
v 1 -13 -12
v 1.1102230246251565e-16 -13 -12
v 1 -14 -12
v 1 -14 -12
v 2 -13 -12
v 1 -13 -12
v 2 -14 -12
v 2 -14 -12
v 3 -13 -12
v 2 -13 -12
v 3 -14 -12
v 3 -14 -12
v 4 -13 -12
v 3 -13 -12
v 4 -14 -12
v 1.1102230246251565e-16 -15 -12
v 1 -14 -12
v 1.1102230246251565e-16 -14 -12
v 1 -15 -12
v 1 -15 -12
v 2 -14 -12
v 1 -14 -12
v 2 -15 -12
v 2 -15 -12
v 3 -14 -12
v 2 -14 -12
v 3 -15 -12
v 3 -15 -12
v 4 -14 -12
v 3 -14 -12
v 4 -15 -12
v 1.1102230246251565e-16 -16 -12
v 1 -15 -12
v 1.1102230246251565e-16 -15 -12
v 1 -16 -12
v 1 -16 -12
v 2 -15 -12
v 1 -15 -12
v 2 -16 -12
v 2 -16 -12
v 3 -15 -12
v 2 -15 -12
v 3 -16 -12
v 3 -16 -12
v 4 -15 -12
v 3 -15 -12
v 4 -16 -12
v 2 -11 -12
v 3 -10 -12
v 2 -10 -12
v 3 -11 -12
v 3 -16 -13
v 4 -16 -12
v 3 -16 -12
v 4 -16 -13
v 2 -16 -13
v 3 -16 -12
v 2 -16 -12
v 3 -16 -13
v 1 -16 -13
v 2 -16 -12
v 1 -16 -12
v 2 -16 -13
v 1 -16 -14
v 2 -16 -13
v 1 -16 -13
v 2 -16 -14
v 3 -16 -15
v 4 -16 -14
v 3 -16 -14
v 4 -16 -15
v 2 -16 -14
v 3 -16 -13
v 2 -16 -13
v 3 -16 -14
v 2 -16 -15
v 3 -16 -14
v 2 -16 -14
v 3 -16 -15
v 1 -16 -15
v 2 -16 -14
v 1 -16 -14
v 2 -16 -15
v 0 -16 -14
v 1 -16 -13
v 0 -16 -13
v 1 -16 -14
v 1 -16 -16
v 2 -16 -15
v 1 -16 -15
v 2 -16 -16
v 0 -16 -13
v 1 -16 -12
v 1.1102230246251565e-16 -16 -12
v 1 -16 -13
v 0 -16 -16
v 1 -16 -15
v 0 -16 -15
v 1 -16 -16
v 3 -16 -14
v 4 -16 -13
v 3 -16 -13
v 4 -16 -14
v 2 -16 -16
v 3 -16 -15
v 2 -16 -15
v 3 -16 -16
v 0 -16 -15
v 1 -16 -14
v 0 -16 -14
v 1 -16 -15
v 1.1102230246251565e-16 -17 -12
v 0 -16 -13
v 1.1102230246251565e-16 -16 -12
v 1.1102230246251565e-16 -17 -13
v 1.1102230246251565e-16 -18 -12
v 1.1102230246251565e-16 -17 -13
v 1.1102230246251565e-16 -17 -12
v 1.1102230246251565e-16 -18 -13
v 1.1102230246251565e-16 -19 -12
v 1.1102230246251565e-16 -18 -13
v 1.1102230246251565e-16 -18 -12
v 1.1102230246251565e-16 -19 -13
v 0 -20 -12
v 1.1102230246251565e-16 -19 -13
v 1.1102230246251565e-16 -19 -12
v 0 -20 -13
v 0 -20 -13
v 1.1102230246251565e-16 -19 -14
v 1.1102230246251565e-16 -19 -13
v 0 -20 -14
v 0 -20 -14
v 1.1102230246251565e-16 -19 -15
v 1.1102230246251565e-16 -19 -14
v 0 -20 -15
v 0 -20 -15
v 1.1102230246251565e-16 -19 -16
v 1.1102230246251565e-16 -19 -15
v 0 -20 -16
v 1.1102230246251565e-16 -19 -15
v 1.1102230246251565e-16 -18 -16
v -1.1102230246251565e-16 -18 -15
v 1.1102230246251565e-16 -19 -16
v -1.1102230246251565e-16 -18 -15
v 1.1102230246251565e-16 -17 -16
v -1.1102230246251565e-16 -17 -15
v 1.1102230246251565e-16 -18 -16
v -1.1102230246251565e-16 -17 -15
v 0 -16 -16
v 0 -16 -15
v 1.1102230246251565e-16 -17 -16
v -1.1102230246251565e-16 -17 -14
v 0 -16 -15
v 0 -16 -14
v -1.1102230246251565e-16 -17 -15
v 1.1102230246251565e-16 -17 -13
v 0 -16 -14
v 0 -16 -13
v -1.1102230246251565e-16 -17 -14
v 1.1102230246251565e-16 -18 -13
v -1.1102230246251565e-16 -17 -14
v 1.1102230246251565e-16 -17 -13
v 1.1102230246251565e-16 -18 -14
v 1.1102230246251565e-16 -19 -13
v 1.1102230246251565e-16 -18 -14
v 1.1102230246251565e-16 -18 -13
v 1.1102230246251565e-16 -19 -14
v 1.1102230246251565e-16 -19 -14
v -1.1102230246251565e-16 -18 -15
v 1.1102230246251565e-16 -18 -14
v 1.1102230246251565e-16 -19 -15
v 1.1102230246251565e-16 -18 -14
v -1.1102230246251565e-16 -17 -15
v -1.1102230246251565e-16 -17 -14
v -1.1102230246251565e-16 -18 -15
v 4 -17 -13
v 4 -16 -12
v 4 -16 -13
v 4 -17 -12
v 4 -18 -13
v 4 -17 -12
v 4 -17 -13
v 4 -18 -12
v 4 -19 -13
v 4 -18 -12
v 4 -18 -13
v 4 -19 -12
v 4 -20 -13
v 4 -19 -12
v 4 -19 -13
v 4 -20 -12
v 4 -20 -14
v 4 -19 -13
v 4 -19 -14
v 4 -20 -13
v 4 -20 -15
v 4 -19 -14
v 4 -19 -15
v 4 -20 -14
v 4 -20 -16
v 4 -19 -15
v 4 -19 -16
v 4 -20 -15
v 4 -19 -16
v 4 -18 -15
v 4 -18 -16
v 4 -19 -15
v 4 -18 -16
v 4 -17 -15
v 4 -17 -16
v 4 -18 -15
v 4 -17 -16
v 4 -16 -15
v 4 -16 -16
v 4 -17 -15
v 4 -17 -15
v 4 -16 -14
v 4 -16 -15
v 4 -17 -14
v 4 -17 -14
v 4 -16 -13
v 4 -16 -14
v 4 -17 -13
v 4 -9 -11
v 4 -8 -10
v 4 -8 -11
v 4 -9 -10
v 4 -9 -10
v 4 -8 -9
v 4 -8 -10
v 4 -9 -9
v 4 -8 -10
v 4 -7 -9
v 4 -7 -10
v 4 -8 -9
v 4 -12 -11
v 4 -11 -10
v 4 -11 -11
v 4 -12 -10
vt 0 0.9375
vt 0.0625 1
vt 0 1
vt 0.0625 0.9375
vt 0.25 0.75
vt 0.5 1
vt 0.25 1
vt 0.5 0.75
vt 0 0.75
vn 0 1 0
vn 0 0 -1
vn -1 0 0
vn 0 -1 0
vn 0 0 1
vn 1 0 0
g Scene
usemtl 0
f 1/1/1 3/2/1 2/3/1
f 1/1/1 4/4/1 3/2/1
f 5/1/1 6/2/1 7/3/1
f 5/1/1 8/4/1 6/2/1
f 9/1/1 10/2/1 11/3/1
f 9/1/1 12/4/1 10/2/1
f 13/1/1 14/2/1 15/3/1
f 13/1/1 16/4/1 14/2/1
f 17/1/1 18/2/1 19/3/1
f 17/1/1 20/4/1 18/2/1
f 21/1/1 22/2/1 23/3/1
f 21/1/1 24/4/1 22/2/1
f 25/1/1 26/2/1 27/3/1
f 25/1/1 28/4/1 26/2/1
f 29/1/1 30/2/1 31/3/1
f 29/1/1 32/4/1 30/2/1
f 33/1/1 34/2/1 35/3/1
f 33/1/1 36/4/1 34/2/1
f 37/1/1 38/2/1 39/3/1
f 37/1/1 40/4/1 38/2/1
f 41/1/1 42/2/1 43/3/1
f 41/1/1 44/4/1 42/2/1
f 45/1/1 46/2/1 47/3/1
f 45/1/1 48/4/1 46/2/1
f 49/1/1 50/2/1 51/3/1
f 49/1/1 52/4/1 50/2/1
f 53/1/1 54/2/1 55/3/1
f 53/1/1 56/4/1 54/2/1
f 57/1/1 58/2/1 59/3/1
f 57/1/1 60/4/1 58/2/1
f 61/1/1 62/2/1 63/3/1
f 61/1/1 64/4/1 62/2/1
f 65/5/1 66/6/1 67/7/1
f 65/5/1 68/8/1 66/6/1
f 69/5/1 70/6/1 71/7/1
f 69/5/1 72/8/1 70/6/1
f 73/5/1 74/6/1 75/7/1
f 73/5/1 76/8/1 74/6/1
f 77/5/1 78/6/1 79/7/1
f 77/5/1 80/8/1 78/6/1
f 81/5/1 82/6/1 83/7/1
f 81/5/1 84/8/1 82/6/1
f 85/5/1 86/6/1 87/7/1
f 85/5/1 88/8/1 86/6/1
f 89/5/1 90/6/1 91/7/1
f 89/5/1 92/8/1 90/6/1
f 93/5/1 94/6/1 95/7/1
f 93/5/1 96/8/1 94/6/1
f 97/5/1 98/6/1 99/7/1
f 97/5/1 100/8/1 98/6/1
f 101/5/1 102/6/1 103/7/1
f 101/5/1 104/8/1 102/6/1
f 105/5/1 106/6/1 107/7/1
f 105/5/1 108/8/1 106/6/1
f 109/5/1 110/6/1 111/7/1
f 109/5/1 112/8/1 110/6/1
f 113/5/1 114/6/1 115/7/1
f 113/5/1 116/8/1 114/6/1
f 117/5/1 118/6/1 119/7/1
f 117/5/1 120/8/1 118/6/1
f 121/5/1 122/6/1 123/7/1
f 121/5/1 124/8/1 122/6/1
f 125/1/1 126/2/1 127/3/1
f 125/1/1 128/4/1 126/2/1
f 129/1/2 130/2/2 131/3/2
f 129/1/2 132/4/2 130/2/2
f 133/1/2 134/2/2 135/3/2
f 133/1/2 136/4/2 134/2/2
f 137/1/2 138/2/2 139/3/2
f 137/1/2 140/4/2 138/2/2
f 141/1/2 142/2/2 143/3/2
f 141/1/2 144/4/2 142/2/2
f 145/9/3 146/7/3 147/3/3
f 145/9/3 148/5/3 146/7/3
f 149/9/2 150/7/2 151/3/2
f 149/9/2 152/5/2 150/7/2
f 153/9/2 154/7/2 155/3/2
f 153/9/2 156/5/2 154/7/2
f 157/9/2 158/7/2 159/3/2
f 157/9/2 160/5/2 158/7/2
f 161/1/2 162/2/2 163/3/2
f 161/1/2 164/4/2 162/2/2
f 165/1/2 166/2/2 167/3/2
f 165/1/2 168/4/2 166/2/2
f 169/1/2 170/2/2 171/3/2
f 169/1/2 172/4/2 170/2/2
f 173/1/2 174/2/2 175/3/2
f 173/1/2 176/4/2 174/2/2
f 177/1/2 178/2/2 179/3/2
f 177/1/2 180/4/2 178/2/2
f 181/1/2 182/2/2 183/3/2
f 181/1/2 184/4/2 182/2/2
f 185/1/2 186/2/2 187/3/2
f 185/1/2 188/4/2 186/2/2
f 189/1/2 190/2/2 191/3/2
f 189/1/2 192/4/2 190/2/2
f 193/1/2 194/2/2 195/3/2
f 193/1/2 196/4/2 194/2/2
f 197/1/2 198/2/2 199/3/2
f 197/1/2 200/4/2 198/2/2
f 201/5/4 202/6/4 203/7/4
f 201/5/4 204/8/4 202/6/4
f 205/1/2 206/2/2 207/3/2
f 205/1/2 208/4/2 206/2/2
f 209/9/2 210/7/2 211/3/2
f 209/9/2 212/5/2 210/7/2
f 213/9/2 214/7/2 215/3/2
f 213/9/2 216/5/2 214/7/2
f 217/9/2 218/7/2 219/3/2
f 217/9/2 220/5/2 218/7/2
f 221/9/2 222/7/2 223/3/2
f 221/9/2 224/5/2 222/7/2
f 225/9/2 226/7/2 227/3/2
f 225/9/2 228/5/2 226/7/2
f 229/9/2 230/7/2 231/3/2
f 229/9/2 232/5/2 230/7/2
f 233/1/2 234/2/2 235/3/2
f 233/1/2 236/4/2 234/2/2
f 237/1/2 238/2/2 239/3/2
f 237/1/2 240/4/2 238/2/2
f 241/1/2 242/2/2 243/3/2
f 241/1/2 244/4/2 242/2/2
f 245/1/2 246/2/2 247/3/2
f 245/1/2 248/4/2 246/2/2
f 249/9/2 250/7/2 251/3/2
f 249/9/2 252/5/2 250/7/2
f 253/1/2 254/2/2 255/3/2
f 253/1/2 256/4/2 254/2/2
f 257/1/2 258/2/2 259/3/2
f 257/1/2 260/4/2 258/2/2
f 261/1/2 262/2/2 263/3/2
f 261/1/2 264/4/2 262/2/2
f 265/1/2 266/2/2 267/3/2
f 265/1/2 268/4/2 266/2/2
f 269/1/2 270/2/2 271/3/2
f 269/1/2 272/4/2 270/2/2
f 273/1/2 274/2/2 275/3/2
f 273/1/2 276/4/2 274/2/2
f 277/1/2 278/2/2 279/3/2
f 277/1/2 280/4/2 278/2/2
f 281/1/2 282/2/2 283/3/2
f 281/1/2 284/4/2 282/2/2
f 285/1/2 286/2/2 287/3/2
f 285/1/2 288/4/2 286/2/2
f 289/1/2 290/2/2 291/3/2
f 289/1/2 292/4/2 290/2/2
f 293/1/2 294/2/2 295/3/2
f 293/1/2 296/4/2 294/2/2
f 297/1/2 298/2/2 299/3/2
f 297/1/2 300/4/2 298/2/2
f 301/1/2 302/2/2 303/3/2
f 301/1/2 304/4/2 302/2/2
f 305/1/2 306/2/2 307/3/2
f 305/1/2 308/4/2 306/2/2
f 309/9/2 310/7/2 311/3/2
f 309/9/2 312/5/2 310/7/2
f 313/1/2 314/2/2 315/3/2
f 313/1/2 316/4/2 314/2/2
f 317/1/2 318/2/2 319/3/2
f 317/1/2 320/4/2 318/2/2
f 321/1/2 322/2/2 323/3/2
f 321/1/2 324/4/2 322/2/2
f 325/1/2 326/2/2 327/3/2
f 325/1/2 328/4/2 326/2/2
f 329/9/2 330/7/2 331/3/2
f 329/9/2 332/5/2 330/7/2
f 333/9/2 334/7/2 335/3/2
f 333/9/2 336/5/2 334/7/2
f 337/9/2 338/7/2 339/3/2
f 337/9/2 340/5/2 338/7/2
f 341/1/2 342/2/2 343/3/2
f 341/1/2 344/4/2 342/2/2
f 345/9/2 346/7/2 347/3/2
f 345/9/2 348/5/2 346/7/2
f 349/9/5 350/7/5 351/3/5
f 349/9/5 352/5/5 350/7/5
f 353/1/2 354/2/2 355/3/2
f 353/1/2 356/4/2 354/2/2
f 357/1/2 358/2/2 359/3/2
f 357/1/2 360/4/2 358/2/2
f 361/1/2 362/2/2 363/3/2
f 361/1/2 364/4/2 362/2/2
f 365/1/2 366/2/2 367/3/2
f 365/1/2 368/4/2 366/2/2
f 369/1/2 370/2/2 371/3/2
f 369/1/2 372/4/2 370/2/2
f 373/1/2 374/2/2 375/3/2
f 373/1/2 376/4/2 374/2/2
f 377/1/2 378/2/2 379/3/2
f 377/1/2 380/4/2 378/2/2
f 381/1/2 382/2/2 383/3/2
f 381/1/2 384/4/2 382/2/2
f 385/1/2 386/2/2 387/3/2
f 385/1/2 388/4/2 386/2/2
f 389/1/2 390/2/2 391/3/2
f 389/1/2 392/4/2 390/2/2
f 393/1/2 394/2/2 395/3/2
f 393/1/2 396/4/2 394/2/2
f 397/1/2 398/2/2 399/3/2
f 397/1/2 400/4/2 398/2/2
f 401/1/2 402/2/2 403/3/2
f 401/1/2 404/4/2 402/2/2
f 405/1/2 406/2/2 407/3/2
f 405/1/2 408/4/2 406/2/2
f 409/1/2 410/2/2 411/3/2
f 409/1/2 412/4/2 410/2/2
f 413/1/2 414/2/2 415/3/2
f 413/1/2 416/4/2 414/2/2
f 417/1/2 418/2/2 419/3/2
f 417/1/2 420/4/2 418/2/2
f 421/1/2 422/2/2 423/3/2
f 421/1/2 424/4/2 422/2/2
f 425/1/2 426/2/2 427/3/2
f 425/1/2 428/4/2 426/2/2
f 429/1/2 430/2/2 431/3/2
f 429/1/2 432/4/2 430/2/2
f 433/1/2 434/2/2 435/3/2
f 433/1/2 436/4/2 434/2/2
f 437/1/2 438/2/2 439/3/2
f 437/1/2 440/4/2 438/2/2
f 441/1/2 442/2/2 443/3/2
f 441/1/2 444/4/2 442/2/2
f 445/1/2 446/2/2 447/3/2
f 445/1/2 448/4/2 446/2/2
f 449/1/1 450/2/1 451/3/1
f 449/1/1 452/4/1 450/2/1
f 453/5/1 454/6/1 455/7/1
f 453/5/1 456/8/1 454/6/1
f 457/5/4 458/6/4 459/7/4
f 457/5/4 460/8/4 458/6/4
f 461/1/1 462/2/1 463/3/1
f 461/1/1 464/4/1 462/2/1
f 465/1/1 466/2/1 467/3/1
f 465/1/1 468/4/1 466/2/1
f 469/1/1 470/2/1 471/3/1
f 469/1/1 472/4/1 470/2/1
f 473/5/1 474/6/1 475/7/1
f 473/5/1 476/8/1 474/6/1
f 477/1/1 478/2/1 479/3/1
f 477/1/1 480/4/1 478/2/1
f 481/1/1 482/2/1 483/3/1
f 481/1/1 484/4/1 482/2/1
f 485/1/1 486/2/1 487/3/1
f 485/1/1 488/4/1 486/2/1
f 489/1/1 490/2/1 491/3/1
f 489/1/1 492/4/1 490/2/1
f 493/1/1 494/2/1 495/3/1
f 493/1/1 496/4/1 494/2/1
f 497/1/1 498/2/1 499/3/1
f 497/1/1 500/4/1 498/2/1
f 501/1/1 502/2/1 503/3/1
f 501/1/1 504/4/1 502/2/1
f 505/5/1 506/6/1 507/7/1
f 505/5/1 508/8/1 506/6/1
f 509/1/1 510/2/1 511/3/1
f 509/1/1 512/4/1 510/2/1
f 513/5/1 514/6/1 515/7/1
f 513/5/1 516/8/1 514/6/1
f 517/5/1 518/6/1 519/7/1
f 517/5/1 520/8/1 518/6/1
f 521/5/1 522/6/1 523/7/1
f 521/5/1 524/8/1 522/6/1
f 525/5/1 526/6/1 527/7/1
f 525/5/1 528/8/1 526/6/1
f 529/5/1 530/6/1 531/7/1
f 529/5/1 532/8/1 530/6/1
f 533/5/1 534/6/1 535/7/1
f 533/5/1 536/8/1 534/6/1
f 537/5/1 538/6/1 539/7/1
f 537/5/1 540/8/1 538/6/1
f 541/5/1 542/6/1 543/7/1
f 541/5/1 544/8/1 542/6/1
f 545/5/1 546/6/1 547/7/1
f 545/5/1 548/8/1 546/6/1
f 549/5/1 550/6/1 551/7/1
f 549/5/1 552/8/1 550/6/1
f 553/5/1 554/6/1 555/7/1
f 553/5/1 556/8/1 554/6/1
f 557/5/1 558/6/1 559/7/1
f 557/5/1 560/8/1 558/6/1
f 561/1/1 562/2/1 563/3/1
f 561/1/1 564/4/1 562/2/1
f 565/1/1 566/2/1 567/3/1
f 565/1/1 568/4/1 566/2/1
f 569/1/1 570/2/1 571/3/1
f 569/1/1 572/4/1 570/2/1
f 573/5/1 574/6/1 575/7/1
f 573/5/1 576/8/1 574/6/1
f 577/9/6 578/7/6 579/3/6
f 577/9/6 580/5/6 578/7/6
f 581/9/6 582/7/6 583/3/6
f 581/9/6 584/5/6 582/7/6
f 585/9/6 586/7/6 587/3/6
f 585/9/6 588/5/6 586/7/6
f 589/9/6 590/7/6 591/3/6
f 589/9/6 592/5/6 590/7/6
f 593/9/6 594/7/6 595/3/6
f 593/9/6 596/5/6 594/7/6
f 597/9/6 598/7/6 599/3/6
f 597/9/6 600/5/6 598/7/6
f 601/9/6 602/7/6 603/3/6
f 601/9/6 604/5/6 602/7/6
f 605/9/6 606/7/6 607/3/6
f 605/9/6 608/5/6 606/7/6
f 609/9/6 610/7/6 611/3/6
f 609/9/6 612/5/6 610/7/6
f 613/9/6 614/7/6 615/3/6
f 613/9/6 616/5/6 614/7/6
f 617/9/6 618/7/6 619/3/6
f 617/9/6 620/5/6 618/7/6
f 621/9/6 622/7/6 623/3/6
f 621/9/6 624/5/6 622/7/6
f 625/9/6 626/7/6 627/3/6
f 625/9/6 628/5/6 626/7/6
f 629/9/6 630/7/6 631/3/6
f 629/9/6 632/5/6 630/7/6
f 633/9/6 634/7/6 635/3/6
f 633/9/6 636/5/6 634/7/6
f 637/9/6 638/7/6 639/3/6
f 637/9/6 640/5/6 638/7/6
f 641/9/6 642/7/6 643/3/6
f 641/9/6 644/5/6 642/7/6
f 645/9/6 646/7/6 647/3/6
f 645/9/6 648/5/6 646/7/6
f 649/9/6 650/7/6 651/3/6
f 649/9/6 652/5/6 650/7/6
f 653/9/6 654/7/6 655/3/6
f 653/9/6 656/5/6 654/7/6
f 657/9/6 658/7/6 659/3/6
f 657/9/6 660/5/6 658/7/6
f 661/9/6 662/7/6 663/3/6
f 661/9/6 664/5/6 662/7/6
f 665/9/6 666/7/6 667/3/6
f 665/9/6 668/5/6 666/7/6
f 669/9/6 670/7/6 671/3/6
f 669/9/6 672/5/6 670/7/6
f 673/9/6 674/7/6 675/3/6
f 673/9/6 676/5/6 674/7/6
f 677/9/6 678/7/6 679/3/6
f 677/9/6 680/5/6 678/7/6
f 681/9/6 682/7/6 683/3/6
f 681/9/6 684/5/6 682/7/6
f 685/9/6 686/7/6 687/3/6
f 685/9/6 688/5/6 686/7/6
f 689/9/6 690/7/6 691/3/6
f 689/9/6 692/5/6 690/7/6
f 693/9/6 694/7/6 695/3/6
f 693/9/6 696/5/6 694/7/6
f 697/9/6 698/7/6 699/3/6
f 697/9/6 700/5/6 698/7/6
f 701/9/6 702/7/6 703/3/6
f 701/9/6 704/5/6 702/7/6
f 705/9/4 706/7/4 707/3/4
f 705/9/4 708/5/4 706/7/4
f 709/9/4 710/7/4 711/3/4
f 709/9/4 712/5/4 710/7/4
f 713/9/4 714/7/4 715/3/4
f 713/9/4 716/5/4 714/7/4
f 717/9/4 718/7/4 719/3/4
f 717/9/4 720/5/4 718/7/4
f 721/9/4 722/7/4 723/3/4
f 721/9/4 724/5/4 722/7/4
f 725/9/4 726/7/4 727/3/4
f 725/9/4 728/5/4 726/7/4
f 729/9/4 730/7/4 731/3/4
f 729/9/4 732/5/4 730/7/4
f 733/9/4 734/7/4 735/3/4
f 733/9/4 736/5/4 734/7/4
f 737/9/4 738/7/4 739/3/4
f 737/9/4 740/5/4 738/7/4
f 741/9/4 742/7/4 743/3/4
f 741/9/4 744/5/4 742/7/4
f 745/9/4 746/7/4 747/3/4
f 745/9/4 748/5/4 746/7/4
f 749/9/4 750/7/4 751/3/4
f 749/9/4 752/5/4 750/7/4
f 753/9/4 754/7/4 755/3/4
f 753/9/4 756/5/4 754/7/4
f 757/9/4 758/7/4 759/3/4
f 757/9/4 760/5/4 758/7/4
f 761/9/4 762/7/4 763/3/4
f 761/9/4 764/5/4 762/7/4
f 765/9/4 766/7/4 767/3/4
f 765/9/4 768/5/4 766/7/4
f 769/9/4 770/7/4 771/3/4
f 769/9/4 772/5/4 770/7/4
f 773/9/4 774/7/4 775/3/4
f 773/9/4 776/5/4 774/7/4
f 777/9/4 778/7/4 779/3/4
f 777/9/4 780/5/4 778/7/4
f 781/9/4 782/7/4 783/3/4
f 781/9/4 784/5/4 782/7/4
f 785/9/4 786/7/4 787/3/4
f 785/9/4 788/5/4 786/7/4
f 789/9/4 790/7/4 791/3/4
f 789/9/4 792/5/4 790/7/4
f 793/9/4 794/7/4 795/3/4
f 793/9/4 796/5/4 794/7/4
f 797/9/4 798/7/4 799/3/4
f 797/9/4 800/5/4 798/7/4
f 801/9/4 802/7/4 803/3/4
f 801/9/4 804/5/4 802/7/4
f 805/9/4 806/7/4 807/3/4
f 805/9/4 808/5/4 806/7/4
f 809/9/4 810/7/4 811/3/4
f 809/9/4 812/5/4 810/7/4
f 813/9/4 814/7/4 815/3/4
f 813/9/4 816/5/4 814/7/4
f 817/9/4 818/7/4 819/3/4
f 817/9/4 820/5/4 818/7/4
f 821/9/4 822/7/4 823/3/4
f 821/9/4 824/5/4 822/7/4
f 825/9/4 826/7/4 827/3/4
f 825/9/4 828/5/4 826/7/4
f 829/9/4 830/7/4 831/3/4
f 829/9/4 832/5/4 830/7/4
f 833/9/3 834/7/3 835/3/3
f 833/9/3 836/5/3 834/7/3
f 837/9/3 838/7/3 839/3/3
f 837/9/3 840/5/3 838/7/3
f 841/9/3 842/7/3 843/3/3
f 841/9/3 844/5/3 842/7/3
f 845/9/3 846/7/3 847/3/3
f 845/9/3 848/5/3 846/7/3
f 849/9/3 850/7/3 851/3/3
f 849/9/3 852/5/3 850/7/3
f 853/9/3 854/7/3 855/3/3
f 853/9/3 856/5/3 854/7/3
f 857/9/3 858/7/3 859/3/3
f 857/9/3 860/5/3 858/7/3
f 861/9/3 862/7/3 863/3/3
f 861/9/3 864/5/3 862/7/3
f 865/9/3 866/7/3 867/3/3
f 865/9/3 868/5/3 866/7/3
f 869/9/3 870/7/3 871/3/3
f 869/9/3 872/5/3 870/7/3
f 873/9/3 874/7/3 875/3/3
f 873/9/3 876/5/3 874/7/3
f 877/9/3 878/7/3 879/3/3
f 877/9/3 880/5/3 878/7/3
f 881/9/3 882/7/3 883/3/3
f 881/9/3 884/5/3 882/7/3
f 885/9/3 886/7/3 887/3/3
f 885/9/3 888/5/3 886/7/3
f 889/9/3 890/7/3 891/3/3
f 889/9/3 892/5/3 890/7/3
f 893/9/3 894/7/3 895/3/3
f 893/9/3 896/5/3 894/7/3
f 897/9/3 898/7/3 899/3/3
f 897/9/3 900/5/3 898/7/3
f 901/9/3 902/7/3 903/3/3
f 901/9/3 904/5/3 902/7/3
f 905/9/3 906/7/3 907/3/3
f 905/9/3 908/5/3 906/7/3
f 909/9/3 910/7/3 911/3/3
f 909/9/3 912/5/3 910/7/3
f 913/9/3 914/7/3 915/3/3
f 913/9/3 916/5/3 914/7/3
f 917/9/3 918/7/3 919/3/3
f 917/9/3 920/5/3 918/7/3
f 921/9/3 922/7/3 923/3/3
f 921/9/3 924/5/3 922/7/3
f 925/9/3 926/7/3 927/3/3
f 925/9/3 928/5/3 926/7/3
f 929/9/3 930/7/3 931/3/3
f 929/9/3 932/5/3 930/7/3
f 933/9/3 934/7/3 935/3/3
f 933/9/3 936/5/3 934/7/3
f 937/9/3 938/7/3 939/3/3
f 937/9/3 940/5/3 938/7/3
f 941/9/3 942/7/3 943/3/3
f 941/9/3 944/5/3 942/7/3
f 945/9/3 946/7/3 947/3/3
f 945/9/3 948/5/3 946/7/3
f 949/9/3 950/7/3 951/3/3
f 949/9/3 952/5/3 950/7/3
f 953/9/3 954/7/3 955/3/3
f 953/9/3 956/5/3 954/7/3
f 957/9/3 958/7/3 959/3/3
f 957/9/3 960/5/3 958/7/3
f 961/5/1 962/6/1 963/7/1
f 961/5/1 964/8/1 962/6/1
f 965/5/4 966/6/4 967/7/4
f 965/5/4 968/8/4 966/6/4
f 969/5/4 970/6/4 971/7/4
f 969/5/4 972/8/4 970/6/4
f 973/5/4 974/6/4 975/7/4
f 973/5/4 976/8/4 974/6/4
f 977/5/4 978/6/4 979/7/4
f 977/5/4 980/8/4 978/6/4
f 981/5/4 982/6/4 983/7/4
f 981/5/4 984/8/4 982/6/4
f 985/5/4 986/6/4 987/7/4
f 985/5/4 988/8/4 986/6/4
f 989/5/4 990/6/4 991/7/4
f 989/5/4 992/8/4 990/6/4
f 993/5/4 994/6/4 995/7/4
f 993/5/4 996/8/4 994/6/4
f 997/5/4 998/6/4 999/7/4
f 997/5/4 1000/8/4 998/6/4
f 1001/5/4 1002/6/4 1003/7/4
f 1001/5/4 1004/8/4 1002/6/4
f 1005/5/4 1006/6/4 1007/7/4
f 1005/5/4 1008/8/4 1006/6/4
f 1009/5/4 1010/6/4 1011/7/4
f 1009/5/4 1012/8/4 1010/6/4
f 1013/5/4 1014/6/4 1015/7/4
f 1013/5/4 1016/8/4 1014/6/4
f 1017/5/4 1018/6/4 1019/7/4
f 1017/5/4 1020/8/4 1018/6/4
f 1021/1/2 1022/2/2 1023/3/2
f 1021/1/2 1024/4/2 1022/2/2
f 1025/9/3 1026/7/3 1027/3/3
f 1025/9/3 1028/5/3 1026/7/3
f 1029/9/3 1030/7/3 1031/3/3
f 1029/9/3 1032/5/3 1030/7/3
f 1033/9/3 1034/7/3 1035/3/3
f 1033/9/3 1036/5/3 1034/7/3
f 1037/9/3 1038/7/3 1039/3/3
f 1037/9/3 1040/5/3 1038/7/3
f 1041/9/3 1042/7/3 1043/3/3
f 1041/9/3 1044/5/3 1042/7/3
f 1045/9/3 1046/7/3 1047/3/3
f 1045/9/3 1048/5/3 1046/7/3
f 1049/9/3 1050/7/3 1051/3/3
f 1049/9/3 1052/5/3 1050/7/3
f 1053/9/3 1054/7/3 1055/3/3
f 1053/9/3 1056/5/3 1054/7/3
f 1057/9/3 1058/7/3 1059/3/3
f 1057/9/3 1060/5/3 1058/7/3
f 1061/9/3 1062/7/3 1063/3/3
f 1061/9/3 1064/5/3 1062/7/3
f 1065/9/3 1066/7/3 1067/3/3
f 1065/9/3 1068/5/3 1066/7/3
f 1069/9/3 1070/7/3 1071/3/3
f 1069/9/3 1072/5/3 1070/7/3
f 1073/9/2 1074/7/2 1075/3/2
f 1073/9/2 1076/5/2 1074/7/2
f 1077/5/3 1078/6/3 1079/7/3
f 1077/5/3 1080/8/3 1078/6/3
f 1081/5/3 1082/6/3 1083/7/3
f 1081/5/3 1084/8/3 1082/6/3
f 1085/5/3 1086/6/3 1087/7/3
f 1085/5/3 1088/8/3 1086/6/3
f 1089/9/3 1090/7/3 1091/3/3
f 1089/9/3 1092/5/3 1090/7/3
f 1093/9/3 1094/7/3 1095/3/3
f 1093/9/3 1096/5/3 1094/7/3
f 1097/9/3 1098/7/3 1099/3/3
f 1097/9/3 1100/5/3 1098/7/3
f 1101/9/3 1102/7/3 1103/3/3
f 1101/9/3 1104/5/3 1102/7/3
f 1105/9/3 1106/7/3 1107/3/3
f 1105/9/3 1108/5/3 1106/7/3
f 1109/9/3 1110/7/3 1111/3/3
f 1109/9/3 1112/5/3 1110/7/3
f 1113/9/3 1114/7/3 1115/3/3
f 1113/9/3 1116/5/3 1114/7/3
f 1117/9/3 1118/7/3 1119/3/3
f 1117/9/3 1120/5/3 1118/7/3
f 1121/9/3 1122/7/3 1123/3/3
f 1121/9/3 1124/5/3 1122/7/3
f 1125/9/3 1126/7/3 1127/3/3
f 1125/9/3 1128/5/3 1126/7/3
f 1129/9/3 1130/7/3 1131/3/3
f 1129/9/3 1132/5/3 1130/7/3
f 1133/9/3 1134/7/3 1135/3/3
f 1133/9/3 1136/5/3 1134/7/3
f 1137/9/3 1138/7/3 1139/3/3
f 1137/9/3 1140/5/3 1138/7/3
f 1141/9/3 1142/7/3 1143/3/3
f 1141/9/3 1144/5/3 1142/7/3
f 1145/9/3 1146/7/3 1147/3/3
f 1145/9/3 1148/5/3 1146/7/3
f 1149/9/3 1150/7/3 1151/3/3
f 1149/9/3 1152/5/3 1150/7/3
f 1153/9/3 1154/7/3 1155/3/3
f 1153/9/3 1156/5/3 1154/7/3
f 1157/9/3 1158/7/3 1159/3/3
f 1157/9/3 1160/5/3 1158/7/3
f 1161/5/3 1162/6/3 1163/7/3
f 1161/5/3 1164/8/3 1162/6/3
f 1165/5/3 1166/6/3 1167/7/3
f 1165/5/3 1168/8/3 1166/6/3
f 1169/5/3 1170/6/3 1171/7/3
f 1169/5/3 1172/8/3 1170/6/3
f 1173/9/3 1174/7/3 1175/3/3
f 1173/9/3 1176/5/3 1174/7/3
f 1177/9/3 1178/7/3 1179/3/3
f 1177/9/3 1180/5/3 1178/7/3
f 1181/9/3 1182/7/3 1183/3/3
f 1181/9/3 1184/5/3 1182/7/3
f 1185/9/3 1186/7/3 1187/3/3
f 1185/9/3 1188/5/3 1186/7/3
f 1189/9/3 1190/7/3 1191/3/3
f 1189/9/3 1192/5/3 1190/7/3
f 1193/9/3 1194/7/3 1195/3/3
f 1193/9/3 1196/5/3 1194/7/3
f 1197/9/3 1198/7/3 1199/3/3
f 1197/9/3 1200/5/3 1198/7/3
f 1201/9/3 1202/7/3 1203/3/3
f 1201/9/3 1204/5/3 1202/7/3
f 1205/9/3 1206/7/3 1207/3/3
f 1205/9/3 1208/5/3 1206/7/3
f 1209/9/3 1210/7/3 1211/3/3
f 1209/9/3 1212/5/3 1210/7/3
f 1213/9/3 1214/7/3 1215/3/3
f 1213/9/3 1216/5/3 1214/7/3
f 1217/9/3 1218/7/3 1219/3/3
f 1217/9/3 1220/5/3 1218/7/3
f 1221/9/3 1222/7/3 1223/3/3
f 1221/9/3 1224/5/3 1222/7/3
f 1225/9/3 1226/7/3 1227/3/3
f 1225/9/3 1228/5/3 1226/7/3
f 1229/9/3 1230/7/3 1231/3/3
f 1229/9/3 1232/5/3 1230/7/3
f 1233/9/3 1234/7/3 1235/3/3
f 1233/9/3 1236/5/3 1234/7/3
f 1237/9/3 1238/7/3 1239/3/3
f 1237/9/3 1240/5/3 1238/7/3
f 1241/9/3 1242/7/3 1243/3/3
f 1241/9/3 1244/5/3 1242/7/3
f 1245/9/3 1246/7/3 1247/3/3
f 1245/9/3 1248/5/3 1246/7/3
f 1249/9/3 1250/7/3 1251/3/3
f 1249/9/3 1252/5/3 1250/7/3
f 1253/9/3 1254/7/3 1255/3/3
f 1253/9/3 1256/5/3 1254/7/3
f 1257/9/3 1258/7/3 1259/3/3
f 1257/9/3 1260/5/3 1258/7/3
f 1261/9/3 1262/7/3 1263/3/3
f 1261/9/3 1264/5/3 1262/7/3
f 1265/9/3 1266/7/3 1267/3/3
f 1265/9/3 1268/5/3 1266/7/3
f 1269/9/3 1270/7/3 1271/3/3
f 1269/9/3 1272/5/3 1270/7/3
f 1273/9/3 1274/7/3 1275/3/3
f 1273/9/3 1276/5/3 1274/7/3
f 1277/5/3 1278/6/3 1279/7/3
f 1277/5/3 1280/8/3 1278/6/3
f 1281/5/3 1282/6/3 1283/7/3
f 1281/5/3 1284/8/3 1282/6/3
f 1285/5/3 1286/6/3 1287/7/3
f 1285/5/3 1288/8/3 1286/6/3
f 1289/9/3 1290/7/3 1291/3/3
f 1289/9/3 1292/5/3 1290/7/3
f 1293/9/3 1294/7/3 1295/3/3
f 1293/9/3 1296/5/3 1294/7/3
f 1297/9/3 1298/7/3 1299/3/3
f 1297/9/3 1300/5/3 1298/7/3
f 1301/9/3 1302/7/3 1303/3/3
f 1301/9/3 1304/5/3 1302/7/3
f 1305/9/3 1306/7/3 1307/3/3
f 1305/9/3 1308/5/3 1306/7/3
f 1309/9/3 1310/7/3 1311/3/3
f 1309/9/3 1312/5/3 1310/7/3
f 1313/9/3 1314/7/3 1315/3/3
f 1313/9/3 1316/5/3 1314/7/3
f 1317/9/3 1318/7/3 1319/3/3
f 1317/9/3 1320/5/3 1318/7/3
f 1321/9/3 1322/7/3 1323/3/3
f 1321/9/3 1324/5/3 1322/7/3
f 1325/9/3 1326/7/3 1327/3/3
f 1325/9/3 1328/5/3 1326/7/3
f 1329/9/3 1330/7/3 1331/3/3
f 1329/9/3 1332/5/3 1330/7/3
f 1333/9/3 1334/7/3 1335/3/3
f 1333/9/3 1336/5/3 1334/7/3
f 1337/9/3 1338/7/3 1339/3/3
f 1337/9/3 1340/5/3 1338/7/3
f 1341/9/3 1342/7/3 1343/3/3
f 1341/9/3 1344/5/3 1342/7/3
f 1345/5/3 1346/6/3 1347/7/3
f 1345/5/3 1348/8/3 1346/6/3
f 1349/5/3 1350/6/3 1351/7/3
f 1349/5/3 1352/8/3 1350/6/3
f 1353/5/3 1354/6/3 1355/7/3
f 1353/5/3 1356/8/3 1354/6/3
f 1357/5/3 1358/6/3 1359/7/3
f 1357/5/3 1360/8/3 1358/6/3
f 1361/9/3 1362/7/3 1363/3/3
f 1361/9/3 1364/5/3 1362/7/3
f 1365/9/3 1366/7/3 1367/3/3
f 1365/9/3 1368/5/3 1366/7/3
f 1369/9/3 1370/7/3 1371/3/3
f 1369/9/3 1372/5/3 1370/7/3
f 1373/9/3 1374/7/3 1375/3/3
f 1373/9/3 1376/5/3 1374/7/3
f 1377/9/3 1378/7/3 1379/3/3
f 1377/9/3 1380/5/3 1378/7/3
f 1381/9/3 1382/7/3 1383/3/3
f 1381/9/3 1384/5/3 1382/7/3
f 1385/9/3 1386/7/3 1387/3/3
f 1385/9/3 1388/5/3 1386/7/3
f 1389/9/3 1390/7/3 1391/3/3
f 1389/9/3 1392/5/3 1390/7/3
f 1393/9/3 1394/7/3 1395/3/3
f 1393/9/3 1396/5/3 1394/7/3
f 1397/9/3 1398/7/3 1399/3/3
f 1397/9/3 1400/5/3 1398/7/3
f 1401/9/3 1402/7/3 1403/3/3
f 1401/9/3 1404/5/3 1402/7/3
f 1405/9/3 1406/7/3 1407/3/3
f 1405/9/3 1408/5/3 1406/7/3
f 1409/9/6 1410/7/6 1411/3/6
f 1409/9/6 1412/5/6 1410/7/6
f 1413/9/6 1414/7/6 1415/3/6
f 1413/9/6 1416/5/6 1414/7/6
f 1417/9/6 1418/7/6 1419/3/6
f 1417/9/6 1420/5/6 1418/7/6
f 1421/9/6 1422/7/6 1423/3/6
f 1421/9/6 1424/5/6 1422/7/6
f 1425/9/6 1426/7/6 1427/3/6
f 1425/9/6 1428/5/6 1426/7/6
f 1429/9/6 1430/7/6 1431/3/6
f 1429/9/6 1432/5/6 1430/7/6
f 1433/9/6 1434/7/6 1435/3/6
f 1433/9/6 1436/5/6 1434/7/6
f 1437/9/6 1438/7/6 1439/3/6
f 1437/9/6 1440/5/6 1438/7/6
f 1441/5/4 1442/6/4 1443/7/4
f 1441/5/4 1444/8/4 1442/6/4
f 1445/5/6 1446/6/6 1447/7/6
f 1445/5/6 1448/8/6 1446/6/6
f 1449/5/6 1450/6/6 1451/7/6
f 1449/5/6 1452/8/6 1450/6/6
f 1453/5/6 1454/6/6 1455/7/6
f 1453/5/6 1456/8/6 1454/6/6
f 1457/9/6 1458/7/6 1459/3/6
f 1457/9/6 1460/5/6 1458/7/6
f 1461/9/6 1462/7/6 1463/3/6
f 1461/9/6 1464/5/6 1462/7/6
f 1465/9/6 1466/7/6 1467/3/6
f 1465/9/6 1468/5/6 1466/7/6
f 1469/9/6 1470/7/6 1471/3/6
f 1469/9/6 1472/5/6 1470/7/6
f 1473/9/6 1474/7/6 1475/3/6
f 1473/9/6 1476/5/6 1474/7/6
f 1477/9/6 1478/7/6 1479/3/6
f 1477/9/6 1480/5/6 1478/7/6
f 1481/9/6 1482/7/6 1483/3/6
f 1481/9/6 1484/5/6 1482/7/6
f 1485/9/6 1486/7/6 1487/3/6
f 1485/9/6 1488/5/6 1486/7/6
f 1489/9/6 1490/7/6 1491/3/6
f 1489/9/6 1492/5/6 1490/7/6
f 1493/9/6 1494/7/6 1495/3/6
f 1493/9/6 1496/5/6 1494/7/6
f 1497/9/6 1498/7/6 1499/3/6
f 1497/9/6 1500/5/6 1498/7/6
f 1501/9/6 1502/7/6 1503/3/6
f 1501/9/6 1504/5/6 1502/7/6
f 1505/9/6 1506/7/6 1507/3/6
f 1505/9/6 1508/5/6 1506/7/6
f 1509/9/6 1510/7/6 1511/3/6
f 1509/9/6 1512/5/6 1510/7/6
f 1513/9/6 1514/7/6 1515/3/6
f 1513/9/6 1516/5/6 1514/7/6
f 1517/9/6 1518/7/6 1519/3/6
f 1517/9/6 1520/5/6 1518/7/6
f 1521/9/6 1522/7/6 1523/3/6
f 1521/9/6 1524/5/6 1522/7/6
f 1525/9/6 1526/7/6 1527/3/6
f 1525/9/6 1528/5/6 1526/7/6
f 1529/9/6 1530/7/6 1531/3/6
f 1529/9/6 1532/5/6 1530/7/6
f 1533/9/6 1534/7/6 1535/3/6
f 1533/9/6 1536/5/6 1534/7/6
f 1537/9/6 1538/7/6 1539/3/6
f 1537/9/6 1540/5/6 1538/7/6
f 1541/9/6 1542/7/6 1543/3/6
f 1541/9/6 1544/5/6 1542/7/6
f 1545/9/6 1546/7/6 1547/3/6
f 1545/9/6 1548/5/6 1546/7/6
f 1549/9/6 1550/7/6 1551/3/6
f 1549/9/6 1552/5/6 1550/7/6
f 1553/9/6 1554/7/6 1555/3/6
f 1553/9/6 1556/5/6 1554/7/6
f 1557/9/6 1558/7/6 1559/3/6
f 1557/9/6 1560/5/6 1558/7/6
f 1561/9/6 1562/7/6 1563/3/6
f 1561/9/6 1564/5/6 1562/7/6
f 1565/9/6 1566/7/6 1567/3/6
f 1565/9/6 1568/5/6 1566/7/6
f 1569/5/6 1570/6/6 1571/7/6
f 1569/5/6 1572/8/6 1570/6/6
f 1573/5/6 1574/6/6 1575/7/6
f 1573/5/6 1576/8/6 1574/6/6
f 1577/5/6 1578/6/6 1579/7/6
f 1577/5/6 1580/8/6 1578/6/6
f 1581/5/6 1582/6/6 1583/7/6
f 1581/5/6 1584/8/6 1582/6/6
f 1585/5/6 1586/6/6 1587/7/6
f 1585/5/6 1588/8/6 1586/6/6
f 1589/9/6 1590/7/6 1591/3/6
f 1589/9/6 1592/5/6 1590/7/6
f 1593/9/6 1594/7/6 1595/3/6
f 1593/9/6 1596/5/6 1594/7/6
f 1597/9/6 1598/7/6 1599/3/6
f 1597/9/6 1600/5/6 1598/7/6
f 1601/9/6 1602/7/6 1603/3/6
f 1601/9/6 1604/5/6 1602/7/6
f 1605/9/6 1606/7/6 1607/3/6
f 1605/9/6 1608/5/6 1606/7/6
f 1609/9/6 1610/7/6 1611/3/6
f 1609/9/6 1612/5/6 1610/7/6
f 1613/9/6 1614/7/6 1615/3/6
f 1613/9/6 1616/5/6 1614/7/6
f 1617/5/6 1618/6/6 1619/7/6
f 1617/5/6 1620/8/6 1618/6/6
f 1621/9/6 1622/7/6 1623/3/6
f 1621/9/6 1624/5/6 1622/7/6
f 1625/9/6 1626/7/6 1627/3/6
f 1625/9/6 1628/5/6 1626/7/6
f 1629/9/6 1630/7/6 1631/3/6
f 1629/9/6 1632/5/6 1630/7/6
f 1633/9/6 1634/7/6 1635/3/6
f 1633/9/6 1636/5/6 1634/7/6
f 1637/9/6 1638/7/6 1639/3/6
f 1637/9/6 1640/5/6 1638/7/6
f 1641/9/6 1642/7/6 1643/3/6
f 1641/9/6 1644/5/6 1642/7/6
f 1645/9/6 1646/7/6 1647/3/6
f 1645/9/6 1648/5/6 1646/7/6
f 1649/9/6 1650/7/6 1651/3/6
f 1649/9/6 1652/5/6 1650/7/6
f 1653/9/6 1654/7/6 1655/3/6
f 1653/9/6 1656/5/6 1654/7/6
f 1657/9/6 1658/7/6 1659/3/6
f 1657/9/6 1660/5/6 1658/7/6
f 1661/9/6 1662/7/6 1663/3/6
f 1661/9/6 1664/5/6 1662/7/6
f 1665/9/6 1666/7/6 1667/3/6
f 1665/9/6 1668/5/6 1666/7/6
f 1669/9/6 1670/7/6 1671/3/6
f 1669/9/6 1672/5/6 1670/7/6
f 1673/9/6 1674/7/6 1675/3/6
f 1673/9/6 1676/5/6 1674/7/6
f 1677/9/6 1678/7/6 1679/3/6
f 1677/9/6 1680/5/6 1678/7/6
f 1681/9/6 1682/7/6 1683/3/6
f 1681/9/6 1684/5/6 1682/7/6
f 1685/9/6 1686/7/6 1687/3/6
f 1685/9/6 1688/5/6 1686/7/6
f 1689/5/6 1690/6/6 1691/7/6
f 1689/5/6 1692/8/6 1690/6/6
f 1693/5/6 1694/6/6 1695/7/6
f 1693/5/6 1696/8/6 1694/6/6
f 1697/5/6 1698/6/6 1699/7/6
f 1697/5/6 1700/8/6 1698/6/6
f 1701/9/6 1702/7/6 1703/3/6
f 1701/9/6 1704/5/6 1702/7/6
f 1705/9/6 1706/7/6 1707/3/6
f 1705/9/6 1708/5/6 1706/7/6
f 1709/9/6 1710/7/6 1711/3/6
f 1709/9/6 1712/5/6 1710/7/6
f 1713/9/6 1714/7/6 1715/3/6
f 1713/9/6 1716/5/6 1714/7/6
f 1717/9/6 1718/7/6 1719/3/6
f 1717/9/6 1720/5/6 1718/7/6
f 1721/9/6 1722/7/6 1723/3/6
f 1721/9/6 1724/5/6 1722/7/6
f 1725/9/6 1726/7/6 1727/3/6
f 1725/9/6 1728/5/6 1726/7/6
f 1729/9/6 1730/7/6 1731/3/6
f 1729/9/6 1732/5/6 1730/7/6
f 1733/9/6 1734/7/6 1735/3/6
f 1733/9/6 1736/5/6 1734/7/6
f 1737/9/6 1738/7/6 1739/3/6
f 1737/9/6 1740/5/6 1738/7/6
f 1741/9/6 1742/7/6 1743/3/6
f 1741/9/6 1744/5/6 1742/7/6
f 1745/9/6 1746/7/6 1747/3/6
f 1745/9/6 1748/5/6 1746/7/6
f 1749/9/6 1750/7/6 1751/3/6
f 1749/9/6 1752/5/6 1750/7/6
f 1753/9/6 1754/7/6 1755/3/6
f 1753/9/6 1756/5/6 1754/7/6
f 1757/9/6 1758/7/6 1759/3/6
f 1757/9/6 1760/5/6 1758/7/6
f 1761/9/6 1762/7/6 1763/3/6
f 1761/9/6 1764/5/6 1762/7/6
f 1765/9/6 1766/7/6 1767/3/6
f 1765/9/6 1768/5/6 1766/7/6
f 1769/9/6 1770/7/6 1771/3/6
f 1769/9/6 1772/5/6 1770/7/6
f 1773/9/6 1774/7/6 1775/3/6
f 1773/9/6 1776/5/6 1774/7/6
f 1777/9/6 1778/7/6 1779/3/6
f 1777/9/6 1780/5/6 1778/7/6
f 1781/5/6 1782/6/6 1783/7/6
f 1781/5/6 1784/8/6 1782/6/6
f 1785/5/6 1786/6/6 1787/7/6
f 1785/5/6 1788/8/6 1786/6/6
f 1789/5/6 1790/6/6 1791/7/6
f 1789/5/6 1792/8/6 1790/6/6
f 1793/9/5 1794/7/5 1795/3/5
f 1793/9/5 1796/5/5 1794/7/5
f 1797/9/5 1798/7/5 1799/3/5
f 1797/9/5 1800/5/5 1798/7/5
f 1801/9/5 1802/7/5 1803/3/5
f 1801/9/5 1804/5/5 1802/7/5
f 1805/9/5 1806/7/5 1807/3/5
f 1805/9/5 1808/5/5 1806/7/5
f 1809/9/5 1810/7/5 1811/3/5
f 1809/9/5 1812/5/5 1810/7/5
f 1813/9/5 1814/7/5 1815/3/5
f 1813/9/5 1816/5/5 1814/7/5
f 1817/9/5 1818/7/5 1819/3/5
f 1817/9/5 1820/5/5 1818/7/5
f 1821/9/5 1822/7/5 1823/3/5
f 1821/9/5 1824/5/5 1822/7/5
f 1825/9/5 1826/7/5 1827/3/5
f 1825/9/5 1828/5/5 1826/7/5
f 1829/9/5 1830/7/5 1831/3/5
f 1829/9/5 1832/5/5 1830/7/5
f 1833/9/5 1834/7/5 1835/3/5
f 1833/9/5 1836/5/5 1834/7/5
f 1837/9/5 1838/7/5 1839/3/5
f 1837/9/5 1840/5/5 1838/7/5
f 1841/9/5 1842/7/5 1843/3/5
f 1841/9/5 1844/5/5 1842/7/5
f 1845/9/5 1846/7/5 1847/3/5
f 1845/9/5 1848/5/5 1846/7/5
f 1849/9/5 1850/7/5 1851/3/5
f 1849/9/5 1852/5/5 1850/7/5
f 1853/9/5 1854/7/5 1855/3/5
f 1853/9/5 1856/5/5 1854/7/5
f 1857/9/5 1858/7/5 1859/3/5
f 1857/9/5 1860/5/5 1858/7/5
f 1861/9/5 1862/7/5 1863/3/5
f 1861/9/5 1864/5/5 1862/7/5
f 1865/9/5 1866/7/5 1867/3/5
f 1865/9/5 1868/5/5 1866/7/5
f 1869/9/5 1870/7/5 1871/3/5
f 1869/9/5 1872/5/5 1870/7/5
f 1873/9/5 1874/7/5 1875/3/5
f 1873/9/5 1876/5/5 1874/7/5
f 1877/9/5 1878/7/5 1879/3/5
f 1877/9/5 1880/5/5 1878/7/5
f 1881/9/5 1882/7/5 1883/3/5
f 1881/9/5 1884/5/5 1882/7/5
f 1885/9/5 1886/7/5 1887/3/5
f 1885/9/5 1888/5/5 1886/7/5
f 1889/9/5 1890/7/5 1891/3/5
f 1889/9/5 1892/5/5 1890/7/5
f 1893/9/5 1894/7/5 1895/3/5
f 1893/9/5 1896/5/5 1894/7/5
f 1897/9/5 1898/7/5 1899/3/5
f 1897/9/5 1900/5/5 1898/7/5
f 1901/9/5 1902/7/5 1903/3/5
f 1901/9/5 1904/5/5 1902/7/5
f 1905/9/5 1906/7/5 1907/3/5
f 1905/9/5 1908/5/5 1906/7/5
f 1909/9/5 1910/7/5 1911/3/5
f 1909/9/5 1912/5/5 1910/7/5
f 1913/9/5 1914/7/5 1915/3/5
f 1913/9/5 1916/5/5 1914/7/5
f 1917/9/5 1918/7/5 1919/3/5
f 1917/9/5 1920/5/5 1918/7/5
f 1921/9/5 1922/7/5 1923/3/5
f 1921/9/5 1924/5/5 1922/7/5
f 1925/9/5 1926/7/5 1927/3/5
f 1925/9/5 1928/5/5 1926/7/5
f 1929/9/5 1930/7/5 1931/3/5
f 1929/9/5 1932/5/5 1930/7/5
f 1933/9/5 1934/7/5 1935/3/5
f 1933/9/5 1936/5/5 1934/7/5
f 1937/9/5 1938/7/5 1939/3/5
f 1937/9/5 1940/5/5 1938/7/5
f 1941/9/5 1942/7/5 1943/3/5
f 1941/9/5 1944/5/5 1942/7/5
f 1945/9/5 1946/7/5 1947/3/5
f 1945/9/5 1948/5/5 1946/7/5
f 1949/9/5 1950/7/5 1951/3/5
f 1949/9/5 1952/5/5 1950/7/5
f 1953/9/5 1954/7/5 1955/3/5
f 1953/9/5 1956/5/5 1954/7/5
f 1957/9/5 1958/7/5 1959/3/5
f 1957/9/5 1960/5/5 1958/7/5
f 1961/9/5 1962/7/5 1963/3/5
f 1961/9/5 1964/5/5 1962/7/5
f 1965/9/5 1966/7/5 1967/3/5
f 1965/9/5 1968/5/5 1966/7/5
f 1969/9/5 1970/7/5 1971/3/5
f 1969/9/5 1972/5/5 1970/7/5
f 1973/9/5 1974/7/5 1975/3/5
f 1973/9/5 1976/5/5 1974/7/5
f 1977/9/5 1978/7/5 1979/3/5
f 1977/9/5 1980/5/5 1978/7/5
f 1981/9/5 1982/7/5 1983/3/5
f 1981/9/5 1984/5/5 1982/7/5
f 1985/9/5 1986/7/5 1987/3/5
f 1985/9/5 1988/5/5 1986/7/5
f 1989/9/5 1990/7/5 1991/3/5
f 1989/9/5 1992/5/5 1990/7/5
f 1993/9/5 1994/7/5 1995/3/5
f 1993/9/5 1996/5/5 1994/7/5
f 1997/9/2 1998/7/2 1999/3/2
f 1997/9/2 2000/5/2 1998/7/2
f 2001/5/6 2002/6/6 2003/7/6
f 2001/5/6 2004/8/6 2002/6/6
f 2005/9/5 2006/7/5 2007/3/5
f 2005/9/5 2008/5/5 2006/7/5
f 2009/9/5 2010/7/5 2011/3/5
f 2009/9/5 2012/5/5 2010/7/5
f 2013/9/5 2014/7/5 2015/3/5
f 2013/9/5 2016/5/5 2014/7/5
f 2017/9/5 2018/7/5 2019/3/5
f 2017/9/5 2020/5/5 2018/7/5
f 2021/9/5 2022/7/5 2023/3/5
f 2021/9/5 2024/5/5 2022/7/5
f 2025/9/5 2026/7/5 2027/3/5
f 2025/9/5 2028/5/5 2026/7/5
f 2029/9/5 2030/7/5 2031/3/5
f 2029/9/5 2032/5/5 2030/7/5
f 2033/9/5 2034/7/5 2035/3/5
f 2033/9/5 2036/5/5 2034/7/5
f 2037/9/5 2038/7/5 2039/3/5
f 2037/9/5 2040/5/5 2038/7/5
f 2041/9/5 2042/7/5 2043/3/5
f 2041/9/5 2044/5/5 2042/7/5
f 2045/9/5 2046/7/5 2047/3/5
f 2045/9/5 2048/5/5 2046/7/5
f 2049/9/5 2050/7/5 2051/3/5
f 2049/9/5 2052/5/5 2050/7/5
f 2053/9/5 2054/7/5 2055/3/5
f 2053/9/5 2056/5/5 2054/7/5
f 2057/9/5 2058/7/5 2059/3/5
f 2057/9/5 2060/5/5 2058/7/5
f 2061/9/5 2062/7/5 2063/3/5
f 2061/9/5 2064/5/5 2062/7/5
f 2065/9/5 2066/7/5 2067/3/5
f 2065/9/5 2068/5/5 2066/7/5
f 2069/9/5 2070/7/5 2071/3/5
f 2069/9/5 2072/5/5 2070/7/5
f 2073/9/5 2074/7/5 2075/3/5
f 2073/9/5 2076/5/5 2074/7/5
f 2077/9/5 2078/7/5 2079/3/5
f 2077/9/5 2080/5/5 2078/7/5
f 2081/9/5 2082/7/5 2083/3/5
f 2081/9/5 2084/5/5 2082/7/5
f 2085/9/5 2086/7/5 2087/3/5
f 2085/9/5 2088/5/5 2086/7/5
f 2089/9/5 2090/7/5 2091/3/5
f 2089/9/5 2092/5/5 2090/7/5
f 2093/9/5 2094/7/5 2095/3/5
f 2093/9/5 2096/5/5 2094/7/5
f 2097/9/5 2098/7/5 2099/3/5
f 2097/9/5 2100/5/5 2098/7/5
f 2101/9/5 2102/7/5 2103/3/5
f 2101/9/5 2104/5/5 2102/7/5
f 2105/9/5 2106/7/5 2107/3/5
f 2105/9/5 2108/5/5 2106/7/5
f 2109/9/5 2110/7/5 2111/3/5
f 2109/9/5 2112/5/5 2110/7/5
f 2113/9/5 2114/7/5 2115/3/5
f 2113/9/5 2116/5/5 2114/7/5
f 2117/5/4 2118/6/4 2119/7/4
f 2117/5/4 2120/8/4 2118/6/4
f 2121/5/4 2122/6/4 2123/7/4
f 2121/5/4 2124/8/4 2122/6/4
f 2125/5/4 2126/6/4 2127/7/4
f 2125/5/4 2128/8/4 2126/6/4
f 2129/5/4 2130/6/4 2131/7/4
f 2129/5/4 2132/8/4 2130/6/4
f 2133/5/4 2134/6/4 2135/7/4
f 2133/5/4 2136/8/4 2134/6/4
f 2137/5/4 2138/6/4 2139/7/4
f 2137/5/4 2140/8/4 2138/6/4
f 2141/5/4 2142/6/4 2143/7/4
f 2141/5/4 2144/8/4 2142/6/4
f 2145/5/4 2146/6/4 2147/7/4
f 2145/5/4 2148/8/4 2146/6/4
f 2149/5/4 2150/6/4 2151/7/4
f 2149/5/4 2152/8/4 2150/6/4
f 2153/5/4 2154/6/4 2155/7/4
f 2153/5/4 2156/8/4 2154/6/4
f 2157/5/4 2158/6/4 2159/7/4
f 2157/5/4 2160/8/4 2158/6/4
f 2161/5/4 2162/6/4 2163/7/4
f 2161/5/4 2164/8/4 2162/6/4
f 2165/5/4 2166/6/4 2167/7/4
f 2165/5/4 2168/8/4 2166/6/4
f 2169/5/4 2170/6/4 2171/7/4
f 2169/5/4 2172/8/4 2170/6/4
f 2173/5/4 2174/6/4 2175/7/4
f 2173/5/4 2176/8/4 2174/6/4
f 2177/9/6 2178/7/6 2179/3/6
f 2177/9/6 2180/5/6 2178/7/6
f 2181/9/6 2182/7/6 2183/3/6
f 2181/9/6 2184/5/6 2182/7/6
f 2185/9/6 2186/7/6 2187/3/6
f 2185/9/6 2188/5/6 2186/7/6
f 2189/9/6 2190/7/6 2191/3/6
f 2189/9/6 2192/5/6 2190/7/6
f 2193/9/6 2194/7/6 2195/3/6
f 2193/9/6 2196/5/6 2194/7/6
f 2197/9/6 2198/7/6 2199/3/6
f 2197/9/6 2200/5/6 2198/7/6
f 2201/9/6 2202/7/6 2203/3/6
f 2201/9/6 2204/5/6 2202/7/6
f 2205/9/6 2206/7/6 2207/3/6
f 2205/9/6 2208/5/6 2206/7/6
f 2209/9/6 2210/7/6 2211/3/6
f 2209/9/6 2212/5/6 2210/7/6
f 2213/9/6 2214/7/6 2215/3/6
f 2213/9/6 2216/5/6 2214/7/6
f 2217/9/6 2218/7/6 2219/3/6
f 2217/9/6 2220/5/6 2218/7/6
f 2221/9/6 2222/7/6 2223/3/6
f 2221/9/6 2224/5/6 2222/7/6
f 2225/9/6 2226/7/6 2227/3/6
f 2225/9/6 2228/5/6 2226/7/6
f 2229/9/6 2230/7/6 2231/3/6
f 2229/9/6 2232/5/6 2230/7/6
f 2233/9/6 2234/7/6 2235/3/6
f 2233/9/6 2236/5/6 2234/7/6
f 2237/9/6 2238/7/6 2239/3/6
f 2237/9/6 2240/5/6 2238/7/6
f 2241/9/3 2242/7/3 2243/3/3
f 2241/9/3 2244/5/3 2242/7/3
f 2245/9/3 2246/7/3 2247/3/3
f 2245/9/3 2248/5/3 2246/7/3
f 2249/9/3 2250/7/3 2251/3/3
f 2249/9/3 2252/5/3 2250/7/3
f 2253/9/3 2254/7/3 2255/3/3
f 2253/9/3 2256/5/3 2254/7/3
f 2257/9/3 2258/7/3 2259/3/3
f 2257/9/3 2260/5/3 2258/7/3
f 2261/9/3 2262/7/3 2263/3/3
f 2261/9/3 2264/5/3 2262/7/3
f 2265/9/3 2266/7/3 2267/3/3
f 2265/9/3 2268/5/3 2266/7/3
f 2269/9/3 2270/7/3 2271/3/3
f 2269/9/3 2272/5/3 2270/7/3
f 2273/9/3 2274/7/3 2275/3/3
f 2273/9/3 2276/5/3 2274/7/3
f 2277/9/3 2278/7/3 2279/3/3
f 2277/9/3 2280/5/3 2278/7/3
f 2281/9/3 2282/7/3 2283/3/3
f 2281/9/3 2284/5/3 2282/7/3
f 2285/9/3 2286/7/3 2287/3/3
f 2285/9/3 2288/5/3 2286/7/3
f 2289/5/3 2290/6/3 2291/7/3
f 2289/5/3 2292/8/3 2290/6/3
f 2293/5/3 2294/6/3 2295/7/3
f 2293/5/3 2296/8/3 2294/6/3
f 2297/9/3 2298/7/3 2299/3/3
f 2297/9/3 2300/5/3 2298/7/3
f 2301/5/3 2302/6/3 2303/7/3
f 2301/5/3 2304/8/3 2302/6/3
