mtllib start_segment.mtl
o Default
v 1.1102230246251565e-16 1 -2
v 1.1102230246251565e-16 2 -2
v -1.1102230246251565e-16 2 -3
v 1.1102230246251565e-16 1 -3
v 2 4 -2
v 3 4 -1
v 2 4 -1
v 3 4 -2
v 2 4 -3
v 3 4 -2
v 2 4 -2
v 3 4 -3
v 1 4 -2
v 2 4 -1
v 1 4 -1
v 2 4 -2
v 1 4 -1
v 2 4 0
v 1 4 0
v 2 4 -1
v 2 4 -1
v 3 4 0
v 2 4 0
v 3 4 -1
v 3 4 -1
v 4 4 0
v 3 4 0
v 4 4 -1
v 3 4 -2
v 4 4 -1
v 3 4 -1
v 4 4 -2
v 3 4 -3
v 4 4 -2
v 3 4 -2
v 4 4 -3
v 3 4 -4
v 4 4 -3
v 3 4 -3
v 4 4 -4
v 2 4 -4
v 3 4 -3
v 2 4 -3
v 3 4 -4
v 1 4 -4
v 2 4 -3
v 1 4 -3
v 2 4 -4
v 0 4 -4
v 1 4 -3
v 0 4 -3
v 1 4 -4
v 0 4 -3
v 1 4 -2
v 0 4 -2
v 1 4 -3
v 0 4 -2
v 1 4 -1
v 0 4 -1
v 1 4 -2
v 0 4 -1
v 1 4 0
v 0 4 0
v 1 4 -1
v 1 4 -3
v 2 4 -2
v 1 4 -2
v 2 4 -3
v 1.1102230246251565e-16 1 -1
v 1.1102230246251565e-16 2 -2
v 1.1102230246251565e-16 2 -1
v 1.1102230246251565e-16 1 -2
v 1.1102230246251565e-16 2 -1
v 1.1102230246251565e-16 3 -2
v 1.1102230246251565e-16 3 -1
v 1.1102230246251565e-16 2 -2
v 1.1102230246251565e-16 2 -2
v 1.1102230246251565e-16 3 -3
v 1.1102230246251565e-16 3 -2
v -1.1102230246251565e-16 2 -3
v 1.1102230246251565e-16 1 -3
v 1.1102230246251565e-16 2 -4
v -1.1102230246251565e-16 2 -3
v 1.1102230246251565e-16 1 -4
v -1.1102230246251565e-16 2 -3
v 1.1102230246251565e-16 3 -4
v 1.1102230246251565e-16 3 -3
v 1.1102230246251565e-16 2 -4
v 1.1102230246251565e-16 3 -3
v 0 4 -4
v 0 4 -3
v 1.1102230246251565e-16 3 -4
v 1.1102230246251565e-16 3 -2
v 0 4 -3
v 0 4 -2
v 1.1102230246251565e-16 3 -3
v 1.1102230246251565e-16 3 -1
v 0 4 -2
v 0 4 -1
v 1.1102230246251565e-16 3 -2
v -1.1102230246251565e-16 3 0
v 0 4 -1
v 0 4 0
v 1.1102230246251565e-16 3 -1
v -1.1102230246251565e-16 2 0
v 1.1102230246251565e-16 3 -1
v -1.1102230246251565e-16 3 0
v 1.1102230246251565e-16 2 -1
v -1.1102230246251565e-16 1 0
v 1.1102230246251565e-16 2 -1
v -1.1102230246251565e-16 2 0
v 1.1102230246251565e-16 1 -1
v 0 0 -3
v 1.1102230246251565e-16 1 -4
v 1.1102230246251565e-16 1 -3
v 0 0 -4
v 0 0 -2
v 1.1102230246251565e-16 1 -3
v 1.1102230246251565e-16 1 -2
v 0 0 -3
v 0 0 -1
v 1.1102230246251565e-16 1 -2
v 1.1102230246251565e-16 1 -1
v 0 0 -2
v 0 0 0
v 1.1102230246251565e-16 1 -1
v -1.1102230246251565e-16 1 0
v 0 0 -1
v 2 0 -1
v 3 0 -2
v 2 0 -2
v 3 0 -1
v 3 0 -2
v 4 0 -3
v 3 0 -3
v 4 0 -2
v 3 0 -1
v 4 0 -2
v 3 0 -2
v 4 0 -1
v 3 0 0
v 4 0 -1
v 3 0 -1
v 4 0 0
v 2 0 -3
v 3 0 -4
v 2 0 -4
v 3 0 -3
v 3 0 -3
v 4 0 -4
v 3 0 -4
v 4 0 -3
v 1 0 -1
v 2 0 -2
v 1 0 -2
v 2 0 -1
v 2 0 0
v 3 0 -1
v 2 0 -1
v 3 0 0
v 1 0 -3
v 2 0 -4
v 1 0 -4
v 2 0 -3
v 2 0 -2
v 3 0 -3
v 2 0 -3
v 3 0 -2
v 1 0 -2
v 2 0 -3
v 1 0 -3
v 2 0 -2
v 1 0 0
v 2 0 -1
v 1 0 -1
v 2 0 0
v 0 0 -2
v 1 0 -3
v 0 0 -3
v 1 0 -2
v 0 0 -1
v 1 0 -2
v 0 0 -2
v 1 0 -1
v 0 0 -3
v 1 0 -4
v 0 0 -4
v 1 0 -3
v 0 0 0
v 1 0 -1
v 0 0 -1
v 1 0 0
v 4 0 -1
v 4 1 0
v 4 1 -1
v 4 0 0
v 4 1 -1
v 4 2 0
v 4 2 -1
v 4 1 0
v 4 2 -1
v 4 3 0
v 4 3 -1
v 4 2 0
v 4 3 -1
v 4 4 0
v 4 4 -1
v 4 3 0
v 4 3 -2
v 4 4 -1
v 4 4 -2
v 4 3 -1
v 4 3 -3
v 4 4 -2
v 4 4 -3
v 4 3 -2
v 4 3 -4
v 4 4 -3
v 4 4 -4
v 4 3 -3
v 4 2 -4
v 4 3 -3
v 4 3 -4
v 4 2 -3
v 4 1 -4
v 4 2 -3
v 4 2 -4
v 4 1 -3
v 4 0 -4
v 4 1 -3
v 4 1 -4
v 4 0 -3
v 4 0 -3
v 4 1 -2
v 4 1 -3
v 4 0 -2
v 4 0 -2
v 4 1 -1
v 4 1 -2
v 4 0 -1
v 4 2 -3
v 4 3 -2
v 4 3 -3
v 4 2 -2
v 4 1 -3
v 4 2 -2
v 4 2 -3
v 4 1 -2
v 4 1 -2
v 4 2 -1
v 4 2 -2
v 4 1 -1
v 4 2 -2
v 4 3 -1
v 4 3 -2
v 4 2 -1
v 4 0 0
v 3 1 1
v 4 1 0
v 3 0 0
v 3 0 0
v 2 1 1
v 3 1 1
v 2 0 0
v 2 0 0
v 1 1 1
v 2 1 1
v 1 0 0
v 3 1 1
v 2 2 2
v 3 2 1
v 2 1 1
v 1 1 1
v -1.1102230246251565e-16 2 0
v 1 2 1
v -1.1102230246251565e-16 1 0
v 1 2 1
v -1.1102230246251565e-16 3 0
v 1 3 1
v -1.1102230246251565e-16 2 0
v 2 2 2
v 1 3 1
v 2 3 1
v 1 2 1
v 2 3 1
v 1 4 0
v 2 4 0
v 1 3 1
v 3 3 1
v 2 4 0
v 3 4 0
v 2 3 1
v 1 3 1
v 0 4 0
v 1 4 0
v -1.1102230246251565e-16 3 0
v 4 2 0
v 3 3 1
v 4 3 0
v 3 2 1
v 4 1 0
v 3 2 1
v 4 2 0
v 3 1 1
v 2 2 2
v 1 1 1
v 1 2 1
v 2 1 1
v 3 3 1
v 2 2 2
v 2 3 1
v 3 2 1
v 1 1 1
v 0 0 0
v -1.1102230246251565e-16 1 0
v 1 0 0
v 4 4 0
v 3 3 1
v 3 4 0
v 4 3 0
vt 0.25 0.75
vt 0.5 1
vt 0.25 1
vt 0.5 0.75
vt 0 0.75
vt 0 1
vn 1 0 0
vn 0 -1 0
vn 0 1 0
vn -1 0 0
vn -0.70710678 0 -0.70710678
vn 0 0.70710678 -0.70710678
vn 0.70710678 0 -0.70710678
vn 0 -0.70710678 -0.70710678
g Scene
usemtl 0
f 1/1/1 3/2/1 2/3/1
f 1/1/1 4/4/1 3/2/1
f 5/1/2 6/2/2 7/3/2
f 5/1/2 8/4/2 6/2/2
f 9/1/2 10/2/2 11/3/2
f 9/1/2 12/4/2 10/2/2
f 13/1/2 14/2/2 15/3/2
f 13/1/2 16/4/2 14/2/2
f 17/5/2 18/3/2 19/6/2
f 17/5/2 20/1/2 18/3/2
f 21/5/2 22/3/2 23/6/2
f 21/5/2 24/1/2 22/3/2
f 25/5/2 26/3/2 27/6/2
f 25/5/2 28/1/2 26/3/2
f 29/5/2 30/3/2 31/6/2
f 29/5/2 32/1/2 30/3/2
f 33/5/2 34/3/2 35/6/2
f 33/5/2 36/1/2 34/3/2
f 37/5/2 38/3/2 39/6/2
f 37/5/2 40/1/2 38/3/2
f 41/5/2 42/3/2 43/6/2
f 41/5/2 44/1/2 42/3/2
f 45/5/2 46/3/2 47/6/2
f 45/5/2 48/1/2 46/3/2
f 49/5/2 50/3/2 51/6/2
f 49/5/2 52/1/2 50/3/2
f 53/5/2 54/3/2 55/6/2
f 53/5/2 56/1/2 54/3/2
f 57/5/2 58/3/2 59/6/2
f 57/5/2 60/1/2 58/3/2
f 61/5/2 62/3/2 63/6/2
f 61/5/2 64/1/2 62/3/2
f 65/1/2 66/2/2 67/3/2
f 65/1/2 68/4/2 66/2/2
f 69/1/1 70/2/1 71/3/1
f 69/1/1 72/4/1 70/2/1
f 73/1/1 74/2/1 75/3/1
f 73/1/1 76/4/1 74/2/1
f 77/1/1 78/2/1 79/3/1
f 77/1/1 80/4/1 78/2/1
f 81/5/1 82/3/1 83/6/1
f 81/5/1 84/1/1 82/3/1
f 85/5/1 86/3/1 87/6/1
f 85/5/1 88/1/1 86/3/1
f 89/5/1 90/3/1 91/6/1
f 89/5/1 92/1/1 90/3/1
f 93/5/1 94/3/1 95/6/1
f 93/5/1 96/1/1 94/3/1
f 97/5/1 98/3/1 99/6/1
f 97/5/1 100/1/1 98/3/1
f 101/5/1 102/3/1 103/6/1
f 101/5/1 104/1/1 102/3/1
f 105/5/1 106/3/1 107/6/1
f 105/5/1 108/1/1 106/3/1
f 109/5/1 110/3/1 111/6/1
f 109/5/1 112/1/1 110/3/1
f 113/5/1 114/3/1 115/6/1
f 113/5/1 116/1/1 114/3/1
f 117/5/1 118/3/1 119/6/1
f 117/5/1 120/1/1 118/3/1
f 121/5/1 122/3/1 123/6/1
f 121/5/1 124/1/1 122/3/1
f 125/5/1 126/3/1 127/6/1
f 125/5/1 128/1/1 126/3/1
f 129/1/3 130/2/3 131/3/3
f 129/1/3 132/4/3 130/2/3
f 133/5/3 134/3/3 135/6/3
f 133/5/3 136/1/3 134/3/3
f 137/5/3 138/3/3 139/6/3
f 137/5/3 140/1/3 138/3/3
f 141/5/3 142/3/3 143/6/3
f 141/5/3 144/1/3 142/3/3
f 145/5/3 146/3/3 147/6/3
f 145/5/3 148/1/3 146/3/3
f 149/5/3 150/3/3 151/6/3
f 149/5/3 152/1/3 150/3/3
f 153/1/3 154/2/3 155/3/3
f 153/1/3 156/4/3 154/2/3
f 157/5/3 158/3/3 159/6/3
f 157/5/3 160/1/3 158/3/3
f 161/5/3 162/3/3 163/6/3
f 161/5/3 164/1/3 162/3/3
f 165/1/3 166/2/3 167/3/3
f 165/1/3 168/4/3 166/2/3
f 169/1/3 170/2/3 171/3/3
f 169/1/3 172/4/3 170/2/3
f 173/5/3 174/3/3 175/6/3
f 173/5/3 176/1/3 174/3/3
f 177/5/3 178/3/3 179/6/3
f 177/5/3 180/1/3 178/3/3
f 181/5/3 182/3/3 183/6/3
f 181/5/3 184/1/3 182/3/3
f 185/5/3 186/3/3 187/6/3
f 185/5/3 188/1/3 186/3/3
f 189/5/3 190/3/3 191/6/3
f 189/5/3 192/1/3 190/3/3
f 193/5/4 194/3/4 195/6/4
f 193/5/4 196/1/4 194/3/4
f 197/5/4 198/3/4 199/6/4
f 197/5/4 200/1/4 198/3/4
f 201/5/4 202/3/4 203/6/4
f 201/5/4 204/1/4 202/3/4
f 205/5/4 206/3/4 207/6/4
f 205/5/4 208/1/4 206/3/4
f 209/5/4 210/3/4 211/6/4
f 209/5/4 212/1/4 210/3/4
f 213/5/4 214/3/4 215/6/4
f 213/5/4 216/1/4 214/3/4
f 217/5/4 218/3/4 219/6/4
f 217/5/4 220/1/4 218/3/4
f 221/5/4 222/3/4 223/6/4
f 221/5/4 224/1/4 222/3/4
f 225/5/4 226/3/4 227/6/4
f 225/5/4 228/1/4 226/3/4
f 229/5/4 230/3/4 231/6/4
f 229/5/4 232/1/4 230/3/4
f 233/5/4 234/3/4 235/6/4
f 233/5/4 236/1/4 234/3/4
f 237/5/4 238/3/4 239/6/4
f 237/5/4 240/1/4 238/3/4
f 241/1/4 242/2/4 243/3/4
f 241/1/4 244/4/4 242/2/4
f 245/1/4 246/2/4 247/3/4
f 245/1/4 248/4/4 246/2/4
f 249/1/4 250/2/4 251/3/4
f 249/1/4 252/4/4 250/2/4
f 253/1/4 254/2/4 255/3/4
f 253/1/4 256/4/4 254/2/4
f 257/5/5 258/3/5 259/6/5
f 257/5/6 260/1/6 258/3/6
f 261/5/6 262/3/6 263/6/6
f 261/5/6 264/1/6 262/3/6
f 265/5/6 266/3/6 267/6/6
f 265/5/6 268/1/6 266/3/6
f 269/5/5 270/3/5 271/6/5
f 269/5/6 272/1/6 270/3/6
f 273/5/7 274/3/7 275/6/7
f 273/5/7 276/1/7 274/3/7
f 277/5/7 278/3/7 279/6/7
f 277/5/7 280/1/7 278/3/7
f 281/5/8 282/3/8 283/6/8
f 281/5/7 284/1/7 282/3/7
f 285/5/8 286/3/8 287/6/8
f 285/5/8 288/1/8 286/3/8
f 289/5/8 290/3/8 291/6/8
f 289/5/8 292/1/8 290/3/8
f 293/5/8 294/3/8 295/6/8
f 293/5/7 296/1/7 294/3/7
f 297/5/5 298/3/5 299/6/5
f 297/5/5 300/1/5 298/3/5
f 301/5/5 302/3/5 303/6/5
f 301/5/5 304/1/5 302/3/5
f 305/5/7 306/3/7 307/6/7
f 305/5/6 308/1/6 306/3/6
f 309/5/8 310/3/8 311/6/8
f 309/5/5 312/1/5 310/3/5
f 313/5/7 314/3/7 315/6/7
f 313/5/6 316/1/6 314/3/6
f 317/5/8 318/3/8 319/6/8
f 317/5/5 320/1/5 318/3/5
