mtllib tutorial.mtl
o Default
v 0 0 0
v 0 0 -1
v 1 0 -1
v 1 0 0
v 1 0 0
v 2 0 -1
v 1 0 -1
v 2 0 0
v 2 0 0
v 3 0 -1
v 2 0 -1
v 3 0 0
v 3 0 0
v 4 0 -1
v 3 0 -1
v 4 0 0
v 3 0 -1
v 4 0 -2
v 3 0 -2
v 4 0 -1
v 1 0 -1
v 2 0 -2
v 1 0 -2
v 2 0 -1
v 0 0 -3
v 1 0 -4
v 0 0 -4
v 1 0 -3
v 0 0 -1
v 1 0 -2
v 0 0 -2
v 1 0 -1
v 0 0 -2
v 1 0 -3
v 0 0 -3
v 1 0 -2
v 2 0 -2
v 3 0 -3
v 2 0 -3
v 3 0 -2
v 2 0 -1
v 3 0 -2
v 2 0 -2
v 3 0 -1
v 3 0 -2
v 4 0 -3
v 3 0 -3
v 4 0 -2
v 3 0 -3
v 4 0 -4
v 3 0 -4
v 4 0 -3
v 2 0 -3
v 3 0 -4
v 2 0 -4
v 3 0 -3
v 1 0 -3
v 2 0 -4
v 1 0 -4
v 2 0 -3
v 1 0 -2
v 2 0 -3
v 1 0 -3
v 2 0 -2
v -1.1102230246251565e-16 1 -1
v 1.1102230246251565e-16 2 -2
v -1.1102230246251565e-16 2 -1
v 1.1102230246251565e-16 1 -2
v 1.1102230246251565e-16 1 -2
v 1.1102230246251565e-16 2 -3
v 1.1102230246251565e-16 2 -2
v 1.1102230246251565e-16 1 -3
v 1.1102230246251565e-16 2 -2
v 1.1102230246251565e-16 3 -3
v -1.1102230246251565e-16 3 -2
v 1.1102230246251565e-16 2 -3
v -1.1102230246251565e-16 2 -1
v -1.1102230246251565e-16 3 -2
v -1.1102230246251565e-16 3 -1
v 1.1102230246251565e-16 2 -2
v 0 0 0
v -1.1102230246251565e-16 1 -1
v -1.1102230246251565e-16 1 0
v 0 0 -1
v 0 0 -1
v 1.1102230246251565e-16 1 -2
v -1.1102230246251565e-16 1 -1
v 0 0 -2
v 0 0 -2
v 1.1102230246251565e-16 1 -3
v 1.1102230246251565e-16 1 -2
v 0 0 -3
v 0 0 -3
v 1.1102230246251565e-16 1 -4
v 1.1102230246251565e-16 1 -3
v 0 0 -4
v 1.1102230246251565e-16 1 -3
v 1.1102230246251565e-16 2 -4
v 1.1102230246251565e-16 2 -3
v 1.1102230246251565e-16 1 -4
v 1.1102230246251565e-16 2 -3
v 1.1102230246251565e-16 3 -4
v 1.1102230246251565e-16 3 -3
v 1.1102230246251565e-16 2 -4
v 1.1102230246251565e-16 3 -3
v 1.1102230246251565e-16 4 -4
v -1.1102230246251565e-16 4 -3
v 1.1102230246251565e-16 3 -4
v -1.1102230246251565e-16 3 -2
v -1.1102230246251565e-16 4 -3
v -1.1102230246251565e-16 4 -2
v 1.1102230246251565e-16 3 -3
v -1.1102230246251565e-16 3 -1
v -1.1102230246251565e-16 4 -2
v -1.1102230246251565e-16 4 -1
v -1.1102230246251565e-16 3 -2
v -1.1102230246251565e-16 3 0
v -1.1102230246251565e-16 4 -1
v -1.1102230246251565e-16 4 0
v -1.1102230246251565e-16 3 -1
v -1.1102230246251565e-16 2 0
v -1.1102230246251565e-16 3 -1
v -1.1102230246251565e-16 3 0
v -1.1102230246251565e-16 2 -1
v -1.1102230246251565e-16 1 0
v -1.1102230246251565e-16 2 -1
v -1.1102230246251565e-16 2 0
v -1.1102230246251565e-16 1 -1
v 4 0 -4
v 4 1 -3
v 4 1 -4
v 4 0 -3
v 4 0 -3
v 4 1 -2
v 4 1 -3
v 4 0 -2
v 4 0 -1
v 4 1 0
v 4 1 -1
v 4 0 0
v 4 0 -2
v 4 1 -1
v 4 1 -2
v 4 0 -1
v 4 1 -1
v 4 2 0
v 4 2 -1
v 4 1 0
v 4 2 -1
v 4 3 0
v 4 3 -1
v 4 2 0
v 4 3 -1
v 4 4 0
v 4 4 -1
v 4 3 0
v 4 3 -2
v 4 4 -1
v 4 4 -2
v 4 3 -1
v 4 3 -3
v 4 4 -2
v 4 4 -3
v 4 3 -2
v 4 3 -4
v 4 4 -3
v 4 4 -4
v 4 3 -3
v 4 2 -4
v 4 3 -3
v 4 3 -4
v 4 2 -3
v 4 1 -4
v 4 2 -3
v 4 2 -4
v 4 1 -3
v 4 2 -2
v 4 3 -1
v 4 3 -2
v 4 2 -1
v 4 1 -3
v 4 2 -2
v 4 2 -3
v 4 1 -2
v 4 2 -3
v 4 3 -2
v 4 3 -3
v 4 2 -2
v 4 1 -2
v 4 2 -1
v 4 2 -2
v 4 1 -1
v 3 4 -1
v 4 4 0
v 3 4 0
v 4 4 -1
v 2 4 -1
v 3 4 0
v 2 4 0
v 3 4 -1
v 1 4 -1
v 2 4 0
v 1 4 0
v 2 4 -1
v -1.1102230246251565e-16 4 -1
v 1 4 0
v -1.1102230246251565e-16 4 0
v 1 4 -1
v -1.1102230246251565e-16 4 -2
v 1 4 -1
v -1.1102230246251565e-16 4 -1
v 1 4 -2
v -1.1102230246251565e-16 4 -3
v 1 4 -2
v -1.1102230246251565e-16 4 -2
v 1 4 -3
v 1.1102230246251565e-16 4 -4
v 1 4 -3
v -1.1102230246251565e-16 4 -3
v 1 4 -4
v 1 4 -4
v 2 4 -3
v 1 4 -3
v 2 4 -4
v 2 4 -4
v 3 4 -3
v 2 4 -3
v 3 4 -4
v 3 4 -4
v 4 4 -3
v 3 4 -3
v 4 4 -4
v 3 4 -3
v 4 4 -2
v 3 4 -2
v 4 4 -3
v 3 4 -2
v 4 4 -1
v 3 4 -1
v 4 4 -2
v 2 4 -3
v 3 4 -2
v 2 4 -2
v 3 4 -3
v 2 4 -2
v 3 4 -1
v 2 4 -1
v 3 4 -2
v 1 4 -2
v 2 4 -1
v 1 4 -1
v 2 4 -2
v 1 4 -3
v 2 4 -2
v 1 4 -2
v 2 4 -3
v 4 3 0
v 3 4 0
v 4 4 0
v 3 3 0
v 3 3 0
v 2 4 0
v 3 4 0
v 2 3 0
v 1 3 0
v -1.1102230246251565e-16 4 0
v 1 4 0
v -1.1102230246251565e-16 3 0
v 2 3 0
v 1 4 0
v 2 4 0
v 1 3 0
v 1 2 0
v -1.1102230246251565e-16 3 0
v 1 3 0
v -1.1102230246251565e-16 2 0
v 4 2 0
v 3 3 0
v 4 3 0
v 3 2 0
v 1 0 0
v -1.1102230246251565e-16 1 0
v 1 1 0
v 0 0 0
v 1 1 0
v -1.1102230246251565e-16 2 0
v 1 2 0
v -1.1102230246251565e-16 1 0
v 3 2 0
v 2 3 0
v 3 3 0
v 2 2 0
v 2 2 0
v 1 3 0
v 2 3 0
v 1 2 0
v 4 0 0
v 3 1 0
v 4 1 0
v 3 0 0
v 4 1 0
v 3 2 0
v 4 2 0
v 3 1 0
v 3 1 0
v 2 2 0
v 3 2 0
v 2 1 0
v 3 0 0
v 2 1 0
v 3 1 0
v 2 0 0
v 2 1 0
v 1 2 0
v 2 2 0
v 1 1 0
v 2 0 0
v 1 1 0
v 2 1 0
v 1 0 0
v 4 3 -5
v 4 4 -4
v 4 4 -5
v 4 3 -4
v 4 2 -5
v 4 3 -4
v 4 3 -5
v 4 2 -4
v 4 1 -5
v 4 2 -4
v 4 2 -5
v 4 1 -4
v 4 0 -5
v 4 1 -4
v 4 1 -5
v 4 0 -4
v 4 3 -6
v 4 4 -5
v 4 4 -6
v 4 3 -5
v 4 2 -6
v 4 3 -5
v 4 3 -6
v 4 2 -5
v 4 1 -6
v 4 2 -5
v 4 2 -6
v 4 1 -5
v 4 0 -6
v 4 1 -5
v 4 1 -6
v 4 0 -5
v 4 3 -7
v 4 4 -6
v 4 4 -7
v 4 3 -6
v 4 2 -7
v 4 3 -6
v 4 3 -7
v 4 2 -6
v 4 1 -7
v 4 2 -6
v 4 2 -7
v 4 1 -6
v 4 0 -7
v 4 1 -6
v 4 1 -7
v 4 0 -6
v 4 3 -8
v 4 4 -7
v 4 4 -8
v 4 3 -7
v 4 2 -8
v 4 3 -7
v 4 3 -8
v 4 2 -7
v 4 1 -8
v 4 2 -7
v 4 2 -8
v 4 1 -7
v 4 0 -8
v 4 1 -7
v 4 1 -8
v 4 0 -7
v 3 4 -5
v 4 4 -4
v 3 4 -4
v 4 4 -5
v 2 4 -5
v 3 4 -4
v 2 4 -4
v 3 4 -5
v 1 4 -5
v 2 4 -4
v 1 4 -4
v 2 4 -5
v 0 4 -5
v 1 4 -4
v 1.1102230246251565e-16 4 -4
v 1 4 -5
v 0 4 -6
v 1 4 -5
v 0 4 -5
v 1 4 -6
v 0 4 -7
v 1 4 -6
v 0 4 -6
v 1 4 -7
v 0 4 -8
v 1 4 -7
v 0 4 -7
v 1 4 -8
v 1 4 -8
v 2 4 -7
v 1 4 -7
v 2 4 -8
v 2 4 -8
v 3 4 -7
v 2 4 -7
v 3 4 -8
v 3 4 -8
v 4 4 -7
v 3 4 -7
v 4 4 -8
v 3 4 -7
v 4 4 -6
v 3 4 -6
v 4 4 -7
v 3 4 -6
v 4 4 -5
v 3 4 -5
v 4 4 -6
v 2 4 -6
v 3 4 -5
v 2 4 -5
v 3 4 -6
v 1 4 -6
v 2 4 -5
v 1 4 -5
v 2 4 -6
v 1 4 -7
v 2 4 -6
v 1 4 -6
v 2 4 -7
v 2 4 -7
v 3 4 -6
v 2 4 -6
v 3 4 -7
v 1.1102230246251565e-16 3 -4
v 0 4 -5
v 1.1102230246251565e-16 4 -4
v 1.1102230246251565e-16 3 -5
v -1.1102230246251565e-16 3 -6
v 0 4 -7
v 0 4 -6
v 1.1102230246251565e-16 3 -7
v 1.1102230246251565e-16 3 -7
v 0 4 -8
v 0 4 -7
v 1.1102230246251565e-16 3 -8
v 1.1102230246251565e-16 3 -5
v 0 4 -6
v 0 4 -5
v -1.1102230246251565e-16 3 -6
v -1.1102230246251565e-16 2 -5
v -1.1102230246251565e-16 3 -6
v 1.1102230246251565e-16 3 -5
v 1.1102230246251565e-16 2 -6
v 1.1102230246251565e-16 2 -4
v 1.1102230246251565e-16 3 -5
v 1.1102230246251565e-16 3 -4
v -1.1102230246251565e-16 2 -5
v 1.1102230246251565e-16 1 -4
v -1.1102230246251565e-16 2 -5
v 1.1102230246251565e-16 2 -4
v 1.1102230246251565e-16 1 -5
v 0 0 -4
v 1.1102230246251565e-16 1 -5
v 1.1102230246251565e-16 1 -4
v 1.1102230246251565e-16 0 -5
v 1.1102230246251565e-16 0 -5
v 1.1102230246251565e-16 1 -6
v 1.1102230246251565e-16 1 -5
v 1.1102230246251565e-16 0 -6
v 1.1102230246251565e-16 0 -6
v 1.1102230246251565e-16 1 -7
v 1.1102230246251565e-16 1 -6
v 1.1102230246251565e-16 0 -7
v 1.1102230246251565e-16 0 -7
v 1.1102230246251565e-16 1 -8
v 1.1102230246251565e-16 1 -7
v 1.1102230246251565e-16 0 -8
v 1.1102230246251565e-16 1 -7
v 1.1102230246251565e-16 2 -8
v -1.1102230246251565e-16 2 -7
v 1.1102230246251565e-16 1 -8
v -1.1102230246251565e-16 2 -7
v 1.1102230246251565e-16 3 -8
v 1.1102230246251565e-16 3 -7
v 1.1102230246251565e-16 2 -8
v 1.1102230246251565e-16 2 -6
v 1.1102230246251565e-16 3 -7
v -1.1102230246251565e-16 3 -6
v -1.1102230246251565e-16 2 -7
v 1.1102230246251565e-16 1 -5
v 1.1102230246251565e-16 2 -6
v -1.1102230246251565e-16 2 -5
v 1.1102230246251565e-16 1 -6
v 1.1102230246251565e-16 1 -6
v -1.1102230246251565e-16 2 -7
v 1.1102230246251565e-16 2 -6
v 1.1102230246251565e-16 1 -7
v 3 0 -4
v 4 0 -5
v 3 0 -5
v 4 0 -4
v 2 0 -4
v 3 0 -5
v 2 0 -5
v 3 0 -4
v 1 0 -4
v 2 0 -5
v 1 0 -5
v 2 0 -4
v 0 0 -4
v 1 0 -5
v 1.1102230246251565e-16 0 -5
v 1 0 -4
v 1.1102230246251565e-16 0 -5
v 1 0 -6
v 1.1102230246251565e-16 0 -6
v 1 0 -5
v 1.1102230246251565e-16 0 -6
v 1 0 -7
v 1.1102230246251565e-16 0 -7
v 1 0 -6
v 1.1102230246251565e-16 0 -7
v 1 0 -8
v 1.1102230246251565e-16 0 -8
v 1 0 -7
v 1 0 -7
v 2 0 -8
v 1 0 -8
v 2 0 -7
v 2 0 -7
v 3 0 -8
v 2 0 -8
v 3 0 -7
v 2 0 -6
v 3 0 -7
v 2 0 -7
v 3 0 -6
v 3 0 -6
v 4 0 -7
v 3 0 -7
v 4 0 -6
v 3 0 -5
v 4 0 -6
v 3 0 -6
v 4 0 -5
v 3 0 -7
v 4 0 -8
v 3 0 -8
v 4 0 -7
v 1 0 -6
v 2 0 -7
v 1 0 -7
v 2 0 -6
v 1 0 -5
v 2 0 -6
v 1 0 -6
v 2 0 -5
v 2 0 -5
v 3 0 -6
v 2 0 -6
v 3 0 -5
v 1 0 -8
v 2 0 -9
v 1 0 -9
v 2 0 -8
v 2 0 -9
v 3 0 -10
v 2 0 -10
v 3 0 -9
v 1 0 -9
v 2 0 -10
v 1 0 -10
v 2 0 -9
v 2 4 -11
v 3 4 -10
v 2 4 -10
v 3 4 -11
v -1 0 -8
v 0 0 -9
v -1 0 -9
v 1.1102230246251565e-16 0 -8
v -2 0 -8
v -1 0 -9
v -2 0 -9
v -1 0 -8
v -3 0 -8
v -2 0 -9
v -3 0 -9
v -2 0 -8
v -4 0 -8
v -3 0 -9
v -4 0 -9
v -3 0 -8
v -4 0 -9
v -3 0 -10
v -4 0 -10
v -3 0 -9
v -4 0 -10
v -3 0 -11
v -4 0 -11
v -3 0 -10
v -4 0 -11
v -3 0 -12
v -4 0 -12
v -3 0 -11
v -3 0 -11
v -2 0 -12
v -3 0 -12
v -2 0 -11
v -2 0 -11
v -1 0 -12
v -2 0 -12
v -1 0 -11
v -1 0 -11
v 0 0 -12
v -1 0 -12
v 0 0 -11
v -1 0 -10
v 0 0 -11
v -1 0 -11
v 0 0 -10
v -1 0 -9
v 0 0 -10
v -1 0 -10
v 0 0 -9
v -2 0 -9
v -1 0 -10
v -2 0 -10
v -1 0 -9
v -2 0 -10
v -1 0 -11
v -2 0 -11
v -1 0 -10
v -3 0 -10
v -2 0 -11
v -3 0 -11
v -2 0 -10
v -3 0 -9
v -2 0 -10
v -3 0 -10
v -2 0 -9
v 1.1102230246251565e-16 0 -8
v -1 1 -8
v 1.1102230246251565e-16 1 -8
v -1 0 -8
v 1.1102230246251565e-16 1 -8
v -1 2 -8
v 1.1102230246251565e-16 2 -8
v -1 1 -8
v 1.1102230246251565e-16 2 -8
v -1 3 -8
v 1.1102230246251565e-16 3 -8
v -1 2 -8
v 1.1102230246251565e-16 3 -8
v -1 4 -8
v 0 4 -8
v -1 3 -8
v -1 3 -8
v -2 4 -8
v -1 4 -8
v -2 3 -8
v -1 2 -8
v -2 3 -8
v -1 3 -8
v -2 2 -8
v -1 1 -8
v -2 2 -8
v -1 2 -8
v -2 1 -8
v -2 1 -8
v -3 2 -8
v -2 2 -8
v -3 1 -8
v -2 0 -8
v -3 1 -8
v -2 1 -8
v -3 0 -8
v -1 0 -8
v -2 1 -8
v -1 1 -8
v -2 0 -8
v -3 1 -8
v -4 2 -8
v -3 2 -8
v -4 1 -8
v -3 2 -8
v -4 3 -8
v -3 3 -8
v -4 2 -8
v -2 3 -8
v -3 4 -8
v -2 4 -8
v -3 3 -8
v -3 0 -8
v -4 1 -8
v -3 1 -8
v -4 0 -8
v -2 2 -8
v -3 3 -8
v -2 3 -8
v -3 2 -8
v -3 3 -8
v -4 4 -8
v -3 4 -8
v -4 3 -8
v 4 0 -9
v 4 1 -8
v 4 1 -9
v 4 0 -8
v 4 1 -9
v 4 2 -8
v 4 2 -9
v 4 1 -8
v 4 2 -9
v 4 3 -8
v 4 3 -9
v 4 2 -8
v 4 3 -9
v 4 4 -8
v 4 4 -9
v 4 3 -8
v 4 0 -10
v 4 1 -9
v 4 1 -10
v 4 0 -9
v 4 1 -10
v 4 2 -9
v 4 2 -10
v 4 1 -9
v 4 2 -10
v 4 3 -9
v 4 3 -10
v 4 2 -9
v 4 3 -10
v 4 4 -9
v 4 4 -10
v 4 3 -9
v 4 0 -11
v 4 1 -10
v 4 1 -11
v 4 0 -10
v 4 1 -11
v 4 2 -10
v 4 2 -11
v 4 1 -10
v 4 2 -11
v 4 3 -10
v 4 3 -11
v 4 2 -10
v 4 3 -11
v 4 4 -10
v 4 4 -11
v 4 3 -10
v 4 0 -12
v 4 1 -11
v 4 1 -12
v 4 0 -11
v 4 1 -12
v 4 2 -11
v 4 2 -12
v 4 1 -11
v 4 2 -12
v 4 3 -11
v 4 3 -12
v 4 2 -11
v 4 3 -12
v 4 4 -11
v 4 4 -12
v 4 3 -11
v 3 0 -10
v 4 0 -11
v 3 0 -11
v 4 0 -10
v 1 0 -11
v 2 0 -12
v 1 0 -12
v 2 0 -11
v 1 0 -10
v 2 0 -11
v 1 0 -11
v 2 0 -10
v 3 0 -11
v 4 0 -12
v 3 0 -12
v 4 0 -11
v 2 0 -11
v 3 0 -12
v 2 0 -12
v 3 0 -11
v 0 0 -10
v 1 0 -11
v 0 0 -11
v 1 0 -10
v 0 0 -9
v 1 0 -10
v 0 0 -10
v 1 0 -9
v 1.1102230246251565e-16 0 -8
v 1 0 -9
v 0 0 -9
v 1 0 -8
v 2 0 -8
v 3 0 -9
v 2 0 -9
v 3 0 -8
v 3 0 -9
v 4 0 -10
v 3 0 -10
v 4 0 -9
v 3 0 -8
v 4 0 -9
v 3 0 -9
v 4 0 -8
v 2 0 -10
v 3 0 -11
v 2 0 -11
v 3 0 -10
v 3 3 -12
v 4 4 -12
v 3 4 -12
v 4 3 -12
v 2 3 -12
v 3 4 -12
v 2 4 -12
v 3 3 -12
v 0 3 -12
v 1 4 -12
v 0 4 -12
v 1 3 -12
v -1 3 -12
v 0 4 -12
v -1 4 -12
v 0 3 -12
v -2 3 -12
v -1 4 -12
v -2 4 -12
v -1 3 -12
v -3 3 -12
v -2 4 -12
v -3 4 -12
v -2 3 -12
v -4 3 -12
v -3 4 -12
v -4 4 -12
v -3 3 -12
v -4 2 -12
v -3 3 -12
v -4 3 -12
v -3 2 -12
v -4 1 -12
v -3 2 -12
v -4 2 -12
v -3 1 -12
v -4 0 -12
v -3 1 -12
v -4 1 -12
v -3 0 -12
v -3 0 -12
v -2 1 -12
v -3 1 -12
v -2 0 -12
v -2 0 -12
v -1 1 -12
v -2 1 -12
v -1 0 -12
v -1 0 -12
v 0 1 -12
v -1 1 -12
v 0 0 -12
v 0 0 -12
v 1 1 -12
v 0 1 -12
v 1 0 -12
v -8 -1 -12
v -7 0 -12
v -8 0 -12
v -7 -1 -12
v 2 0 -12
v 3 1 -12
v 2 1 -12
v 3 0 -12
v 3 0 -12
v 4 1 -12
v 3 1 -12
v 4 0 -12
v 3 1 -12
v 4 2 -12
v 3 2 -12
v 4 1 -12
v 3 2 -12
v 4 3 -12
v 3 3 -12
v 4 2 -12
v 1 2 -12
v 2 3 -12
v 1 3 -12
v 2 2 -12
v 1 3 -12
v 2 4 -12
v 1 4 -12
v 2 3 -12
v 2 2 -12
v 3 3 -12
v 2 3 -12
v 3 2 -12
v 2 1 -12
v 3 2 -12
v 2 2 -12
v 3 1 -12
v 1 1 -12
v 2 2 -12
v 1 2 -12
v 2 1 -12
v 0 1 -12
v 1 2 -12
v 0 2 -12
v 1 1 -12
v -1 1 -12
v 0 2 -12
v -1 2 -12
v 0 1 -12
v -2 1 -12
v -1 2 -12
v -2 2 -12
v -1 1 -12
v -3 1 -12
v -2 2 -12
v -3 2 -12
v -2 1 -12
v -3 2 -12
v -2 3 -12
v -3 3 -12
v -2 2 -12
v -2 2 -12
v -1 3 -12
v -2 3 -12
v -1 2 -12
v -1 2 -12
v 0 3 -12
v -1 3 -12
v 0 2 -12
v 0 2 -12
v 1 3 -12
v 0 3 -12
v 1 2 -12
v -5 0 -12
v -4 1 -12
v -5 1 -12
v -4 0 -12
v -5 1 -12
v -4 2 -12
v -5 2 -12
v -4 1 -12
v -5 2 -12
v -4 3 -12
v -5 3 -12
v -4 2 -12
v -5 3 -12
v -4 4 -12
v -5 4 -12
v -4 3 -12
v -6 3 -12
v -5 4 -12
v -6 4 -12
v -5 3 -12
v -6 2 -12
v -5 3 -12
v -6 3 -12
v -5 2 -12
v -6 1 -12
v -5 2 -12
v -6 2 -12
v -5 1 -12
v -6 0 -12
v -5 1 -12
v -6 1 -12
v -5 0 -12
v -7 0 -12
v -6 1 -12
v -7 1 -12
v -6 0 -12
v -7 1 -12
v -6 2 -12
v -7 2 -12
v -6 1 -12
v -7 2 -12
v -6 3 -12
v -7 3 -12
v -6 2 -12
v -7 3 -12
v -6 4 -12
v -7 4 -12
v -6 3 -12
v -8 3 -12
v -7 4 -12
v -8 4 -12
v -7 3 -12
v -8 2 -12
v -7 3 -12
v -8 3 -12
v -7 2 -12
v -8 1 -12
v -7 2 -12
v -8 2 -12
v -7 1 -12
v -8 0 -12
v -7 1 -12
v -8 1 -12
v -7 0 -12
v -8 4 -12
v -7 4 -11
v -8 4 -11
v -7 4 -12
v -7 4 -12
v -6 4 -11
v -7 4 -11
v -6 4 -12
v -6 4 -12
v -5 4 -11
v -6 4 -11
v -5 4 -12
v -5 4 -12
v -4 4 -11
v -5 4 -11
v -4 4 -12
v -4 4 -12
v -3 4 -11
v -4 4 -11
v -3 4 -12
v -3 4 -12
v -2 4 -11
v -3 4 -11
v -2 4 -12
v -2 4 -12
v -1 4 -11
v -2 4 -11
v -1 4 -12
v -1 4 -12
v 0 4 -11
v -1 4 -11
v 0 4 -12
v 1 4 -11
v 2 4 -10
v 1 4 -10
v 2 4 -11
v 0 4 -11
v 1 4 -10
v 0 4 -10
v 1 4 -11
v 1 4 -12
v 2 4 -11
v 1 4 -11
v 2 4 -12
v 2 4 -12
v 3 4 -11
v 2 4 -11
v 3 4 -12
v 3 4 -10
v 4 4 -9
v 3 4 -9
v 4 4 -10
v 2 4 -9
v 3 4 -8
v 2 4 -8
v 3 4 -9
v 3 4 -11
v 4 4 -10
v 3 4 -10
v 4 4 -11
v 1 4 -10
v 2 4 -9
v 1 4 -9
v 2 4 -10
v -8 3 -11
v -8 4 -12
v -8 4 -11
v -8 3 -12
v 1 4 -9
v 2 4 -8
v 1 4 -8
v 2 4 -9
v 0 4 -9
v 1 4 -8
v 0 4 -8
v 1 4 -9
v 0 4 -12
v 1 4 -11
v 0 4 -11
v 1 4 -12
v 3 4 -12
v 4 4 -11
v 3 4 -11
v 4 4 -12
v 2 4 -10
v 3 4 -9
v 2 4 -9
v 3 4 -10
v 3 4 -9
v 4 4 -8
v 3 4 -8
v 4 4 -9
v 0 4 -10
v 1 4 -9
v 0 4 -9
v 1 4 -10
v -1 4 -11
v 0 4 -10
v -1 4 -10
v 0 4 -11
v -2 4 -11
v -1 4 -10
v -2 4 -10
v -1 4 -11
v -3 4 -11
v -2 4 -10
v -3 4 -10
v -2 4 -11
v -7 4 -11
v -6 4 -10
v -7 4 -10
v -6 4 -11
v -8 4 -11
v -7 4 -10
v -8 4 -10
v -7 4 -11
v -6 4 -11
v -5 4 -10
v -6 4 -10
v -5 4 -11
v -5 4 -11
v -4 4 -10
v -5 4 -10
v -4 4 -11
v -4 4 -11
v -3 4 -10
v -4 4 -10
v -3 4 -11
v -1 4 -10
v 0 4 -9
v -1 4 -9
v 0 4 -10
v -2 4 -10
v -1 4 -9
v -2 4 -9
v -1 4 -10
v -4 4 -10
v -3 4 -9
v -4 4 -9
v -3 4 -10
v -5 4 -10
v -4 4 -9
v -5 4 -9
v -4 4 -10
v -6 4 -10
v -5 4 -9
v -6 4 -9
v -5 4 -10
v -7 4 -10
v -6 4 -9
v -7 4 -9
v -6 4 -10
v -8 4 -10
v -7 4 -9
v -8 4 -9
v -7 4 -10
v -3 4 -10
v -2 4 -9
v -3 4 -9
v -2 4 -10
v -1 4 -9
v 0 4 -8
v -1 4 -8
v 0 4 -9
v -2 4 -9
v -1 4 -8
v -2 4 -8
v -1 4 -9
v -3 4 -9
v -2 4 -8
v -3 4 -8
v -2 4 -9
v -5 4 -9
v -4 4 -8
v -5 4 -8
v -4 4 -9
v -6 4 -9
v -5 4 -8
v -6 4 -8
v -5 4 -9
v -7 4 -9
v -6 4 -8
v -7 4 -8
v -6 4 -9
v -8 4 -9
v -7 4 -8
v -8 4 -8
v -7 4 -9
v -4 4 -9
v -3 4 -8
v -4 4 -8
v -3 4 -9
v -4 3 -8
v -5 4 -8
v -4 4 -8
v -5 3 -8
v -5 3 -8
v -6 4 -8
v -5 4 -8
v -6 3 -8
v -6 3 -8
v -7 4 -8
v -6 4 -8
v -7 3 -8
v -7 3 -8
v -8 4 -8
v -7 4 -8
v -8 3 -8
v -7 2 -8
v -8 3 -8
v -7 3 -8
v -8 2 -8
v -7 1 -8
v -8 2 -8
v -7 2 -8
v -8 1 -8
v -7 0 -8
v -8 1 -8
v -7 1 -8
v -8 0 -8
v -6 0 -8
v -7 1 -8
v -6 1 -8
v -7 0 -8
v -5 0 -8
v -6 1 -8
v -5 1 -8
v -6 0 -8
v -4 0 -8
v -5 1 -8
v -4 1 -8
v -5 0 -8
v -4 1 -8
v -5 2 -8
v -4 2 -8
v -5 1 -8
v -4 2 -8
v -5 3 -8
v -4 3 -8
v -5 2 -8
v -5 2 -8
v -6 3 -8
v -5 3 -8
v -6 2 -8
v -5 1 -8
v -6 2 -8
v -5 2 -8
v -6 1 -8
v -6 1 -8
v -7 2 -8
v -6 2 -8
v -7 1 -8
v -6 2 -8
v -7 3 -8
v -6 3 -8
v -7 2 -8
v -8 3 -9
v -8 4 -10
v -8 4 -9
v -8 3 -10
v -8 3 -8
v -8 4 -9
v -8 4 -8
v -8 3 -9
v -8 2 -8
v -8 3 -9
v -8 3 -8
v -8 2 -9
v -8 1 -10
v -8 2 -11
v -8 2 -10
v -8 1 -11
v -8 1 -9
v -8 2 -10
v -8 2 -9
v -8 1 -10
v -8 0 -9
v -8 1 -10
v -8 1 -9
v -8 0 -10
v -8 0 -10
v -8 1 -11
v -8 1 -10
v -8 0 -11
v -8 0 -11
v -8 1 -12
v -8 1 -11
v -8 0 -12
v -8 1 -11
v -8 2 -12
v -8 2 -11
v -8 1 -12
v -8 0 -8
v -8 1 -9
v -8 1 -8
v -8 0 -9
v -8 2 -10
v -8 3 -11
v -8 3 -10
v -8 2 -11
v -8 3 -10
v -8 4 -11
v -8 4 -10
v -8 3 -11
v -8 1 -8
v -8 2 -9
v -8 2 -8
v -8 1 -9
v -8 2 -9
v -8 3 -10
v -8 3 -9
v -8 2 -10
v -8 2 -11
v -8 3 -12
v -8 3 -11
v -8 2 -12
v 0 0 -11
v 1 0 -12
v 0 0 -12
v 1 0 -11
v -4 -1 -8
v -5 0 -8
v -4 0 -8
v -5 -1 -8
v -5 -1 -8
v -6 0 -8
v -5 0 -8
v -6 -1 -8
v -6 -1 -8
v -7 0 -8
v -6 0 -8
v -7 -1 -8
v -7 -1 -8
v -8 0 -8
v -7 0 -8
v -8 -1 -8
v -4 -1 -9
v -4 0 -8
v -4 0 -9
v -4 -1 -8
v -4 -1 -10
v -4 0 -9
v -4 0 -10
v -4 -1 -9
v -4 -1 -11
v -4 0 -10
v -4 0 -11
v -4 -1 -10
v -4 -1 -12
v -4 0 -11
v -4 0 -12
v -4 -1 -11
v -5 -1 -12
v -4 0 -12
v -5 0 -12
v -4 -1 -12
v -6 -1 -12
v -5 0 -12
v -6 0 -12
v -5 -1 -12
v -7 -1 -12
v -6 0 -12
v -7 0 -12
v -6 -1 -12
v 1 0 -12
v 2 1 -12
v 1 1 -12
v 2 0 -12
v -8 -1 -8
v -8 0 -9
v -8 0 -8
v -8 -1 -9
v -8 -1 -9
v -8 0 -10
v -8 0 -9
v -8 -1 -10
v -8 -1 -10
v -8 0 -11
v -8 0 -10
v -8 -1 -11
v -8 -1 -11
v -8 0 -12
v -8 0 -11
v -8 -1 -12
vt 0 0.9375
vt 0.0625 1
vt 0 1
vt 0.0625 0.9375
vt 0.25 0.75
vt 0.5 1
vt 0.25 1
vt 0.5 0.75
vt 0 0.75
vt 0 0.5
vt 0.5 0.5
vt 0 0
vt 0.5 0
vt 1 1
vt 1 0.5
vt 1 0
vn 0 1 0
vn 1 0 0
vn -1 0 0
vn 0 -1 0
vn 0 0 -1
vn 0 0 1
g Scene
usemtl 0
f 1/1/1 3/2/1 2/3/1
f 1/1/1 4/4/1 3/2/1
f 5/1/1 6/2/1 7/3/1
f 5/1/1 8/4/1 6/2/1
f 9/1/1 10/2/1 11/3/1
f 9/1/1 12/4/1 10/2/1
f 13/1/1 14/2/1 15/3/1
f 13/1/1 16/4/1 14/2/1
f 17/1/1 18/2/1 19/3/1
f 17/1/1 20/4/1 18/2/1
f 21/5/1 22/6/1 23/7/1
f 21/5/1 24/8/1 22/6/1
f 25/1/1 26/2/1 27/3/1
f 25/1/1 28/4/1 26/2/1
f 29/1/1 30/2/1 31/3/1
f 29/1/1 32/4/1 30/2/1
f 33/1/1 34/2/1 35/3/1
f 33/1/1 36/4/1 34/2/1
f 37/5/1 38/6/1 39/7/1
f 37/5/1 40/8/1 38/6/1
f 41/5/1 42/6/1 43/7/1
f 41/5/1 44/8/1 42/6/1
f 45/1/1 46/2/1 47/3/1
f 45/1/1 48/4/1 46/2/1
f 49/1/1 50/2/1 51/3/1
f 49/1/1 52/4/1 50/2/1
f 53/1/1 54/2/1 55/3/1
f 53/1/1 56/4/1 54/2/1
f 57/1/1 58/2/1 59/3/1
f 57/1/1 60/4/1 58/2/1
f 61/5/1 62/6/1 63/7/1
f 61/5/1 64/8/1 62/6/1
f 65/5/2 66/6/2 67/7/2
f 65/5/2 68/8/2 66/6/2
f 69/5/2 70/6/2 71/7/2
f 69/5/2 72/8/2 70/6/2
f 73/5/2 74/6/2 75/7/2
f 73/5/2 76/8/2 74/6/2
f 77/5/2 78/6/2 79/7/2
f 77/5/2 80/8/2 78/6/2
f 81/9/2 82/7/2 83/3/2
f 81/9/2 84/5/2 82/7/2
f 85/9/2 86/7/2 87/3/2
f 85/9/2 88/5/2 86/7/2
f 89/9/2 90/7/2 91/3/2
f 89/9/2 92/5/2 90/7/2
f 93/9/2 94/7/2 95/3/2
f 93/9/2 96/5/2 94/7/2
f 97/9/2 98/7/2 99/3/2
f 97/9/2 100/5/2 98/7/2
f 101/9/2 102/7/2 103/3/2
f 101/9/2 104/5/2 102/7/2
f 105/9/2 106/7/2 107/3/2
f 105/9/2 108/5/2 106/7/2
f 109/9/2 110/7/2 111/3/2
f 109/9/2 112/5/2 110/7/2
f 113/9/2 114/7/2 115/3/2
f 113/9/2 116/5/2 114/7/2
f 117/9/2 118/7/2 119/3/2
f 117/9/2 120/5/2 118/7/2
f 121/9/2 122/7/2 123/3/2
f 121/9/2 124/5/2 122/7/2
f 125/9/2 126/7/2 127/3/2
f 125/9/2 128/5/2 126/7/2
f 129/9/3 130/7/3 131/3/3
f 129/9/3 132/5/3 130/7/3
f 133/9/3 134/7/3 135/3/3
f 133/9/3 136/5/3 134/7/3
f 137/9/3 138/7/3 139/3/3
f 137/9/3 140/5/3 138/7/3
f 141/9/3 142/7/3 143/3/3
f 141/9/3 144/5/3 142/7/3
f 145/9/3 146/7/3 147/3/3
f 145/9/3 148/5/3 146/7/3
f 149/9/3 150/7/3 151/3/3
f 149/9/3 152/5/3 150/7/3
f 153/9/3 154/7/3 155/3/3
f 153/9/3 156/5/3 154/7/3
f 157/9/3 158/7/3 159/3/3
f 157/9/3 160/5/3 158/7/3
f 161/9/3 162/7/3 163/3/3
f 161/9/3 164/5/3 162/7/3
f 165/9/3 166/7/3 167/3/3
f 165/9/3 168/5/3 166/7/3
f 169/9/3 170/7/3 171/3/3
f 169/9/3 172/5/3 170/7/3
f 173/9/3 174/7/3 175/3/3
f 173/9/3 176/5/3 174/7/3
f 177/5/3 178/6/3 179/7/3
f 177/5/3 180/8/3 178/6/3
f 181/5/3 182/6/3 183/7/3
f 181/5/3 184/8/3 182/6/3
f 185/5/3 186/6/3 187/7/3
f 185/5/3 188/8/3 186/6/3
f 189/5/3 190/6/3 191/7/3
f 189/5/3 192/8/3 190/6/3
f 193/9/4 194/7/4 195/3/4
f 193/9/4 196/5/4 194/7/4
f 197/9/4 198/7/4 199/3/4
f 197/9/4 200/5/4 198/7/4
f 201/9/4 202/7/4 203/3/4
f 201/9/4 204/5/4 202/7/4
f 205/9/4 206/7/4 207/3/4
f 205/9/4 208/5/4 206/7/4
f 209/9/4 210/7/4 211/3/4
f 209/9/4 212/5/4 210/7/4
f 213/9/4 214/7/4 215/3/4
f 213/9/4 216/5/4 214/7/4
f 217/9/4 218/7/4 219/3/4
f 217/9/4 220/5/4 218/7/4
f 221/9/4 222/7/4 223/3/4
f 221/9/4 224/5/4 222/7/4
f 225/9/4 226/7/4 227/3/4
f 225/9/4 228/5/4 226/7/4
f 229/9/4 230/7/4 231/3/4
f 229/9/4 232/5/4 230/7/4
f 233/9/4 234/7/4 235/3/4
f 233/9/4 236/5/4 234/7/4
f 237/9/4 238/7/4 239/3/4
f 237/9/4 240/5/4 238/7/4
f 241/5/4 242/6/4 243/7/4
f 241/5/4 244/8/4 242/6/4
f 245/5/4 246/6/4 247/7/4
f 245/5/4 248/8/4 246/6/4
f 249/5/4 250/6/4 251/7/4
f 249/5/4 252/8/4 250/6/4
f 253/5/4 254/6/4 255/7/4
f 253/5/4 256/8/4 254/6/4
f 257/9/5 258/7/5 259/3/5
f 257/9/5 260/5/5 258/7/5
f 261/9/5 262/7/5 263/3/5
f 261/9/5 264/5/5 262/7/5
f 265/9/5 266/7/5 267/3/5
f 265/9/5 268/5/5 266/7/5
f 269/9/5 270/7/5 271/3/5
f 269/9/5 272/5/5 270/7/5
f 273/9/5 274/7/5 275/3/5
f 273/9/5 276/5/5 274/7/5
f 277/9/5 278/7/5 279/3/5
f 277/9/5 280/5/5 278/7/5
f 281/9/5 282/7/5 283/3/5
f 281/9/5 284/5/5 282/7/5
f 285/9/5 286/7/5 287/3/5
f 285/9/5 288/5/5 286/7/5
f 289/9/5 290/7/5 291/3/5
f 289/9/5 292/5/5 290/7/5
f 293/9/5 294/7/5 295/3/5
f 293/9/5 296/5/5 294/7/5
f 297/9/5 298/7/5 299/3/5
f 297/9/5 300/5/5 298/7/5
f 301/9/5 302/7/5 303/3/5
f 301/9/5 304/5/5 302/7/5
usemtl 1
f 305/10/5 306/6/5 307/3/5
f 305/10/5 308/11/5 306/6/5
f 309/12/5 310/11/5 311/10/5
f 309/12/5 312/13/5 310/11/5
f 313/11/5 314/14/5 315/6/5
f 313/11/5 316/15/5 314/14/5
f 317/13/5 318/15/5 319/11/5
f 317/13/5 320/16/5 318/15/5
usemtl 0
f 321/9/3 322/7/3 323/3/3
f 321/9/3 324/5/3 322/7/3
f 325/9/3 326/7/3 327/3/3
f 325/9/3 328/5/3 326/7/3
f 329/9/3 330/7/3 331/3/3
f 329/9/3 332/5/3 330/7/3
f 333/9/3 334/7/3 335/3/3
f 333/9/3 336/5/3 334/7/3
f 337/9/3 338/7/3 339/3/3
f 337/9/3 340/5/3 338/7/3
f 341/9/3 342/7/3 343/3/3
f 341/9/3 344/5/3 342/7/3
f 345/9/3 346/7/3 347/3/3
f 345/9/3 348/5/3 346/7/3
f 349/9/3 350/7/3 351/3/3
f 349/9/3 352/5/3 350/7/3
f 353/9/3 354/7/3 355/3/3
f 353/9/3 356/5/3 354/7/3
f 357/9/3 358/7/3 359/3/3
f 357/9/3 360/5/3 358/7/3
f 361/9/3 362/7/3 363/3/3
f 361/9/3 364/5/3 362/7/3
f 365/9/3 366/7/3 367/3/3
f 365/9/3 368/5/3 366/7/3
f 369/9/3 370/7/3 371/3/3
f 369/9/3 372/5/3 370/7/3
f 373/9/3 374/7/3 375/3/3
f 373/9/3 376/5/3 374/7/3
f 377/9/3 378/7/3 379/3/3
f 377/9/3 380/5/3 378/7/3
f 381/9/3 382/7/3 383/3/3
f 381/9/3 384/5/3 382/7/3
f 385/9/4 386/7/4 387/3/4
f 385/9/4 388/5/4 386/7/4
f 389/9/4 390/7/4 391/3/4
f 389/9/4 392/5/4 390/7/4
f 393/9/4 394/7/4 395/3/4
f 393/9/4 396/5/4 394/7/4
f 397/9/4 398/7/4 399/3/4
f 397/9/4 400/5/4 398/7/4
f 401/9/4 402/7/4 403/3/4
f 401/9/4 404/5/4 402/7/4
f 405/9/4 406/7/4 407/3/4
f 405/9/4 408/5/4 406/7/4
f 409/9/4 410/7/4 411/3/4
f 409/9/4 412/5/4 410/7/4
f 413/9/4 414/7/4 415/3/4
f 413/9/4 416/5/4 414/7/4
f 417/9/4 418/7/4 419/3/4
f 417/9/4 420/5/4 418/7/4
f 421/9/4 422/7/4 423/3/4
f 421/9/4 424/5/4 422/7/4
f 425/9/4 426/7/4 427/3/4
f 425/9/4 428/5/4 426/7/4
f 429/9/4 430/7/4 431/3/4
f 429/9/4 432/5/4 430/7/4
f 433/9/4 434/7/4 435/3/4
f 433/9/4 436/5/4 434/7/4
f 437/9/4 438/7/4 439/3/4
f 437/9/4 440/5/4 438/7/4
f 441/9/4 442/7/4 443/3/4
f 441/9/4 444/5/4 442/7/4
f 445/9/4 446/7/4 447/3/4
f 445/9/4 448/5/4 446/7/4
f 449/9/2 450/7/2 451/3/2
f 449/9/2 452/5/2 450/7/2
f 453/9/2 454/7/2 455/3/2
f 453/9/2 456/5/2 454/7/2
f 457/9/2 458/7/2 459/3/2
f 457/9/2 460/5/2 458/7/2
f 461/9/2 462/7/2 463/3/2
f 461/9/2 464/5/2 462/7/2
f 465/9/2 466/7/2 467/3/2
f 465/9/2 468/5/2 466/7/2
f 469/9/2 470/7/2 471/3/2
f 469/9/2 472/5/2 470/7/2
f 473/9/2 474/7/2 475/3/2
f 473/9/2 476/5/2 474/7/2
f 477/9/2 478/7/2 479/3/2
f 477/9/2 480/5/2 478/7/2
f 481/9/2 482/7/2 483/3/2
f 481/9/2 484/5/2 482/7/2
f 485/9/2 486/7/2 487/3/2
f 485/9/2 488/5/2 486/7/2
f 489/9/2 490/7/2 491/3/2
f 489/9/2 492/5/2 490/7/2
f 493/9/2 494/7/2 495/3/2
f 493/9/2 496/5/2 494/7/2
f 497/9/2 498/7/2 499/3/2
f 497/9/2 500/5/2 498/7/2
f 501/9/2 502/7/2 503/3/2
f 501/9/2 504/5/2 502/7/2
f 505/9/2 506/7/2 507/3/2
f 505/9/2 508/5/2 506/7/2
f 509/9/2 510/7/2 511/3/2
f 509/9/2 512/5/2 510/7/2
f 513/9/1 514/7/1 515/3/1
f 513/9/1 516/5/1 514/7/1
f 517/9/1 518/7/1 519/3/1
f 517/9/1 520/5/1 518/7/1
f 521/9/1 522/7/1 523/3/1
f 521/9/1 524/5/1 522/7/1
f 525/9/1 526/7/1 527/3/1
f 525/9/1 528/5/1 526/7/1
f 529/9/1 530/7/1 531/3/1
f 529/9/1 532/5/1 530/7/1
f 533/9/1 534/7/1 535/3/1
f 533/9/1 536/5/1 534/7/1
f 537/9/1 538/7/1 539/3/1
f 537/9/1 540/5/1 538/7/1
f 541/9/1 542/7/1 543/3/1
f 541/9/1 544/5/1 542/7/1
f 545/9/1 546/7/1 547/3/1
f 545/9/1 548/5/1 546/7/1
f 549/9/1 550/7/1 551/3/1
f 549/9/1 552/5/1 550/7/1
f 553/9/1 554/7/1 555/3/1
f 553/9/1 556/5/1 554/7/1
f 557/9/1 558/7/1 559/3/1
f 557/9/1 560/5/1 558/7/1
f 561/9/1 562/7/1 563/3/1
f 561/9/1 564/5/1 562/7/1
f 565/9/1 566/7/1 567/3/1
f 565/9/1 568/5/1 566/7/1
f 569/9/1 570/7/1 571/3/1
f 569/9/1 572/5/1 570/7/1
f 573/9/1 574/7/1 575/3/1
f 573/9/1 576/5/1 574/7/1
f 577/5/1 578/6/1 579/7/1
f 577/5/1 580/8/1 578/6/1
f 581/5/1 582/6/1 583/7/1
f 581/5/1 584/8/1 582/6/1
f 585/5/1 586/6/1 587/7/1
f 585/5/1 588/8/1 586/6/1
f 589/5/4 590/6/4 591/7/4
f 589/5/4 592/8/4 590/6/4
f 593/9/1 594/7/1 595/3/1
f 593/9/1 596/5/1 594/7/1
f 597/9/1 598/7/1 599/3/1
f 597/9/1 600/5/1 598/7/1
f 601/9/1 602/7/1 603/3/1
f 601/9/1 604/5/1 602/7/1
f 605/9/1 606/7/1 607/3/1
f 605/9/1 608/5/1 606/7/1
f 609/9/1 610/7/1 611/3/1
f 609/9/1 612/5/1 610/7/1
f 613/9/1 614/7/1 615/3/1
f 613/9/1 616/5/1 614/7/1
f 617/9/1 618/7/1 619/3/1
f 617/9/1 620/5/1 618/7/1
f 621/9/1 622/7/1 623/3/1
f 621/9/1 624/5/1 622/7/1
f 625/9/1 626/7/1 627/3/1
f 625/9/1 628/5/1 626/7/1
f 629/9/1 630/7/1 631/3/1
f 629/9/1 632/5/1 630/7/1
f 633/9/1 634/7/1 635/3/1
f 633/9/1 636/5/1 634/7/1
f 637/9/1 638/7/1 639/3/1
f 637/9/1 640/5/1 638/7/1
f 641/9/1 642/7/1 643/3/1
f 641/9/1 644/5/1 642/7/1
f 645/9/1 646/7/1 647/3/1
f 645/9/1 648/5/1 646/7/1
f 649/9/1 650/7/1 651/3/1
f 649/9/1 652/5/1 650/7/1
f 653/9/1 654/7/1 655/3/1
f 653/9/1 656/5/1 654/7/1
f 657/9/5 658/7/5 659/3/5
f 657/9/5 660/5/5 658/7/5
f 661/9/5 662/7/5 663/3/5
f 661/9/5 664/5/5 662/7/5
f 665/9/5 666/7/5 667/3/5
f 665/9/5 668/5/5 666/7/5
f 669/9/5 670/7/5 671/3/5
f 669/9/5 672/5/5 670/7/5
f 673/9/5 674/7/5 675/3/5
f 673/9/5 676/5/5 674/7/5
f 677/9/5 678/7/5 679/3/5
f 677/9/5 680/5/5 678/7/5
f 681/9/5 682/7/5 683/3/5
f 681/9/5 684/5/5 682/7/5
f 685/9/5 686/7/5 687/3/5
f 685/9/5 688/5/5 686/7/5
f 689/9/5 690/7/5 691/3/5
f 689/9/5 692/5/5 690/7/5
f 693/9/5 694/7/5 695/3/5
f 693/9/5 696/5/5 694/7/5
f 697/9/5 698/7/5 699/3/5
f 697/9/5 700/5/5 698/7/5
f 701/9/5 702/7/5 703/3/5
f 701/9/5 704/5/5 702/7/5
f 705/9/5 706/7/5 707/3/5
f 705/9/5 708/5/5 706/7/5
f 709/9/5 710/7/5 711/3/5
f 709/9/5 712/5/5 710/7/5
f 713/9/5 714/7/5 715/3/5
f 713/9/5 716/5/5 714/7/5
f 717/9/5 718/7/5 719/3/5
f 717/9/5 720/5/5 718/7/5
f 721/9/3 722/7/3 723/3/3
f 721/9/3 724/5/3 722/7/3
f 725/9/3 726/7/3 727/3/3
f 725/9/3 728/5/3 726/7/3
f 729/9/3 730/7/3 731/3/3
f 729/9/3 732/5/3 730/7/3
f 733/9/3 734/7/3 735/3/3
f 733/9/3 736/5/3 734/7/3
f 737/9/3 738/7/3 739/3/3
f 737/9/3 740/5/3 738/7/3
f 741/9/3 742/7/3 743/3/3
f 741/9/3 744/5/3 742/7/3
f 745/9/3 746/7/3 747/3/3
f 745/9/3 748/5/3 746/7/3
f 749/9/3 750/7/3 751/3/3
f 749/9/3 752/5/3 750/7/3
f 753/9/3 754/7/3 755/3/3
f 753/9/3 756/5/3 754/7/3
f 757/9/3 758/7/3 759/3/3
f 757/9/3 760/5/3 758/7/3
f 761/9/3 762/7/3 763/3/3
f 761/9/3 764/5/3 762/7/3
f 765/9/3 766/7/3 767/3/3
f 765/9/3 768/5/3 766/7/3
f 769/9/3 770/7/3 771/3/3
f 769/9/3 772/5/3 770/7/3
f 773/9/3 774/7/3 775/3/3
f 773/9/3 776/5/3 774/7/3
f 777/9/3 778/7/3 779/3/3
f 777/9/3 780/5/3 778/7/3
f 781/9/3 782/7/3 783/3/3
f 781/9/3 784/5/3 782/7/3
f 785/5/1 786/6/1 787/7/1
f 785/5/1 788/8/1 786/6/1
f 789/5/1 790/6/1 791/7/1
f 789/5/1 792/8/1 790/6/1
f 793/5/1 794/6/1 795/7/1
f 793/5/1 796/8/1 794/6/1
f 797/5/1 798/6/1 799/7/1
f 797/5/1 800/8/1 798/6/1
f 801/5/1 802/6/1 803/7/1
f 801/5/1 804/8/1 802/6/1
f 805/5/1 806/6/1 807/7/1
f 805/5/1 808/8/1 806/6/1
f 809/5/1 810/6/1 811/7/1
f 809/5/1 812/8/1 810/6/1
f 813/5/1 814/6/1 815/7/1
f 813/5/1 816/8/1 814/6/1
f 817/5/1 818/6/1 819/7/1
f 817/5/1 820/8/1 818/6/1
f 821/5/1 822/6/1 823/7/1
f 821/5/1 824/8/1 822/6/1
f 825/5/1 826/6/1 827/7/1
f 825/5/1 828/8/1 826/6/1
f 829/5/1 830/6/1 831/7/1
f 829/5/1 832/8/1 830/6/1
f 833/9/6 834/7/6 835/3/6
f 833/9/6 836/5/6 834/7/6
f 837/9/6 838/7/6 839/3/6
f 837/9/6 840/5/6 838/7/6
f 841/9/6 842/7/6 843/3/6
f 841/9/6 844/5/6 842/7/6
f 845/9/6 846/7/6 847/3/6
f 845/9/6 848/5/6 846/7/6
f 849/9/6 850/7/6 851/3/6
f 849/9/6 852/5/6 850/7/6
f 853/9/6 854/7/6 855/3/6
f 853/9/6 856/5/6 854/7/6
f 857/9/6 858/7/6 859/3/6
f 857/9/6 860/5/6 858/7/6
f 861/9/6 862/7/6 863/3/6
f 861/9/6 864/5/6 862/7/6
f 865/9/6 866/7/6 867/3/6
f 865/9/6 868/5/6 866/7/6
f 869/9/6 870/7/6 871/3/6
f 869/9/6 872/5/6 870/7/6
f 873/9/6 874/7/6 875/3/6
f 873/9/6 876/5/6 874/7/6
f 877/9/6 878/7/6 879/3/6
f 877/9/6 880/5/6 878/7/6
f 881/9/6 882/7/6 883/3/6
f 881/9/6 884/5/6 882/7/6
f 885/9/6 886/7/6 887/3/6
f 885/9/6 888/5/6 886/7/6
f 889/9/6 890/7/6 891/3/6
f 889/9/6 892/5/6 890/7/6
f 893/9/6 894/7/6 895/3/6
f 893/9/6 896/5/6 894/7/6
f 897/9/6 898/7/6 899/3/6
f 897/9/6 900/5/6 898/7/6
f 901/9/6 902/7/6 903/3/6
f 901/9/6 904/5/6 902/7/6
f 905/9/6 906/7/6 907/3/6
f 905/9/6 908/5/6 906/7/6
f 909/9/6 910/7/6 911/3/6
f 909/9/6 912/5/6 910/7/6
f 913/9/6 914/7/6 915/3/6
f 913/9/6 916/5/6 914/7/6
f 917/9/6 918/7/6 919/3/6
f 917/9/6 920/5/6 918/7/6
f 921/9/6 922/7/6 923/3/6
f 921/9/6 924/5/6 922/7/6
f 925/9/6 926/7/6 927/3/6
f 925/9/6 928/5/6 926/7/6
f 929/9/6 930/7/6 931/3/6
f 929/9/6 932/5/6 930/7/6
f 933/9/6 934/7/6 935/3/6
f 933/9/6 936/5/6 934/7/6
f 937/9/6 938/7/6 939/3/6
f 937/9/6 940/5/6 938/7/6
f 941/9/6 942/7/6 943/3/6
f 941/9/6 944/5/6 942/7/6
f 945/9/6 946/7/6 947/3/6
f 945/9/6 948/5/6 946/7/6
f 949/9/6 950/7/6 951/3/6
f 949/9/6 952/5/6 950/7/6
f 953/9/6 954/7/6 955/3/6
f 953/9/6 956/5/6 954/7/6
f 957/9/6 958/7/6 959/3/6
f 957/9/6 960/5/6 958/7/6
f 961/9/6 962/7/6 963/3/6
f 961/9/6 964/5/6 962/7/6
f 965/9/6 966/7/6 967/3/6
f 965/9/6 968/5/6 966/7/6
f 969/9/6 970/7/6 971/3/6
f 969/9/6 972/5/6 970/7/6
f 973/9/6 974/7/6 975/3/6
f 973/9/6 976/5/6 974/7/6
f 977/9/6 978/7/6 979/3/6
f 977/9/6 980/5/6 978/7/6
f 981/9/6 982/7/6 983/3/6
f 981/9/6 984/5/6 982/7/6
f 985/9/6 986/7/6 987/3/6
f 985/9/6 988/5/6 986/7/6
f 989/9/6 990/7/6 991/3/6
f 989/9/6 992/5/6 990/7/6
f 993/9/6 994/7/6 995/3/6
f 993/9/6 996/5/6 994/7/6
f 997/9/6 998/7/6 999/3/6
f 997/9/6 1000/5/6 998/7/6
f 1001/9/6 1002/7/6 1003/3/6
f 1001/9/6 1004/5/6 1002/7/6
f 1005/9/6 1006/7/6 1007/3/6
f 1005/9/6 1008/5/6 1006/7/6
f 1009/9/6 1010/7/6 1011/3/6
f 1009/9/6 1012/5/6 1010/7/6
f 1013/9/6 1014/7/6 1015/3/6
f 1013/9/6 1016/5/6 1014/7/6
f 1017/9/6 1018/7/6 1019/3/6
f 1017/9/6 1020/5/6 1018/7/6
f 1021/9/6 1022/7/6 1023/3/6
f 1021/9/6 1024/5/6 1022/7/6
f 1025/9/4 1026/7/4 1027/3/4
f 1025/9/4 1028/5/4 1026/7/4
f 1029/9/4 1030/7/4 1031/3/4
f 1029/9/4 1032/5/4 1030/7/4
f 1033/9/4 1034/7/4 1035/3/4
f 1033/9/4 1036/5/4 1034/7/4
f 1037/9/4 1038/7/4 1039/3/4
f 1037/9/4 1040/5/4 1038/7/4
f 1041/9/4 1042/7/4 1043/3/4
f 1041/9/4 1044/5/4 1042/7/4
f 1045/9/4 1046/7/4 1047/3/4
f 1045/9/4 1048/5/4 1046/7/4
f 1049/9/4 1050/7/4 1051/3/4
f 1049/9/4 1052/5/4 1050/7/4
f 1053/9/4 1054/7/4 1055/3/4
f 1053/9/4 1056/5/4 1054/7/4
f 1057/5/4 1058/6/4 1059/7/4
f 1057/5/4 1060/8/4 1058/6/4
f 1061/5/4 1062/6/4 1063/7/4
f 1061/5/4 1064/8/4 1062/6/4
f 1065/5/4 1066/6/4 1067/7/4
f 1065/5/4 1068/8/4 1066/6/4
f 1069/5/4 1070/6/4 1071/7/4
f 1069/5/4 1072/8/4 1070/6/4
f 1073/5/4 1074/6/4 1075/7/4
f 1073/5/4 1076/8/4 1074/6/4
f 1077/5/4 1078/6/4 1079/7/4
f 1077/5/4 1080/8/4 1078/6/4
f 1081/5/4 1082/6/4 1083/7/4
f 1081/5/4 1084/8/4 1082/6/4
f 1085/5/4 1086/6/4 1087/7/4
f 1085/5/4 1088/8/4 1086/6/4
f 1089/5/2 1090/6/2 1091/7/2
f 1089/5/2 1092/8/2 1090/6/2
f 1093/5/4 1094/6/4 1095/7/4
f 1093/5/4 1096/8/4 1094/6/4
f 1097/5/4 1098/6/4 1099/7/4
f 1097/5/4 1100/8/4 1098/6/4
f 1101/5/4 1102/6/4 1103/7/4
f 1101/5/4 1104/8/4 1102/6/4
f 1105/5/4 1106/6/4 1107/7/4
f 1105/5/4 1108/8/4 1106/6/4
f 1109/5/4 1110/6/4 1111/7/4
f 1109/5/4 1112/8/4 1110/6/4
f 1113/5/4 1114/6/4 1115/7/4
f 1113/5/4 1116/8/4 1114/6/4
f 1117/5/4 1118/6/4 1119/7/4
f 1117/5/4 1120/8/4 1118/6/4
f 1121/9/4 1122/7/4 1123/3/4
f 1121/9/4 1124/5/4 1122/7/4
f 1125/9/4 1126/7/4 1127/3/4
f 1125/9/4 1128/5/4 1126/7/4
f 1129/9/4 1130/7/4 1131/3/4
f 1129/9/4 1132/5/4 1130/7/4
f 1133/9/4 1134/7/4 1135/3/4
f 1133/9/4 1136/5/4 1134/7/4
f 1137/9/4 1138/7/4 1139/3/4
f 1137/9/4 1140/5/4 1138/7/4
f 1141/9/4 1142/7/4 1143/3/4
f 1141/9/4 1144/5/4 1142/7/4
f 1145/9/4 1146/7/4 1147/3/4
f 1145/9/4 1148/5/4 1146/7/4
f 1149/9/4 1150/7/4 1151/3/4
f 1149/9/4 1152/5/4 1150/7/4
f 1153/9/4 1154/7/4 1155/3/4
f 1153/9/4 1156/5/4 1154/7/4
f 1157/9/4 1158/7/4 1159/3/4
f 1157/9/4 1160/5/4 1158/7/4
f 1161/9/4 1162/7/4 1163/3/4
f 1161/9/4 1164/5/4 1162/7/4
f 1165/9/4 1166/7/4 1167/3/4
f 1165/9/4 1168/5/4 1166/7/4
f 1169/9/4 1170/7/4 1171/3/4
f 1169/9/4 1172/5/4 1170/7/4
f 1173/9/4 1174/7/4 1175/3/4
f 1173/9/4 1176/5/4 1174/7/4
f 1177/9/4 1178/7/4 1179/3/4
f 1177/9/4 1180/5/4 1178/7/4
f 1181/9/4 1182/7/4 1183/3/4
f 1181/9/4 1184/5/4 1182/7/4
f 1185/9/4 1186/7/4 1187/3/4
f 1185/9/4 1188/5/4 1186/7/4
f 1189/9/4 1190/7/4 1191/3/4
f 1189/9/4 1192/5/4 1190/7/4
f 1193/9/4 1194/7/4 1195/3/4
f 1193/9/4 1196/5/4 1194/7/4
f 1197/9/4 1198/7/4 1199/3/4
f 1197/9/4 1200/5/4 1198/7/4
f 1201/9/4 1202/7/4 1203/3/4
f 1201/9/4 1204/5/4 1202/7/4
f 1205/9/4 1206/7/4 1207/3/4
f 1205/9/4 1208/5/4 1206/7/4
f 1209/9/4 1210/7/4 1211/3/4
f 1209/9/4 1212/5/4 1210/7/4
f 1213/9/4 1214/7/4 1215/3/4
f 1213/9/4 1216/5/4 1214/7/4
f 1217/9/5 1218/7/5 1219/3/5
f 1217/9/5 1220/5/5 1218/7/5
f 1221/9/5 1222/7/5 1223/3/5
f 1221/9/5 1224/5/5 1222/7/5
f 1225/9/5 1226/7/5 1227/3/5
f 1225/9/5 1228/5/5 1226/7/5
f 1229/9/5 1230/7/5 1231/3/5
f 1229/9/5 1232/5/5 1230/7/5
f 1233/9/5 1234/7/5 1235/3/5
f 1233/9/5 1236/5/5 1234/7/5
f 1237/9/5 1238/7/5 1239/3/5
f 1237/9/5 1240/5/5 1238/7/5
f 1241/9/5 1242/7/5 1243/3/5
f 1241/9/5 1244/5/5 1242/7/5
f 1245/9/5 1246/7/5 1247/3/5
f 1245/9/5 1248/5/5 1246/7/5
f 1249/9/5 1250/7/5 1251/3/5
f 1249/9/5 1252/5/5 1250/7/5
f 1253/9/5 1254/7/5 1255/3/5
f 1253/9/5 1256/5/5 1254/7/5
f 1257/9/5 1258/7/5 1259/3/5
f 1257/9/5 1260/5/5 1258/7/5
f 1261/9/5 1262/7/5 1263/3/5
f 1261/9/5 1264/5/5 1262/7/5
f 1265/9/5 1266/7/5 1267/3/5
f 1265/9/5 1268/5/5 1266/7/5
f 1269/9/5 1270/7/5 1271/3/5
f 1269/9/5 1272/5/5 1270/7/5
f 1273/9/5 1274/7/5 1275/3/5
f 1273/9/5 1276/5/5 1274/7/5
f 1277/9/5 1278/7/5 1279/3/5
f 1277/9/5 1280/5/5 1278/7/5
f 1281/5/2 1282/6/2 1283/7/2
f 1281/5/2 1284/8/2 1282/6/2
f 1285/5/2 1286/6/2 1287/7/2
f 1285/5/2 1288/8/2 1286/6/2
f 1289/5/2 1290/6/2 1291/7/2
f 1289/5/2 1292/8/2 1290/6/2
f 1293/5/2 1294/6/2 1295/7/2
f 1293/5/2 1296/8/2 1294/6/2
f 1297/5/2 1298/6/2 1299/7/2
f 1297/5/2 1300/8/2 1298/6/2
f 1301/5/2 1302/6/2 1303/7/2
f 1301/5/2 1304/8/2 1302/6/2
f 1305/5/2 1306/6/2 1307/7/2
f 1305/5/2 1308/8/2 1306/6/2
f 1309/5/2 1310/6/2 1311/7/2
f 1309/5/2 1312/8/2 1310/6/2
f 1313/5/2 1314/6/2 1315/7/2
f 1313/5/2 1316/8/2 1314/6/2
f 1317/5/2 1318/6/2 1319/7/2
f 1317/5/2 1320/8/2 1318/6/2
f 1321/5/2 1322/6/2 1323/7/2
f 1321/5/2 1324/8/2 1322/6/2
f 1325/5/2 1326/6/2 1327/7/2
f 1325/5/2 1328/8/2 1326/6/2
f 1329/5/2 1330/6/2 1331/7/2
f 1329/5/2 1332/8/2 1330/6/2
f 1333/5/2 1334/6/2 1335/7/2
f 1333/5/2 1336/8/2 1334/6/2
f 1337/5/2 1338/6/2 1339/7/2
f 1337/5/2 1340/8/2 1338/6/2
f 1341/5/1 1342/6/1 1343/7/1
f 1341/5/1 1344/8/1 1342/6/1
f 1345/9/5 1346/7/5 1347/3/5
f 1345/9/5 1348/5/5 1346/7/5
f 1349/9/5 1350/7/5 1351/3/5
f 1349/9/5 1352/5/5 1350/7/5
f 1353/9/5 1354/7/5 1355/3/5
f 1353/9/5 1356/5/5 1354/7/5
f 1357/9/5 1358/7/5 1359/3/5
f 1357/9/5 1360/5/5 1358/7/5
f 1361/9/3 1362/7/3 1363/3/3
f 1361/9/3 1364/5/3 1362/7/3
f 1365/9/3 1366/7/3 1367/3/3
f 1365/9/3 1368/5/3 1366/7/3
f 1369/9/3 1370/7/3 1371/3/3
f 1369/9/3 1372/5/3 1370/7/3
f 1373/9/3 1374/7/3 1375/3/3
f 1373/9/3 1376/5/3 1374/7/3
f 1377/9/6 1378/7/6 1379/3/6
f 1377/9/6 1380/5/6 1378/7/6
f 1381/9/6 1382/7/6 1383/3/6
f 1381/9/6 1384/5/6 1382/7/6
f 1385/9/6 1386/7/6 1387/3/6
f 1385/9/6 1388/5/6 1386/7/6
f 1389/9/6 1390/7/6 1391/3/6
f 1389/9/6 1392/5/6 1390/7/6
f 1393/9/2 1394/7/2 1395/3/2
f 1393/9/2 1396/5/2 1394/7/2
f 1397/9/2 1398/7/2 1399/3/2
f 1397/9/2 1400/5/2 1398/7/2
f 1401/9/2 1402/7/2 1403/3/2
f 1401/9/2 1404/5/2 1402/7/2
f 1405/9/2 1406/7/2 1407/3/2
f 1405/9/2 1408/5/2 1406/7/2
